<?xml version="1.0" encoding="UTF-8"?>
<!DOCTYPE svg PUBLIC "-//W3C//DTD SVG 1.1//EN" "http://www.w3.org/Graphics/SVG/1.1/DTD/svg11.dtd">
<!-- Creator: CorelDRAW X5 -->
<svg xmlns="http://www.w3.org/2000/svg" xml:space="preserve" width="440mm" height="109.014mm" style="shape-rendering:geometricPrecision; text-rendering:geometricPrecision; image-rendering:optimizeQuality; fill-rule:evenodd; clip-rule:evenodd"
viewBox="0 0 440 109.014"
 xmlns:xlink="http://www.w3.org/1999/xlink">
 <defs>
  <style type="text/css">
   <![CDATA[
    .fil0 {fill:#4D4D4D;fill-rule:nonzero}
   ]]>
  </style>
 </defs>
 <g id="Layer_x0020_1">
  <metadata id="CorelCorpID_0Corel-Layer"/>
  <g id="_698822904">
   <path id="_698823408" class="fil0" d="M-0 43.0869c2.0201,-0.595 3.9494,-1.5338 5.755,-2.8015 1.9337,-1.4632 3.4743,-3.3772 4.3296,-5.6598 1.2837,-3.3854 0.874,-7.2527 -0.8775,-10.2147 -0.4244,-0.7521 -0.9287,-1.4445 -1.4825,-2.0732 -0.5514,-0.6277 -1.1295,-1.1426 -1.7648,-1.5766 -1.2488,-0.8897 -2.6681,-1.4259 -4.0378,-1.6509 -0.6618,-0.1119 -1.3049,-0.1514 -1.922,-0.1321l0 -6.6684c1.0268,0.0482 2.0758,0.1942 3.1309,0.4557 1.5098,0.3657 3.0221,0.959 4.4328,1.7728 -0.4026,-0.5371 -0.7298,-0.9655 -0.9418,-1.2892 -1.0085,-1.5063 -1.703,-3.0328 -2.2204,-4.318 -0.5099,-1.261 -0.9434,-2.4901 -0.9434,-2.4901 0,0 1.3414,0.128 2.7951,0.6277 1.4329,0.5023 3.2786,1.4678 4.7849,3.1511 0.7546,0.8422 2.0464,2.7668 3.0545,5.359 0.6899,1.7465 1.2119,3.8021 1.4268,5.9158 0.2863,-0.8978 0.6783,-1.7521 1.047,-2.5214 0.5999,-1.219 1.2706,-2.4496 1.2706,-2.4496 0,0 1.2706,0.7182 2.3732,1.8517 1.0936,1.1199 2.2331,2.8922 2.4501,5.0601 0.1148,1.09 0.0132,3.3701 -1.0586,5.8647 -3.4597,8.0731 -8.7797,12.7588 -17.8694,15.6024 -1.2463,0.3902 -2.4973,0.6657 -3.7323,0.8349l0 -2.6504zm0 -9.7938c1.0152,-0.0972 1.9635,-0.4131 1.9635,-0.4131 0,0 -0.7344,0.9484 -1.8279,1.6601 -0.0439,0.0283 -0.0893,0.0566 -0.1356,0.085l0 -1.332z"/>
   <path id="_698823576" class="fil0" d="M208.823 21.6473c4.8617,1.179 6.8323,5.3103 6.9047,7.5637 0.2149,6.4889 -3.7414,8.683 -8.2314,10.6041 2.052,-6.2037 -1.1441,-6.3225 -0.5574,-12.4913 -0.3111,2.3085 -1.0733,6.193 -4.7586,7.9244 -3.9801,1.878 -8.5439,-0.8209 -8.5439,-0.8209 0,0 7.8449,-4.3302 4.2634,-11.2227 0.0146,0.3273 0.0116,0.6398 -0.0152,0.9393 -0.0825,1.1623 -0.3713,2.1178 -0.6722,2.8335 -1.2084,2.8598 -3.8062,4.6872 -6.3119,5.2269 -1.2296,0.2893 -2.5533,0.3267 -3.709,0.0789 -1.1527,-0.2397 -2.1451,-0.7015 -2.9159,-1.2519 -1.5746,-1.0996 -2.2969,-2.4607 -2.6064,-3.4151 -0.0855,-0.2661 -0.2327,-0.8907 -0.4082,-1.6535 1.001,0.5493 2.1446,0.8624 3.3686,0.8624 3.8739,0 7.0134,-3.1466 7.0134,-7.023 0,-3.8744 -3.1395,-7.0195 -7.0134,-7.0195 -1.3975,0 -2.7009,0.4193 -3.796,1.1224 -5.5269,3.5618 -6.7828,11.0846 -12.7502,14.1811 -2.1461,1.1218 -4.6169,1.6828 -7.0018,2.011 9.4787,1.4046 13.0577,7.2431 13.1078,7.2588 -0.0263,0.0313 -8.895,7.4817 -29.7197,2.2498 2.578,2.1481 4.8481,4.67 7.1479,6.8045 3.0485,2.8476 8.6441,13.8174 10.7108,17.4516 2.0197,3.5643 4.399,6.9926 7.3827,9.8317 3.1253,2.9721 6.9962,5.3149 11.4042,5.5516 2.3525,0.1255 4.8082,0.2433 7.105,-0.2306 2.2822,-0.5078 4.4166,-1.4992 6.2385,-2.9018 3.6473,-2.8067 9.0837,-11.648 2.1198,-21.7251 -1.7425,-2.3858 -4.5608,-3.9498 -7.7377,-3.9498 -5.2937,0 -9.5965,4.3089 -9.5965,9.5981 0,4.2012 2.7227,7.7721 6.4874,9.069 -0.5407,0.1198 -1.2413,0.2367 -1.9838,0.2574 -1.6175,0.0248 -4.0555,-0.3712 -6.5602,-2.1982 -1.2438,-0.9069 -2.4764,-2.1714 -3.4405,-3.8162 -0.9817,-1.6333 -1.62,-3.6762 -1.8193,-5.6898 -0.4744,-4.1217 0.9686,-9.0416 4.7059,-12.3723 0.9444,-0.8331 2.2478,-1.7713 3.9827,-2.5032 1.6954,-0.7238 3.9392,-1.2316 6.2325,-1.22 4.5552,-0.0774 10.3547,1.7728 14.7152,6.24 1.3975,1.4062 2.6236,3.054 3.6129,4.8749 -0.0663,-0.835 -0.1401,-1.525 -0.1548,-2.0151 -0.088,-2.3115 0.1978,-4.4288 0.4896,-6.1616 0.2828,-1.7101 0.6454,-3.3231 0.6454,-3.3231 0,0 1.3682,1.0389 2.5978,2.5492 1.2236,1.5032 2.5675,3.7793 3.0687,6.6118 0.2595,1.4152 0.3687,4.3681 -0.2757,7.8475 -0.4228,2.3514 -1.2275,4.9163 -2.4157,7.3589 0.9049,-0.7936 1.9074,-1.4406 2.8153,-2.0318 1.4684,-0.9236 3.0105,-1.8042 3.0105,-1.8042 0,0 0.9049,1.6388 1.3414,3.5967 0.436,1.9408 0.4719,4.62 -0.743,7.1207 -0.6105,1.2442 -2.3322,3.5239 -5.0625,5.6244 -2.2903,1.7997 -5.2978,3.401 -8.5116,4.3352 0.8259,0.4699 5.9588,2.0774 5.673,7.3387 -0.4987,9.2394 -10.7674,6.2512 -10.7674,6.2512 0,0 6.8844,-2.2033 -0.3065,-10.6067 -1.9165,-2.2427 -6.7459,-1.838 -7.3134,-1.7753 -2.9731,0.2989 -5.8243,0.0425 -8.5748,-0.6171 -0.0122,0 -0.0354,-0.0066 -0.0501,-0.0081 0.3652,0.3607 0.6576,0.6965 0.8518,0.9929 2.8835,3.7788 1.1825,8.9972 0.9878,9.3118 -0.3181,-0.038 -5.0104,-0.9312 -7.8277,-3.0586 -0.168,-0.1543 -0.392,-0.3692 -0.6379,-0.6393 0.4492,4.5117 -1.8208,8.3285 -3.277,9.507 -3.5118,3.3787 -7.9724,3.0403 -10.287,2.1532 -2.4678,-0.872 -3.5527,-2.26 -3.6321,-2.2235 0.1624,-0.0026 10.5682,-2.6873 8.3851,-10.0073 -1.5983,-5.3883 -4.5142,-7.8818 -5.7079,-10.0532 -2.5624,-4.2351 -3.441,-10.0214 -2.6241,-13.7881 0.3566,-2.1552 0.8169,-3.8906 1.1704,-5.0307 -0.2504,-0.5417 -0.5073,-1.0915 -0.7546,-1.6443 -0.7076,7.2132 -6.0883,9.1741 -10.8439,7.6921 0,0 4.5199,-3.9042 -1.8249,-12.17 -2.7273,-3.5593 -1.4537,-8.897 -8.1697,-16.7121 -0.874,-1.0141 -1.9311,-1.8492 -3.0251,-2.6135 -3.9857,-2.7839 -8.6001,-4.9644 -13.2849,-6.1702 -5.672,-1.4562 -8.6339,-1.9266 -17.5653,-0.9893 11.5863,0.2002 18.4116,1.7531 28.3151,7.371 -0.9317,1.878 -2.1067,2.3423 -4.057,2.8066 6.4186,0.4406 10.0684,1.6414 12.7127,7.5653 -2.8036,1.6807 -9.0335,-3.6691 -5.6396,0.7587 1.7804,2.3236 3.402,5.151 4.4753,8.0614 2.919,7.9547 1.9842,15.2084 5.0357,19.7247 6.6745,9.8858 12.5418,3.2072 12.5418,3.2072 0,0 1.2074,9.7286 -7.633,10.4114 -4.5345,0.3515 -7.8424,-4.3266 -7.8485,-6.3427 -0.7076,4.2037 -2.2761,8.2531 -4.1865,11.4083 -2.2584,3.7788 -4.8703,6.3012 -6.368,7.2617 -2.9721,1.9125 -6.3655,2.2599 -8.8889,1.9984 -2.5507,-0.2488 -4.753,-1.139 -4.753,-1.139 0,0 0.8877,-2.092 1.8295,-4.0828 0.6029,-1.2428 1.2898,-2.5922 2.1451,-3.8699 -2.9043,1.8674 -6.0352,3.2826 -8.9451,4.1632 -4.3018,1.3515 -8.0457,1.655 -9.8843,1.5483 -3.6544,-0.2109 -6.7352,-1.5741 -8.8227,-2.8891 -2.099,-1.3308 -3.62,-2.9023 -3.62,-2.9023 0,0 1.9929,-0.7041 4.1066,-1.3252 2.1537,-0.6302 4.797,-1.3024 7.7155,-1.5452 0.6342,-0.0567 1.5098,-0.0744 2.5856,-0.1078 -10.1772,-4.0474 -14.7708,-11.6141 -15.7141,-21.0887 -0.5144,-5.1511 2.3201,-20.2047 18.9396,-21.1713 2.5856,-0.1451 6.545,0.7784 8.7564,1.7698 2.2174,0.9722 4.0095,2.3312 5.3362,3.7606 2.6888,2.8972 3.5618,5.9265 3.7621,7.9785 0.1477,1.4704 -0.0354,2.8446 -0.1548,3.5315 -1.6787,-4.4202 -5.9497,-7.5698 -10.9455,-7.5698 -5.9052,0 -10.7993,4.3974 -11.5863,10.0907 -0.1209,0.5023 -0.1684,1.047 -0.1209,1.6701 0,0.0395 0.0056,0.084 0.0116,0.1295 0.041,2.5604 0.5069,5.2325 1.9459,7.1409 2.3408,3.5866 5.0741,5.1779 9.8236,6.0772 1.3383,0.2564 2.745,0.0055 4.1217,-0.2039 5.5219,-0.7708 10.8378,-4.1677 13.8331,-9.208 1.5099,-2.5037 2.4324,-5.3666 2.7182,-8.324 0.2686,-2.965 -0.0233,-6.1146 -0.7693,-9.0325 -1.4683,-5.8896 -4.8618,-11.0457 -8.7417,-14.6935 -3.874,-3.7105 -8.2607,-5.7438 -11.6693,-7.1333 -1.4269,-0.5872 -2.8654,-1.1046 -4.269,-1.5649 -0.0323,0.0096 -0.0647,0.0263 -0.0941,0.0263 2.6621,1.0809 4.7687,2.2366 5.7019,2.9463 3.2781,2.4996 4.7965,8.201 1.4709,12.4927 -1.8457,-5.0155 -7.4899,-3.2614 -10.5166,-8.6279 0.5397,1.7328 0.3424,3.7024 -0.4977,4.7509 -2.2897,2.8629 -6.6867,2.3783 -6.6867,2.3783 0,0 3.6823,-4.319 -5.1333,-9.3067 -2.5032,-1.4152 -10.6992,2.7591 -14.5084,12.5367 -1.0642,2.7496 -1.9018,5.5264 -2.488,8.2112 -2.6033,12.0471 6.1586,13.4522 6.1586,13.4522 -4.0833,3.3848 -7.7245,3.4824 -11.1033,-0.3677 -0.7723,-0.8892 -1.9159,-3.2346 -2.0459,-6.1333 -0.0501,-0.8204 -0.0091,-1.6641 0.1001,-2.5224 -2.0045,3.9417 -4.1066,9.1853 -4.0464,13.2215 0.0278,4.3444 3.9994,1.176 7.7114,3.0662 3.7086,1.8952 4.275,4.8425 6.8607,4.7085 2.5841,0.0056 4.3569,-4.6599 4.4338,-4.7343 0,0 2.1684,4.2472 1.9312,9.466 -0.3951,3.9604 -3.576,9.2106 -9.458,11.0032 -1.4683,0.4416 -3.8678,0.8002 -6.9107,0.347 -2.1582,-0.307 -4.664,-1.1563 -6.9856,-2.6003 0.0794,0.1128 -3.143,-1.9848 -6.3093,-6.4196 -1.178,-1.9636 -1.8062,-3.6307 -2.3247,-5.7227 -0.9969,-4.0711 -0.3571,-8.376 1.0318,-11.6308 2.3379,-5.3918 6.0939,-9.1383 9.4357,-11.9485 -2.8152,1.3308 -6.0159,2.4835 -9.6096,3.4131 -0.0177,0.0066 -18.2351,5.1809 -18.8249,12.6223 -0.5705,7.1332 9.116,2.1036 9.116,2.1036 0,0 1.5377,7.6036 -4.5259,11.4649 -1.7187,1.0946 -5.0413,0.8928 -6.7923,-0.0753 6.1647,4.3685 2.3317,11.2388 11.0911,10.4619 -5.3508,2.6226 -10.5251,4.533 -16.361,-0.8563 -2.0111,-1.8553 -4.2619,-6.9704 -1.4729,-12.3997 -4.7288,1.3196 -2.2584,10.4792 -2.2878,10.5186 -0.0237,-0.0349 -5.6932,-4.5284 -6.3179,-12.9444 -0.6252,-8.4276 5.1445,-14.2752 11.1498,-17.3975 -5.8212,0.9464 -11.4184,0.4249 -17.1056,-0.9645 -1.5007,-0.3622 -2.9336,-0.7542 -4.4682,-0.9636 -2.7624,-0.3701 -5.4465,-0.1645 -7.9881,0.5851l0 -2.6526c1.55,-0.2129 3.0737,-0.258 4.5309,-0.1524 -0.6069,-0.1113 -1.1552,-0.2752 -1.273,-0.3283 -2.306,-0.8887 -3.09,-3.8613 -2.9721,-3.8613 0.1785,0.0501 2.4764,-0.9514 4.3058,-0.7738 0.1194,0.0227 0.2757,0.0586 0.4613,0.1097 -1.4294,-1.881 -1.4562,-4.1925 -1.1319,-5.1101 0.6357,-2.4612 2.7227,-3.4753 3.9801,-3.7545 0.8639,-0.1957 2.4855,-0.1957 2.4855,-0.1957 -1.7127,0.8811 -3.665,4.761 -1.2706,6.9183 2.1755,1.9569 4.1511,2.266 5.2654,2.9114 2.2938,1.183 4.2573,3.5082 4.9164,5.4064 0.1932,0.4674 0.352,0.9024 0.482,1.2944 9.6526,0.3849 20.85,-1.4592 29.1345,-3.2123 -6.4621,-0.6303 -11.2151,-3.4531 -12.7896,-4.658 -0.4122,-0.3191 -3.9564,-2.8431 -6.6184,-2.1708 -6.6396,1.6802 -6.6573,7.4959 -6.6573,7.4959 0,0 -5.6033,-4.3575 -2.8305,-10.6845 0.5898,-1.3631 3.2579,-3.4121 6.6836,-1.789 -2.0752,-2.2953 -3.6584,-5.0231 -4.5931,-7.5425 -1.1219,-2.9953 -1.3738,-5.6245 -1.2382,-6.9148 0.2595,-2.5543 1.5948,-4.6387 2.8891,-5.9588 1.2944,-1.3333 2.7981,-2.1825 2.7981,-2.1825 0,0 0.787,1.4506 1.4946,2.8866 0.4274,0.9069 0.8902,1.9068 1.2266,2.9741 0.2564,-2.4951 0.8725,-4.923 1.6863,-6.9735 1.1821,-3.0565 2.7005,-5.3296 3.5998,-6.3214 12.5509,-13.7917 26.122,-3.1881 26.122,-3.1881 0,0 -20.5911,-2.1765 -22.0225,8.2885 1.6585,-0.9696 3.4425,-1.661 5.2198,-2.095 5.6139,-1.3849 11.077,-0.0172 14.6323,2.2488 1.8072,1.1198 3.3347,2.6033 4.3165,4.0125 1.007,1.4193 1.5801,2.79 1.9074,3.9002 1.3206,4.45 0.0622,9.0331 -2.3232,12.0396 -1.1395,1.4966 -2.6387,2.793 -4.2042,3.6048 -1.5538,0.8158 -3.143,1.2169 -4.5552,1.3232 -2.8684,0.2174 -4.9841,-0.6546 -6.2446,-1.4679 -1.2913,-0.8381 -2.1547,-1.9579 -2.1547,-1.9579 0,0 1.3854,0.4613 2.7268,0.5174 1.3419,0.0465 3.099,-0.2124 4.6968,-1.1158 0.7961,-0.435 1.5402,-1.0247 2.139,-1.7298 0.6055,-0.699 1.045,-1.4926 1.4254,-2.4769 0.7223,-1.9038 0.7693,-4.0469 0.0207,-6.0135 -0.4011,-1.0146 -1.0586,-2.4455 -2.9073,-3.6979 -1.878,-1.314 -4.7672,-2.27 -8.0483,-1.7085 -1.613,0.2625 -3.2938,0.9008 -4.7676,1.9407 -0.7446,0.519 -1.4239,1.1219 -2.0667,1.8639 -0.6631,0.741 -1.2529,1.5548 -1.7542,2.4339 -2.0667,3.4981 -2.5472,8.0614 -1.0348,12.0431 0.743,1.9883 1.9473,3.8142 3.5052,5.3164 1.5614,1.4992 3.4849,2.7586 5.4823,3.6534 4.011,1.8386 8.4853,2.2432 12.3162,1.6873 3.8653,-0.527 7.0762,-1.9837 9.3467,-3.3999 0.483,-0.3136 0.9474,-0.6505 1.4269,-0.9717 12.5802,-8.4377 11.8797,-25.3926 7.3968,-27.5428 -3.8416,-1.8411 -6.7808,-1.5447 -9.0124,1.4765 0,0 0.7572,-8.7863 6.4389,-9.0468 3.4672,-0.1578 5.2593,1.1765 7.7776,3.0728 -1.4789,-4.2057 -4.5643,-3.5133 -7.8277,-5.622 -3.273,-2.1147 -2.1997,-2.8891 -3.9716,-3.3863 -1.7247,-0.524 -3.9771,0.6515 -3.9771,0.6515 0,0 0.2681,-1.5933 1.7628,-3.3338 1.3818,-1.7217 4.6558,-3.6159 8.288,-2.9827 1.7925,0.2368 13.8933,2.8219 11.7902,17.8274 -0.0815,0.6196 -0.5842,3.2447 -2.3414,6.408 0.4633,-0.8381 1.6661,-1.6064 2.4233,-2.1603 0.9145,-0.6671 1.8932,-1.2478 2.8911,-1.7809 2.0374,-1.0773 4.182,-1.9038 6.2988,-2.8304 3.4849,-1.5387 6.4393,-3.8805 9.4109,-6.2214 2.4738,-1.9518 2.6478,-3.1364 1.8279,-3.9938 -1.4415,-1.4885 -1.2291,-6.2617 -6.5567,-3.8112 3.1663,-7.4878 12.297,-7.4074 15.5463,-2.882 1.0966,1.528 3.532,10.0083 -6.1854,14.2721 8.3608,-1.1881 9.1145,-8.0199 15.1127,-13.7693 8.4909,-8.1282 26.6344,-1.3627 26.0598,4.9689 -7.4858,-2.5897 -9.511,-2.5401 -17.0586,6.3342 -4.5375,5.3275 -10.729,4.7489 -16.792,4.0398 3.2928,0.8002 6.7853,2.0004 10.4781,3.662 19.0267,7.9172 14.8458,-3.1593 29.3217,-9.7503 8.1141,-3.6939 4.4728,-13.1725 4.4728,-13.1725 0,0 5.2932,-0.0865 7.6952,3.5754 0.6601,1.0147 1.783,3.2255 1.701,6.0003 1.7557,-4.5471 6.1941,-9.0462 16.2357,-9.64 1.7824,-0.0991 3.3701,0.0643 4.4935,0.482 1.135,0.4244 2.0151,1.0147 2.0151,1.0147 0,0 -0.877,0.5311 -1.8239,1.047 -0.961,0.5149 -2.14,1.1072 -3.5082,1.5148 -0.0117,0.0071 -0.0147,0.0147 -0.0238,0.0147 6.3741,-0.83 13.3723,-0.396 19.1991,2.0025 0.9555,0.3252 1.8872,0.7673 2.7571,1.3368 6.492,4.3033 6.4803,12.3142 6.492,12.3466 -0.0385,0 -4.399,-6.4373 -7.7509,-4.2128zm-208.823 68.3895c1.9796,-0.0631 3.6934,-0.7363 4.9088,-1.5907 1.5715,-1.0617 2.1243,-2.2725 2.4602,-3.1334 0.6429,-1.6585 0.6059,-3.4885 -0.0071,-5.099 -0.3288,-0.8371 -0.702,-1.5148 -1.2149,-2.1086 -0.5099,-0.5959 -1.1411,-1.0946 -1.8133,-1.4709 -1.3591,-0.7552 -2.8507,-0.9782 -3.9887,-0.9373 -0.115,0.0048 -0.2304,0.013 -0.345,0.0241l0 -1.331c1.0835,-0.6636 2.8289,-1.3389 5.1622,-1.1664 1.2002,0.092 2.5442,0.4279 3.8683,1.1299 1.3267,0.6854 2.6004,1.785 3.5629,3.0536 2.0207,2.5532 3.0945,6.4383 1.9711,10.2171 -0.2802,0.9433 -0.7638,2.1056 -1.6216,3.3084 -0.8285,1.1957 -2.1244,2.4511 -3.659,3.4036 -2.343,1.4996 -5.6743,2.5357 -9.2839,2.3638l0 -6.6632z"/>
   <path id="_698822376" class="fil0" d="M231.177 87.3616c-4.866,-1.1681 -6.8353,-5.3097 -6.9046,-7.5591 -0.2183,-6.4937 3.7382,-8.6886 8.2256,-10.6034 -2.052,6.2016 1.1497,6.3238 0.5631,12.4872 0.3125,-2.3098 1.0731,-6.1891 4.7613,-7.922 3.9715,-1.8751 8.5382,0.8241 8.5382,0.8241 0,0 -7.8422,4.3228 -4.2631,11.2232 -0.0088,-0.331 -0.006,-0.647 0.0206,-0.9433 0.081,-1.1602 0.3716,-2.1146 0.6694,-2.8303 1.2116,-2.8613 3.8061,-4.6938 6.3181,-5.231 1.2235,-0.2897 2.5532,-0.3222 3.6972,-0.0811 1.1615,0.2433 2.152,0.7069 2.9231,1.2538 1.5727,1.1026 2.2922,2.458 2.6018,3.4169 0.0884,0.2683 0.233,0.8898 0.4127,1.6504 -1.0023,-0.5469 -2.1463,-0.8564 -3.3669,-0.8564 -3.8784,0 -7.0257,3.145 -7.0257,7.0153 0,3.8784 3.1473,7.0249 7.0257,7.0249 1.3945,0 2.6977,-0.4157 3.7944,-1.1239 5.5252,-3.5615 6.7782,-11.0826 12.7484,-14.1833 2.1433,-1.1196 4.617,-1.6857 7.0021,-2.0124 -9.4787,-1.4018 -13.0491,-7.2417 -13.1066,-7.2556 0.025,-0.0368 8.8935,-7.4885 29.7201,-2.2458 -2.5857,-2.1514 -4.8499,-4.6687 -7.1526,-6.806 -3.0455,-2.8496 -8.6383,-13.8193 -10.708,-17.4532 -2.0197,-3.5665 -4.3988,-6.9909 -7.3855,-9.8338 -3.1193,-2.9711 -6.9932,-5.3136 -11.398,-5.5502 -2.3555,-0.1215 -4.8114,-0.2469 -7.1081,0.2351 -2.2807,0.5073 -4.4225,1.4979 -6.2415,2.9026 -3.6471,2.8053 -9.0807,11.6464 -2.117,21.7235 1.7439,2.3845 4.5551,3.9463 7.7348,3.9463 5.2907,0 9.5981,-4.3066 9.5981,-9.5957 0,-4.2028 -2.7182,-7.771 -6.489,-9.069 0.5438,-0.1224 1.2471,-0.2409 1.9871,-0.2565 1.6185,-0.0227 4.0494,0.3649 6.5686,2.1929 1.2383,0.9095 2.4634,2.175 3.4289,3.8194 0.9848,1.6341 1.617,3.6722 1.819,5.6922 0.4747,4.1129 -0.964,9.038 -4.7023,12.3696 -0.9378,0.8337 -2.2497,1.7727 -3.9773,2.4993 -1.7041,0.7298 -3.9447,1.2398 -6.2387,1.228 -4.5579,0.0745 -10.3541,-1.7755 -14.7131,-6.2436 -1.399,-1.4056 -2.6255,-3.0581 -3.6131,-4.8764 0.0678,0.8401 0.1414,1.5286 0.1562,2.0188 0.0885,2.3069 -0.2005,4.4276 -0.4893,6.1573 -0.2861,1.7131 -0.6487,3.3273 -0.6487,3.3273 0,0 -1.3622,-1.0402 -2.5975,-2.5489 -1.2206,-1.5094 -2.568,-3.7817 -3.0691,-6.6165 -0.2565,-1.4168 -0.3686,-4.365 0.2786,-7.8433 0.4202,-2.3526 1.228,-4.9206 2.4131,-7.3572 -0.911,0.7892 -1.9076,1.4304 -2.8126,2.0291 -1.4653,0.9206 -3.0102,1.7999 -3.0102,1.7999 0,0 -0.9065,-1.6326 -1.3414,-3.5926 -0.4393,-1.9437 -0.4718,-4.6185 0.737,-7.1193 0.6162,-1.2477 2.335,-3.5284 5.0682,-5.6298 2.2849,-1.7939 5.2919,-3.3955 8.5116,-4.3309 -0.8256,-0.4687 -5.9644,-2.08 -5.6768,-7.3396 0.4995,-9.2436 10.7683,-6.2526 10.7683,-6.2526 0,0 -6.8841,2.206 0.3068,10.61 1.9163,2.2415 6.747,1.8325 7.3146,1.7771 2.9777,-0.3036 5.8228,-0.0471 8.5705,0.6067 0.0148,0.0058 0.0385,0.0148 0.0473,0.0176 -0.3539,-0.3597 -0.6517,-0.6973 -0.8491,-0.9949 -2.8834,-3.7777 -1.1823,-8.9982 -0.9848,-9.3114 0.3125,0.0383 5.0033,0.9243 7.8231,3.0567 0.1755,0.1517 0.3967,0.372 0.6384,0.6382 -0.4482,-4.5087 1.8205,-8.3296 3.2843,-9.5089 3.5085,-3.3737 7.9693,-3.0419 10.2793,-2.1478 2.4779,0.8697 3.5511,2.2554 3.6367,2.2193 -0.1607,0.006 -10.5681,2.691 -8.382,10.0071 1.5979,5.3917 4.5138,7.8837 5.7004,10.0542 2.5665,4.2389 3.4422,10.0234 2.6285,13.7929 -0.3539,2.1573 -0.8196,3.8917 -1.1675,5.0282 0.246,0.5387 0.5041,1.0916 0.7546,1.6459 0.7017,-7.2175 6.0823,-9.1751 10.8424,-7.6965 0,0 -4.5301,3.9079 1.8234,12.1727 2.73,3.5571 1.4536,8.8918 8.1668,16.7122 0.8712,1.0105 1.9311,1.8442 3.0308,2.6151 3.983,2.7802 8.6,4.9605 13.279,6.1685 5.6754,1.4565 8.6383,1.9208 17.5686,0.9893 -11.5867,-0.1969 -18.406,-1.7559 -28.3151,-7.3761 0.9317,-1.8698 2.1037,-2.3386 4.0568,-2.8029 -6.4244,-0.4371 -10.0595,-1.6429 -12.7189,-7.5653 2.8098,-1.6812 9.0365,3.6722 5.6461,-0.76 -1.7837,-2.3268 -3.4024,-5.1484 -4.4726,-8.0568 -2.9291,-7.9551 -1.9901,-15.2161 -5.0414,-19.7312 -6.669,-9.8796 -12.545,-3.201 -12.545,-3.201 0,0 -1.1998,-9.7293 7.639,-10.4135 4.5343,-0.353 7.8394,4.329 7.8482,6.3412 0.7062,-4.2036 2.2731,-8.2566 4.1895,-11.4055 2.2584,-3.7781 4.8735,-6.3011 6.3683,-7.266 2.9719,-1.9104 6.3566,-2.2555 8.886,-1.9966 2.5443,0.2505 4.7512,1.1425 4.7512,1.1425 0,0 -0.889,2.0917 -1.8265,4.0831 -0.6044,1.2414 -1.2884,2.5888 -2.1403,3.8639 2.8921,-1.862 6.0292,-3.2806 8.9391,-4.1615 4.3014,-1.3504 8.0472,-1.6533 9.8826,-1.5449 3.6587,0.2108 6.7398,1.5715 8.824,2.8885 2.0993,1.3282 3.6219,2.9026 3.6219,2.9026 0,0 -1.9974,0.6988 -4.1099,1.321 -2.1506,0.636 -4.7922,1.3082 -7.717,1.5491 -0.628,0.0591 -1.5094,0.076 -2.5826,0.1047 10.1759,4.0457 14.7679,11.6125 15.7157,21.0934 0.5115,5.1469 -2.3218,20.2044 -18.9456,21.1663 -2.5856,0.146 -6.5378,-0.7725 -8.752,-1.7607 -2.2171,-0.9752 -4.008,-2.3359 -5.3362,-3.7696 -2.6904,-2.8944 -3.5616,-5.9267 -3.7648,-7.9787 -0.1461,-1.4719 0.0323,-2.8384 0.1592,-3.5269 1.6715,4.4195 5.9494,7.5654 10.9437,7.5654 5.9054,0 10.7996,-4.393 11.5867,-10.0891 0.1239,-0.4996 0.1682,-1.0488 0.1239,-1.6709 0,-0.0389 -0.0117,-0.0839 -0.0147,-0.126 -0.0428,-2.565 -0.5041,-5.2325 -1.9429,-7.1428 -2.344,-3.5875 -5.0799,-5.1758 -9.8266,-6.0781 -1.3386,-0.255 -2.7449,-0.0072 -4.1246,0.2035 -5.5192,0.7711 -10.8379,4.1756 -13.8332,9.2076 -1.5036,2.5036 -2.4323,5.3652 -2.7154,8.3273 -0.2683,2.9616 0.0266,6.1148 0.7664,9.0304 1.4728,5.8878 4.8647,11.0495 8.7446,14.6898 3.8742,3.7096 8.2654,5.7462 11.6723,7.1364 1.4268,0.583 2.8598,1.1076 4.2691,1.5676 0.0293,-0.0154 0.0618,-0.0272 0.0943,-0.0293 -2.6623,-1.0777 -4.7733,-2.2379 -5.7049,-2.9476 -3.2727,-2.498 -4.7983,-8.1963 -1.4743,-12.4882 1.8488,5.0157 7.4888,3.2571 10.5196,8.6297 -0.5351,-1.7359 -0.3421,-3.7053 0.4923,-4.7541 2.2922,-2.8613 6.7014,-2.3763 6.7014,-2.3763 0,0 -3.6912,4.3147 5.124,9.3045 2.5062,1.4138 10.6963,-2.7639 14.5026,-12.5336 1.0732,-2.7552 1.9121,-5.5309 2.4884,-8.211 2.6063,-12.0489 -6.1618,-13.4551 -6.1618,-13.4551 4.0921,-3.3853 7.7333,-3.4827 11.1089,0.3692 0.7754,0.8905 1.9193,3.2306 2.0462,6.1272 0.0471,0.8242 0.0118,1.6688 -0.0973,2.5238 2.0046,-3.9397 4.1069,-9.1824 4.045,-13.2192 -0.0295,-4.3495 -3.995,-1.1758 -7.7097,-3.0671 -3.7148,-1.8949 -4.2749,-4.8386 -6.8607,-4.7038 -2.5855,-0.0141 -4.3544,4.6546 -4.4342,4.7327 0,0 -2.1714,-4.2492 -1.9281,-9.4706 0.3892,-3.9558 3.5763,-9.214 9.4594,-11.0015 1.4639,-0.4429 3.8579,-0.7974 6.9034,-0.3434 2.1611,0.3066 4.6701,1.16 6.9875,2.5952 -0.0768,-0.1083 3.1429,1.9892 6.3121,6.4214 1.1735,1.9663 1.8014,3.6336 2.3175,5.7209 1.0023,4.0761 0.3626,8.3805 -1.0261,11.6355 -2.3423,5.385 -6.0971,9.138 -9.4374,11.944 2.8185,-1.331 6.0085,-2.484 9.6113,-3.411 0.0178,-0.0045 18.2366,-5.1803 18.8247,-12.6245 0.5691,-7.129 -9.1145,-2.1059 -9.1145,-2.1059 0,0 -1.5404,-7.6013 4.5226,-11.4584 1.7204,-1.0975 5.0429,-0.8925 6.7883,0.0775 -6.1646,-4.3709 -2.3202,-11.247 -11.0854,-10.4708 5.3512,-2.6159 10.5313,-4.5264 16.3571,0.8558 2.0149,1.8618 4.269,6.9777 1.477,12.4061 4.7274,-1.3177 2.2597,-10.4825 2.2878,-10.5216 0.0207,0.0391 5.6931,4.5264 6.3195,12.9497 0.6237,8.4216 -5.149,14.2724 -11.1502,17.3962 5.8212,-0.9465 11.4127,-0.4232 17.1074,0.9617 1.4976,0.3663 2.9304,0.757 4.4605,0.9619 2.7649,0.3717 5.4509,0.1673 7.993,-0.5815l0 2.6503c-1.5518,0.2126 -3.078,0.2576 -4.5375,0.1513 0.6131,0.1143 1.1645,0.2765 1.2796,0.3295 2.3055,0.8932 3.0838,3.863 2.9747,3.863 -0.1857,-0.0509 -2.4809,0.9493 -4.3119,0.7724 -0.1194,-0.0199 -0.2725,-0.0567 -0.4585,-0.1143 1.4271,1.8898 1.4566,4.194 1.1352,5.1189 -0.6427,2.4538 -2.7241,3.4687 -3.986,3.7466 -0.8669,0.199 -2.4766,0.199 -2.4766,0.199 1.713,-0.8763 3.6619,-4.7607 1.2648,-6.9182 -2.1788,-1.9494 -4.1512,-2.2656 -5.2656,-2.9128 -2.2938,-1.18 -4.2544,-3.5085 -4.9148,-5.402 -0.2005,-0.4747 -0.3522,-0.9022 -0.4835,-1.3008 -9.6527,-0.3819 -20.85,1.466 -29.1376,3.2171 6.4669,0.6273 11.221,3.4459 12.791,4.6547 0.4142,0.3177 3.9565,2.8465 6.6173,2.1743 6.6427,-1.6812 6.6632,-7.4952 6.6632,-7.4952 0,0 5.5943,4.3532 2.8273,10.6815 -0.5926,1.3667 -3.2578,3.4157 -6.6807,1.7852 2.0637,2.3018 3.6559,5.026 4.5844,7.5482 1.1293,2.997 1.38,5.6262 1.2444,6.9146 -0.2596,2.5517 -1.595,4.6405 -2.8894,5.965 -1.2944,1.3275 -2.8008,2.1773 -2.8008,2.1773 0,0 -0.7873,-1.4505 -1.4918,-2.8842 -0.4305,-0.9065 -0.8962,-1.9154 -1.2296,-2.9725 -0.2535,2.4905 -0.8727,4.9147 -1.6863,6.9652 -1.1853,3.0611 -2.6976,5.3305 -3.5999,6.324 -12.5447,13.7942 -26.1155,3.1836 -26.1155,3.1836 0,0 20.5876,2.1891 22.0189,-8.2781 -1.6613,0.962 -3.439,1.6577 -5.2199,2.0909 -5.6075,1.3851 -11.0796,0.0172 -14.638,-2.2545 -1.8044,-1.1175 -3.3288,-2.5967 -4.3076,-4.0075 -1.0126,-1.4173 -1.5832,-2.7956 -1.9103,-3.9058 -1.3239,-4.4503 -0.062,-9.0296 2.3232,-12.0368 1.141,-1.4919 2.6356,-2.7899 4.2013,-3.6022 1.5567,-0.8182 3.1457,-1.2242 4.5549,-1.3267 2.8658,-0.2195 4.9856,0.6568 6.2475,1.4734 1.2884,0.8338 2.1523,1.9562 2.1523,1.9562 0,0 -1.383,-0.4615 -2.7242,-0.5152 -1.3444,-0.0516 -3.0958,0.2107 -4.6998,1.1086 -0.7928,0.4384 -1.5359,1.0289 -2.1343,1.7298 -0.6059,0.7009 -1.0466,1.4991 -1.427,2.4809 -0.7223,1.8994 -0.7666,4.0481 -0.0208,6.0094 0.4012,1.0158 1.0556,2.4462 2.9101,3.7014 1.8751,1.3173 4.7674,2.2689 8.0457,1.7131 1.6157,-0.2706 3.2873,-0.9031 4.7616,-1.9437 0.7518,-0.5212 1.4298,-1.1196 2.071,-1.8611 0.6635,-0.7437 1.2576,-1.5618 1.7529,-2.4418 2.0667,-3.4916 2.5442,-8.0546 1.0348,-12.0385 -0.74,-1.9865 -1.9458,-3.8151 -3.5025,-5.3128 -1.5642,-1.5044 -3.485,-2.7654 -5.4779,-3.6565 -4.0185,-1.8355 -8.4881,-2.246 -12.3209,-1.6923 -3.8665,0.5269 -7.0757,1.9899 -9.3431,3.4081 -0.4893,0.3051 -0.955,0.6485 -1.4268,0.9692 -12.5818,8.4387 -11.8815,25.3933 -7.4002,27.5405 3.8416,1.8442 6.778,1.5449 9.0129,-1.4747 0,0 -0.7578,8.7878 -6.4434,9.0488 -3.4657,0.1541 -5.2524,-1.1771 -7.7791,-3.078 1.4801,4.2094 4.5639,3.5143 7.8364,5.6231 3.2698,2.1147 2.1966,2.8952 3.9685,3.3853 1.7262,0.5278 3.9743,-0.6463 3.9743,-0.6463 0,0 -0.2655,1.5898 -1.7601,3.3286 -1.3813,1.7239 -4.6583,3.6212 -8.2847,2.9924 -1.7954,-0.2366 -13.9024,-2.8324 -11.7959,-17.8326 0.0913,-0.6213 0.5896,-3.252 2.3468,-6.4094 -0.4658,0.8335 -1.6688,1.6046 -2.4294,2.1574 -0.917,0.6699 -1.887,1.2514 -2.8864,1.7828 -2.0402,1.0813 -4.1895,1.9069 -6.299,2.8312 -3.4832,1.5337 -6.4404,3.879 -9.4123,6.2185 -2.4767,1.9555 -2.6446,3.1384 -1.8235,3.9942 1.4373,1.4925 1.2251,6.2659 6.5525,3.8151 -3.1664,7.4871 -12.3002,7.4075 -15.5462,2.8812 -1.0969,-1.5346 -3.529,-10.0086 6.1854,-14.2726 -8.3612,1.1881 -9.113,8.0215 -15.1157,13.7668 -8.4911,8.1351 -26.6316,1.3667 -26.0568,-4.9714 7.4858,2.596 9.5112,2.5406 17.0588,-6.3328 4.5344,-5.3254 10.7286,-4.7482 16.7903,-4.037 -3.2962,-0.7982 -6.7928,-1.9966 -10.4797,-3.6608 -19.0237,-7.9193 -14.843,3.1559 -29.3175,9.7512 -8.1122,3.6891 -4.4768,13.1736 -4.4768,13.1736 0,0 -5.2892,0.0832 -7.6951,-3.5762 -0.6559,-1.0149 -1.7808,-3.2233 -1.6983,-6.0014 -1.7541,4.5479 -6.1941,9.0446 -16.2389,9.6366 -1.7779,0.1055 -3.3669,-0.0612 -4.4903,-0.4777 -1.132,-0.4245 -2.0165,-1.0148 -2.0165,-1.0148 0,0 0.8815,-0.5368 1.822,-1.0511 0.9582,-0.513 2.1463,-1.1033 3.5173,-1.5162 0.003,0 0.0117,-0.0088 0.0192,-0.0088 -6.3786,0.8277 -13.3719,0.3936 -19.2036,-2.0064 -0.9583,-0.322 -1.884,-0.7636 -2.7595,-1.334 -6.4862,-4.3022 -6.4804,-12.3149 -6.4892,-12.3487 0.0428,0 4.4077,6.4395 7.7538,4.2091zm208.823 -68.3836c-1.9807,0.0622 -3.6946,0.7333 -4.9062,1.5842 -1.5727,1.0614 -2.1315,2.2762 -2.4691,3.1407 -0.6367,1.659 -0.6029,3.4854 0.0162,5.099 0.3214,0.8335 0.6958,1.513 1.2059,2.1087 0.5102,0.5911 1.1439,1.09 1.8146,1.4644 1.3607,0.763 2.8526,0.9848 3.9906,0.942 0.116,-0.0046 0.2325,-0.0128 0.348,-0.0239l0 1.3319c-1.083,0.6631 -2.8273,1.3408 -5.1655,1.1636 -1.2,-0.0886 -2.5384,-0.4305 -3.8651,-1.1235 -1.3297,-0.6876 -2.5945,-1.7894 -3.5661,-3.0603 -2.0149,-2.5509 -3.0881,-6.4368 -1.9679,-10.2148 0.2771,-0.9421 0.7636,-2.1051 1.6186,-3.3139 0.8343,-1.1889 2.1287,-2.4507 3.6649,-3.3964 2.3441,-1.4998 5.6745,-2.5394 9.2811,-2.3699l0 6.6682z"/>
   <path id="_698822760" class="fil0" d="M440 65.9279c-2.0196,0.5957 -3.9492,1.5347 -5.7566,2.8022 -1.9326,1.4587 -3.4775,3.3774 -4.3296,5.6587 -1.2824,3.3859 -0.8727,7.2519 0.8787,10.2155 0.4244,0.7482 0.9287,1.4367 1.4858,2.0736 0.5484,0.627 1.1232,1.1386 1.7557,1.5757 1.2545,0.8838 2.6756,1.424 4.0465,1.6519 0.6609,0.1117 1.303,0.1511 1.9195,0.1314l0 6.6632c-1.0276,-0.0489 -2.0777,-0.1955 -3.134,-0.4575 -1.5081,-0.3618 -3.0192,-0.9523 -4.4285,-1.7675 0.4024,0.533 0.7253,0.9605 0.9377,1.2914 1.0111,1.5043 1.7041,3.0323 2.2214,4.3134 0.5146,1.261 0.942,2.4948 0.942,2.4948 0,0 -1.3414,-0.1281 -2.789,-0.6382 -1.436,-0.4916 -3.2785,-1.4565 -4.7911,-3.1437 -0.7518,-0.8432 -2.046,-2.764 -3.0513,-5.3634 -0.6958,-1.7381 -1.2176,-3.7961 -1.4285,-5.9137 -0.2816,0.9037 -0.6765,1.7528 -1.0407,2.5194 -0.6001,1.2197 -1.2693,2.4566 -1.2693,2.4566 0,0 -1.2766,-0.7178 -2.3763,-1.8597 -1.1025,-1.1129 -2.2347,-2.8885 -2.4529,-5.0517 -0.1151,-1.0939 -0.0163,-3.3713 1.0554,-5.8649 3.4569,-8.0767 8.7814,-12.7542 17.8724,-15.6038 1.2475,-0.391 2.4984,-0.6668 3.7327,-0.8364l0 2.6527zm0 9.7932c-1.017,0.0977 -1.9695,0.4113 -1.9695,0.4113 0,0 0.734,-0.9529 1.8307,-1.6553 0.0449,-0.029 0.0913,-0.058 0.1388,-0.0871l0 1.3311z"/>
  </g>
 </g>
</svg>
