<?xml version="1.0" encoding="UTF-8"?>
<!DOCTYPE svg PUBLIC "-//W3C//DTD SVG 1.1//EN" "http://www.w3.org/Graphics/SVG/1.1/DTD/svg11.dtd">
<!-- Creator: CorelDRAW X5 -->
<svg xmlns="http://www.w3.org/2000/svg" xml:space="preserve" width="90mm" height="90mm" style="shape-rendering:geometricPrecision; text-rendering:geometricPrecision; image-rendering:optimizeQuality; fill-rule:evenodd; clip-rule:evenodd"
viewBox="0 0 90 90"
 xmlns:xlink="http://www.w3.org/1999/xlink">
 <defs>
  <style type="text/css">
   <![CDATA[
    .fil0 {fill:#4D4D4D}
    .fil1 {fill:#4D4D4D;fill-rule:nonzero}
   ]]>
  </style>
 </defs>
 <g id="Layer_x0020_1">
  <metadata id="CorelCorpID_0Corel-Layer"/>
  <g id="_626312312">
   <path id="_626308520" class="fil0" d="M26.1534 46.6594c0.3413,-0.4896 1.3652,-0.2968 2.0477,-0.4451 0.0989,-0.1484 0.1979,-0.2968 0.2968,-0.4452 0.4352,-0.089 0.8633,-0.3073 1.3057,-0.2671 1.2002,0.1091 1.4672,0.8196 1.929,1.7213 1.1682,1.2399 0.2512,1.5362 2.2257,2.6263 2.3077,1.2741 3.6909,1.0664 6.1727,1.4393 1.1816,0.1776 2.1166,0.8752 2.9083,0.9794 0.5869,0.0772 1.1673,-0.1979 1.7509,-0.2968 0.4452,-0.089 0.8903,-0.1781 1.3355,-0.2671 -1.2836,0.5372 -2.033,1.3239 -3.3238,1.5729 0.2685,0.6301 0.1183,1.2102 0.4145,2.0251 0.0979,0.2692 0.4034,0.5906 0.5352,0.9128 0.3986,0.9746 0.2897,0.9854 0.9496,1.8103 0.4023,1.0225 0.142,1.9979 -0.4451,2.8786 -0.7271,0.0791 -1.3355,0.0989 -1.8696,-0.0297 0,-0.2868 0,-0.5737 0,-0.8606 -0.3067,0.0099 -0.6134,0.0198 -0.92,0.0297 -0.1484,-0.0495 -0.2968,-0.0989 -0.4452,-0.1484 0.0693,-0.2374 0.1385,-0.4748 0.2078,-0.7122 0.1286,-0.0693 0.2572,-0.1385 0.3858,-0.2078 0.0791,0 0.1582,0 0.2374,0 -0.0891,-0.6554 -1.1198,-0.1415 -2.3445,-1.187 -1.0308,-0.0998 -2.3038,-0.1062 -3.2644,-0.4452 -0.3759,0.1088 -0.7518,0.2177 -1.1277,0.3265 0,0.0297 0,0.0593 0,0.089 -0.0692,0.4847 -0.1385,0.9694 -0.2077,1.4541 -0.1583,0.3562 -0.3166,0.7123 -0.4748,1.0684 -0.0792,0 -0.1583,0 -0.2374,0 -0.2177,0.2473 -0.4353,0.4946 -0.6529,0.7419 -0.366,0 -0.732,0 -1.0981,0 -0.0395,-0.0494 -0.0791,-0.0989 -0.1187,-0.1484 -0.1879,0 -0.3759,0 -0.5638,0 -0.0396,-0.0593 -0.0792,-0.1187 -0.1187,-0.178 0.0198,-0.1187 0.0395,-0.2374 0.0593,-0.3561 -0.089,0 -0.178,0 -0.2671,0 0,-0.0297 0,-0.0594 0,-0.0891 0.0297,-0.2077 0.0594,-0.4154 0.0891,-0.6232 0.0593,-0.0791 0.1187,-0.1583 0.178,-0.2374 0.099,-0.0198 0.1979,-0.0396 0.2968,-0.0593 0.0791,-0.0693 0.1583,-0.1385 0.2374,-0.2078 -0.0495,-0.4056 -0.0989,-0.8111 -0.1484,-1.2167 -1.8724,-1.1703 -2.6125,-1.2821 -2.9973,-3.5909 0.188,-0.2176 0.3759,-0.4352 0.5639,-0.6528 -0.228,-0.273 -0.4996,-0.4155 -0.8161,-0.3858 0.0575,-0.6139 0.0802,-1.2104 0.1929,-1.8697 -0.099,-0.021 -0.1965,0.0919 -0.3005,0.1225 -0.1204,-1.3884 0.4933,-2.0008 0.4488,-2.7933 -0.5446,0.0961 -0.4224,0.1395 -0.8903,-0.1484 -0.4912,0.1228 -0.4467,0.0387 -0.8903,-0.2078 -0.178,0 -0.3561,0 -0.5341,0 -0.7322,-0.8541 -0.7123,-0.6073 -0.7123,-1.7212z"/>
   <path id="_626311592" class="fil0" d="M63.8466 46.6594c-0.3413,-0.4896 -1.3652,-0.2968 -2.0477,-0.4451 -0.0989,-0.1484 -0.1979,-0.2968 -0.2968,-0.4452 -0.4352,-0.089 -0.8633,-0.3073 -1.3057,-0.2671 -1.2003,0.1091 -1.4672,0.8196 -1.929,1.7213 -1.1682,1.2399 -0.2512,1.5362 -2.2257,2.6263 -2.3077,1.2741 -3.6909,1.0664 -6.1727,1.4393 -1.1816,0.1776 -2.1166,0.8752 -2.9083,0.9794 -0.5869,0.0772 -1.1673,-0.1979 -1.7509,-0.2968 -0.4452,-0.089 -0.8903,-0.1781 -1.3355,-0.2671 1.2836,0.5372 2.033,1.3239 3.3238,1.5729 -0.2685,0.6301 -0.1183,1.2102 -0.4145,2.0251 -0.0979,0.2692 -0.4034,0.5906 -0.5352,0.9128 -0.3986,0.9746 -0.2897,0.9854 -0.9496,1.8103 -0.4023,1.0225 -0.142,1.9979 0.4451,2.8786 0.7271,0.0791 1.3355,0.0989 1.8696,-0.0297 0,-0.2868 0,-0.5737 0,-0.8606 0.3067,0.0099 0.6134,0.0198 0.92,0.0297 0.1484,-0.0495 0.2968,-0.0989 0.4452,-0.1484 -0.0693,-0.2374 -0.1385,-0.4748 -0.2078,-0.7122 -0.1286,-0.0693 -0.2572,-0.1385 -0.3858,-0.2078 -0.0791,0 -0.1582,0 -0.2374,0 0.089,-0.6554 1.1198,-0.1415 2.3445,-1.187 1.0308,-0.0998 2.3038,-0.1062 3.2644,-0.4452 0.3759,0.1088 0.7518,0.2177 1.1277,0.3265 0,0.0297 0,0.0593 0,0.089 0.0692,0.4847 0.1385,0.9694 0.2077,1.4541 0.1583,0.3562 0.3166,0.7123 0.4748,1.0684 0.0792,0 0.1583,0 0.2374,0 0.2177,0.2473 0.4353,0.4946 0.6529,0.7419 0.366,0 0.732,0 1.098,0 0.0396,-0.0494 0.0792,-0.0989 0.1188,-0.1484 0.1879,0 0.3759,0 0.5638,0 0.0396,-0.0593 0.0791,-0.1187 0.1187,-0.178 -0.0198,-0.1187 -0.0396,-0.2374 -0.0593,-0.3561 0.089,0 0.178,0 0.267,0 0,-0.0297 0,-0.0594 0,-0.0891 -0.0296,-0.2077 -0.0593,-0.4154 -0.089,-0.6232 -0.0593,-0.0791 -0.1187,-0.1583 -0.178,-0.2374 -0.099,-0.0198 -0.1979,-0.0396 -0.2968,-0.0593 -0.0791,-0.0693 -0.1583,-0.1385 -0.2374,-0.2078 0.0494,-0.4056 0.0989,-0.8111 0.1484,-1.2167 1.8724,-1.1703 2.6125,-1.2821 2.9973,-3.5909 -0.188,-0.2176 -0.3759,-0.4352 -0.5639,-0.6528 0.228,-0.273 0.4996,-0.4155 0.8161,-0.3858 -0.0575,-0.6139 -0.0802,-1.2104 -0.1929,-1.8697 0.099,-0.021 0.1965,0.0919 0.3005,0.1225 0.1204,-1.3884 -0.4934,-2.0008 -0.4488,-2.7933 0.5446,0.0961 0.4224,0.1395 0.8903,-0.1484 0.4912,0.1228 0.4467,0.0387 0.8902,-0.2078 0.1781,0 0.3562,0 0.5342,0 0.7322,-0.8541 0.7123,-0.6073 0.7123,-1.7212z"/>
   <path id="_626311280" class="fil1" d="M45 10.6272c9.4917,0 18.085,3.8473 24.3052,10.0676 6.2203,6.2203 10.0677,14.8135 10.0677,24.3052 0,9.4917 -3.8474,18.085 -10.0677,24.3052 -6.2202,6.2203 -14.8135,10.0677 -24.3052,10.0677 -9.4917,0 -18.0849,-3.8474 -24.3052,-10.0677 -6.2203,-6.2202 -10.0676,-14.8135 -10.0676,-24.3052 0,-9.4917 3.8473,-18.0849 10.0676,-24.3052 6.2203,-6.2203 14.8135,-10.0676 24.3052,-10.0676zm23.3187 11.0541c-5.9677,-5.9677 -14.2121,-9.6588 -23.3187,-9.6588 -9.1065,0 -17.351,3.6911 -23.3187,9.6588 -5.9677,5.9677 -9.6588,14.2122 -9.6588,23.3187 0,9.1066 3.6911,17.351 9.6588,23.3187 5.9677,5.9677 14.2122,9.6588 23.3187,9.6588 9.1066,0 17.351,-3.6911 23.3187,-9.6588 5.9677,-5.9677 9.6588,-14.2121 9.6588,-23.3187 0,-9.1065 -3.6911,-17.351 -9.6588,-23.3187z"/>
   <path id="_626312936" class="fil1" d="M45 0c12.4263,0 23.6764,5.0368 31.8198,13.1803 8.1434,8.1434 13.1802,19.3934 13.1802,31.8197 0,12.4263 -5.0368,23.6764 -13.1802,31.8198 -8.1434,8.1434 -19.3935,13.1802 -31.8198,13.1802 -12.4263,0 -23.6763,-5.0368 -31.8197,-13.1802 -8.1434,-8.1434 -13.1803,-19.3935 -13.1803,-31.8198 0,-12.4263 5.0369,-23.6763 13.1803,-31.8197 8.1434,-8.1435 19.3934,-13.1803 31.8197,-13.1803zm30.8332 14.1668c-7.8908,-7.8908 -18.792,-12.7714 -30.8332,-12.7714 -12.0411,0 -22.9424,4.8806 -30.8332,12.7714 -7.8908,7.8908 -12.7714,18.7921 -12.7714,30.8332 0,12.0412 4.8806,22.9424 12.7714,30.8332 7.8908,7.8908 18.7921,12.7715 30.8332,12.7715 12.0412,0 22.9424,-4.8807 30.8332,-12.7715 7.8909,-7.8908 12.7715,-18.792 12.7715,-30.8332 0,-12.0411 -4.8807,-22.9424 -12.7715,-30.8332z"/>
   <path id="_626314832" class="fil1" d="M56.317 26.3191l-9.1951 0 0 1.0288c0.6055,0.0482 1.0931,0.1179 1.4522,0.2036 0.3643,0.0858 0.6376,0.2251 0.8144,0.4287 0.1822,0.1983 0.3001,0.4984 0.359,0.8895 0.0536,0.3965 0.0804,0.927 0.0751,1.5968l0 4.919 -9.5809 0 0 -4.919c-0.0053,-0.6698 0.0215,-1.2003 0.075,-1.5968 0.059,-0.3911 0.1769,-0.6912 0.3484,-0.8895 0.1768,-0.2036 0.4447,-0.3429 0.7983,-0.4287 0.3537,-0.0857 0.8252,-0.1554 1.4147,-0.2036l0 -1.0288 -9.1951 0 0 1.0288c0.6323,0.0482 1.136,0.1179 1.5165,0.2036 0.3751,0.0858 0.6591,0.2251 0.8519,0.4287 0.1876,0.1983 0.3162,0.4984 0.3752,0.8895 0.0642,0.3965 0.091,0.927 0.0857,1.5968l0 12.603c0.0053,0.6698 -0.0215,1.2003 -0.0804,1.5968 -0.0643,0.3912 -0.1822,0.6912 -0.3644,0.8895 -0.1821,0.2036 -0.4554,0.3429 -0.8144,0.4287 -0.3644,0.0857 -0.8413,0.1554 -1.4415,0.2036l0 1.0288 9.1629 0 0 -1.0288c-0.6162,-0.0482 -1.1038,-0.1179 -1.4735,-0.2036 -0.3644,-0.0858 -0.6377,-0.2251 -0.8199,-0.4287 -0.1822,-0.1983 -0.3054,-0.4983 -0.359,-0.8895 -0.0589,-0.3965 -0.0857,-0.927 -0.0804,-1.5968l0 -6.1407 9.5809 0 0 6.1407c0.0053,0.6698 -0.0215,1.2003 -0.0804,1.5968 -0.0589,0.3912 -0.1875,0.6912 -0.3751,0.8895 -0.1929,0.2036 -0.4822,0.3429 -0.8734,0.4287 -0.3912,0.0857 -0.9109,0.1554 -1.5647,0.2036l0 1.0288 9.388 0 0 -1.0288c-0.6216,-0.0482 -1.1199,-0.1179 -1.4897,-0.2036 -0.3697,-0.0858 -0.6483,-0.2251 -0.8305,-0.4287 -0.1876,-0.1983 -0.3054,-0.4983 -0.3644,-0.8895 -0.059,-0.3965 -0.0857,-0.927 -0.0804,-1.5968l0 -12.603c-0.0053,-0.6698 0.0214,-1.2003 0.075,-1.5968 0.0536,-0.3911 0.1715,-0.6912 0.3537,-0.8895 0.1822,-0.2036 0.4608,-0.3429 0.8306,-0.4287 0.375,-0.0857 0.8787,-0.1554 1.5057,-0.2036l0 -1.0288z"/>
   <path id="_626312264" class="fil1" d="M42.4546 25.4714c-0.1622,-0.0477 -0.3172,-0.1216 -0.4651,-0.2194 -0.1478,-0.0978 -0.3029,-0.2337 -0.465,-0.4102 -0.1026,-0.1073 -0.2099,-0.2314 -0.3172,-0.372 -0.1097,-0.1384 -0.229,-0.3029 -0.3577,-0.4913 -0.1288,-0.1884 -0.2743,-0.4126 -0.4412,-0.6678 -0.1074,-0.1669 -0.2219,-0.3458 -0.3387,-0.5342 -0.1169,-0.1908 -0.2313,-0.3816 -0.3434,-0.57 -0.1121,-0.1884 -0.2147,-0.3649 -0.3077,-0.527 -0.093,-0.1646 -0.1669,-0.3029 -0.2265,-0.415 0.3386,-0.136 0.6415,-0.3124 0.9134,-0.5247 0.2695,-0.2122 0.4865,-0.4698 0.6439,-0.7727 0.1598,-0.3052 0.2409,-0.6653 0.2456,-1.0779 0,-0.2957 -0.0405,-0.5628 -0.1216,-0.8013 -0.0787,-0.2409 -0.1908,-0.4508 -0.3339,-0.6344 -0.1431,-0.1836 -0.31,-0.3386 -0.5032,-0.4674 -0.1836,-0.1288 -0.3911,-0.229 -0.6224,-0.3053 -0.2314,-0.0763 -0.4961,-0.1288 -0.7966,-0.1622 -0.3005,-0.0334 -0.6487,-0.0477 -1.0422,-0.0477l-3.8348 0 0 0.4579c0.2623,0.0215 0.4746,0.0525 0.632,0.093 0.1598,0.0406 0.279,0.1074 0.3601,0.198 0.0787,0.0906 0.1335,0.2242 0.1598,0.3982 0.0262,0.1741 0.0381,0.4079 0.0358,0.6988l0 5.5949c0.0023,0.2933 -0.012,0.5294 -0.0406,0.7059 -0.0262,0.1765 -0.0835,0.31 -0.1693,0.403 -0.0835,0.0931 -0.2099,0.1574 -0.3744,0.198 -0.167,0.0429 -0.3864,0.0739 -0.6606,0.0954l0 0.4579 4.1067 0 0 -0.4579c-0.2743,-0.0215 -0.4913,-0.0525 -0.6582,-0.0954 -0.1646,-0.0406 -0.2886,-0.1049 -0.3697,-0.198 -0.0835,-0.093 -0.1383,-0.2265 -0.1645,-0.403 -0.0287,-0.1765 -0.0406,-0.4126 -0.0382,-0.7059l0 -2.1607 0.3291 0c0.1884,0 0.3482,0.0215 0.4746,0.0644 0.1288,0.0406 0.2385,0.1073 0.3291,0.1956 0.0906,0.0882 0.1765,0.2027 0.2552,0.341 0.1383,0.2456 0.279,0.4937 0.4197,0.7488 0.1407,0.2528 0.2814,0.5009 0.4221,0.7441 0.1407,0.2433 0.2791,0.4698 0.4174,0.6821 0.1502,0.2289 0.3076,0.4245 0.4674,0.589 0.1598,0.1646 0.3411,0.3005 0.5438,0.4079 0.2027,0.1073 0.4412,0.1907 0.7178,0.248 0.2766,0.0596 0.6058,0.0977 0.9897,0.1144 0.0859,0 0.167,0.0024 0.2433,0.0072 0.0763,0.0048 0.1431,0.0072 0.2003,0.0072l0.0859 -0.4293zm-5.8954 -4.2498l0 -3.5058c0,-0.1621 0.0072,-0.2885 0.0262,-0.3768 0.0191,-0.0906 0.0525,-0.155 0.1026,-0.1955 0.0477,-0.043 0.1288,-0.0787 0.2432,-0.105 0.1145,-0.0238 0.2671,-0.0381 0.4579,-0.0381 0.229,-0.0024 0.4508,0.0357 0.6678,0.1121 0.2146,0.0739 0.4102,0.1955 0.5867,0.3601 0.174,0.1645 0.3148,0.3815 0.4173,0.651 0.1049,0.2672 0.1574,0.5939 0.1598,0.9802 0.0024,0.3721 -0.0549,0.7012 -0.1693,0.9897 -0.1145,0.2862 -0.2981,0.5342 -0.5462,0.7417 -0.1717,0.1407 -0.3768,0.2409 -0.6176,0.3005 -0.2409,0.0596 -0.5199,0.0883 -0.8419,0.0859l-0.4865 0zm14.329 -4.7507l-3.52 0 0 0.4579c0.3267,0.0239 0.589,0.0668 0.7822,0.1312 0.1955,0.0668 0.341,0.155 0.434,0.2695 0.093,0.1145 0.1503,0.2575 0.1717,0.4293 0.0239,0.1407 0.0454,0.3052 0.0668,0.4912 0.0191,0.1884 0.0334,0.4126 0.0453,0.6773 0.012,0.2624 0.0167,0.5796 0.0167,0.9492l0 1.3594c0.0024,0.7989 -0.0811,1.4857 -0.2504,2.0557 -0.1669,0.5724 -0.4388,1.0112 -0.8108,1.3165 -0.3721,0.3052 -0.8634,0.4602 -1.4715,0.4626 -0.5485,-0.0024 -1.004,-0.1383 -1.3689,-0.4126 -0.3649,-0.2718 -0.6391,-0.6653 -0.8204,-1.1829 -0.1812,-0.5175 -0.2719,-1.1447 -0.2719,-1.8816l0 -3.1623c-0.0023,-0.3267 0.0096,-0.5867 0.0358,-0.7775 0.0286,-0.1932 0.0811,-0.3386 0.1622,-0.4364 0.0811,-0.0954 0.2027,-0.1646 0.3625,-0.2027 0.1621,-0.0382 0.3744,-0.0668 0.6415,-0.0859l0 -0.4579 -4.0781 0 0 0.4579c0.2695,0.0215 0.4865,0.0525 0.6487,0.0906 0.1622,0.0406 0.2862,0.1074 0.3673,0.2052 0.081,0.0953 0.1359,0.2384 0.1645,0.4292 0.0262,0.1932 0.0382,0.4508 0.0358,0.7775l0 3.4485c0,0.5557 0.0429,1.0493 0.1312,1.4762 0.0882,0.4269 0.2217,0.7989 0.4006,1.1114 0.1813,0.3124 0.4078,0.5771 0.6845,0.7894 0.3338,0.2551 0.7083,0.4388 1.1256,0.5509 0.4174,0.112 0.8514,0.1669 1.3069,0.1645 0.3363,0 0.6606,-0.0382 0.9778,-0.1145 0.3172,-0.0763 0.6129,-0.1884 0.8919,-0.3386 0.2791,-0.1503 0.5271,-0.3387 0.7489,-0.5628 0.2695,-0.2862 0.4817,-0.613 0.6367,-0.9778 0.155,-0.3673 0.2648,-0.7727 0.3291,-1.2211 0.0644,-0.446 0.0955,-0.9348 0.093,-1.4643l0 -1.4166c0,-0.3696 0.0048,-0.6844 0.0144,-0.9468 0.0095,-0.2599 0.0214,-0.4841 0.0381,-0.6677 0.0167,-0.1861 0.0382,-0.3482 0.062,-0.4889 0.0239,-0.2648 0.1336,-0.4627 0.3244,-0.5986 0.1908,-0.1384 0.4889,-0.2194 0.8919,-0.2457l0 -0.4579zm5.0138 2.1607c-0.0429,-0.3005 -0.0811,-0.57 -0.1145,-0.8084 -0.0334,-0.2409 -0.0644,-0.4603 -0.0906,-0.6583 -0.0263,-0.1955 -0.0477,-0.3816 -0.0668,-0.5509 -0.1216,-0.0453 -0.279,-0.0954 -0.4746,-0.1502 -0.1955,-0.0549 -0.4173,-0.1026 -0.663,-0.1431 -0.2456,-0.0406 -0.5055,-0.062 -0.7798,-0.0644 -0.4937,0.0024 -0.9372,0.0716 -1.326,0.2122 -0.3911,0.1384 -0.7226,0.3292 -0.9945,0.5772 -0.2742,0.2456 -0.4817,0.5318 -0.6248,0.8585 -0.1431,0.3267 -0.2146,0.6773 -0.217,1.0565 0.0024,0.3625 0.0715,0.6869 0.2027,0.973 0.1335,0.2838 0.3148,0.539 0.5437,0.7632 0.229,0.2242 0.4889,0.4293 0.7799,0.6129 0.2933,0.1813 0.5986,0.353 0.9205,0.5128 0.3601,0.1884 0.6702,0.3791 0.9325,0.5747 0.2647,0.1932 0.4674,0.4078 0.6105,0.6391 0.1431,0.2338 0.2147,0.5009 0.2171,0.8037 0,0.322 -0.0644,0.601 -0.1884,0.8371 -0.1217,0.2385 -0.3005,0.4221 -0.5295,0.5533 -0.2313,0.1312 -0.5056,0.1956 -0.8275,0.1979 -0.2814,-0.0023 -0.5366,-0.0596 -0.7656,-0.1669 -0.2313,-0.1097 -0.4388,-0.2552 -0.6224,-0.434 -0.1836,-0.1813 -0.3434,-0.3792 -0.4818,-0.5962 -0.1359,-0.2147 -0.2527,-0.4317 -0.3458,-0.6487 -0.093,-0.2171 -0.1645,-0.4174 -0.217,-0.601l-0.4865 0.1431c0.0263,0.2027 0.0549,0.4221 0.0882,0.6558 0.0358,0.2337 0.0716,0.4651 0.1097,0.6893 0.0358,0.2241 0.074,0.4268 0.1122,0.6033 0.0381,0.1765 0.0715,0.31 0.1049,0.3983 0.0858,0.0429 0.1931,0.0906 0.3267,0.1407 0.1335,0.0525 0.2957,0.1097 0.4889,0.1741 0.1932,0.0572 0.4102,0.1049 0.6487,0.1431 0.2385,0.0358 0.496,0.0548 0.7679,0.0572 0.5104,-0.0024 0.9706,-0.0763 1.3856,-0.2194 0.4126,-0.1431 0.7679,-0.3434 1.066,-0.601 0.2957,-0.2575 0.5247,-0.558 0.6845,-0.8991 0.1574,-0.3434 0.2385,-0.7154 0.2409,-1.1137 -0.0024,-0.3696 -0.0692,-0.7011 -0.2004,-0.9897 -0.1311,-0.2886 -0.3124,-0.5485 -0.5413,-0.7751 -0.2314,-0.2289 -0.4961,-0.4364 -0.7966,-0.6248 -0.3029,-0.1861 -0.6224,-0.3625 -0.9658,-0.5295 -0.4055,-0.2027 -0.7417,-0.3982 -1.0088,-0.589 -0.2671,-0.1908 -0.4651,-0.3959 -0.5962,-0.6153 -0.1336,-0.2218 -0.198,-0.4794 -0.198,-0.7703 0,-0.2695 0.0596,-0.5152 0.1789,-0.7346 0.1168,-0.2194 0.2862,-0.3935 0.5056,-0.5246 0.2194,-0.1312 0.4841,-0.198 0.7894,-0.2004 0.2957,0.0024 0.5509,0.0621 0.7679,0.1741 0.2146,0.1145 0.3982,0.2648 0.5485,0.4532 0.1502,0.1884 0.2766,0.3959 0.3792,0.6224 0.1002,0.2266 0.1836,0.4531 0.2504,0.6821l0.4722 -0.1002z"/>
   <path id="_626311880" class="fil1" d="M38.5895 80.9877l2.6952 0.4269 -0.7656 4.834 -2.6952 -0.4269 0.079 -0.4988 2.1331 0.3378 0.2467 -1.5575 -2.0034 -0.3173 0.0787 -0.4966 2.0033 0.3173 0.2818 -1.7788 -2.1332 -0.3378 0.0796 -0.5023zm-3.0982 -0.6977l-0.5742 2.3029c-0.0725,0.2905 -0.0598,0.5233 0.0364,0.6992 0.0963,0.1759 0.2849,0.2983 0.5665,0.3685 0.3725,0.0929 0.6702,0.0611 0.8946,-0.0972 0.2233,-0.1587 0.3924,-0.4687 0.5079,-0.9322l0.4659 -1.8682 0.5388 0.1343 -0.8876 3.5603 -0.438 -0.1092 0.034 -0.5097 -0.0266 -0.0066c-0.1537,0.1489 -0.3427,0.2455 -0.5663,0.2921 -0.2225,0.047 -0.4576,0.0403 -0.7015,-0.0206 -0.4291,-0.1069 -0.7257,-0.2916 -0.8905,-0.5517 -0.1656,-0.2616 -0.1908,-0.6188 -0.0775,-1.0734l0.5792 -2.3229 0.5389 0.1344zm-5.3239 2.1584l0.1146 -0.3328 0.6689 0.1457c-0.0341,-0.0939 -0.0524,-0.209 -0.058,-0.3439 -0.0055,-0.1348 0.0172,-0.2781 0.0689,-0.4283 0.1168,-0.3392 0.3269,-0.5702 0.628,-0.6938 0.3019,-0.122 0.6556,-0.1138 1.0608,0.0257 0.1037,0.0357 0.198,0.0778 0.2828,0.1264 0.2646,-0.0419 0.4268,-0.1516 0.4886,-0.3309 0.0327,-0.0951 0.018,-0.1787 -0.0442,-0.2509 -0.0621,-0.0722 -0.1883,-0.141 -0.3784,-0.2065l-0.6137 -0.2113c-0.376,-0.1295 -0.6374,-0.3076 -0.7847,-0.536 -0.1467,-0.227 -0.169,-0.4921 -0.0648,-0.7946 0.132,-0.3836 0.3874,-0.6232 0.7649,-0.7192 0.3771,-0.095 0.8612,-0.0407 1.4522,0.1628 0.4538,0.1563 0.7748,0.3611 0.962,0.6141 0.1884,0.2534 0.2293,0.5346 0.1233,0.8425 -0.0726,0.2107 -0.2035,0.3699 -0.3918,0.4779 -0.1878,0.1069 -0.4141,0.1462 -0.6773,0.1172 0.0749,0.0705 0.1279,0.1588 0.1583,0.2636 0.0314,0.1051 0.0278,0.2138 -0.0105,0.3251 -0.0435,0.1264 -0.1153,0.2262 -0.2161,0.2978 -0.0998,0.072 -0.2383,0.127 -0.4147,0.1654 0.1541,0.1352 0.2578,0.3112 0.3092,0.5271 0.0524,0.2162 0.0387,0.4387 -0.0398,0.6667 -0.1306,0.3792 -0.346,0.6326 -0.645,0.7605 -0.2987,0.1268 -0.6563,0.1196 -1.0745,-0.0244 -0.1815,-0.0625 -0.3372,-0.1403 -0.4686,-0.2326l-1.2004 -0.4133zm4.1622 -3.099c0.0648,-0.188 0.035,-0.3578 -0.0904,-0.5097 -0.1246,-0.1505 -0.3347,-0.2772 -0.6308,-0.3792 -0.4408,-0.1518 -0.7898,-0.1982 -1.047,-0.1393 -0.2582,0.0585 -0.4255,0.2003 -0.5033,0.4262 -0.0647,0.1879 -0.0513,0.3388 0.0393,0.451 0.0914,0.1136 0.2974,0.2244 0.6183,0.3349l0.6299 0.2169c0.2377,0.0819 0.4429,0.0897 0.6152,0.0209 0.172,-0.0677 0.2955,-0.2089 0.3688,-0.4217zm-1.2979 2.8428c0.0837,-0.2431 0.0789,-0.4502 -0.0155,-0.6217 -0.0945,-0.1715 -0.2641,-0.3001 -0.5083,-0.3841 -0.5132,-0.1767 -0.8549,-0.0164 -1.0264,0.4817 -0.1797,0.5219 -0.01,0.8715 0.5086,1.0501 0.2474,0.0852 0.4603,0.0848 0.6393,-0.0034 0.1787,-0.0872 0.3123,-0.2611 0.4023,-0.5226zm-2.612 -3.6245l0.5034 0.2347 -2.2017 4.7216 -0.5034 -0.2347 2.2017 -4.7216zm-1.2092 -0.5485l0.5033 0.2348 -1.5507 3.3255 -0.5033 -0.2348 1.5507 -3.3255zm-1.4251 4.4811c-0.0536,0.1149 -0.1212,0.1868 -0.2032,0.2141 -0.0806,0.0267 -0.1646,0.0203 -0.2495,-0.0193 -0.0808,-0.0376 -0.1376,-0.0969 -0.1711,-0.1793 -0.0334,-0.0825 -0.0233,-0.1799 0.0294,-0.2927 0.0526,-0.1129 0.1212,-0.1843 0.2063,-0.2127 0.0846,-0.0274 0.1671,-0.023 0.2478,0.0147 0.085,0.0396 0.1434,0.1009 0.1737,0.1818 0.0309,0.0825 0.0193,0.1805 -0.0334,0.2934zm-1.9442 -5.1568c0.1708,-0.296 0.4121,-0.4602 0.7253,-0.4931 0.3138,-0.0338 0.6689,0.0643 1.0677,0.2945 0.4206,0.2428 0.7103,0.4998 0.8697,0.77l-0.2577 0.4463c-0.1089,-0.1657 -0.2367,-0.3214 -0.3862,-0.467 -0.1494,-0.1457 -0.3051,-0.2646 -0.4674,-0.3583 -0.2513,-0.1451 -0.4672,-0.217 -0.649,-0.2151 -0.1819,0.0019 -0.32,0.0857 -0.4149,0.25 -0.0714,0.1237 -0.0791,0.2605 -0.0231,0.4103 0.0571,0.1503 0.2059,0.3748 0.4485,0.6745 0.2324,0.2807 0.3868,0.4978 0.4641,0.6519 0.0773,0.1542 0.1166,0.3009 0.1164,0.4406 0.0014,0.1394 -0.0409,0.2812 -0.1249,0.4267 -0.1497,0.2593 -0.3723,0.4026 -0.6694,0.4303 -0.2976,0.0287 -0.63,-0.0629 -0.9972,-0.2749 -0.3424,-0.1976 -0.6353,-0.4605 -0.8829,-0.7881l0.3975 -0.2931c0.2436,0.3162 0.4949,0.5484 0.7532,0.6975 0.2286,0.132 0.4213,0.1957 0.5782,0.1913 0.157,-0.0044 0.2725,-0.0696 0.3451,-0.1953 0.0491,-0.0851 0.069,-0.1699 0.0604,-0.2554 -0.0093,-0.0845 -0.0464,-0.1825 -0.1125,-0.2919 -0.0646,-0.1099 -0.2055,-0.2955 -0.4203,-0.5567 -0.2982,-0.3542 -0.4725,-0.6396 -0.5245,-0.8557 -0.0526,-0.2151 -0.0178,-0.4286 0.1039,-0.6393zm-2.0925 -2.5172l-1.2927 1.9905c-0.163,0.2511 -0.2269,0.4754 -0.1931,0.673 0.0338,0.1977 0.1722,0.3749 0.4156,0.5329 0.3239,0.2104 0.6173,0.2769 0.8803,0.197 0.2631,-0.0798 0.5246,-0.3188 0.7847,-0.7194l1.045 -1.6091 0.4657 0.3025 -2.8373 4.3692 -0.4658 -0.3025 0.8589 -1.3226c0.1033,-0.1591 0.1968,-0.2863 0.279,-0.3814l-0.0278 -0.0181c-0.1878,0.0878 -0.3941,0.1201 -0.6185,0.0943 -0.224,-0.0243 -0.4456,-0.1068 -0.6622,-0.2475 -0.3766,-0.2446 -0.6009,-0.5183 -0.6729,-0.8185 -0.0715,-0.3012 0.0188,-0.6459 0.2715,-1.035l1.3038 -2.0077 0.4658 0.3024zm-7.3981 -0.458c0.3872,0.3738 0.816,0.5401 1.2896,0.4987 0.4721,-0.0414 0.9253,-0.2852 1.3579,-0.7332 0.4453,-0.4612 0.6805,-0.9219 0.708,-1.3814 0.026,-0.4595 -0.1608,-0.8829 -0.5603,-1.2687 -0.2458,-0.2373 -0.569,-0.4636 -0.9679,-0.6789l0.3469 -0.3592c0.3314,0.1437 0.6775,0.389 1.0351,0.7343 0.5187,0.5009 0.7666,1.0453 0.7445,1.6324 -0.0221,0.5854 -0.3125,1.1692 -0.8722,1.7487 -0.3508,0.3633 -0.7263,0.6155 -1.1254,0.7575 -0.3992,0.1419 -0.798,0.1634 -1.1966,0.0629 -0.3985,-0.0989 -0.7717,-0.3163 -1.1185,-0.6513 -0.3691,-0.3564 -0.6271,-0.7357 -0.7723,-1.1365l0.5124 -0.1851c0.1465,0.3829 0.3525,0.7026 0.6188,0.9598zm-1.6734 -5.7204c0.4578,-0.3842 0.9128,-0.569 1.3634,-0.5547 0.4512,0.0151 0.8473,0.2258 1.1888,0.6328 0.2108,0.2513 0.3386,0.5244 0.3842,0.8188 0.0458,0.2928 0.0023,0.5858 -0.1294,0.8768 -0.131,0.2919 -0.3451,0.5611 -0.6401,0.8087 -0.4587,0.3849 -0.9121,0.5699 -1.3602,0.555 -0.4473,-0.014 -0.8424,-0.2254 -1.1833,-0.6316 -0.3305,-0.3939 -0.4607,-0.8157 -0.3936,-1.2673 0.0671,-0.4516 0.3238,-0.8639 0.7702,-1.2385zm1.7967 2.1412c0.3589,-0.3012 0.5718,-0.6021 0.6395,-0.9036 0.0677,-0.3015 -0.0156,-0.591 -0.2499,-0.8703 -0.2336,-0.2784 -0.505,-0.4116 -0.8127,-0.3996 -0.3085,0.0128 -0.6427,0.1709 -1.0034,0.4735 -0.358,0.3004 -0.5691,0.5999 -0.6335,0.9001 -0.0635,0.2994 0.0229,0.5908 0.2594,0.8727 0.2343,0.2793 0.5017,0.4129 0.8036,0.4012 0.3019,-0.0117 0.6346,-0.1699 0.997,-0.474zm-1.5351 -5.0472c0.3048,0.4352 0.4069,0.8659 0.3053,1.2927 -0.1005,0.4262 -0.3964,0.8105 -0.886,1.1533 -0.5026,0.352 -0.9756,0.5032 -1.4197,0.4528 -0.444,-0.0504 -0.8234,-0.2994 -1.1367,-0.7469 -0.101,-0.1441 -0.1867,-0.3003 -0.2567,-0.4661 -0.07,-0.1658 -0.1119,-0.3053 -0.1284,-0.4165l0.4852 -0.1319c0.0305,0.1293 0.0735,0.2624 0.1305,0.3996 0.0561,0.1379 0.1164,0.2519 0.1807,0.3437 0.4273,0.6103 1.0304,0.6428 1.8092,0.0975 0.3698,-0.2589 0.6006,-0.5308 0.6933,-0.8189 0.0933,-0.2871 0.0378,-0.5775 -0.1667,-0.8696 -0.1756,-0.2508 -0.4095,-0.4693 -0.7014,-0.6569l0.4035 -0.2825c0.2442,0.1275 0.4742,0.3445 0.6879,0.6497zm-2.8082 -0.7618c-0.1654,-0.018 -0.3923,-0.0595 -0.6804,-0.1245l-1.6729 -0.4276 -0.3197 -0.5766 2.088 0.5424 1.0708 -2.4123 0.3263 0.5887 -0.8889 1.9743 0.5196 0.1902 1.2003 -0.6653 0.2659 0.4797 -4.5564 2.5257 -0.266 -0.4798 2.4157 -1.339c0.1079,-0.0598 0.2783,-0.1438 0.5105,-0.2529l-0.0128 -0.023zm-0.2216 -4.5709c0.2207,0.4958 0.2432,0.9537 0.0689,1.374 -0.1739,0.4214 -0.5289,0.7508 -1.0654,0.9897 -0.5408,0.2408 -1.0289,0.2992 -1.4658,0.1748 -0.4358,-0.1249 -0.7545,-0.4108 -0.9544,-0.8597 -0.1868,-0.4197 -0.1963,-0.8145 -0.0294,-1.1815 0.1674,-0.3685 0.4773,-0.6528 0.9304,-0.8545l0.3205 -0.1427 1.0281 2.3091c0.3889,-0.1856 0.6433,-0.4177 0.7643,-0.6967 0.1194,-0.2796 0.1032,-0.5914 -0.0493,-0.9338 -0.1603,-0.3601 -0.3944,-0.6837 -0.7029,-0.9691l0.453 -0.2018c0.1573,0.1452 0.2879,0.2897 0.3929,0.4356 0.1045,0.1448 0.2082,0.3301 0.3091,0.5566zm-2.988 1.4954c0.1199,0.2693 0.3029,0.4443 0.5494,0.5259 0.2469,0.0827 0.531,0.0688 0.8536,-0.041l-0.7799 -1.7517c-0.3205,0.1427 -0.5342,0.3229 -0.6407,0.5417 -0.1065,0.2188 -0.1004,0.46 0.0176,0.7251zm-1.9315 -3.4408c-0.0586,-0.1526 -0.0982,-0.2941 -0.1189,-0.4244l0.5086 -0.1133c0.0225,0.1542 0.0554,0.2848 0.0972,0.3936 0.1061,0.2763 0.3094,0.4712 0.6099,0.5811 0.3008,0.1109 0.6191,0.1014 0.9541,-0.0272l1.8381 -0.7056 0.199 0.5185 -3.4255 1.3149 -0.1643 -0.4278 0.6119 -0.3034 -0.0095 -0.0245c-0.2717,-0.0414 -0.5024,-0.1291 -0.6928,-0.2616 -0.1894,-0.133 -0.3255,-0.3059 -0.4078,-0.5203zm0.7202 -6.6354c0.4214,-0.0896 0.7826,-0.0063 1.0833,0.2487 0.3009,0.2561 0.5075,0.6456 0.619,1.1698 0.1204,0.5667 0.1396,1.0195 0.058,1.3557l-0.5365 0.1141c0.0411,-0.2132 0.0615,-0.4418 0.0603,-0.6834 -0.0011,-0.2416 -0.0263,-0.4757 -0.0745,-0.7026 -0.0789,-0.3711 -0.2087,-0.6356 -0.3895,-0.7934 -0.1807,-0.1579 -0.3963,-0.2102 -0.6478,-0.1567 -0.1654,0.0351 -0.2947,0.0976 -0.3868,0.1861 -0.0908,0.0894 -0.1654,0.2221 -0.2218,0.3965 -0.0562,0.1755 -0.1075,0.4341 -0.1527,0.7766 -0.0651,0.48 -0.1862,0.8387 -0.3638,1.075 -0.1774,0.2375 -0.4419,0.3942 -0.794,0.469 -0.3689,0.0785 -0.6912,0.0021 -0.9692,-0.2286 -0.2769,-0.2308 -0.4643,-0.5742 -0.5615,-1.0313 -0.101,-0.475 -0.1069,-0.9317 -0.0163,-1.3681l0.5208 0.0704c-0.0815,0.4297 -0.0825,0.8318 -0.0032,1.2052 0.0628,0.295 0.1743,0.512 0.3358,0.6505 0.1628,0.1395 0.3559,0.1849 0.5805,0.1372 0.1666,-0.0354 0.2954,-0.0944 0.3885,-0.1784 0.0931,-0.0841 0.1685,-0.2075 0.2259,-0.3716 0.0575,-0.1641 0.1074,-0.4072 0.1513,-0.7284 0.0722,-0.5399 0.1908,-0.9273 0.3554,-1.1585 0.1655,-0.2327 0.4113,-0.3842 0.7388,-0.4538zm1.0176 -2.5585c0.0291,0.2371 0.0115,0.4591 -0.0518,0.6661 -0.0632,0.2069 -0.178,0.388 -0.3432,0.5429l0.0049 0.0397c0.2089,-0.0521 0.4091,-0.0905 0.5996,-0.1139l1.4983 -0.184 0.0677 0.5513 -5.2763 0.6478 -0.055 -0.448 0.4896 -0.1384 -0.0032 -0.0261c-0.217,-0.1173 -0.3813,-0.264 -0.4929,-0.4414 -0.1116,-0.1774 -0.1835,-0.3885 -0.2135,-0.6324 -0.0593,-0.4831 0.0606,-0.8755 0.3584,-1.1791 0.2978,-0.3026 0.7445,-0.491 1.341,-0.5642 0.5978,-0.0734 1.0792,0.0034 1.4431,0.2292 0.3641,0.227 0.5751,0.5764 0.6333,1.0505zm-3.2963 0.4865c0.0457,0.372 0.1807,0.6283 0.4075,0.7685 0.2269,0.1414 0.5651,0.1863 1.0148,0.1356l0.1237 -0.0151c0.5115,-0.0629 0.8674,-0.1929 1.0664,-0.3912 0.1991,-0.1971 0.2756,-0.484 0.2294,-0.8605 -0.0388,-0.3153 -0.196,-0.5459 -0.4731,-0.6926 -0.2759,-0.1469 -0.6385,-0.1933 -1.0854,-0.1384 -0.4548,0.0558 -0.792,0.1882 -1.0129,0.3961 -0.2208,0.2078 -0.3102,0.4732 -0.2704,0.7976zm3.0034 -4.883l-0.5202 0.1188 0.0005 0.0274c0.2328,0.1788 0.3914,0.3589 0.4768,0.5392 0.0843,0.1802 0.1294,0.4069 0.1342,0.6788 0.0063,0.3633 -0.0824,0.6506 -0.2673,0.8607 -0.1838,0.2089 -0.4482,0.3175 -0.7944,0.3236 -0.7403,0.0129 -1.1392,-0.5733 -1.1952,-1.7575l-0.0315 -0.6223 -0.2274 0.0039c-0.2879,0.0051 -0.4993,0.0705 -0.6342,0.1974 -0.135,0.1258 -0.2001,0.3246 -0.1953,0.5977 0.0053,0.3051 0.105,0.6496 0.2991,1.0325l-0.422 0.1777c-0.1014,-0.1788 -0.1826,-0.3751 -0.2412,-0.5901 -0.0597,-0.2138 -0.092,-0.4293 -0.0958,-0.6463 -0.0077,-0.4365 0.0838,-0.7627 0.2743,-0.9774 0.1906,-0.2137 0.5007,-0.3254 0.9291,-0.3328l2.5033 -0.0437 0.0072 0.4124zm-0.37 1.2614c-0.006,-0.3451 -0.1056,-0.6153 -0.2987,-0.8097 -0.1931,-0.1943 -0.4599,-0.288 -0.8015,-0.282l-0.3313 0.0058 0.0325 0.5548c0.0237,0.4419 0.0978,0.7595 0.2235,0.9516 0.1245,0.1933 0.3159,0.2882 0.5718,0.2837 0.2011,-0.0035 0.3531,-0.0667 0.4561,-0.1908 0.1019,-0.1229 0.1515,-0.2941 0.1476,-0.5134zm0.5308 -5.0015l-2.3644 -0.2069c-0.2982,-0.0261 -0.5262,0.0228 -0.6849,0.1454 -0.1587,0.1226 -0.2501,0.328 -0.2754,0.6171 -0.0334,0.3825 0.0445,0.6715 0.2361,0.8684 0.1916,0.1957 0.5242,0.3143 1.0001,0.3559l1.9181 0.1678 -0.0484 0.5533 -3.6553 -0.3198 0.0393 -0.4497 0.5088 -0.0461 0.0024 -0.0273c-0.1711,-0.1286 -0.2961,-0.3001 -0.3772,-0.5137 -0.0812,-0.2124 -0.1113,-0.4456 -0.0894,-0.696 0.0386,-0.4406 0.1746,-0.7625 0.4057,-0.9659 0.2324,-0.2045 0.5813,-0.2853 1.048,-0.2444l2.3849 0.2086 -0.0484 0.5533zm0.2626 -1.885l-0.0773 0.5499 -3.6336 -0.5106 0.0773 -0.55 3.6336 0.5107zm-4.7019 -0.0527c-0.1256,-0.0177 -0.2141,-0.0613 -0.2642,-0.1318 -0.0491,-0.0692 -0.0675,-0.1514 -0.0545,-0.2442 0.0124,-0.0883 0.0525,-0.1599 0.1215,-0.216 0.0691,-0.0561 0.1652,-0.0749 0.2885,-0.0575 0.1234,0.0173 0.2117,0.062 0.2637,0.1351 0.0509,0.0729 0.0708,0.153 0.0584,0.2413 -0.013,0.0928 -0.0545,0.1666 -0.1231,0.2192 -0.0698,0.0537 -0.1669,0.0712 -0.2903,0.0539zm5.2514 -2.2539c-0.122,0.5289 -0.3796,0.908 -0.7718,1.1388 -0.3925,0.2319 -0.8742,0.2814 -1.4465,0.1492 -0.5768,-0.1331 -1.0018,-0.3801 -1.2758,-0.7425 -0.2729,-0.3621 -0.3554,-0.7822 -0.2448,-1.261 0.1033,-0.4476 0.3334,-0.7685 0.6875,-0.9612 0.3554,-0.1936 0.7741,-0.2341 1.2573,-0.1226l0.3419 0.079 -0.5687 2.4629c0.4224,0.0857 0.7653,0.0535 1.0298,-0.0966 0.2636,-0.1514 0.4383,-0.4101 0.5226,-0.7753 0.0887,-0.3841 0.0964,-0.7834 0.0218,-1.197l0.4833 0.1115c0.0382,0.2106 0.0555,0.4046 0.0516,0.5842 -0.0037,0.1786 -0.0324,0.389 -0.0882,0.6306zm-3.2862 -0.6039c-0.0663,0.2873 -0.0255,0.5371 0.1222,0.7507 0.1475,0.2146 0.3827,0.3745 0.7064,0.4809l0.4314 -1.8684c-0.3418,-0.0789 -0.621,-0.0636 -0.8377,0.0471 -0.2167,0.1106 -0.357,0.3069 -0.4223,0.5897zm3.8203 -1.8557l-0.1531 0.5338 -5.0078 -1.4359 0.1531 -0.5339 5.0078 1.436zm2.4424 -6.1418l-0.283 0.6068 -2.9054 0.6147 0.1958 0.6562 1.7389 0.8108 -0.2405 0.5158 -4.4357 -2.0684 0.2405 -0.5158 2.1997 1.0258 -1.2619 -3.037 0.2845 -0.61 1.0947 2.6816 3.3724 -0.6805zm0.9198 -1.4814c-0.2795,0.4653 -0.6416,0.7463 -1.086,0.8446 -0.4449,0.0993 -0.9183,-0.0025 -1.4218,-0.3051 -0.5074,-0.3048 -0.8352,-0.6711 -0.9839,-1.1004 -0.1476,-0.4287 -0.0962,-0.8537 0.1568,-1.2749 0.2366,-0.3938 0.5546,-0.6279 0.9509,-0.7018 0.3979,-0.0742 0.8086,0.0166 1.2337,0.272l0.3008 0.1807 -1.3019 2.1667c0.3752,0.2121 0.7112,0.2873 1.0091,0.2264 0.2976,-0.0626 0.5436,-0.2546 0.7367,-0.5759 0.203,-0.3379 0.3338,-0.7153 0.3907,-1.1317l0.4251 0.2554c-0.0288,0.212 -0.0722,0.4019 -0.1315,0.5716 -0.0587,0.1687 -0.1509,0.3599 -0.2787,0.5724zm-2.9388 -1.5898c-0.1518,0.2527 -0.1902,0.5029 -0.1157,0.7517 0.074,0.2497 0.2482,0.4744 0.5233,0.6757l0.9875 -1.6437c-0.3007,-0.1806 -0.5709,-0.2523 -0.8112,-0.2141 -0.2403,0.0383 -0.4344,0.1816 -0.5839,0.4304zm5.3954 -2.2047l-1.9202 -1.3951c-0.2422,-0.1759 -0.4627,-0.2515 -0.6619,-0.2281 -0.1992,0.0234 -0.3833,0.1524 -0.5539,0.3872 -0.2257,0.3106 -0.3077,0.5985 -0.2449,0.8659 0.0634,0.2664 0.2875,0.5394 0.6739,0.8201l1.5577 1.1318 -0.3264 0.4493 -2.9685 -2.1567 0.2653 -0.3652 0.4598 0.2225 0.0162 -0.0222c-0.0805,-0.1983 -0.0993,-0.4097 -0.0588,-0.6345 0.0398,-0.224 0.1341,-0.4393 0.2819,-0.6427 0.2599,-0.3578 0.5423,-0.5637 0.8452,-0.619 0.3045,-0.0556 0.6452,0.0549 1.0242,0.3302l1.9368 1.4072 -0.3264 0.4493zm2.4768 -2.9497l-1.7638 -1.5881c-0.2225,-0.2003 -0.434,-0.2985 -0.6345,-0.2961 -0.2006,0.0024 -0.3971,0.1115 -0.5913,0.3271 -0.2569,0.2854 -0.3686,0.5631 -0.3341,0.8356 0.0353,0.2716 0.2295,0.5665 0.5845,0.8861l1.4309 1.2884 -0.3716 0.4127 -2.7268 -2.4552 0.302 -0.3354 0.4341 0.2693 0.0183 -0.0204c-0.0593,-0.2056 -0.0558,-0.4178 0.0079,-0.6372 0.063,-0.2185 0.1793,-0.4228 0.3475,-0.6096 0.296,-0.3287 0.5983,-0.5039 0.9053,-0.5273 0.3087,-0.0235 0.6359,0.122 0.9841,0.4355l1.7791 1.6019 -0.3716 0.4127zm2.1035 -1.9853c-0.397,0.3702 -0.8226,0.5404 -1.2768,0.5125 -0.455,-0.0273 -0.8821,-0.2556 -1.2826,-0.6852 -0.4037,-0.4329 -0.6179,-0.8753 -0.6425,-1.329 -0.0238,-0.4528 0.1428,-0.8472 0.5022,-1.1823 0.3359,-0.3133 0.7062,-0.4507 1.1075,-0.4124 0.4029,0.0383 0.7727,0.2388 1.1109,0.6015l0.2392 0.2565 -1.8486 1.7239c0.3022,0.3073 0.6045,0.4723 0.9076,0.4958 0.3033,0.0219 0.5928,-0.0949 0.8669,-0.3505 0.2883,-0.2689 0.518,-0.5956 0.6875,-0.9802l0.3382 0.3627c-0.086,0.1959 -0.1801,0.3664 -0.2839,0.5132 -0.1029,0.146 -0.2443,0.3044 -0.4256,0.4735zm-2.3868 -2.3383c-0.2156,0.201 -0.3215,0.431 -0.3184,0.6906 0.0022,0.2605 0.1078,0.5245 0.3167,0.7938l1.4024 -1.3078c-0.2393,-0.2565 -0.4793,-0.4 -0.7208,-0.4294 -0.2415,-0.0295 -0.4676,0.0548 -0.6799,0.2528zm4.2387 0.5905l-0.4435 0.3342 -3.1352 -4.1606 0.4435 -0.3342 3.1352 4.1606zm0.9859 -3.8503c-0.1435,-0.2296 -0.1976,-0.437 -0.1655,-0.6228 0.0315,-0.1868 0.1506,-0.3434 0.3551,-0.4712 0.1986,-0.1241 0.389,-0.1623 0.5724,-0.1125 0.1838,0.0483 0.347,0.1888 0.493,0.4223 0.1405,0.2249 0.1946,0.4322 0.1623,0.6222 -0.0322,0.1899 -0.1491,0.3478 -0.3497,0.4732 -0.2025,0.1266 -0.3963,0.1614 -0.5824,0.1052 -0.1851,-0.0568 -0.3471,-0.1954 -0.4852,-0.4164zm5.0075 -3.0078l0.3058 -0.1362c0.2996,-0.1334 0.4987,-0.282 0.5975,-0.4449 0.0984,-0.1639 0.0997,-0.352 0.0039,-0.5671 -0.0943,-0.2119 -0.2343,-0.3297 -0.4194,-0.3549 -0.1861,-0.0247 -0.4316,0.0308 -0.7375,0.167l-0.2881 0.1283 0.5378 1.2078zm0.343 0.7704l0.7641 1.7162 -0.9479 0.422 -1.9907 -4.4711 1.3028 -0.58c0.6076,-0.2705 1.1068,-0.3602 1.4966,-0.2686 0.3898,0.0917 0.6851,0.3617 0.8859,0.8127 0.1171,0.263 0.1492,0.5289 0.0952,0.7982 -0.0535,0.2702 -0.187,0.5211 -0.4001,0.756 1.1209,0.7055 1.8484,1.1596 2.1826,1.3623l-1.0523 0.4686 -1.831 -1.2412 -0.5052 0.2249zm6.061 -0.3787l-0.2783 -0.413 -0.0511 0.0166c-0.0507,0.1991 -0.1557,0.375 -0.3177,0.5273 -0.162,0.1524 -0.3645,0.2687 -0.609,0.3481 -0.4184,0.136 -0.77,0.1264 -1.0546,-0.0286 -0.2851,-0.1561 -0.4961,-0.4432 -0.6327,-0.8638l-0.7539 -2.3203 0.9715 -0.3157 0.6756 2.0791c0.0833,0.2565 0.1914,0.434 0.3244,0.5326 0.1333,0.0996 0.2987,0.1168 0.4987,0.0518 0.2716,-0.0883 0.4387,-0.2435 0.5004,-0.4642 0.0616,-0.2207 0.0247,-0.5415 -0.1116,-0.961l-0.5442 -1.6747 0.9716 -0.3157 1.1565 3.5592 -0.7456 0.2423zm3.7776 -2.0598c0.0799,0.3756 0.0099,0.6896 -0.2087,0.9416 -0.2198,0.2524 -0.5889,0.4336 -1.1087,0.5441 -0.266,0.0566 -0.497,0.0858 -0.6923,0.0899 -0.1954,0.0042 -0.3821,-0.0111 -0.5614,-0.0465l-0.1753 -0.8249c0.2041,0.0477 0.4285,0.0759 0.6736,0.0857 0.2451,0.0099 0.457,-0.0048 0.6335,-0.0423 0.3622,-0.077 0.5212,-0.2194 0.4765,-0.4296 -0.0166,-0.0782 -0.0536,-0.1369 -0.1121,-0.1759 -0.0586,-0.039 -0.1543,-0.077 -0.2849,-0.1147 -0.1305,-0.0365 -0.3035,-0.0757 -0.518,-0.1177 -0.3067,-0.0575 -0.5367,-0.1231 -0.69,-0.1956 -0.1531,-0.0715 -0.2737,-0.1662 -0.3618,-0.2841 -0.0879,-0.1168 -0.151,-0.2705 -0.1914,-0.4605 -0.0691,-0.3253 0.0026,-0.6034 0.2175,-0.8348 0.2148,-0.2314 0.5524,-0.3966 1.0151,-0.495 0.4415,-0.0938 0.8912,-0.0889 1.3489,0.0147l-0.1487 0.784c-0.2,-0.0393 -0.3848,-0.0678 -0.5551,-0.083 -0.1694,-0.0165 -0.338,-0.0076 -0.5034,0.0276 -0.2951,0.0627 -0.4258,0.1734 -0.3918,0.3333 0.019,0.0894 0.0834,0.1563 0.1924,0.2021 0.1091,0.0457 0.3377,0.0988 0.6858,0.1591 0.3106,0.0543 0.5426,0.1183 0.697,0.1906 0.1544,0.0724 0.2773,0.1666 0.3688,0.2838 0.0917,0.1184 0.156,0.2671 0.1945,0.4481zm6.8996 0.5642l-1.034 0.018 -0.0369 -2.1125 -1.9389 0.0338 0.0369 2.1126 -1.0374 0.0181 -0.0855 -4.8935 1.0375 -0.0181 0.0334 1.9172 1.9389 -0.0339 -0.0334 -1.9172 1.034 -0.018 0.0854 4.8935zm2.5772 -2.9899c-0.2154,-0.0151 -0.3901,0.0415 -0.5216,0.1697 -0.1327,0.1282 -0.2158,0.3183 -0.2516,0.5678l1.4295 0.0999c0.0129,-0.2511 -0.0384,-0.4505 -0.1565,-0.5963 -0.117,-0.1456 -0.2832,-0.2259 -0.4998,-0.2411zm-0.0763 3.1563c-0.6008,-0.0421 -1.0588,-0.2413 -1.3742,-0.5967 -0.3153,-0.3554 -0.4512,-0.8369 -0.4087,-1.4444 0.0437,-0.6259 0.2337,-1.0983 0.57,-1.4184 0.3374,-0.3201 0.7814,-0.4608 1.3331,-0.4223 0.5278,0.0369 0.9288,0.2162 1.2007,0.5376 0.2731,0.3204 0.3911,0.7467 0.3541,1.2757l-0.0346 0.4947 -2.4076 -0.1684c-0.0088,0.2904 0.0609,0.5221 0.2091,0.6962 0.1494,0.1732 0.3683,0.2709 0.6578,0.2912 0.2246,0.0157 0.4394,0.0066 0.6433,-0.0261 0.2039,-0.0327 0.4177,-0.0922 0.6437,-0.1795l-0.0551 0.7877c-0.1851,0.0764 -0.3801,0.1292 -0.5849,0.1584 -0.206,0.0303 -0.4549,0.0347 -0.7467,0.0143zm4.4407 -2.5172l-0.8767 -0.1077 -0.3628 2.9546 -1.014 -0.1245 0.3628 -2.9545 -0.558 -0.0686 0.0598 -0.4877 0.5915 -0.2037 0.0336 -0.2733c0.0519,-0.4231 0.1941,-0.7188 0.4268,-0.8882 0.2315,-0.1696 0.5769,-0.2262 1.0363,-0.1698 0.3493,0.0429 0.6548,0.1334 0.9142,0.2711l-0.3511 0.7122c-0.1951,-0.0896 -0.3794,-0.1445 -0.553,-0.1658 -0.144,-0.0177 -0.2537,0.0126 -0.3276,0.0899 -0.0751,0.0771 -0.1203,0.1821 -0.1367,0.3159l-0.0285 0.2325 0.8767 0.1077 -0.0933 0.7599zm2.6602 -0.2727c0.1352,0.0287 0.246,0.0628 0.3313,0.1008l-0.2751 0.9205c-0.0759,-0.0383 -0.1719,-0.0704 -0.287,-0.0949 -0.3197,-0.0679 -0.5852,-0.0391 -0.7979,0.0874 -0.2124,0.1255 -0.3505,0.3356 -0.4132,0.6307l-0.3961 1.8633 -0.9981 -0.2122 0.7781 -3.6606 0.7567 0.1608 0.0158 0.6459 0.0491 0.0105c0.1575,-0.1804 0.3458,-0.3132 0.5658,-0.3973 0.2202,-0.0852 0.4436,-0.1032 0.6706,-0.0549zm1.0414 -0.6211c0.086,-0.3212 0.308,-0.4344 0.6656,-0.3386 0.3577,0.0958 0.4933,0.3049 0.4072,0.6261 -0.0411,0.1534 -0.1172,0.2608 -0.2294,0.3218 -0.1121,0.0611 -0.258,0.0669 -0.4369,0.019 -0.3576,-0.0958 -0.4932,-0.3049 -0.4065,-0.6283zm-0.1915 4.8252l-0.9857 -0.2641 0.9686 -3.6149 0.9856 0.2641 -0.9685 3.6149zm3.3403 -2.1406c-0.2003,-0.0808 -0.3838,-0.0811 -0.5486,0.0003 -0.1658,0.0809 -0.3036,0.2359 -0.4147,0.4622l1.3286 0.5368c0.0899,-0.2348 0.1027,-0.4404 0.0354,-0.6155 -0.0662,-0.1746 -0.1994,-0.3024 -0.4007,-0.3838zm-1.048 2.9782c-0.5584,-0.2256 -0.9324,-0.5566 -1.1225,-0.9921 -0.1901,-0.4354 -0.1706,-0.9353 0.0576,-1.5 0.235,-0.5817 0.5617,-0.9723 0.9804,-1.1728 0.4198,-0.2002 0.8856,-0.1968 1.3984,0.0103 0.4905,0.1982 0.8165,0.4926 0.9758,0.8823 0.1607,0.3891 0.1412,0.8311 -0.0574,1.3227l-0.1858 0.4598 -2.2377 -0.9041c-0.0981,0.2734 -0.1034,0.5153 -0.0163,0.7267 0.0886,0.2109 0.2665,0.3715 0.5356,0.4802 0.2087,0.0843 0.4158,0.1421 0.6199,0.174 0.204,0.0319 0.4257,0.0414 0.6676,0.0282l-0.2957 0.7322c-0.1998,0.0154 -0.4015,0.0054 -0.6053,-0.0302 -0.2053,-0.0348 -0.4434,-0.1076 -0.7146,-0.2172zm5.3452 -1.8738c0.1263,0.0562 0.2276,0.1126 0.3032,0.1675l-0.4605 0.8432c-0.0663,-0.0533 -0.1535,-0.1046 -0.2611,-0.1525 -0.2985,-0.1329 -0.5642,-0.1599 -0.7985,-0.0803 -0.2338,0.0785 -0.4127,0.2553 -0.5353,0.5309l-0.7748 1.7402 -0.9323 -0.415 1.5222 -3.4189 0.7068 0.3147 -0.1189 0.635 0.0459 0.0205c0.1915,-0.1437 0.4033,-0.2345 0.636,-0.271 0.2331,-0.0376 0.4554,-0.0086 0.6673,0.0857z"/>
   <path id="_626311760" class="fil1" d="M65.5139 11.779c0.1395,-0.2322 0.2997,-0.3746 0.4798,-0.4303 0.1807,-0.0567 0.3743,-0.0217 0.581,0.1025 0.2008,0.1206 0.3212,0.273 0.3601,0.459 0.0404,0.1856 -0.0106,0.3949 -0.1525,0.6309 -0.1365,0.2273 -0.2967,0.3696 -0.4806,0.4271 -0.1838,0.0575 -0.3776,0.0251 -0.5804,-0.0967 -0.2047,-0.1231 -0.3238,-0.2799 -0.3581,-0.4712 -0.0334,-0.1907 0.0165,-0.398 0.1507,-0.6213zm4.4516 6.4499l-2.0904 -1.754 3.146 -3.7492 2.0903 1.754 -0.3246 0.3869 -1.6545 -1.3882 -1.0136 1.208 1.5538 1.3038 -0.3232 0.3851 -1.5538 -1.3038 -1.1576 1.3796 1.6544 1.3883 -0.3268 0.3895zm2.1996 2.2375l1.7073 -1.6488c0.2153,-0.2079 0.328,-0.412 0.3396,-0.6123 0.0116,-0.2002 -0.0835,-0.4039 -0.2851,-0.6127 -0.2667,-0.2762 -0.536,-0.4069 -0.8102,-0.3915 -0.2735,0.0162 -0.5812,0.1895 -0.9247,0.5213l-1.3851 1.3375 -0.3858 -0.3995 2.6394 -2.5489 0.3136 0.3247 -0.299 0.4143 0.0191 0.0197c0.2093,-0.0449 0.4207,-0.0266 0.6351,0.0523 0.2136,0.0781 0.4093,0.2084 0.5839,0.3892 0.3072,0.3181 0.461,0.6319 0.4629,0.9398 0.0018,0.3096 -0.1661,0.6259 -0.5031,0.9513l-1.7221 1.6631 -0.3858 -0.3995zm5.6635 1.1324l-0.2735 0.2215 -0.4901 -0.478c-0.0208,0.0977 -0.0662,0.2051 -0.133,0.3223 -0.0668,0.1173 -0.162,0.2268 -0.2854,0.3267 -0.2788,0.2258 -0.5794,0.3104 -0.9003,0.2556 -0.3206,-0.0565 -0.6163,-0.2509 -0.8859,-0.5839 -0.0691,-0.0853 -0.1267,-0.1709 -0.1729,-0.257 -0.2465,-0.1047 -0.4423,-0.0977 -0.5897,0.0217 -0.0781,0.0633 -0.11,0.142 -0.0955,0.2361 0.0145,0.0942 0.085,0.2194 0.2116,0.3757l0.4084 0.5044c0.2503,0.3091 0.3775,0.5987 0.3814,0.8704 0.0041,0.2702 -0.1174,0.5069 -0.3661,0.7082 -0.3153,0.2553 -0.6587,0.3232 -1.0298,0.2046 -0.3701,-0.1193 -0.7519,-0.4219 -1.1452,-0.9077 -0.302,-0.3729 -0.4658,-0.7168 -0.4905,-1.0305 -0.0254,-0.3147 0.0888,-0.5749 0.3419,-0.7798 0.1732,-0.1403 0.3686,-0.2058 0.5855,-0.1977 0.216,0.0089 0.4287,0.0955 0.6365,0.2595 -0.0261,-0.0994 -0.0242,-0.2024 0.0055,-0.3074 0.029,-0.1058 0.0897,-0.1961 0.1811,-0.2702 0.104,-0.0841 0.2177,-0.1306 0.3412,-0.138 0.1227,-0.0082 0.2694,0.0186 0.4393,0.0795 -0.059,-0.1963 -0.0538,-0.4005 0.0171,-0.6108 0.0701,-0.2112 0.1997,-0.3926 0.387,-0.5443 0.3117,-0.2524 0.6286,-0.3532 0.95,-0.3031 0.3205,0.0507 0.62,0.2463 0.8983,0.59 0.1208,0.1492 0.2117,0.2976 0.2741,0.4456l0.799 0.9866zm-5.172 0.4225c-0.1545,0.1251 -0.2192,0.2848 -0.1934,0.4801 0.026,0.1937 0.137,0.4125 0.3341,0.6559 0.2934,0.3623 0.5647,0.5866 0.814,0.6729 0.25,0.0872 0.467,0.0556 0.6526,-0.0947 0.1545,-0.1251 0.2232,-0.2601 0.2057,-0.4033 -0.0173,-0.1448 -0.1332,-0.3479 -0.3468,-0.6117l-0.4192 -0.5177c-0.1583,-0.1954 -0.3281,-0.3107 -0.5107,-0.3437 -0.1817,-0.0338 -0.3613,0.0205 -0.5363,0.1622zm2.6072 -1.7231c-0.1998,0.1618 -0.3055,0.34 -0.3163,0.5355 -0.0108,0.1955 0.065,0.3944 0.2275,0.5951 0.3416,0.4218 0.7163,0.4669 1.1257,0.1354 0.4289,-0.3474 0.4704,-0.7338 0.1252,-1.1601 -0.1647,-0.2033 -0.3454,-0.3158 -0.544,-0.3359 -0.1977,-0.0207 -0.4032,0.056 -0.6181,0.23zm0.1716 4.418l-0.3264 -0.4493 4.2147 -3.0622 0.3264 0.4493 -4.2147 3.0622zm0.7297 1.1995l-0.3025 -0.4657 3.0774 -1.9985 0.3024 0.4658 -3.0773 1.9984zm3.5831 -3.0449c0.1064,-0.0691 0.2018,-0.0942 0.2858,-0.0739 0.0825,0.02 0.1504,0.07 0.2014,0.1485 0.0486,0.0748 0.0653,0.1552 0.05,0.2428 -0.0153,0.0876 -0.0755,0.1648 -0.18,0.2327 -0.1044,0.0678 -0.2004,0.092 -0.2877,0.071 -0.0862,-0.0216 -0.1538,-0.069 -0.2023,-0.1438 -0.0511,-0.0786 -0.0681,-0.1615 -0.0509,-0.2463 0.0175,-0.0863 0.0792,-0.1632 0.1837,-0.231zm-1.0826 5.3099c-0.2959,0.1708 -0.5869,0.1924 -0.8747,0.0642 -0.2887,-0.1275 -0.5471,-0.39 -0.7774,-0.7888 -0.2428,-0.4206 -0.3652,-0.788 -0.3681,-1.1017l0.4463 -0.2576c0.0114,0.1979 0.0443,0.3966 0.1009,0.5975 0.0566,0.2009 0.1319,0.3817 0.2256,0.544 0.1451,0.2513 0.2961,0.4215 0.4546,0.5108 0.1584,0.0893 0.32,0.0857 0.4843,-0.0091 0.1236,-0.0715 0.1987,-0.186 0.2251,-0.3438 0.0258,-0.1587 0.0091,-0.4275 -0.0511,-0.8084 -0.061,-0.3593 -0.0861,-0.6245 -0.076,-0.7966 0.0102,-0.1721 0.0495,-0.3189 0.1195,-0.4398 0.0685,-0.1213 0.1761,-0.223 0.3215,-0.307 0.2593,-0.1497 0.5237,-0.1625 0.7949,-0.038 0.2721,0.124 0.5141,0.3695 0.7261,0.7366 0.1977,0.3425 0.32,0.7165 0.3706,1.1241l-0.4908 0.055c-0.0529,-0.3956 -0.1544,-0.7223 -0.3035,-0.9806 -0.132,-0.2286 -0.2671,-0.3802 -0.4052,-0.4548 -0.1381,-0.0747 -0.2707,-0.076 -0.3964,-0.0034 -0.0851,0.0491 -0.1448,0.1126 -0.18,0.191 -0.0343,0.0779 -0.0511,0.1812 -0.0486,0.3091 0.001,0.1274 0.0303,0.3586 0.0856,0.6922 0.0811,0.4558 0.0894,0.7902 0.0265,1.0033 -0.062,0.2126 -0.1989,0.3801 -0.4097,0.5018zm0.3888 3.2869l2.151 -1.0031c0.2713,-0.1265 0.4443,-0.2828 0.5205,-0.4684 0.0761,-0.1855 0.0525,-0.4091 -0.0701,-0.6721 -0.1633,-0.3501 -0.3768,-0.5619 -0.6422,-0.6336 -0.2654,-0.0716 -0.6138,-0.0075 -1.0467,0.1943l-1.7388 0.8109 -0.2348 -0.5034 4.7216 -2.2017 0.2347 0.5034 -1.4292 0.6664c-0.1719,0.0802 -0.3187,0.1385 -0.4388,0.1756l0.014 0.0301c0.2058,0.025 0.3979,0.107 0.5745,0.2478 0.1771,0.1393 0.3213,0.3268 0.4304,0.5608 0.1898,0.407 0.2349,0.7579 0.137,1.0507 -0.099,0.2933 -0.3583,0.5378 -0.7787,0.7338l-2.1697 1.0118 -0.2347 -0.5033zm5.9416 4.4394c-0.1211,-0.5244 -0.3901,-0.8974 -0.8099,-1.1206 -0.4184,-0.2224 -0.9313,-0.2647 -1.5382,-0.1246 -0.6246,0.1442 -1.0728,0.4025 -1.3461,0.7729 -0.272,0.3712 -0.346,0.8281 -0.221,1.3692 0.0768,0.3329 0.2246,0.6987 0.4419,1.0965l-0.4866 0.1124c-0.1996,-0.3011 -0.3563,-0.6953 -0.4681,-1.1797 -0.1622,-0.7025 -0.0736,-1.2941 0.2646,-1.7745 0.3375,-0.479 0.8989,-0.8103 1.6839,-0.9916 0.4921,-0.1136 0.9444,-0.1206 1.3564,-0.0223 0.4121,0.0984 0.7583,0.2976 1.0378,0.599 0.2804,0.3 0.475,0.6855 0.5834,1.1554 0.1155,0.4999 0.1252,0.9585 0.0287,1.3737l-0.5305 -0.1238c0.0856,-0.4009 0.087,-0.7812 0.0037,-1.142zm-1.7204 5.6764c-0.5918,0.0831 -1.0756,-0.0012 -1.4501,-0.252 -0.3747,-0.252 -0.599,-0.6405 -0.6729,-1.1667 -0.0457,-0.3248 -0.0093,-0.6242 0.108,-0.898 0.1164,-0.2725 0.3085,-0.498 0.5745,-0.675 0.2657,-0.1781 0.59,-0.2929 0.9714,-0.3465 0.5929,-0.0834 1.0754,0 1.4475,0.25 0.372,0.2489 0.5951,0.6376 0.6688,1.1627 0.0716,0.5092 -0.0415,0.9359 -0.3377,1.2833 -0.2962,0.3474 -0.7324,0.5611 -1.3095,0.6422zm-0.389 -2.7679c-0.464,0.0652 -0.804,0.2076 -1.0212,0.4274 -0.2172,0.2197 -0.2999,0.5095 -0.2492,0.8704 0.0506,0.3599 0.2101,0.6167 0.4774,0.7696 0.2684,0.1526 0.6356,0.1956 1.1018,0.1301 0.4629,-0.065 0.8006,-0.2071 1.0143,-0.4275 0.2125,-0.2203 0.2936,-0.5133 0.2424,-0.8776 -0.0507,-0.361 -0.2065,-0.616 -0.4688,-0.7661 -0.2623,-0.1501 -0.6282,-0.1922 -1.0967,-0.1263zm-1.3687 5.1318c-0.0186,-0.531 0.1304,-0.9478 0.448,-1.2505 0.3164,-0.3026 0.7739,-0.4638 1.3712,-0.4847 0.6132,-0.0214 1.0923,0.1094 1.4373,0.3935 0.3449,0.2841 0.5275,0.6997 0.5465,1.2455 0.0062,0.1759 -0.007,0.3536 -0.0386,0.5308 -0.0315,0.1772 -0.0724,0.3169 -0.1191,0.4192l-0.4788 -0.1537c0.0448,-0.125 0.0813,-0.2601 0.1082,-0.4062 0.028,-0.1462 0.0395,-0.2747 0.0356,-0.3866 -0.026,-0.7446 -0.514,-1.1003 -1.4642,-1.0671 -0.4511,0.0157 -0.7928,0.118 -1.0274,0.3091 -0.2346,0.19 -0.3463,0.4638 -0.3339,0.8201 0.0107,0.3061 0.0879,0.6166 0.2305,0.933l-0.4923 0.0172c-0.1353,-0.24 -0.21,-0.5473 -0.223,-0.9196zm1.8995 1.9936c0.1343,0.0983 0.31,0.2477 0.5271,0.4481l1.235 1.2067 -0.0115 0.6592 -1.5371 -1.5137 -2.1335 1.5537 0.0118 -0.673 1.757 -1.2653 -0.3549 -0.4245 -1.3722 -0.024 0.0096 -0.5484 5.2088 0.0909 -0.0095 0.5484 -2.7616 -0.0482c-0.1234,-0.0021 -0.3129,-0.0146 -0.5685,-0.0362l-0.0005 0.0263zm-2.2857 4.0982c0.0661,-0.5388 0.2827,-0.9428 0.6486,-1.2133 0.3661,-0.2717 0.84,-0.3712 1.423,-0.2996 0.5875,0.0721 1.036,0.2734 1.3464,0.6051 0.3093,0.3315 0.4352,0.7407 0.3753,1.2284 -0.056,0.456 -0.2513,0.7993 -0.5833,1.0279 -0.3333,0.2297 -0.7454,0.3138 -1.2376,0.2533l-0.3483 -0.0427 0.3081 -2.5089c-0.429,-0.0411 -0.7666,0.0268 -1.014,0.2036 -0.2463,0.1782 -0.393,0.4537 -0.4387,0.8257 -0.048,0.3913 -0.014,0.7893 0.1034,1.1928l-0.4922 -0.0604c-0.06,-0.2054 -0.0976,-0.3965 -0.1124,-0.5756 -0.015,-0.178 -0.0085,-0.3902 0.0217,-0.6363zm3.3314 0.257c0.0359,-0.2926 -0.0308,-0.5368 -0.2001,-0.7337 -0.1691,-0.1981 -0.4197,-0.3325 -0.7528,-0.4045l-0.2336 1.9032c0.3482,0.0428 0.6242,-0.0016 0.8281,-0.1343 0.204,-0.1327 0.323,-0.3426 0.3584,-0.6307zm-0.2194 4.0461c-0.034,0.1599 -0.0778,0.3001 -0.1315,0.4207l-0.4881 -0.182c0.0651,-0.1416 0.1086,-0.269 0.1328,-0.383 0.0615,-0.2895 -0.0029,-0.5638 -0.195,-0.8195 -0.1919,-0.2569 -0.464,-0.4223 -0.815,-0.4969l-1.9259 -0.4093 0.1155 -0.5432 3.5891 0.7628 -0.0953 0.4483 -0.6783 -0.0788 -0.0055 0.0257c0.2053,0.1827 0.3511,0.3819 0.4386,0.5967 0.0864,0.2147 0.1064,0.4339 0.0586,0.6585zm-4.2416 5.2088c-0.4022,-0.1543 -0.6597,-0.4209 -0.773,-0.7985 -0.1129,-0.3788 -0.0741,-0.818 0.118,-1.3183 0.2076,-0.5409 0.4382,-0.931 0.6897,-1.1686l0.5121 0.1966c-0.1506,0.1564 -0.2922,0.3371 -0.4228,0.5403 -0.1307,0.2032 -0.2371,0.4133 -0.3202,0.6299 -0.1359,0.3542 -0.1711,0.6467 -0.1055,0.8775 0.0656,0.2308 0.2179,0.3921 0.458,0.4842 0.1579,0.0606 0.3003,0.0786 0.4258,0.0545 0.1249,-0.0255 0.2597,-0.0961 0.402,-0.2116 0.1426,-0.1166 0.3265,-0.3055 0.551,-0.5682 0.3159,-0.3671 0.6129,-0.6019 0.8906,-0.7035 0.278,-0.1025 0.5853,-0.0899 0.9214,0.0391 0.352,0.1352 0.5807,0.3748 0.6883,0.7196 0.1064,0.3444 0.0767,0.7345 -0.0908,1.1708 -0.1741,0.4534 -0.4178,0.8396 -0.7315,1.1562l-0.3985 -0.3426c0.3025,-0.316 0.5223,-0.6527 0.6591,-1.009 0.1081,-0.2817 0.1327,-0.5244 0.0728,-0.7285 -0.0606,-0.2057 -0.1978,-0.3489 -0.4122,-0.4312 -0.159,-0.061 -0.2991,-0.0818 -0.423,-0.062 -0.1239,0.0198 -0.2544,0.0823 -0.3919,0.1886 -0.1375,0.1063 -0.3118,0.283 -0.5236,0.5285 -0.3545,0.4135 -0.665,0.6738 -0.929,0.7781 -0.2655,0.1049 -0.5542,0.0981 -0.8668,-0.0219zm-2.2572 1.5647c0.1084,-0.2127 0.2472,-0.387 0.4154,-0.5232 0.1681,-0.1362 0.3645,-0.2221 0.5881,-0.2582l0.0182 -0.0356c-0.2024,-0.0736 -0.3898,-0.1538 -0.5609,-0.2409l-1.345 -0.6853 0.2521 -0.4949 4.7366 2.4134 -0.205 0.4022 -0.4833 -0.1591 -0.0119 0.0235c0.1144,0.2186 0.1685,0.4321 0.1618,0.6415 -0.0068,0.2095 -0.0651,0.4248 -0.1766,0.6437 -0.221,0.4337 -0.5399,0.6919 -0.9565,0.7772 -0.4161,0.0842 -0.8917,-0.0094 -1.4273,-0.2822 -0.5365,-0.2734 -0.8928,-0.6063 -1.0682,-0.997 -0.1749,-0.3918 -0.1544,-0.7995 0.0625,-1.2251zm3.0048 1.44c0.1701,-0.334 0.2014,-0.622 0.0919,-0.865 -0.1091,-0.2441 -0.3644,-0.4704 -0.7655,-0.6799l-0.111 -0.0566c-0.4592,-0.2339 -0.827,-0.3252 -1.1028,-0.272 -0.2754,0.0521 -0.4992,0.2471 -0.6714,0.5851 -0.1442,0.2831 -0.1428,0.5621 0.0049,0.8387 0.1466,0.2761 0.4212,0.5173 0.8224,0.7217 0.4083,0.208 0.7619,0.2869 1.0612,0.238 0.2993,-0.0488 0.5219,-0.2188 0.6703,-0.51zm-5.1001 2.4538l0.501 0.1837 0.0145 -0.0232c-0.0979,-0.2768 -0.1328,-0.5142 -0.1063,-0.7119 0.0275,-0.1971 0.1131,-0.4117 0.2572,-0.6423 0.1926,-0.3082 0.4234,-0.5008 0.6929,-0.5763 0.268,-0.0751 0.5489,-0.0222 0.8425,0.1613 0.6279,0.3923 0.6432,1.1012 0.0452,2.1249l-0.3125 0.539 0.1928 0.1205c0.2442,0.1526 0.4572,0.2129 0.6395,0.18 0.1817,-0.032 0.3446,-0.1633 0.4893,-0.395 0.1617,-0.2587 0.2657,-0.602 0.3114,-1.0288l0.4507 0.0808c-0.0123,0.2052 -0.0511,0.4141 -0.1191,0.6263 -0.0663,0.2118 -0.1566,0.4101 -0.2716,0.5942 -0.2313,0.3702 -0.4857,0.594 -0.7624,0.6703 -0.2762,0.0754 -0.5971,0.0002 -0.9605,-0.2269l-2.1232 -1.3267 0.2186 -0.3499zm0.9973 -0.8563c-0.1829,0.2927 -0.2466,0.5735 -0.1905,0.8417 0.0561,0.2682 0.2289,0.492 0.5186,0.6731l0.281 0.1756 0.275 -0.4831c0.2207,-0.3835 0.3315,-0.6902 0.3308,-0.9197 0.0008,-0.23 -0.108,-0.4138 -0.325,-0.5495 -0.1706,-0.1065 -0.3325,-0.1363 -0.4865,-0.0883 -0.1524,0.0476 -0.2872,0.1641 -0.4034,0.3502zm-3.2028 3.8345l1.8703 1.4612c0.2359,0.1844 0.4537,0.2675 0.6536,0.2511 0.1999,-0.0164 0.3884,-0.1388 0.5671,-0.3676 0.2364,-0.3025 0.3284,-0.5873 0.275,-0.8568 -0.0542,-0.2685 -0.2686,-0.5491 -0.6449,-0.8431l-1.5173 -1.1855 0.3419 -0.4376 2.8914 2.259 -0.2779 0.3557 -0.4518 -0.2384 -0.0169 0.0216c0.0735,0.201 0.0849,0.4129 0.0366,0.6362 -0.0476,0.2224 -0.1494,0.4343 -0.3041,0.6324 -0.2723,0.3485 -0.5617,0.5444 -0.8663,0.5892 -0.3063,0.0449 -0.6429,-0.0774 -1.0121,-0.3659l-1.8865 -1.4739 0.3419 -0.4376zm-1.1964 1.4509l0.357 -0.4254 2.8108 2.3586 -0.357 0.4254 -2.8108 -2.3586zm3.9595 2.5363c0.0972,0.0815 0.1491,0.1654 0.1542,0.2518 0.005,0.0847 -0.0229,0.1642 -0.0832,0.236 -0.0572,0.0682 -0.1292,0.1078 -0.2175,0.1188 -0.0882,0.0109 -0.1797,-0.0241 -0.2751,-0.1041 -0.0955,-0.0801 -0.1467,-0.1648 -0.1521,-0.2544 -0.0045,-0.0888 0.0211,-0.1673 0.0784,-0.2356 0.0602,-0.0717 0.1345,-0.1123 0.2206,-0.1207 0.0876,-0.0085 0.1793,0.0281 0.2747,0.1082zm-5.6756 -0.8789c0.3905,-0.377 0.813,-0.5547 1.2677,-0.5347 0.4554,0.0193 0.8863,0.2402 1.2943,0.6627 0.4112,0.4258 0.6331,0.8644 0.6656,1.3175 0.0317,0.4524 -0.128,0.8496 -0.4814,1.1909 -0.3305,0.3191 -0.6983,0.463 -1.1002,0.4318 -0.4035,-0.0313 -0.7767,-0.2253 -1.1212,-0.5821l-0.2437 -0.2523 1.8182 -1.7559c-0.3074,-0.302 -0.6126,-0.4616 -0.9161,-0.4799 -0.3036,-0.0166 -0.591,0.1053 -0.8606,0.3657 -0.2836,0.2738 -0.5076,0.6045 -0.6703,0.992l-0.3445 -0.3568c0.0826,-0.1973 0.1737,-0.3695 0.2749,-0.5181 0.1004,-0.1477 0.239,-0.3085 0.4173,-0.4808zm2.4272 2.2963c0.2121,-0.2048 0.3139,-0.4366 0.3064,-0.6961 -0.0068,-0.2604 -0.117,-0.5225 -0.3306,-0.7881l-1.3793 1.332c0.2437,0.2524 0.4861,0.3915 0.7281,0.4168 0.2421,0.0252 0.4666,-0.063 0.6754,-0.2646zm-4.2867 -0.5679l0.4128 -0.3716 3.4859 3.8715 -0.4127 0.3716 -3.486 -3.8715zm-5.2927 3.9184l0.5551 -0.3745 2.807 0.9696 0.1701 -0.6633 -1.0729 -1.5906 0.4718 -0.3183 2.7369 4.0576 -0.4718 0.3182 -1.3573 -2.0122 -0.4825 3.2531 -0.558 0.3764 0.4428 -2.8624 -3.2412 -1.1536zm-1.6232 0.7168c0.4793,-0.2548 0.9344,-0.3092 1.3659,-0.1646 0.4325,0.1441 0.7859,0.4752 1.0616,0.9937 0.2779,0.5227 0.3703,1.0055 0.2766,1.45 -0.0942,0.4436 -0.3572,0.7814 -0.791,1.0121 -0.4056,0.2157 -0.7988,0.2526 -1.1765,0.1118 -0.3793,-0.1413 -0.6846,-0.4307 -0.9174,-0.8686l-0.1647 -0.3098 2.2318 -1.1866c-0.2124,-0.375 -0.4616,-0.6126 -0.7484,-0.7138 -0.2872,-0.0997 -0.5971,-0.0617 -0.9281,0.1142 -0.348,0.1851 -0.6545,0.4412 -0.9177,0.7689l-0.2328 -0.4379c0.1338,-0.167 0.2688,-0.3074 0.407,-0.4223 0.1372,-0.1143 0.3148,-0.2307 0.5337,-0.3471zm1.7002 2.8763c0.2604,-0.1384 0.4221,-0.3331 0.4864,-0.5847 0.0652,-0.2521 0.0316,-0.5345 -0.1005,-0.8486l-1.6931 0.9002c0.1647,0.3097 0.3594,0.5104 0.5851,0.6013 0.2257,0.091 0.4659,0.0681 0.7221,-0.0682zm-5.7969 -1.0142l0.8891 2.2006c0.1121,0.2776 0.2592,0.4585 0.4405,0.5442 0.1813,0.0858 0.4058,0.0739 0.6748,-0.0348 0.3561,-0.1438 0.5782,-0.3445 0.6666,-0.6045 0.0874,-0.2596 0.042,-0.6098 -0.1369,-1.0527l-0.7213 -1.7852 0.5149 -0.2081 1.3746 3.4021 -0.4186 0.1691 -0.272 -0.4324 -0.0255 0.0103c-0.0368,0.2108 -0.1329,0.4 -0.2864,0.5693 -0.1523,0.1688 -0.3465,0.3014 -0.5796,0.3956 -0.41,0.1656 -0.7586,0.1906 -1.0448,0.077 -0.2877,-0.1142 -0.518,-0.3884 -0.6935,-0.8228l-0.8968 -2.2197 0.5149 -0.208zm-3.7089 1.133l0.6542 2.2815c0.0825,0.2878 0.2099,0.4831 0.3812,0.5873 0.1713,0.1042 0.3958,0.1159 0.6748,0.0359 0.3691,-0.1058 0.611,-0.2822 0.7261,-0.5316 0.114,-0.249 0.1055,-0.602 -0.0261,-1.0612l-0.5308 -1.8508 0.5339 -0.1531 1.0114 3.5271 -0.4339 0.1244 -0.2254 -0.4584 -0.0263 0.0075c-0.0587,0.2059 -0.1741,0.384 -0.3444,0.5362 -0.1692,0.152 -0.3761,0.2636 -0.6178,0.3329 -0.4251,0.1219 -0.7743,0.1103 -1.0471,-0.0326 -0.2742,-0.1436 -0.4746,-0.4404 -0.6038,-0.8908l-0.6598 -2.3012 0.5338 -0.1531zm-2.8101 0.5475c0.5346,-0.0942 0.9842,-0.0053 1.3499,0.2656 0.3668,0.2706 0.6006,0.6947 0.7026,1.2732 0.1028,0.5829 0.0414,1.0706 -0.185,1.4645 -0.2267,0.3927 -0.5812,0.6327 -1.0651,0.718 -0.4524,0.0798 -0.8378,-0.0066 -1.1535,-0.2572 -0.317,-0.2516 -0.518,-0.6212 -0.6041,-1.1096l-0.0609 -0.3455 2.4893 -0.4389c-0.0861,-0.4223 -0.2497,-0.7253 -0.4912,-0.9101 -0.2424,-0.1835 -0.5488,-0.2432 -0.9179,-0.1781 -0.3882,0.0684 -0.7588,0.2173 -1.1104,0.4476l-0.0861 -0.4884c0.1788,-0.1175 0.3506,-0.2092 0.5176,-0.2758 0.1658,-0.0664 0.3706,-0.1222 0.6148,-0.1653zm0.7282 3.261c0.2903,-0.0512 0.5044,-0.1864 0.6432,-0.4058 0.14,-0.2197 0.1952,-0.4986 0.1667,-0.8382l-1.8884 0.333c0.0609,0.3455 0.1841,0.5964 0.3706,0.7527 0.1865,0.1562 0.422,0.2087 0.7079,0.1583zm-3.2292 -2.8582l0.55 -0.0773 0.725 5.159 -0.55 0.0773 -0.725 -5.159zm-2.9356 2.6772c-0.0047,0.2708 -0.0722,0.4742 -0.2004,0.6125 -0.1281,0.1395 -0.3133,0.206 -0.5544,0.2018 -0.2342,-0.0041 -0.4146,-0.0758 -0.5413,-0.2175 -0.1278,-0.1405 -0.1882,-0.3472 -0.1834,-0.6226 0.0046,-0.2651 0.0721,-0.4685 0.2026,-0.6102 0.1305,-0.1417 0.3146,-0.2105 0.5511,-0.2064 0.2388,0.0042 0.4203,0.0805 0.5457,0.229 0.1243,0.1484 0.1847,0.3529 0.1801,0.6134z"/>
   <path id="_626309120" class="fil0" d="M62.1566 23.8472c0.3343,0.4288 1.1676,1.4776 1.7868,2.3367 1.3602,1.8118 4.2452,4.6016 4.5301,4.4112 0.3594,-0.1911 -1.0237,-3.4577 -1.8598,-4.4592 -0.9522,-1.144 -2.1928,-1.9787 -3.8364,-2.5986l-1.2893 -0.4775 0.6686 0.7874z"/>
   <path id="_626311832" class="fil0" d="M25.4629 24.4185c-1.4304,0.7388 -2.8614,2.051 -3.457,3.195 -0.4295,0.8583 -1.2399,3.3617 -1.1211,3.4813 0.1912,0.1904 3.3861,-2.9809 4.2208,-4.1729 0.5248,-0.7388 1.2636,-1.741 1.6931,-2.2414 0.6199,-0.7388 0.6679,-0.8819 0.2856,-0.8819 -0.2391,0 -0.9542,0.2863 -1.6214,0.6199z"/>
   <path id="_626309984" class="fil0" d="M68.0934 26.612c0.5004,0.5719 1.6443,3.8385 2.1934,6.3183l0.1425 0.6915 -0.6192 -0.6199c-0.3344,-0.3343 -1.2399,-1.0731 -1.9802,-1.6215 -0.738,-0.5483 -1.8355,-1.431 -2.4075,-1.9543 -0.9299,-0.882 -1.0251,-0.93 -0.8583,-0.3823 0.4052,1.5735 1.2385,2.7182 2.9573,4.1249 1.0008,0.8104 2.3116,1.9787 2.9086,2.5986 0.6192,0.6436 1.1927,1.1447 1.2642,1.1447 0.0716,0 0.1425,-1.3351 0.1425,-2.9809 0,-2.623 -0.0716,-3.1234 -0.5734,-4.2674 -0.6178,-1.4067 -2.1448,-3.0761 -2.9795,-3.3138 -0.5011,-0.1188 -0.5247,-0.0952 -0.1904,0.2621z"/>
   <path id="_626309576" class="fil0" d="M19.5741 28.043c-1.5972,1.7167 -1.8363,2.7182 -1.6695,7.5103l0.048 1.8598 1.7167 -1.6214c3.6717,-3.4806 4.3861,-4.2917 4.9109,-5.4121 0.3107,-0.6199 0.4775,-1.2163 0.4052,-1.2878 -0.0716,-0.096 -0.4768,0.1904 -0.9063,0.6199 -0.4296,0.4059 -1.3588,1.2399 -2.0983,1.8362 -0.7624,0.572 -1.7646,1.5256 -2.2414,2.0739 -0.5011,0.572 -0.8104,0.8111 -0.7151,0.5484 0.0952,-0.262 0.3815,-1.3831 0.6435,-2.5034 0.262,-1.1204 0.7388,-2.6459 1.0488,-3.409 0.7166,-1.7403 0.3357,-1.8126 -1.1425,-0.2148z"/>
   <path id="_626312000" class="fil0" d="M72.6943 35.4581c-0.0966,2.3602 -0.0966,4.578 -0.0236,4.9588l0.1188 0.668 -0.2627 -0.5957c-0.1675,-0.3336 -0.4768,-1.0258 -0.7381,-1.5742 -0.2627,-0.5963 -1.2642,-1.7166 -2.6466,-2.9558 -1.1912,-1.0975 -2.0495,-1.8363 -1.8834,-1.6695 0.1439,0.1912 0.2863,0.6207 0.2863,0.9536 0,0.6915 1.4067,3.1477 3.0031,5.2696 0.5734,0.7388 1.3602,1.9794 1.741,2.7661 0.6923,1.3824 0.6923,1.3824 0.8584,0.6672 0.0966,-0.4052 0.3801,-1.3587 0.6192,-2.1462 0.8583,-2.575 0.9772,-3.3138 0.882,-5.4836 -0.0716,-1.5506 -0.2613,-2.4798 -0.6429,-3.3861 -1.0244,-2.3359 -1.1211,-2.1455 -1.3115,2.5278z"/>
   <path id="_626311688" class="fil0" d="M15.9259 32.7392c-0.7867,1.6937 -1.1683,3.7204 -0.9779,5.3647 0.0953,0.7152 0.572,2.5278 1.0731,4.0297l0.93 2.7418 0.5491 -1.1919c0.2856,-0.6436 1.0487,-1.9071 1.693,-2.7898 1.4776,-2.0503 2.7182,-4.3389 2.9322,-5.3877l0.1668 -0.8104 -1.4546 1.2636c-1.6931,1.5019 -2.7898,2.9558 -3.3854,4.5057l-0.4052 1.0967 -0.0236 -2.6229c-0.0244,-1.454 -0.1196,-3.2666 -0.2384,-4.077 -0.1196,-0.7867 -0.1432,-1.8834 -0.0236,-2.4311 0.2376,-1.3831 -0.0967,-1.2406 -0.8355,0.3086z"/>
   <path id="_626311976" class="fil0" d="M75.6502 39.535c0,0.786 -0.524,2.5034 -1.5256,5.0068 -0.4545,1.1204 -0.9535,2.5035 -1.1196,3.0754l-0.3107 1.0488 -0.2863 -1.5492c-0.1661,-0.8583 -0.4768,-1.9314 -0.6908,-2.3602 -0.6687,-1.2642 -2.3123,-4.0297 -2.4806,-4.1492 -0.4767,-0.2864 0.7395,5.7456 1.5728,7.8675 0.1919,0.5254 0.431,1.7646 0.5255,2.7425l0.1439 1.7882 1.8104 -2.4561c2.4089,-3.2666 2.9337,-4.7685 2.9337,-8.1546 0,-1.4539 -0.1189,-2.7175 -0.2864,-2.9802 -0.2627,-0.4517 -0.2627,-0.4517 -0.2863,0.1203z"/>
   <path id="_626309816" class="fil0" d="M13.7561 40.1306c-0.3579,0.7867 -0.1911,5.102 0.2384,6.5803 0.4052,1.3351 0.882,2.1219 3.1241,4.9604l1.1919 1.5011 0.1661 -1.4059c0.0723,-0.7632 0.5247,-2.7891 0.9779,-4.5065 0.4775,-1.6938 0.9063,-3.8865 1.0015,-4.8644l0.1432 -1.7882 -0.7388 1.3122c-1.9787,3.5522 -2.4082,4.6732 -2.4318,6.294 -0.0237,0.8583 -0.1196,1.5026 -0.2384,1.4303 -0.0952,-0.0716 -0.1912,-0.3343 -0.1912,-0.5963 0,-0.5233 -0.9055,-3.5279 -1.1919,-3.9102 -0.3336,-0.4767 -1.4776,-3.6001 -1.6451,-4.53 -0.1675,-0.8097 -0.2147,-0.882 -0.4059,-0.4768z"/>
   <path id="_626309240" class="fil0" d="M20.0029 50.7406c-0.4532,2.9566 -0.3816,4.6489 0.2627,6.1988 0.3808,0.9299 0.214,0.8111 -0.8347,-0.6679 -0.4052,-0.5727 -1.6215,-2.003 -2.7182,-3.1714 -1.0967,-1.1919 -2.2651,-2.6702 -2.623,-3.2665 -0.6436,-1.0953 -0.6672,-1.1196 -0.6672,-0.4045 0,1.9071 0.9772,4.3397 2.4791,6.08 1.2392,1.4775 6.6283,5.2681 6.9862,4.936 0.0716,-0.0724 -0.0472,-0.4775 -0.2627,-0.8827 -0.3336,-0.6916 -0.524,-1.8355 -1.0967,-6.6756 -0.31,-2.5507 -0.7395,-4.7441 -0.9299,-4.8873 -0.0945,-0.0479 -0.3573,1.1912 -0.5956,2.7411z"/>
   <path id="_626308496" class="fil0" d="M69.0226 48.2852c-0.2864,0.5011 -0.6686,3.147 -1.0008,6.6519 -0.2391,2.6222 -0.3579,3.2665 -0.7395,4.1965 -0.1425,0.3572 -0.2141,0.7387 -0.1904,0.8812 0.166,0.4303 4.3389,-2.4562 5.984,-4.1005 2.0495,-2.0747 3.0511,-4.0533 3.2171,-6.2948l0.1203 -1.6214 -0.6192 1.2871c-0.358,0.6916 -1.3588,2.0267 -2.2414,2.9809 -0.9078,0.93 -2.0038,2.1692 -2.4555,2.7648 -0.431,0.5963 -0.8834,1.169 -1.0022,1.3115 -0.0952,0.1195 -0.3329,0.4531 -0.5484,0.7151 -0.3107,0.4295 -0.3107,0.3816 0,-0.3579 0.8347,-2.0975 0.882,-2.9802 0.3816,-5.9125 -0.2864,-1.5262 -0.5484,-2.8134 -0.5971,-2.8613 -0.0465,-0.0466 -0.1897,0.121 -0.3085,0.3594z"/>
   <path id="_626311400" class="fil0" d="M65.8283 55.4382c-0.597,0.8812 -1.3114,2.3123 -1.5978,3.1713 -0.3093,0.8577 -0.6429,1.764 -0.7395,2.026 -0.1188,0.2627 -0.3801,1.0015 -0.6178,1.6214 -0.2155,0.6429 -0.7159,1.5972 -1.0974,2.1219 -0.3816,0.5247 -0.6429,1.0015 -0.5971,1.0731 0.2864,0.2856 5.3884,-0.9772 6.7243,-1.6687 1.5033,-0.7624 3.5049,-2.4075 4.4828,-3.7433 0.8111,-1.096 1.5978,-2.5507 1.5978,-3.0031 0,-0.0723 -0.6206,0.4288 -1.3845,1.1203 -0.8333,0.7617 -2.2636,1.716 -3.5278,2.3359 -1.1691,0.5971 -2.6946,1.4067 -3.3611,1.8599 -0.6922,0.4302 -1.2642,0.7388 -1.2642,0.6915 0,-0.0716 0.3579,-0.834 0.8096,-1.7403 0.5019,-1.0001 0.93,-2.3123 1.0975,-3.4104 0.1424,-0.9765 0.3815,-2.2644 0.5004,-2.8363 0.1424,-0.5727 0.1918,-1.0724 0.1424,-1.1454 -0.0716,-0.048 -0.5963,0.6442 -1.1676,1.5262z"/>
   <path id="_626309792" class="fil0" d="M23.0783 55.6286c0.3579,3.1477 1.0494,5.4607 2.0502,6.8667 0.5248,0.7388 1.0731,1.3588 1.2163,1.3588 0.1432,0 0.2141,0.0479 0.1432,0.1195 -0.0716,0.0723 -0.8583,-0.3579 -1.7646,-0.9535 -0.9056,-0.62 -2.7168,-1.6222 -4.0526,-2.2651 -1.7403,-0.8347 -2.7418,-1.5026 -3.6718,-2.4318 -1.0015,-1.0008 -1.2162,-1.1447 -1.0731,-0.6679 0.358,1.2155 2.3603,3.8865 3.6482,4.8873 1.2155,0.9779 2.6229,1.7646 3.7433,2.1469 0.7624,0.2613 5.2452,1.048 5.3397,0.9299 0.048,-0.0487 -0.1661,-0.5011 -0.4768,-0.9786 -0.6435,-1.0015 -1.2155,-2.2887 -2.3838,-5.3161 -0.7388,-1.9551 -1.4547,-3.2909 -2.4083,-4.5308l-0.4767 -0.5956 0.1668 1.4303z"/>
   <path id="_626311040" class="fil0" d="M59.5573 62.9478c-1.4067,1.3587 -2.7182,2.5506 -2.9337,2.6709 -0.2377,0.1181 -0.5226,0.3565 -0.6908,0.4997 -0.1425,0.1439 -0.882,0.4775 -1.6222,0.6915 -0.7381,0.2391 -1.2864,0.4775 -1.2385,0.5248 0.048,0.0472 0.5734,0.1911 1.144,0.3099 0.5734,0.1189 2.0037,0.4525 3.1713,0.7152 3.8393,0.882 6.2947,0.5491 8.965,-1.2163 1.4067,-0.9292 2.789,-2.2407 2.5757,-2.4547 -0.073,-0.0723 -0.5956,0.1424 -1.169,0.4524 -1.4304,0.7868 -2.4791,1.0259 -5.6977,1.3122 -1.5019,0.1425 -3.1713,0.3093 -3.6954,0.4045l-0.9535 0.1432 1.1196 -0.7159c1.2163,-0.7875 2.4326,-2.2658 2.9795,-3.6245 0.1675,-0.4524 0.4531,-1.0724 0.597,-1.358 0.572,-1.1676 -0.1202,-0.7159 -2.5513,1.6451z"/>
   <path id="_626311208" class="fil0" d="M27.4895 60.8982c0,0.0945 0.4524,1.0488 1.0008,2.0982 1.0731,2.0983 2.2887,3.3618 3.719,3.8629 1.0731,0.3809 0.9299,0.3809 -1.3824,0.0952 -0.9779,-0.1431 -2.9565,-0.3572 -4.3632,-0.4767 -1.9071,-0.1668 -2.9323,-0.3816 -3.9102,-0.8348 -0.7388,-0.3336 -1.3823,-0.5719 -1.4303,-0.524 -0.262,0.2849 2.2171,2.2651 3.7433,3.0038 1.6695,0.7875 1.9551,0.8584 4.0533,0.8355 1.6931,0 2.9323,-0.1675 4.888,-0.6694 1.454,-0.3815 2.7175,-0.7617 2.8134,-0.8576 0.1189,-0.0952 -0.2627,-0.2863 -0.8347,-0.4288 -1.383,-0.3587 -2.527,-1.1927 -5.412,-3.8629 -2.3603,-2.1949 -2.885,-2.623 -2.885,-2.2414z"/>
   <path id="_626308232" class="fil0" d="M39.0531 67.7642c-0.6436,0.1668 -2.4319,0.8111 -3.9345,1.4296 -3.6238,1.5041 -6.1751,1.7174 -8.7022,0.7402 -0.9779,-0.3816 0.9543,1.0967 2.265,1.7167 1.1204,0.5491 1.6215,0.6192 3.5766,0.6192 2.6229,0 3.4569,-0.2863 6.3412,-2.2171 2.0983,-1.431 3.147,-1.9078 4.1492,-1.9078 1.0488,0 0.882,0.3343 -0.5719,1.0968 -1.8599,0.9771 -5.1501,3.6481 -5.1501,4.1714 0,0.2384 0.1912,0.5254 0.4052,0.6686 0.3343,0.1668 0.7631,-0.0959 2.2178,-1.4776 2.0739,-2.0037 4.578,-3.7433 5.3648,-3.7433 0.7631,0 3.2665,1.7167 5.2696,3.6245 0.9299,0.907 1.7882,1.6207 1.9071,1.6207 0.1188,0 0.4052,-0.214 0.6428,-0.476 0.3816,-0.4532 0.358,-0.4997 -0.2613,-1.0967 -0.9299,-0.8813 -3.7905,-2.8843 -4.9832,-3.4806 -0.8583,-0.4296 -0.9779,-0.5491 -0.6443,-0.7388 0.7159,-0.4059 2.0274,0.0472 4.2208,1.4303 1.2149,0.7624 2.4555,1.527 2.7891,1.6687 2.6946,1.2635 6.1981,0.9543 8.7974,-0.7624 1.2163,-0.8104 1.2643,-1.1919 0.1203,-0.7152 -1.7647,0.7388 -5.0563,0.4289 -7.6062,-0.7151 -3.505,-1.5735 -5.2939,-1.9558 -7.8446,-1.6694 -2.051,0.2147 -2.5507,0.2147 -5.1493,0.0479 -1.3358,-0.0966 -2.4326,-0.0494 -3.2193,0.1654z"/>
   <path id="_626309648" class="fil0" d="M45 71.2231c1.3085,0 2.3693,1.0607 2.3693,2.3692 0,1.3085 -1.0608,2.3692 -2.3693,2.3692 -1.3085,0 -2.3692,-1.0607 -2.3692,-2.3692 0,-1.3085 1.0607,-2.3692 2.3692,-2.3692z"/>
  </g>
 </g>
</svg>
