<?xml version="1.0" encoding="UTF-8"?>
<!DOCTYPE svg PUBLIC "-//W3C//DTD SVG 1.1//EN" "http://www.w3.org/Graphics/SVG/1.1/DTD/svg11.dtd">
<!-- Creator: CorelDRAW X5 -->
<svg xmlns="http://www.w3.org/2000/svg" xml:space="preserve" width="90mm" height="163.508mm" style="shape-rendering:geometricPrecision; text-rendering:geometricPrecision; image-rendering:optimizeQuality; fill-rule:evenodd; clip-rule:evenodd"
viewBox="0 0 90 163.508"
 xmlns:xlink="http://www.w3.org/1999/xlink">
 <defs>
  <style type="text/css">
   <![CDATA[
    .fil0 {fill:#4D4D4D}
   ]]>
  </style>
 </defs>
 <g id="Layer_x0020_1">
  <metadata id="CorelCorpID_0Corel-Layer"/>
  <g id="_626309528">
   <path id="_626305112" class="fil0" d="M65.6587 134.859c-0.8672,-1.021 -0.5751,-1.5933 0.1379,-2.0029 -1.5246,-0.6427 -0.9851,-1.921 -0.4061,-2.2905 0.8147,-0.5213 2.4485,-0.61 3.3059,0.417 1.8224,2.1839 -0.0739,5.6323 -2.1772,6.4604 -5.1871,2.0442 -10.6814,-0.2657 -11.7763,-5.9075 -0.7451,-3.8376 0.6652,-7.1066 3.1507,-10.1619 -0.9869,3.2556 0.3593,7.2809 3.9302,7.6919 4.3009,0.4949 5.6443,-4.6084 3.0792,-6.7342 -1.4299,-1.1871 -3.3111,-0.6884 -4.2466,0.3917 -0.629,0.7261 -0.7842,1.7168 -0.2633,2.6287 0.648,1.1337 2.9525,1.3072 3.0215,-0.1647 0.0254,-0.5483 -0.397,-1.0125 -0.9443,-1.0382 -0.5476,-0.0254 -1.0118,0.3977 -1.0375,0.9446 -0.0092,0.183 0.0327,0.3576 0.113,0.5079 -0.8391,-0.3601 -1.3751,-1.5359 -0.5192,-2.5693 1.7552,-2.117 4.7549,-0.2629 4.3121,2.4992 -0.5219,3.2542 -5.1888,3.9454 -6.6965,0.1296 -0.6279,-1.5884 -0.4322,-3.8546 0.3111,-5.512 1.5834,-1.7266 3.4738,-3.3998 5.4679,-5.0853 1.7291,-1.3142 2.1096,-0.4304 0.7201,0.8852 -2.0089,1.9012 -2.2898,3.3125 -0.7701,5.0089 -0.2995,-1.1276 -0.0792,-1.7559 0.7324,-1.8189 -1.3191,-1.0899 -0.8292,-2.0986 0.465,-3.259 1.9705,-1.7679 0.7465,-2.1413 2.4154,-3.5456 4.5972,-3.8665 4.3227,-7.9418 0.2661,-8.0678 1.0907,0.4449 1.6478,1.1421 0.9119,2.4542 1.3677,1.1857 0.7166,3.8071 -1.6714,5.4345 -10.5684,7.2034 -16.3999,12.8694 -15.1156,19.8947 1.2142,6.6431 8.4345,9.2718 14.4008,6.0043 2.4657,-1.3497 4.5584,-4.7263 2.1673,-7.3382 -1.449,-1.5834 -4.2643,-1.2973 -5.2726,0.8247 -0.6085,1.2804 0.3206,3.0968 1.9882,3.3185zm3.0056 -19.6195l0 0c1.7116,0.3396 2.2768,-1.8284 0.9376,-2.5474 -0.9738,-0.5241 -1.7326,0.9467 -0.7313,1.2585 0.2611,-0.285 0.2706,-0.6704 -0.1214,-0.7943 0.1728,-0.3115 0.7158,-0.5054 1.1501,0.2439 0.4298,0.7429 -0.2045,1.6756 -1.1037,1.4852 -1.267,-0.2678 -1.1565,-1.6915 -0.4691,-2.2419 -0.8197,-0.0606 -1.5096,2.2285 0.3378,2.596zm-10.6979 18.8326l0 0c0.3249,-3.6083 -4.6757,-5.0333 -1.0094,-9.9135 -1.0678,3.2616 4.152,6.1912 1.0094,9.9135zm0.1503 -2.3328l0 0c-0.032,-1.9533 -2.445,-2.5692 -1.6133,-5.2782 -0.3854,1.808 2.2827,3.3453 1.6133,5.2782zm4.8425 5.495l0 0c3.1267,0.1176 5.2631,-1.5704 4.1488,-3.384 -0.1207,-0.1964 -0.2759,-0.4026 -0.5388,-0.4149 -0.5646,-0.0264 -0.7581,0.6124 -0.4023,1.0199 0.3949,0.4523 1.4226,2.0456 -3.2077,2.779zm-4.2041 -8.872l0 0c1.0168,0.6329 2.0241,1.5571 2.2462,2.9427 0.1531,0.9541 -1.0066,0.9897 -1.0907,0.2693 -0.1193,-1.0197 -0.3213,-2.1716 -1.1555,-3.212zm3.9848 -9.6346l0 0c0.0461,0.8721 -0.3987,2.3415 -1.3919,1.7087 -0.4389,-0.2802 -0.4928,-0.9992 0.0964,-1.3522 0.1844,-0.1102 0.4227,-0.1573 0.6955,-0.1017 -0.8919,-0.7954 -2.5936,1.078 -1.2952,1.9459 1.0386,0.6937 2.2394,-0.3442 2.2173,-1.4391 -0.0169,-0.8208 -0.2299,-1.5134 0.3195,-2.3718 0.3495,-0.5466 0.8838,-0.9735 1.3294,-1.2417 -1.9456,0.0971 -2.0354,1.6408 -1.971,2.8519zm4.0045 -6.716l0 0c1.2016,-0.9274 2.3412,-1.8759 2.451,-3.7247 0.0201,-0.3421 -0.2404,-0.6789 -0.5092,-0.6926 -0.3179,-0.0169 -0.6452,0.3505 -0.4974,0.7338 0.4882,1.267 -0.2769,2.4309 -1.4444,3.6835z"/>
   <path id="_626308568" class="fil0" d="M80.9826 128.624c-0.3466,-0.6135 -0.4012,-1.1966 -0.1756,-1.8998 0.3502,0.1963 0.5177,0.4983 0.6747,0.8876 0.4181,-0.8683 -0.1031,-1.7608 0.429,-2.4447 1.1829,1.0077 0.9169,2.6544 -0.0612,3.3819 2.3313,0.1489 3.756,1.6042 3.5572,3.9855 -0.1595,1.9083 -1.0774,2.8748 -2.0875,3.1401 1.0101,0.2672 1.928,1.2333 2.0875,3.1419 0.1988,2.3813 -1.2259,3.8363 -3.5572,3.9855 0.9781,0.7275 1.2441,2.3739 0.0612,3.3816 -0.5321,-0.6825 -0.0109,-1.5761 -0.429,-2.4443 -0.157,0.3892 -0.3245,0.6912 -0.6747,0.8876 -0.2256,-0.7032 -0.171,-1.2864 0.1756,-1.9002 -2.7821,-1.0186 -4.5352,-3.4301 -5.073,-6.4784 -0.7014,5.3169 7.1168,7.0179 2.8276,16.1641 1.507,1.2948 2.054,2.5003 1.6404,3.6166 -0.5909,-0.0496 -1.1635,-0.2956 -1.6714,-1.2392 0.5899,1.8224 0.5899,2.9381 0.3221,3.7335 -0.7944,-0.3297 -1.4673,-0.8281 -1.5638,-2.1427 -0.1745,0.8366 -0.5321,1.2502 -1.0734,1.2393 -0.2098,-0.4354 -0.2249,-1.1893 -0.1074,-2.1607 -3.4199,2.0822 -4.1801,5.9269 -2.1159,6.9986 0.5068,0.2633 1.1379,0.1432 1.5229,-0.3418 0.6413,-0.8077 0.7306,-2.2384 -0.6258,-1.746 0.1274,0.3953 0.6022,0.1915 0.667,0.3298 0.196,0.4181 0.0309,0.8461 -0.3224,0.9214 -1.1822,0.2485 -1.5972,-0.7651 -1.0421,-1.7752 0.6194,-1.1287 2.4302,-0.9749 2.483,0.7035 0.0897,2.8068 -1.8101,3.6251 -3.7121,2.4176 -2.1405,-1.3593 -0.9105,-5.9811 1.5353,-8.1104 -4.0633,1.0027 -6.4573,-2.1244 -5.1206,-6.4625 1.1361,-3.6874 5.6189,-2.7477 6.4087,0.1344 0.4977,1.814 -0.9707,2.9793 -2.2993,2.7452 -0.8222,-0.1443 -1.4388,-1.494 -0.4646,-2.2627 0.4773,-0.3769 1.1439,0.0887 1.3842,0.6561 0.2503,-2.8385 -3.2727,-3.7927 -4.1093,-0.1007 -0.8651,3.8159 2.1479,4.8147 4.6306,4.4863 1.5943,-0.2097 2.4728,-1.2501 2.7287,-2.5449 -0.7148,0.2425 -1.2421,-0.1056 -1.3494,-0.8197 0.6782,0.1577 1.638,-0.0292 1.871,-1.2223 0.8527,-4.3688 -0.7233,-6.4348 -2.0062,-8.4282 -0.9453,-1.4684 -1.3842,-3.2457 -1.2448,-5.3631 -0.1394,-2.1155 0.2995,-3.8932 1.2448,-5.3616 1.2829,-1.9931 2.8589,-4.0594 2.0062,-8.4282 -0.233,-1.1931 -1.1928,-1.3796 -1.871,-1.2219 0.1073,-0.7142 0.6346,-1.0622 1.3494,-0.8197 -0.2559,-1.2949 -1.1344,-2.3352 -2.7287,-2.5454 -2.4827,-0.3283 -5.4957,0.6709 -4.6306,4.4878 0.8366,3.6909 4.3596,2.7364 4.1093,-0.1007 -0.2403,0.5663 -0.9069,1.0305 -1.3842,0.6546 -0.9742,-0.7686 -0.3576,-2.118 0.4646,-2.2623 1.3286,-0.234 2.797,0.9313 2.2993,2.7452 -0.7898,2.8818 -5.2726,3.8205 -6.4087,0.1345 -1.3367,-4.3385 1.0573,-7.4653 5.1206,-6.4626 -2.4458,-2.1293 -3.6758,-6.7514 -1.5353,-8.1107 1.902,-1.2075 3.8018,-0.3892 3.7121,2.4179 -0.0528,1.6781 -1.8636,1.8319 -2.483,0.7032 -0.5551,-1.0101 -0.1401,-2.0237 1.0421,-1.7752 0.3533,0.0753 0.5184,0.5033 0.3224,0.9217 -0.0648,0.1384 -0.5396,-0.0654 -0.667,0.3298 1.3564,0.492 1.2671,-0.9386 0.6258,-1.746 -0.385,-0.485 -1.0161,-0.6064 -1.5229,-0.3421 -2.0642,1.072 -1.304,4.9168 2.1159,6.9985 -0.1175,-0.971 -0.1024,-1.7252 0.1074,-2.1606 0.5413,-0.0109 0.8989,0.4026 1.0734,1.2392 0.0965,-1.3145 0.7694,-1.8125 1.5638,-2.1423 0.2678,0.7954 0.2678,1.9108 -0.3221,3.7332 0.5079,-0.9433 1.0805,-1.1896 1.6714,-1.2393 0.4136,1.1168 -0.1334,2.3222 -1.6404,3.617 4.2892,9.1459 -3.529,10.8472 -2.8276,16.1638 0.5378,-3.0483 2.2909,-5.4609 5.073,-6.4784zm1.1277 7.0506l0 0c-0.9288,-0.24 -1.7017,-1.0266 -1.7482,-2.1532 -0.0524,-1.2441 0.9327,-2.3158 2.0083,-1.6904 0.1844,0.5349 0.0612,0.9594 -0.7359,1.1385 -0.2017,0.9943 0.3086,1.9016 1.3493,1.7742 1.2871,-0.1552 1.3878,-1.4479 1.3188,-2.4446 -0.1123,-1.6232 -1.2125,-2.8276 -2.9441,-2.5109 -1.4088,0.258 -2.8107,1.1713 -3.7975,2.6481 -0.6716,1.0038 -0.9633,2.1374 -1.1738,3.2383 0.2105,1.1023 0.5022,2.236 1.1738,3.2401 0.9868,1.4768 2.3887,2.3898 3.7975,2.6481 1.7316,0.3178 2.8318,-0.8876 2.9441,-2.5112 0.069,-0.9967 -0.0317,-2.2891 -1.3188,-2.4443 -1.0407,-0.1263 -1.551,0.7796 -1.3493,1.7738 0.7971,0.1795 0.9203,0.6036 0.7359,1.1386 -1.0756,0.6258 -2.0607,-0.4463 -2.0083,-1.6901 0.0465,-1.1266 0.8194,-1.9135 1.7482,-2.155z"/>
   <path id="_626308328" class="fil0" d="M90 82.0187c-1.556,-1.9301 -3.5839,-2.7558 -5.0614,-2.0625 1.1663,-1.198 0.9432,-1.9653 -0.5501,-2.3376 -0.3604,-1.5982 -1.3779,-1.392 -2.4757,-0.9626 0.6832,2.1011 0.074,3.2168 -1.1684,3.8496 -1.7278,0.2812 -2.93,0.0145 -2.338,-2.1303 1.1642,0.6535 1.815,0.3308 2.0624,-0.7567 -0.8507,-2.1388 -2.0128,-1.5616 -3.2316,-0.4811 -1.235,2.8212 0.1288,4.0094 2.0515,4.8474 -1.998,-0.2545 -2.9244,-1.1143 -3.4234,-2.111 -0.3147,0.2474 -0.3759,0.6655 0.4765,1.7084 -1.3205,0.0327 -2.2754,0.2182 -2.9596,0.4364 0.6842,0.2192 1.6391,0.403 2.9596,0.4367 -0.8524,1.0418 -0.7912,1.4614 -0.4765,1.7074 0.499,-0.9968 1.4254,-1.8552 3.4234,-2.1089 -1.9227,0.8369 -3.2865,2.0251 -2.0515,4.8467 1.2188,1.0805 2.3809,1.6563 3.2316,-0.4815 -0.2474,-1.0875 -0.8982,-1.4099 -2.0624,-0.7567 -0.592,-2.1448 0.6102,-2.4115 2.338,-2.1314 1.2424,0.6342 1.8516,1.7496 1.1684,3.8511 1.0978,0.429 2.1153,0.6352 2.4757,-0.963 1.4933,-0.372 1.7164,-1.1396 0.5501,-2.3376 1.4775,0.6937 3.6106,-0.183 5.0614,-2.0628zm-9.6776 0l0 0c1.923,-0.3453 2.7864,-1.8974 3.2404,-3.7124 0.2731,0.4266 0.3263,1.153 -0.4114,2.9571 1.1413,0.057 1.9684,0.3773 2.5611,0.7553 -0.5927,0.3787 -1.4198,0.699 -2.5611,0.7556 0.7377,1.8045 0.6845,2.5305 0.4114,2.9575 -0.454,-1.815 -1.3174,-3.3672 -3.2404,-3.7131z"/>
   <path id="_626305592" class="fil0" d="M43.4519 49.7211c0.7972,-0.725 2.0093,-1.3419 2.4908,0.4791 0.3277,1.2416 -1.2396,2.4407 -2.9613,1.1167 -1.1597,-0.8922 -1.2044,-3.1028 0.0292,-4.5891 0.9675,-1.1667 3.1654,-1.4965 4.675,-0.6877 0.0278,-1.1168 0.6043,-1.569 1.3149,-1.8587 0.8541,0.8764 1.5792,1.8006 1.0386,3.2084 0.6117,-0.8682 1.4753,-1.1157 2.6104,-0.6986 0.5631,1.078 0.4681,2.3982 -0.2763,3.9577 0.6363,-0.8162 1.2959,-1.3944 2.0223,-1.3121 1.2241,1.5958 0.3766,3.0909 -0.7961,4.5712 0.6863,-0.4291 1.3585,-0.6582 1.9875,-0.2629 -0.6064,2.2102 -2.7787,2.9377 -4.6173,3.9805 2.319,-0.7746 4.6475,-1.3592 7.045,-0.6947 -0.1235,1.3142 0.4065,2.1402 1.4656,2.5682 -1.2801,-1.5342 -1.7841,-3.4509 0.8299,-3.4024 1.7175,0.0314 3.3259,2.3388 5.1518,0.1493 -1.7186,0.789 -2.3711,0.0844 -2.0631,-1.1192 0.322,-1.26 2.2458,-1.7788 3.1623,0.0957 1.6904,3.4555 -2.7931,4.8573 -5.7492,3.2798 2.5848,2.3402 5.4268,5.0889 8.7897,5.6006 4.7147,0.7166 6.6008,-1.8224 5.9029,-3.7067 -0.2358,-0.6367 -0.4674,-1.9231 -1.5834,-1.5338 2.6104,2.5559 -3.2239,2.9937 -1.5993,-0.3748 0.7838,-1.6247 3.8303,-1.1833 4.9604,0.4367 1.1991,1.7204 0.825,5.0111 -1.6932,5.6369 0.9013,0.1295 1.4743,0.5202 1.4317,1.3993 -1.8115,1.1639 -2.5551,0.6339 -3.4889,0.4072 0.573,0.5142 0.9623,1.0647 0.6814,1.7485 -2.1198,0.856 -2.7062,-0.2886 -3.5987,-1.0343 0.2548,0.725 0.0106,1.3131 -0.7345,1.7653 -1.3241,-0.4631 -1.965,-1.2779 -2.3099,-2.2454 -0.0436,0.5321 -0.2097,1.0126 -0.9485,1.2536 -1.4768,-0.6303 -1.8185,-1.9494 -1.8822,-3.4396 -0.0169,0.5357 -0.163,1.045 -0.6578,1.4839 -1.1502,-0.8739 -1.7619,-2.0565 -1.6781,-3.635 -0.5537,-0.5543 -1.1076,-1.1094 -1.6616,-1.6637 1.4634,2.2265 1.9611,4.4233 1.2234,6.5854 -0.5839,0.1672 -0.863,-0.7145 -0.8767,-2.5087 -0.094,1.096 -0.2365,2.0283 -0.7349,1.7654 0.1577,-5.3508 -1.8467,-8.6221 -7.8929,-8.0062 -3.5885,1.0608 -6.7134,3.264 -7.4451,11.3719 -0.5677,0.6331 -1.2625,0.8345 -2.0565,0.6986 0.3305,-4.9143 1.8551,-8.3289 4.2417,-11.0168 0.3083,-0.347 0.3689,-0.9094 -0.0355,-1.5957 -0.7398,0.6145 -1.5212,0.3502 -1.6468,-0.2485 -0.46,-2.2008 2.558,-2.1413 3.3097,0.2509 1.3192,-2.162 3.6691,-5.8371 0.5097,-9.2383 -2.9438,-3.1694 -5.8055,-1.3674 -5.8861,1.0621zm0.7944 19.8888l0 0c-0.1309,0.1214 -0.4773,0.2182 -0.6578,0.182 -0.2341,-2.6664 0.8862,-5.7667 3.598,-9.3749 -2.2624,3.6096 -3.2827,6.7521 -2.9402,9.1929zm4.6904 -21.8748l0 0c-0.6134,-0.6363 -0.5905,-1.398 -0.0344,-2.2648 -0.2432,0.8038 -0.3006,1.5714 0.0344,2.2648zm2.0245 8.9399l0 0c-0.107,-1.0259 0.46,-1.5363 1.5918,-1.6126 -0.7989,0.3297 -1.4021,0.8112 -1.5918,1.6126zm1.0111 -3.2158l0 0c-0.1059,-1.0256 0.4607,-1.5348 1.5919,-1.6112 -0.7982,0.3287 -1.4015,0.8098 -1.5919,1.6112zm-1.0439 -3.6409l0 0c-0.2245,-0.8549 0.1672,-1.5085 1.076,-1.9935 -0.6043,0.5822 -1.0295,1.2248 -1.076,1.9935zm12.3521 11.3138l0 0c0.7926,1.1277 1.1104,2.1621 1.0728,3.1296 -0.6089,-1.147 -0.9471,-2.1825 -1.0728,-3.1296zm9.3116 3.5551l0 0c1.0446,-0.0412 1.9959,0.2608 2.8533,0.907 -0.9235,0.0218 -1.8742,-0.2753 -2.8533,-0.907zm-2.83 0.0704l0 0c1.4331,0.3987 2.3415,1.1628 2.9433,2.1412 -0.896,-0.3903 -1.8653,-1.0621 -2.9433,-2.1412zm-1.8562 -0.4453l0 0c0.3065,0.9267 0.8204,1.7098 1.5824,2.3233 -0.3105,-0.8704 -0.8514,-1.6391 -1.5824,-2.3233zm-2.3535 -1.4873l0 0c0.8749,1.0098 1.2526,2.0258 1.1832,3.0458 -0.555,-0.8975 -0.9633,-1.9037 -1.1832,-3.0458z"/>
   <path id="_626308280" class="fil0" d="M63.7057 69.302c0.3706,0.7651 0.0186,1.2818 -1.0548,1.5507 -1.0488,-0.024 -1.197,-0.6462 -1.0949,-1.4332 -2.4141,-1.3483 -4.3554,-0.5987 -6.1462,0.8151 -0.6687,-0.0742 -1.3018,-0.1868 -1.6802,-0.5856 4.0749,-2.5791 7.5723,-3.2605 9.9761,-0.347z"/>
   <path id="_626308232" class="fil0" d="M55.097 66.4937c-0.0092,-0.6011 -0.219,-1.0512 -1.1161,-0.9858 -1.0495,0.8901 -0.7447,1.7936 0.1162,2.7041 2.7635,-0.1236 3.6553,-1.4392 3.2703,-3.5671 0.4723,-0.0197 0.7803,-0.1685 0.8661,-0.4948 0.0863,-0.8644 -0.7366,-1.3642 -1.8966,-1.7277 0.6011,-0.3481 1.0027,-0.7518 0.6029,-1.374 -0.7613,-0.4678 -1.5173,-0.264 -2.2733,0.1091 0.1468,-0.7951 -0.0528,-1.3941 -0.6219,-1.7823 -1.1473,-0.138 -1.7133,1.0671 -2.5639,1.8189 0.0503,-0.5167 -0.0546,-0.9725 -0.699,-1.2248 -1.1513,0.7602 -1.0312,1.8189 -0.8891,2.8821 -0.6268,-0.4132 -1.1969,-0.4463 -1.6935,0.0172 -0.2802,1.2428 0.2386,2.0129 1.141,2.5545 -0.7271,0.0898 -1.3508,0.2911 -1.6637,0.8306 0.1513,0.8901 0.8172,1.4867 1.5296,2.0565 -0.1693,0.1893 -0.3382,0.3783 -0.5075,0.5673 0.5427,1.916 3.6279,2.098 5.7808,2.9163 -1.4789,1.0414 -4.0035,-0.725 -6.0047,-1.0875 -0.3913,0.2678 -0.3509,0.605 -0.1629,0.9636 -1.7309,-1.4222 -2.5348,-1.5687 -3.0433,-1.3107 -0.3724,0.2464 -0.2031,0.5955 0.2551,1.0017 -0.6504,0.5494 -2.3735,-0.919 -2.8318,0.309 -0.1341,0.5167 0.2837,0.9035 1.0823,1.2044 -0.9306,0.0809 -2.0146,-0.837 -2.7896,0.2446 -0.3097,0.5603 0.0729,1.1058 1.0143,1.6383 -1.0347,0.5237 -2.7135,-0.0486 -3.1028,1.5715 0.2316,0.7345 1.0136,0.8911 2.2349,0.5856 -1.7055,1.1689 -2.1743,3.327 -1.0889,5.0548 0.2675,0.3846 0.593,0.7507 0.9858,1.0952 0.4582,0.3685 1.0207,0.6898 1.6925,0.9383 1.4606,0.541 2.6808,-0.9397 3.2725,-2.0335 -0.6152,-1.1193 -1.8119,-2.5767 -3.2725,-2.0357 -0.5413,0.2013 -1.0118,0.4484 -1.4138,0.7299 0.245,0.3953 0.5501,0.7504 0.913,1.0671 0.6233,-0.6029 2.3517,-0.6926 2.4306,0.2387 -0.1894,1.3631 -2.9737,0.4997 -3.655,-1.1689 -0.3801,-0.9312 -0.17,-2.1328 0.8309,-3.5695 0.1595,-0.2305 0.3305,-0.4452 0.5093,-0.644 -0.516,-0.0134 -1.0784,-0.1443 -1.6866,-0.3865 0.7356,0.075 1.4423,0.076 2.1037,-0.0376 0.4663,-0.4294 0.9826,-0.7712 1.5408,-1.026 -0.6381,-0.1661 -1.2716,-0.5708 -1.9016,-1.1966 0.8823,0.4874 1.7679,0.8267 2.6597,0.9115 0.2633,-0.0799 0.5318,-0.1429 0.8081,-0.189 -0.5322,-0.5201 -0.9904,-1.2209 -1.3797,-2.0927 0.6621,0.7905 1.3677,1.4793 2.1381,2.0069 0.5403,-0.0317 1.1009,-0.0074 1.6764,0.0735 -0.7226,-0.5346 -1.3258,-1.3652 -1.8175,-2.4672 1.1548,1.3797 2.4397,2.4454 3.9778,2.8991 2.4619,0.3649 4.4011,-0.3953 5.6572,-2.716 1.8858,-0.3249 3.5417,-1.0538 4.7915,-2.4943 -0.1654,-0.4847 -0.4748,-0.6462 -1.0439,-0.2267 -1.9783,1.4128 -3.6335,1.5254 -5.2726,1.5729 1.5803,-0.3653 3.6748,-0.6258 3.5579,-1.3462 -3.1774,1.0175 -4.6004,0.9217 -5.6168,0.0704 -0.8137,0.0897 -1.6837,-0.2172 -2.6058,-0.8792 0.7391,0.2671 1.4655,0.4438 2.1733,0.4815 -0.6072,-0.6026 -1.0158,-1.2269 -1.2523,-1.8404 -0.6536,-0.0644 -1.3416,-0.3653 -2.06,-0.8806 0.6522,0.2355 1.2956,0.4002 1.9235,0.4635 -0.1243,-0.4744 -0.1468,-0.9351 -0.0817,-1.368 -0.6141,-0.3551 -1.1294,-0.9809 -1.5546,-1.8527 0.5135,0.5737 1.058,1.0672 1.6486,1.4346 0.0982,-0.3287 0.2495,-0.6353 0.4473,-0.913 -0.2178,-0.6331 -0.2224,-1.3979 -0.0334,-2.2831 0.045,0.68 0.1478,1.3241 0.3371,1.9157 0.0402,-0.0412 0.0813,-0.0827 0.1236,-0.1214 0.2991,-0.2823 0.6205,-0.4945 0.9513,-0.6438 0.0648,-0.77 0.4811,-1.5422 1.2167,-2.3172 -0.3769,0.7215 -0.6596,1.4416 -0.787,2.1631 0.2531,-0.07 0.5075,-0.1028 0.7603,-0.1017 0.4603,-0.4984 1.1417,-0.8658 2.0251,-1.1143 -0.5688,0.3505 -1.0812,0.7324 -1.5124,1.1639 0.7222,0.1383 1.4019,0.5617 1.9263,1.2452 0.53,0.6912 0.0756,2.0822 -1.0766,1.9994zm-15.2596 15.8417l0 0c-0.8088,1.6563 -0.2932,3.6001 1.2934,4.6866 -1.2213,-0.3044 -2.0033,-0.1492 -2.2349,0.5857 0.3893,1.6211 2.0688,1.0474 3.1028,1.5711 -0.9414,0.5335 -1.324,1.078 -1.0143,1.6383 0.775,1.0826 1.859,0.1637 2.7896,0.246 -0.7986,0.2995 -1.2164,0.6877 -1.0823,1.203 0.4583,1.2283 2.1814,-0.2404 2.8318,0.309 -0.4582,0.4062 -0.6275,0.7567 -0.2551,1.0027 0.5085,0.2584 1.3124,0.1105 3.0433,-1.3117 -0.188,0.36 -0.2284,0.6958 0.1629,0.964 2.0012,-0.3629 4.5258,-2.1293 6.0047,-1.0879 -2.1529,0.8186 -5.2381,1.0006 -5.7808,2.9173 0.1693,0.1894 0.3382,0.3784 0.5075,0.5674 -0.7124,0.5687 -1.3783,1.1667 -1.5296,2.0564 0.3129,0.5399 0.9366,0.7409 1.6637,0.8306 -0.9024,0.542 -1.4212,1.3107 -1.141,2.5549 0.4969,0.4631 1.0667,0.4293 1.6935,0.0158 -0.1421,1.0632 -0.2622,2.1219 0.8891,2.8821 0.6444,-0.2523 0.7493,-0.7081 0.699,-1.2248 0.8506,0.7518 1.4166,1.9583 2.5639,1.82 0.5691,-0.3879 0.7687,-0.9869 0.6219,-1.7834 0.756,0.3735 1.512,0.5783 2.2729,0.1091 0.4002,-0.6222 -0.0014,-1.0245 -0.6025,-1.3726 1.16,-0.3649 1.9829,-0.8647 1.8966,-1.7291 -0.0858,-0.3259 -0.3945,-0.4755 -0.8661,-0.4934 0.385,-2.1279 -0.5068,-3.4435 -3.2703,-3.5674 -0.8609,0.9094 -1.1657,1.8129 -0.1162,2.704 0.8971,0.0644 1.1069,-0.3857 1.1161,-0.9858 1.1522,-0.0824 1.6066,1.3072 1.0766,1.9994 -0.5244,0.6828 -1.2051,1.1073 -1.9263,1.2452 0.4312,0.4319 0.9436,0.8138 1.5124,1.1629 -0.8834,-0.2485 -1.5648,-0.6159 -2.0244,-1.1129 -0.2535,0.0011 -0.5079,-0.0327 -0.761,-0.102 0.1274,0.7215 0.4087,1.4419 0.787,2.162 -0.7356,-0.7736 -1.1519,-1.5472 -1.2174,-2.3173 -0.3301,-0.1478 -0.6515,-0.3614 -0.9506,-0.6426 -0.0423,-0.0398 -0.0841,-0.0813 -0.1236,-0.1225 -0.1893,0.592 -0.2921,1.2368 -0.3371,1.916 -0.189,-0.8851 -0.1844,-1.6492 0.0334,-2.282 -0.1978,-0.2788 -0.3491,-0.5857 -0.4473,-0.913 -0.5906,0.3671 -1.1344,0.8595 -1.6486,1.4332 0.4252,-0.8718 0.9405,-1.4976 1.5546,-1.8527 -0.0651,-0.4329 -0.0426,-0.8936 0.0817,-1.3666 -0.6279,0.0619 -1.2713,0.228 -1.9235,0.4631 0.7184,-0.5163 1.4064,-0.8158 2.06,-0.8816 0.2365,-0.6121 0.6451,-1.2364 1.2523,-1.8404 -0.7078,0.0377 -1.4342,0.2158 -2.1733,0.4815 0.9221,-0.662 1.7921,-0.9679 2.6058,-0.8781 1.0164,-0.8521 2.4394,-0.9482 5.6168,0.0693 0.1169,-0.7204 -1.9776,-0.9798 -3.5579,-1.3458 1.6391,0.0482 3.2943,0.1597 5.2737,1.5735 0.568,0.4185 0.8774,0.2573 1.0428,-0.2266 -1.2498,-1.4416 -2.9057,-2.1691 -4.7915,-2.4954 -1.2561,-2.3207 -3.1953,-3.0809 -5.6572,-2.716 -1.5381,0.4547 -2.8241,1.5205 -3.9778,2.8991 0.4917,-1.102 1.0949,-1.9316 1.8175,-2.4662 -0.5755,0.0799 -1.1361,0.1056 -1.6764,0.0729 -0.7704,0.5286 -1.476,1.216 -2.1381,2.0065 0.3893,-0.8704 0.8475,-1.5726 1.3797,-2.0917 -0.2763,-0.0457 -0.5448,-0.1091 -0.8081,-0.189 -0.8918,0.0838 -1.7774,0.4231 -2.6597,0.9119 0.63,-0.6258 1.2635,-1.0319 1.9016,-1.198 -0.5582,-0.2548 -1.0745,-0.5955 -1.5408,-1.026 -0.6614,-0.1126 -1.3681,-0.1126 -2.1037,-0.0373 0.6082,-0.2414 1.172,-0.3723 1.6866,-0.3857 -0.1788,-0.1999 -0.3491,-0.4146 -0.5093,-0.6451 -0.8904,-1.278 -1.1688,-2.3754 -0.9397,-3.2517 -0.4153,-0.3446 -0.7602,-0.718 -1.0488,-1.1182zm15.4081 8.4441l0 0c-1.8305,-1.3072 -3.7395,-0.9676 -5.7157,0.7566 1.9322,-0.9108 3.8454,-1.3423 5.7157,-0.7566zm0 -17.6216l0 0c-1.8305,1.3068 -3.7395,0.9662 -5.7157,-0.7566 1.9322,0.9104 3.8454,1.3423 5.7157,0.7566z"/>
   <path id="_626302520" class="fil0" d="M43.4519 114.216c0.7972,0.725 2.0093,1.3409 2.4908,-0.4801 0.3277,-1.2416 -1.2396,-2.4407 -2.9613,-1.1153 -1.1597,0.8908 -1.2044,3.1025 0.0292,4.5891 0.9675,1.1664 3.1654,1.4961 4.675,0.6877 0.0278,1.1168 0.6043,1.5676 1.3149,1.8587 0.8541,-0.8767 1.5792,-1.8017 1.0386,-3.2084 0.6117,0.8668 1.4753,1.1157 2.6104,0.6972 0.5631,-1.078 0.4681,-2.3971 -0.2763,-3.9577 0.6363,0.8172 1.2959,1.3958 2.0223,1.3121 1.2241,-1.5958 0.3766,-3.0909 -0.7961,-4.5712 0.6863,0.4305 1.3585,0.6596 1.9875,0.2629 -0.6064,-2.2102 -2.7787,-2.9363 -4.6173,-3.9791 2.319,0.7736 4.6475,1.3578 7.045,0.6933 -0.1235,-1.3142 0.4065,-2.1388 1.4656,-2.5682 -1.2801,1.5342 -1.7841,3.4509 0.8299,3.4027 1.7175,-0.0317 3.3259,-2.338 5.1518,-0.1492 -1.7186,-0.7895 -2.3711,-0.0838 -2.0631,1.1188 0.322,1.2614 2.2458,1.7788 3.1623,-0.0957 1.6904,-3.4544 -2.7931,-4.8573 -5.7492,-3.2798 2.5848,-2.3402 5.4268,-5.0889 8.7897,-5.5992 4.7147,-0.7166 6.6008,1.8224 5.9029,3.7053 -0.2358,0.6367 -0.4674,1.9245 -1.5834,1.5352 2.6104,-2.5573 -3.2239,-2.9937 -1.5993,0.3745 0.7838,1.6235 3.8303,1.1836 4.9604,-0.4364 1.1991,-1.7207 0.825,-5.0125 -1.6932,-5.6369 0.9013,-0.1298 1.4743,-0.5202 1.4317,-1.4007 -1.8115,-1.1639 -2.5551,-0.6339 -3.4889,-0.4062 0.573,-0.5138 0.9623,-1.0657 0.6814,-1.7495 -2.1198,-0.8549 -2.7062,0.29 -3.5987,1.0354 0.2548,-0.7261 0.0106,-1.3142 -0.7345,-1.7654 -1.3241,0.4621 -1.965,1.2769 -2.3099,2.2444 -0.0436,-0.5311 -0.2097,-1.0126 -0.9485,-1.2522 -1.4768,0.6289 -1.8185,1.9494 -1.8822,3.4385 -0.0169,-0.536 -0.163,-1.0453 -0.6578,-1.4842 -1.1502,0.8753 -1.7619,2.0565 -1.6781,3.635 -0.5537,0.5554 -1.1076,1.1097 -1.6616,1.6647 1.4634,-2.2261 1.9611,-4.4244 1.2234,-6.585 -0.5839,-0.1686 -0.863,0.7141 -0.8767,2.5073 -0.094,-1.096 -0.2365,-2.0283 -0.7349,-1.765 0.1577,5.3503 -1.8467,8.6231 -7.8929,8.0072 -3.5885,-1.0611 -6.7134,-3.264 -7.4451,-11.3733 -0.5677,-0.6317 -1.2625,-0.8331 -2.0565,-0.6986 0.3305,4.9143 1.8551,8.3289 4.2417,11.0182 0.3083,0.347 0.3689,0.908 -0.0355,1.5943 -0.7398,-0.6145 -1.5212,-0.3491 -1.6468,0.2485 -0.46,2.2008 2.558,2.1427 3.3097,-0.2495 1.3192,2.1606 3.6691,5.8367 0.5097,9.2369 -2.9438,3.1694 -5.8055,1.3688 -5.8861,-1.0611zm0.7944 -19.8888l0 0c-0.1309,-0.121 -0.4773,-0.2182 -0.6578,-0.183 -0.2341,2.6675 0.8862,5.7667 3.598,9.3763 -2.2624,-3.6106 -3.2827,-6.7525 -2.9402,-9.1933zm4.6904 21.8738l0 0c-0.6134,0.6363 -0.5905,1.398 -0.0344,2.2648 -0.2432,-0.8024 -0.3006,-1.5714 0.0344,-2.2648zm2.0245 -8.9389l0 0c-0.107,1.026 0.46,1.5353 1.5918,1.6116 -0.7989,-0.3287 -1.4021,-0.8098 -1.5918,-1.6116zm1.0111 3.2148l0 0c-0.1059,1.0256 0.4607,1.5359 1.5919,1.6123 -0.7982,-0.3298 -1.4015,-0.8109 -1.5919,-1.6123zm-1.0439 3.6423l0 0c-0.2245,0.8546 0.1672,1.5081 1.076,1.9931 -0.6043,-0.5832 -1.0295,-1.2244 -1.076,-1.9931zm12.3521 -11.3152l0 0c0.7926,-1.1263 1.1104,-2.1621 1.0728,-3.1282 -0.6089,1.147 -0.9471,2.1811 -1.0728,3.1282zm9.3116 -3.5551l0 0c1.0446,0.0412 1.9959,-0.2594 2.8533,-0.9059 -0.9235,-0.0229 -1.8742,0.2742 -2.8533,0.9059zm-2.83 -0.0704l0 0c1.4331,-0.3977 2.3415,-1.1628 2.9433,-2.1412 -0.896,0.3917 -1.8653,1.0632 -2.9433,2.1412zm-1.8562 0.4449l0 0c0.3065,-0.9249 0.8204,-1.7094 1.5824,-2.3229 -0.3105,0.8704 -0.8514,1.639 -1.5824,2.3229zm-2.3535 1.4877l0 0c0.8749,-1.0087 1.2526,-2.0248 1.1832,-3.0458 -0.555,0.8985 -0.9633,1.9037 -1.1832,3.0458z"/>
   <path id="_626308256" class="fil0" d="M63.7057 94.6351c0.3706,-0.7652 0.0186,-1.2829 -1.0548,-1.5518 -1.0488,0.0254 -1.197,0.6462 -1.0949,1.4332 -2.4141,1.3483 -4.3554,0.5986 -6.1462,-0.8137 -0.6687,0.0739 -1.3018,0.1868 -1.6802,0.5856 4.0749,2.5791 7.5723,3.2591 9.9761,0.3467z"/>
   <path id="_626302400" class="fil0" d="M53.2077 85.2214c-0.4734,0.1841 -0.5001,1.4814 0.1464,1.2984 2.7656,-0.7845 4.8548,-0.7747 6.0155,1.8164 -2.9173,0.6244 -0.1721,4.0196 1.4832,1.4937 0.9816,-1.4972 0.0119,-2.4612 -1.0594,-3.2714 3.5857,-0.2242 6.515,0.4051 8.0069,2.9078 -1.0256,-1.3399 -2.2606,-2.0529 -3.7001,-2.1448 2.2912,0.9651 3.4242,2.0818 3.0789,3.39 -0.4283,-0.0813 -0.7349,-0.3224 -0.8017,-0.8827 -2.6098,-1.5021 -1.8964,3.8958 0.6979,3.0398 0.9766,-0.3227 1.5144,-1.079 1.6531,-1.9156 0.6416,0.3407 1.2702,0.4607 1.8611,-0.0704 0.1021,-1.2977 -0.8014,-1.8784 -1.8562,-2.3525 0.793,-0.0243 1.6267,-0.3199 1.2252,-0.9506 -0.5681,-0.8936 -2.469,0.0936 -3.8926,-1.2403 4.1087,-0.8534 7.3431,-1.0319 8.9459,0.1721 0.5997,0.4498 0.7067,1.1386 0.3516,1.8978 -0.7761,-0.7458 -1.9132,-0.7191 -2.0656,0.0943 -0.2897,1.5451 1.3096,2.6628 2.4397,2.0093 1.7418,-1.0077 1.6112,-3.2714 0.4012,-4.9639 -0.5451,-0.7627 -1.9273,-2.117 -3.378,-1.9256 -4.1963,0.1067 -6.2348,2.47 -8.6087,2.3074 1.1259,-0.2544 2.2503,-0.5107 3.0433,-1.2417 -0.7567,-0.1101 -1.8449,0.1493 -2.992,0.4741 1.6511,-0.5177 2.867,-1.1639 2.9821,-2.4105 -5.1983,2.8156 -6.1799,1.7158 -13.1098,-0.7834 6.9299,-2.5014 7.9115,-3.6012 13.1098,-0.7845 -0.1151,-1.2463 -1.331,-1.8928 -2.9821,-2.4116 1.1471,0.3262 2.2353,0.5856 2.992,0.4741 -0.793,-0.73 -1.9174,-0.9873 -3.0433,-1.2407 2.3735,-0.1636 4.1921,2.2325 8.6087,2.3074 1.4507,0.1908 2.8325,-1.1625 3.378,-1.9266 1.21,-1.6914 1.3406,-3.9552 -0.4012,-4.9625 -1.1301,-0.6539 -2.7294,0.4642 -2.4397,2.0104 0.1524,0.8123 1.2895,0.8387 2.0656,0.0932 0.3551,0.7578 0.2481,1.4476 -0.3516,1.8974 -1.6028,1.203 -4.8372,1.0259 -8.9459,0.1721 1.4236,-1.3335 3.3245,-0.3467 3.8926,-1.2403 0.4015,-0.6303 -0.4322,-0.9263 -1.2252,-0.9506 1.0548,-0.4741 1.9583,-1.0548 1.8562,-2.3521 -0.5909,-0.5311 -1.2195,-0.4111 -1.8611,-0.0704 -0.1387,-0.8366 -0.6765,-1.5933 -1.6531,-1.9156 -2.5943,-0.8563 -3.3077,4.5419 -0.6979,3.0398 0.0668,-0.5603 0.3734,-0.8018 0.8017,-0.8827 0.3453,1.3082 -0.787,2.4249 -3.0789,3.391 1.4395,-0.0943 2.6745,-0.8059 3.7008,-2.1458 -1.4926,2.5024 -4.4219,3.133 -8.0076,2.9074 1.0713,-0.8098 2.041,-1.7738 1.0594,-3.2713 -1.6553,-2.5256 -4.4005,0.8693 -1.4832,1.4936 -1.1438,2.4869 -3.1844,2.6179 -6.0162,1.8165 -0.6458,-0.1831 -0.5476,0.9882 -0.1457,1.2987 0.662,0.5092 1.8013,0.5613 3.3375,0.4645 -1.0523,0.1429 -4.3469,0.6705 -6.8166,1.4719 0.3735,-0.3833 0.6614,-0.9327 0.6177,-1.5159 -0.1042,-0.0348 -0.209,-0.07 -0.3136,-0.1052 0.1464,-0.3674 0.2686,-0.7359 0.1348,-1.1034 -0.234,-0.1358 -0.5124,-0.0777 -0.8056,0.0447 0.2235,-0.3987 0.2534,-0.8003 -0.1197,-1.2089 -0.2868,-0.0679 -0.4948,0.0679 -0.6412,0.359 -0.176,-0.4315 -0.3572,-0.8574 -0.9549,-0.8961 -0.1886,0.2341 -0.1298,0.4294 0,0.6124 -0.4821,-0.1007 -0.9555,-0.4329 -1.3574,-0.1348 -0.1317,0.2693 -0.0775,0.5374 0.1485,0.8053 -0.365,0.0218 -0.6937,0.108 -0.8795,0.4487 -0.0176,0.3199 0.2199,0.3854 0.5219,0.3879 -0.359,0.3857 -0.5614,0.7517 -0.3431,1.0586 0.1031,0.1042 0.2509,0.0947 0.4321,0 0.3129,0.8852 0.932,1.1893 1.9998,0.6413 0.1292,-0.5272 0.05,-0.9334 -0.5374,-1.0439 -0.3516,0.1686 -0.3347,0.3833 -0.2087,0.611 -0.4171,0.2801 -0.8869,-0.1468 -0.8355,-0.5213 0.051,-0.3699 0.2161,-0.6768 0.4579,-0.8837 -0.2552,-0.0704 -0.5304,-0.1035 -0.8197,-0.113 0.3868,-0.0971 0.7225,-0.1042 1.002,-0.0158 0.0953,-0.0546 0.1985,-0.0968 0.3086,-0.1246 -0.203,-0.245 -0.4642,-0.4561 -0.7612,-0.6465 0.4438,0.1333 0.7676,0.3361 0.9566,0.6124 0.1562,-0.0159 0.3238,-0.005 0.4969,0.0376 0.0243,0.0049 0.0486,0.012 0.0729,0.0194 -0.0556,-0.2643 -0.1563,-0.5287 -0.2848,-0.7954 0.2612,0.2935 0.4238,0.5831 0.4776,0.8682 0.1352,0.0616 0.2577,0.1454 0.3657,0.2471 0.1429,-0.2654 0.2418,-0.5674 0.3122,-0.8947 0.0278,0.4206 -0.0324,0.7676 -0.1872,1.033 0.1175,0.1492 0.2083,0.3273 0.2629,0.5336 0.2231,-0.1588 0.4311,-0.3601 0.625,-0.5892 -0.1594,0.3491 -0.3533,0.6096 -0.5867,0.7746 0.043,0.2827 0.0229,0.6051 -0.076,0.964 0.2583,-0.1671 0.4949,-0.3903 0.7155,-0.65 -0.2055,0.4473 -0.4674,0.7507 -0.7929,0.8925 -0.0947,0.2559 -0.3449,0.547 -0.5966,0.731 -0.6317,0.2707 -1.141,0.5639 -1.4412,0.8768 0.2946,0.3399 0.7859,0.649 1.3951,0.9266 0.2668,0.182 0.542,0.4935 0.6427,0.7652 0.3255,0.1404 0.5874,0.4438 0.7929,0.8911 -0.2206,-0.2594 -0.4572,-0.4825 -0.7155,-0.6486 0.0989,0.3576 0.119,0.6814 0.076,0.9626 0.2334,0.165 0.4273,0.4269 0.5867,0.775 -0.1939,-0.2295 -0.4019,-0.4294 -0.625,-0.5881 -0.0546,0.2048 -0.1454,0.3843 -0.2629,0.5335 0.1548,0.2654 0.215,0.6121 0.1872,1.0316 -0.0704,-0.3259 -0.1693,-0.6293 -0.3122,-0.8947 -0.108,0.1031 -0.2305,0.1855 -0.3657,0.2485 -0.0538,0.2851 -0.2164,0.5747 -0.4776,0.8669 0.1285,-0.2654 0.2292,-0.5311 0.2848,-0.794 -0.0243,0.007 -0.0486,0.0133 -0.0729,0.0193 -0.1731,0.0412 -0.3407,0.0535 -0.4969,0.0377 -0.189,0.2762 -0.5128,0.4776 -0.9566,0.612 0.297,-0.1915 0.5582,-0.4023 0.7612,-0.6462 -0.1101,-0.0278 -0.2133,-0.07 -0.3086,-0.1249 -0.2795,0.0887 -0.6152,0.0802 -1.002,-0.0155 0.2893,-0.0099 0.5645,-0.0436 0.8197,-0.114 -0.2418,-0.2073 -0.4069,-0.5128 -0.4579,-0.8827 -0.0514,-0.3749 0.4184,-0.8014 0.8355,-0.5227 -0.126,0.2291 -0.1429,0.4438 0.2087,0.6124 0.5874,-0.1105 0.6666,-0.5166 0.5374,-1.0453 -1.0678,-0.5469 -1.6869,-0.2425 -1.9998,0.6416 -0.1812,-0.0936 -0.329,-0.1045 -0.4321,0 -0.2183,0.3076 -0.0159,0.673 0.3431,1.0598 -0.302,0.001 -0.5395,0.0679 -0.5219,0.3878 0.1858,0.3407 0.5145,0.4255 0.8795,0.4473 -0.226,0.2693 -0.2802,0.5375 -0.1485,0.8053 0.4019,0.2995 0.8753,-0.0341 1.3574,-0.1334 -0.1298,0.183 -0.1886,0.378 0,0.611 0.5977,-0.0387 0.7789,-0.4632 0.9549,-0.895 0.1464,0.29 0.3544,0.4258 0.6412,0.3579 0.3731,-0.4075 0.3432,-0.8098 0.1197,-1.2089 0.2932,0.1239 0.5716,0.1819 0.8056,0.045 0.1338,-0.3674 0.0116,-0.7359 -0.1348,-1.1033 0.1046,-0.0342 0.2094,-0.0694 0.3136,-0.1046 0.0422,-0.5807 -0.2418,-1.1276 -0.6127,-1.5106 2.489,0.8222 5.8163,1.2875 6.8722,1.4318 -1.4138,-0.2073 -2.4957,0.0644 -3.3981,0.4149zm13.9531 -3.2425l0 0c-9.5484,5.1047 -8.7376,-5.1751 0,0z"/>
   <path id="_626308376" class="fil0" d="M77.8545 68.8096c0.4484,0.1189 1.147,-0.0373 1.1386,-0.7007 -0.0127,-0.9943 -0.9457,-1.2562 -1.531,-1.0182 -1.2371,0.5018 -1.6102,1.6538 -1.2572,3.0577 0.5631,2.2444 1.2209,3.3295 2.0723,4.0703 1.0214,0.8901 2.2398,1.4416 3.2045,0.9908 0.8609,-0.4013 0.9341,-1.4237 0.5934,-1.99 -0.845,-1.4053 -2.2623,1.0344 -4.2206,-1.7822 -0.6233,-0.8972 -0.7493,-2.3813 0,-2.6277zm-0.9907 1.1642l0 0c0.3403,2.979 1.8987,3.9067 4.2642,3.4773 -2.0829,0.0401 -3.6216,-0.9055 -4.2642,-3.4773z"/>
   <path id="_626308640" class="fil0" d="M77.8545 95.1264c0.4484,-0.1179 1.147,0.0387 1.1386,0.7007 -0.0127,0.9954 -0.9457,1.2562 -1.531,1.0186 -1.2371,-0.5019 -1.6102,-1.6538 -1.2572,-3.0581 0.5631,-2.243 1.2209,-3.3284 2.0723,-4.0703 1.0214,-0.8887 2.2398,-1.4406 3.2045,-0.9908 0.8609,0.4016 0.9341,1.4237 0.5934,1.991 -0.845,1.4043 -2.2623,-1.0354 -4.2206,1.7826 -0.6233,0.8961 -0.7493,2.3813 0,2.6263zm-0.9907 -1.1642l0 0c0.3403,-2.979 1.8987,-3.9067 4.2642,-3.4773 -2.0829,-0.0387 -3.6216,0.9069 -4.2642,3.4773z"/>
   <path id="_626308712" class="fil0" d="M37.6366 80.5627l-0.0295 -0.0074c0.1788,-2.7319 -0.3988,-5.7668 -1.5835,-9.0452 0.6681,0.6194 1.3551,0.9446 1.8569,0.6194 1.6222,-1.0537 -0.4339,-3.7345 -2.407,-1.7882 -1.8202,-2.281 -4.6158,-3.3626 -5.9969,-5.8843l-1.7133 -0.4065 1.5092 0c-0.2555,-0.5564 -0.4434,-1.1808 -0.5445,-1.8974l-2.5974 -0.7845 2.545 0.2995c-0.0348,-0.5177 0.0377,-0.9689 0.1883,-1.3581l-1.1692 -0.8328 1.3163 0.5164c0.1982,-0.3636 0.4709,-0.6631 0.787,-0.901l-0.6075 -1.215 0.8693 1.0369c1.0573,-0.6437 2.4531,-0.6934 3.2133,-0.2629 2.0452,1.1554 1.216,3.2689 -0.619,3.4385 2.6319,-1.3775 -2.2603,-3.845 -1.8569,-0.4135 0.183,1.557 1.2402,2.2127 2.7508,1.8562 -1.3335,4.7108 1.3248,4.8235 2.4756,3.6451 0.1419,-0.9654 -0.1175,-1.6939 -1.444,-1.7875 0.2981,-2.4756 2.2296,-5.1237 0.8939,-7.4276 -1.582,-1.4103 -3.1633,-1.4771 -4.745,-0.6877 -0.4755,-0.6159 -1.1512,-0.9418 -2.1321,-0.8243 -0.7792,0.7736 -0.6888,1.5859 -0.4118,2.4067 -0.397,-0.7349 -0.819,-1.2379 -1.3071,-1.101 -1.2846,1.3825 -0.7187,2.1061 0.0686,2.7513 -0.3935,0.2678 -1.0034,0.1904 -1.8565,-0.2753 -0.6515,2.2529 1.0252,2.4904 2.2007,3.1634 -0.7225,-0.1757 -1.387,-0.1915 -1.9252,0.1369 0.7384,1.9751 3.0427,2.7234 4.9506,3.7831 -1.5173,-0.5068 -3.112,-0.8925 -4.9506,-0.8947 -0.1062,0.5808 -0.2213,1.1604 0.137,1.7883 -2.0072,0.05 -3.6371,1.4212 -1.3058,2.407 -1.6411,0.0289 -3.0651,1.2984 -0.8943,2.3377 -0.8155,0.3734 -1.2705,0.9566 -1.3064,1.7882 0.7165,0.5663 1.3919,0.5836 2.0624,0.5505 2.4577,3.6666 6.099,1.4454 6.2577,-2.3387 1.2719,1.8903 2.5534,0.7419 2.1437,-0.7166 -0.4515,-1.6091 -2.199,-1.6419 -3.2436,0.0292 -1.6228,-1.3131 -3.4839,-1.0646 -3.0947,1.0316 0.2147,1.1544 1.467,0.8718 2.2008,0.2752 -0.9622,2.6034 -3.4241,1.9498 -3.7789,-0.0398l-1.146 0.8658 1.1115 -1.1375c-0.0345,-0.4536 0.037,-0.9664 0.2502,-1.5179l-1.3962 0.0239 1.5212 -0.3175 0.7092 -1.1371 -0.9063 -0.4354 1.1326 0.1781c0.7063,-0.7261 1.664,-1.0344 2.7301,-1.039l-1.5254 -1.0125 1.8703 1.021c0.9179,0.0486 1.9016,0.3044 2.8656,0.6972 2.4179,0.9844 4.0935,4.2945 4.6767,11.2082 -0.2812,0.3844 -0.9513,1.0344 -1.8583,1.0309 1.1646,0.1162 1.5859,0.6451 1.8583,1.0428 -0.5832,6.9152 -2.2588,10.2253 -4.6767,11.2097 -0.964,0.3928 -1.9477,0.6486 -2.8656,0.6972l-1.8703 1.0207 1.5254 -1.0122c-1.0661,-0.005 -2.0238,-0.3129 -2.7301,-1.039l-1.1326 0.1781 0.9063 -0.4354 -0.7092 -1.1375 -1.5212 -0.3185 1.3962 0.0253c-0.2132,-0.5518 -0.2847,-1.0646 -0.2502,-1.5179l-1.1115 -1.1375 1.146 0.8644c0.3548,-1.9882 2.8167,-2.6418 3.7789,-0.0388 -0.7338,-0.5965 -1.9861,-0.8788 -2.2008,0.2753 -0.3892,2.0965 1.4719,2.344 3.0947,1.0319 1.0446,1.6707 2.7921,1.6383 3.2436,0.0292 0.4097,-1.4588 -0.8718,-2.6069 -2.1437,-0.718 -0.1587,-3.7827 -3.8,-6.0053 -6.2577,-2.3376 -0.6705,-0.0328 -1.3459,-0.0159 -2.0624,0.5504 0.0359,0.8306 0.4909,1.4152 1.3064,1.7872 -2.1708,1.0404 -0.7468,2.3099 0.8943,2.3391 -2.3313,0.9858 -0.7014,2.357 1.3058,2.4066 -0.3583,0.6272 -0.2432,1.2065 -0.137,1.7872 1.8386,-0.001 3.4333,-0.3867 4.9506,-0.8936 -1.9079,1.0598 -4.2122,1.808 -4.9506,3.7821 0.5382,0.3298 1.2027,0.3129 1.9252,0.138 -1.1755,0.6729 -2.8522,0.9108 -2.2007,3.1637 0.8531,-0.4657 1.463,-0.5434 1.8565,-0.2753 -0.7873,0.6452 -1.3532,1.3688 -0.0686,2.7498 0.4881,0.1384 0.9101,-0.366 1.3071,-1.0998 -0.277,0.8211 -0.3674,1.6323 0.4118,2.407 0.9809,0.1161 1.6566,-0.2098 2.1321,-0.8257 1.5817,0.7894 3.163,0.724 4.745,-0.6877 1.3357,-2.3035 -0.5958,-4.9506 -0.8939,-7.4265 1.3265,-0.0947 1.5859,-0.8222 1.444,-1.7883 -1.1508,-1.1776 -3.8091,-1.0646 -2.4756,3.6448 -3.567,-0.8404 -3.5378,4.6134 -0.8401,3.4287 0.8011,-0.3516 1.0372,-1.4134 -0.0538,-1.9846 1.835,0.1696 2.6642,2.2831 0.619,3.4385 -0.7602,0.4305 -2.156,0.3794 -3.2133,-0.2632l-0.8693 1.0358 0.6075 -1.2139c-0.3161,-0.2376 -0.5888,-0.5371 -0.787,-0.901l-1.3163 0.5167 1.1692 -0.8331c-0.1506,-0.3893 -0.2231,-0.8415 -0.1883,-1.3592l-2.545 0.3009 2.5974 -0.7859c0.1011,-0.7152 0.289,-1.3399 0.5445,-1.8963l-1.5092 0 1.7133 -0.4062c1.3811,-2.5221 4.1767,-3.6036 5.9969,-5.8843 1.9731,1.946 4.0292,-0.7349 2.407,-1.7886 -0.5018,-0.3248 -1.1888,-0.0011 -1.8569,0.6184 1.1847,-3.2774 1.7623,-6.3123 1.5835,-9.0441 1.5465,-0.3843 1.5746,-2.4021 0.0295,-2.8191zm-0.2988 -0.0366l0 0 -0.4969 0.0619c-0.6374,-8.575 -2.6611,-11.3174 -7.0137,-12.9279 4.2945,1.0478 6.0268,2.583 7.5106,12.866zm0 2.8849l0 0 -0.4969 -0.063c-0.6374,8.576 -2.6611,11.3174 -7.0137,12.9289 4.2945,-1.0477 6.0268,-2.584 7.5106,-12.8659z"/>
   <path id="_626308688" class="fil0" d="M18.1061 71.3232c-0.8693,0.6356 -1.7161,1.6999 -0.0278,2.5355 1.1509,0.5698 2.6393,-0.7264 1.6855,-2.6773 -0.6426,-1.3156 -2.799,-1.8017 -4.5025,-0.8897 -1.3363,0.7151 -2.0997,2.8018 -1.6084,4.4437 -1.0998,-0.1964 -1.6577,0.2777 -2.0839,0.9165 0.6881,1.0111 1.449,1.9072 2.9356,1.6587 -0.9724,0.4255 -1.3884,1.2223 -1.2051,2.4179 0.9426,0.7673 2.2553,0.9383 3.932,0.5213 -0.9273,0.4596 -1.6253,0.9907 -1.6897,1.7193 0.0637,0.7264 0.7624,1.2575 1.689,1.7182 -1.6767,-0.4181 -2.9887,-0.2471 -3.9327,0.5205 -0.1819,1.1956 0.2341,1.9921 1.2058,2.4186 -1.487,-0.2485 -2.2479,0.6466 -2.9349,1.6591 0.4259,0.6374 0.9841,1.1129 2.0832,0.9165 -0.4906,1.6419 0.2728,3.7272 1.6084,4.4427 1.7031,0.9115 3.8606,0.4255 4.5032,-0.889 0.9538,-1.952 -0.5346,-3.2471 -1.6858,-2.6784 -1.6887,0.8366 -0.8422,1.9013 0.0281,2.5365 -2.3967,0.4076 -4.7341,-2.0367 -2.2169,-5.5555 2.4531,-3.4301 6.0395,-2.4493 8.4609,-1.5958 3.1482,-3.309 7.7391,-2.0346 7.5036,2.3803 0.8532,-0.3735 1.5835,-0.1915 2.1019,0.9407 0.9235,-2.9549 -1.9826,-5.9923 -5.2149,-6.8215 3.2323,-0.7363 6.1384,-3.8679 5.2149,-6.8229 -0.5184,1.1326 -1.2487,1.3145 -2.1019,0.9407 0.2355,4.4149 -4.3554,5.6904 -7.5036,2.3803l-0.0091 0.0169c-2.4208,0.8524 -6.0012,1.8273 -8.4518,-1.5993 -2.5172,-3.5184 -0.1798,-5.9617 2.2169,-5.5545zm9.054 10.6666l0 0c-1.0914,-0.1274 -2.0346,-0.7507 -2.3577,-1.443 -1.1572,0.3238 -1.3441,0.8669 -1.3751,1.443 0.031,0.5762 0.2179,1.1182 1.3751,1.443 0.3231,-0.6923 1.2663,-1.3145 2.3577,-1.443zm-12.0966 5.6467l0 0c-0.5001,0.7289 -1.2512,0.8584 -2.212,0.4875 0.8359,0.0764 1.5996,-0.0194 2.212,-0.4875zm8.3543 -3.7708l0 0c-0.9841,0.3104 -1.5968,-0.1432 -1.8977,-1.2367 0.4821,0.7165 1.0738,1.2114 1.8977,1.2367zm-3.3527 -0.3481l0 0c-0.9837,0.3094 -1.5968,-0.1443 -1.8974,-1.2374 0.4819,0.7173 1.0749,1.2121 1.8974,1.2374zm-3.3587 1.751l0 0c-0.7929,0.3917 -1.5112,0.1383 -2.1683,-0.656 0.6915,0.4765 1.4057,0.7651 2.1683,0.656zm-1.6429 -8.9691l0 0c-0.5001,-0.7275 -1.2512,-0.8584 -2.212,-0.4864 0.8359,-0.0775 1.5996,0.0197 2.212,0.4864zm8.355 3.7708l0 0c-0.9848,-0.309 -1.5972,0.1443 -1.8984,1.2378 0.4821,-0.7162 1.0745,-1.2121 1.8984,-1.2378zm-3.352 0.3491l0 0c-0.9851,-0.3104 -1.5975,0.1433 -1.8988,1.2368 0.4819,-0.7166 1.0749,-1.2111 1.8988,-1.2368zm-3.3601 -1.752l0 0c-0.7929,-0.3903 -1.5112,-0.1369 -2.1683,0.656 0.6915,-0.4765 1.4057,-0.7637 2.1683,-0.656z"/>
   <path id="_626309912" class="fil0" d="M12.6375 81.9884l0 -0.0387c0,-0.964 -0.4519,-1.5433 -1.2607,-1.8214 -0.3452,-1.5591 -1.2237,-2.0114 -2.3225,-2.0089 -0.8426,-0.9749 -1.626,-0.782 -2.3855,-0.0838 -1.2167,-0.9615 -2.0473,-0.3769 -2.7614,0.6705 -1.3082,-0.4061 -1.8084,0.2657 -1.9463,1.4222 -0.7782,0.0377 -1.1319,0.4695 -1.2312,1.1351l-0.0235 -0.0011c-0.39,0 -0.7064,0.3164 -0.7064,0.7068 0,0.3882 0.3164,0.7046 0.7064,0.7046l0.0235 -0.0011c0.0993,0.6655 0.453,1.0984 1.2312,1.1361 0.1379,1.1555 0.6381,1.8284 1.9463,1.4222 0.7141,1.0478 1.5447,1.632 2.7614,0.6695 0.7595,0.6982 1.5429,0.8921 2.3855,-0.0838 1.0988,0.0024 1.9773,-0.4488 2.3225,-2.0079 0.8088,-0.2777 1.2607,-0.8584 1.2607,-1.8203zm-7.9562 0.5374l0 0c-0.2358,-0.177 -0.5487,-0.2467 -0.8542,-0.1612 -0.517,0.1454 -0.819,0.6839 -0.6722,1.2006 0.0947,0.3382 0.3558,0.5831 0.6705,0.6729 -0.1623,-0.1239 -0.2872,-0.2985 -0.3474,-0.5107 -0.1461,-0.5177 0.1552,-1.0559 0.6736,-1.2016 0.1788,-0.0506 0.3618,-0.0471 0.5297,0zm-0.001 -1.1156l0 0c-0.2348,0.178 -0.5477,0.2484 -0.8532,0.1626 -0.517,-0.1458 -0.819,-0.6842 -0.6722,-1.202 0.0947,-0.3368 0.3558,-0.5831 0.6705,-0.6725 -0.1623,0.1235 -0.2872,0.2995 -0.3474,0.5113 -0.1461,0.5181 0.1552,1.0552 0.6736,1.2006 0.1788,0.051 0.3618,0.0471 0.5287,0zm2.0941 -0.1151l0 0c-0.3407,0.064 -0.7064,-0.0282 -0.9816,-0.2791 -0.4667,-0.4266 -0.5002,-1.1506 -0.0732,-1.6176 0.2773,-0.3041 0.6817,-0.4241 1.0597,-0.3527 -0.2362,0.0451 -0.4604,0.1626 -0.6349,0.3541 -0.4262,0.4667 -0.3935,1.1907 0.0732,1.6176 0.1626,0.1467 0.3561,0.24 0.5568,0.2777zm1.7119 -0.233l0 0c-0.3031,-0.2291 -0.4991,-0.5931 -0.4991,-1.0027 0,-0.6923 0.5621,-1.2551 1.255,-1.2551 0.453,0 0.8497,0.239 1.0703,0.598 -0.2111,-0.1591 -0.4723,-0.2524 -0.756,-0.2524 -0.693,0 -1.2557,0.5614 -1.2557,1.2551 0,0.2411 0.0679,0.4656 0.1855,0.6571zm0 1.8129l0 0c-0.3031,0.2291 -0.4991,0.593 -0.4991,1.0016 0,0.6937 0.5621,1.2561 1.255,1.2561 0.453,0 0.8497,-0.24 1.0703,-0.599 -0.2111,0.1591 -0.4723,0.2534 -0.756,0.2534 -0.693,0 -1.2557,-0.5624 -1.2557,-1.2547 0,-0.2414 0.0679,-0.467 0.1855,-0.6574zm-1.7119 -0.2337l0 0c-0.3407,-0.0634 -0.7064,0.0278 -0.9816,0.2798 -0.4667,0.4255 -0.5002,1.1495 -0.0732,1.6165 0.2773,0.3041 0.6817,0.4241 1.0597,0.3526 -0.2362,-0.0436 -0.4604,-0.1626 -0.6349,-0.3526 -0.4262,-0.467 -0.3935,-1.191 0.0732,-1.6176 0.1626,-0.1481 0.3561,-0.24 0.5568,-0.2787z"/>
   <path id="_626309792" class="fil0" d="M65.6587 28.6505c-0.8672,1.0196 -0.5751,1.5919 0.1379,2.0016 -1.5246,0.6426 -0.9851,1.9209 -0.4061,2.2905 0.8147,0.5212 2.4485,0.6099 3.3059,-0.4171 1.8224,-2.1839 -0.0739,-5.6319 -2.1772,-6.4601 -5.1871,-2.0445 -10.6814,0.2665 -11.7763,5.9072 -0.7451,3.8377 0.6652,7.1066 3.1507,10.1633 -0.9869,-3.2556 0.3593,-7.2822 3.9302,-7.6933 4.3009,-0.4949 5.6443,4.6084 3.0792,6.7353 -1.4299,1.1861 -3.3111,0.6873 -4.2466,-0.3928 -0.629,-0.725 -0.7842,-1.7168 -0.2633,-2.6287 0.648,-1.1337 2.9525,-1.3072 3.0215,0.1661 0.0254,0.5469 -0.397,1.0111 -0.9443,1.0368 -0.5476,0.0254 -1.0118,-0.3966 -1.0375,-0.9446 -0.0092,-0.183 0.0327,-0.3565 0.113,-0.5082 -0.8391,0.3604 -1.3751,1.5377 -0.5192,2.5696 1.7552,2.117 4.7549,0.2629 4.3121,-2.4992 -0.5219,-3.2545 -5.1888,-3.9454 -6.6965,-0.1295 -0.6279,1.5894 -0.4322,3.8542 0.3111,5.5119 1.5834,1.7266 3.4738,3.3998 5.4679,5.0853 1.7291,1.3142 2.1096,0.4305 0.7201,-0.8851 -2.0089,-1.9013 -2.2898,-3.3116 -0.7701,-5.0076 -0.2995,1.1262 -0.0792,1.7555 0.7324,1.8175 -1.3191,1.09 -0.8292,2.0987 0.465,3.259 1.9705,1.7679 0.7465,2.1413 2.4154,3.5456 4.5972,3.8665 4.3227,7.9432 0.2661,8.0678 1.0907,-0.4438 1.6478,-1.1421 0.9119,-2.4528 1.3677,-1.1871 0.7166,-3.8074 -1.6714,-5.4359 -10.5684,-7.2033 -16.3999,-12.8694 -15.1156,-19.8947 1.2142,-6.6431 8.4345,-9.2708 14.4008,-6.0043 2.4657,1.3497 4.5584,4.7278 2.1673,7.3382 -1.449,1.5834 -4.2643,1.2987 -5.2726,-0.8246 -0.6085,-1.2804 0.3206,-3.0969 1.9882,-3.3172zm3.0056 19.6195l0 0c1.7116,-0.341 2.2768,1.827 0.9376,2.5475 -0.9738,0.5226 -1.7326,-0.9471 -0.7313,-1.2586 0.2611,0.2837 0.2706,0.6691 -0.1214,0.794 0.1728,0.3104 0.7158,0.5043 1.1501,-0.245 0.4298,-0.7429 -0.2045,-1.6742 -1.1037,-1.4852 -1.267,0.2682 -1.1565,1.6925 -0.4691,2.2419 -0.8197,0.0606 -1.5096,-2.2285 0.3378,-2.5946zm-10.6979 -18.8329l0 0c0.3249,3.6075 -4.6757,5.0319 -1.0094,9.9124 -1.0678,-3.2605 4.152,-6.1908 1.0094,-9.9124zm0.1503 2.3331l0 0c-0.032,1.9523 -2.445,2.5678 -1.6133,5.2768 -0.3854,-1.808 2.2827,-3.3442 1.6133,-5.2768zm4.8425 -5.4964l0 0c3.1267,-0.1176 5.2631,1.5704 4.1488,3.384 -0.1207,0.1978 -0.2759,0.4026 -0.5388,0.4149 -0.5646,0.0264 -0.7581,-0.6113 -0.4023,-1.0185 0.3949,-0.4523 1.4226,-2.0455 -3.2077,-2.7804zm-4.2041 8.873l0 0c1.0168,-0.6338 2.0241,-1.5581 2.2462,-2.9426 0.1531,-0.9556 -1.0066,-0.9908 -1.0907,-0.2703 -0.1193,1.0196 -0.3213,2.1715 -1.1555,3.2129zm3.9848 9.6336l0 0c0.0461,-0.8707 -0.3987,-2.3415 -1.3919,-1.7087 -0.4389,0.2802 -0.4928,0.9992 0.0964,1.3522 0.1844,0.1102 0.4227,0.1573 0.6955,0.1017 -0.8919,0.7965 -2.5936,-1.0776 -1.2952,-1.9448 1.0386,-0.6934 2.2394,0.3431 2.2173,1.438 -0.0169,0.8211 -0.2299,1.5134 0.3195,2.3718 0.3495,0.5466 0.8838,0.9746 1.3294,1.2417 -1.9456,-0.0971 -2.0354,-1.6408 -1.971,-2.8519zm4.0045 6.7174l0 0c1.2016,0.9263 2.3412,1.8741 2.451,3.7247 0.0201,0.3407 -0.2404,0.6779 -0.5092,0.6909 -0.3179,0.0172 -0.6452,-0.3502 -0.4974,-0.7335 0.4882,-1.267 -0.2769,-2.4309 -1.4444,-3.6821z"/>
   <path id="_626309720" class="fil0" d="M80.9826 34.8839c-0.3466,0.6135 -0.4012,1.1967 -0.1756,1.8999 0.3502,-0.1964 0.5177,-0.4984 0.6747,-0.8877 0.4181,0.8683 -0.1031,1.7619 0.429,2.4457 1.1829,-1.0076 0.9169,-2.6554 -0.0612,-3.3829 2.3313,-0.1478 3.756,-1.6039 3.5572,-3.9841 -0.1595,-1.9086 -1.0774,-2.8761 -2.0875,-3.1415 1.0101,-0.2671 1.928,-1.2333 2.0875,-3.1419 0.1988,-2.3813 -1.2259,-3.8363 -3.5572,-3.9855 0.9781,-0.7275 1.2441,-2.3739 0.0612,-3.3815 -0.5321,0.6838 -0.0109,1.5764 -0.429,2.4443 -0.157,-0.3879 -0.3245,-0.6913 -0.6747,-0.8877 -0.2256,0.7032 -0.171,1.2868 0.1756,1.9013 -2.7821,1.0175 -4.5352,3.4305 -5.073,6.4773 -0.7014,-5.3155 7.1168,-7.0179 2.8276,-16.1641 1.507,-1.2948 2.054,-2.5002 1.6404,-3.6166 -0.5909,0.051 -1.1635,0.2956 -1.6714,1.2392 0.5899,-1.8214 0.5899,-2.9381 0.3221,-3.7335 -0.7944,0.3298 -1.4673,0.8295 -1.5638,2.1427 -0.1745,-0.8366 -0.5321,-1.2491 -1.0734,-1.2382 -0.2098,0.4354 -0.2249,1.1882 -0.1074,2.1596 -3.4199,-2.0818 -4.1801,-5.9269 -2.1159,-6.9986 0.5068,-0.2632 1.1379,-0.1432 1.5229,0.3418 0.6413,0.8077 0.7306,2.2384 -0.6258,1.7474 0.1274,-0.3966 0.6022,-0.1929 0.667,-0.3312 0.196,-0.4181 0.0309,-0.8461 -0.3224,-0.9203 -1.1822,-0.2496 -1.5972,0.7641 -1.0421,1.7738 0.6194,1.1291 2.4302,0.9753 2.483,-0.7032 0.0897,-2.8068 -1.8101,-3.6251 -3.7121,-2.4175 -2.1405,1.3592 -0.9105,5.981 1.5353,8.1103 -4.0633,-1.0027 -6.4573,2.1255 -5.1206,6.4626 1.1361,3.6874 5.6189,2.7476 6.4087,-0.1334 0.4977,-1.815 -0.9707,-2.979 -2.2993,-2.7463 -0.8222,0.1443 -1.4388,1.494 -0.4646,2.2627 0.4773,0.3769 1.1439,-0.0887 1.3842,-0.655 0.2503,2.8388 -3.2727,3.7916 -4.1093,0.101 -0.8651,-3.8173 2.1479,-4.8161 4.6306,-4.4877 1.5943,0.2111 2.4728,1.2501 2.7287,2.5449 -0.7148,-0.2425 -1.2421,0.1056 -1.3494,0.8197 0.6782,-0.1576 1.638,0.0292 1.871,1.2234 0.8527,4.3688 -0.7233,6.4337 -2.0062,8.4271 -0.9453,1.4694 -1.3842,3.2471 -1.2448,5.3631 -0.1394,2.1156 0.2995,3.8933 1.2448,5.3616 1.2829,1.9931 2.8589,4.0594 2.0062,8.4278 -0.233,1.1935 -1.1928,1.38 -1.871,1.2224 0.1073,0.7141 0.6346,1.0622 1.3494,0.8207 -0.2559,1.2938 -1.1344,2.3342 -2.7287,2.5453 -2.4827,0.3273 -5.4957,-0.6704 -4.6306,-4.4873 0.8366,-3.691 4.3596,-2.7382 4.1093,0.1003 -0.2403,-0.566 -0.9069,-1.0316 -1.3842,-0.6557 -0.9742,0.7686 -0.3576,2.118 0.4646,2.2623 1.3286,0.2341 2.797,-0.9298 2.2993,-2.7449 -0.7898,-2.8821 -5.2726,-3.8207 -6.4087,-0.1348 -1.3367,4.3386 1.0573,7.4667 5.1206,6.4626 -2.4458,2.1293 -3.6758,6.7525 -1.5353,8.1107 1.902,1.2075 3.8018,0.3903 3.7121,-2.4179 -0.0528,-1.6781 -1.8636,-1.8319 -2.483,-0.7032 -0.5551,1.0101 -0.1401,2.0248 1.0421,1.7752 0.3533,-0.0739 0.5184,-0.5022 0.3224,-0.9203 -0.0648,-0.1383 -0.5396,0.0655 -0.667,-0.3312 1.3564,-0.492 1.2671,0.9397 0.6258,1.7474 -0.385,0.4836 -1.0161,0.605 -1.5229,0.3418 -2.0642,-1.0731 -1.304,-4.9178 2.1159,-6.9996 -0.1175,0.9724 -0.1024,1.7252 0.1074,2.1606 0.5413,0.0109 0.8989,-0.4026 1.0734,-1.2392 0.0965,1.3145 0.7694,1.8139 1.5638,2.1427 0.2678,-0.7958 0.2678,-1.9111 -0.3221,-3.7335 0.5079,0.9446 1.0805,1.1896 1.6714,1.2392 0.4136,-1.1168 -0.1334,-2.3218 -1.6404,-3.617 4.2892,-9.1458 -3.529,-10.8468 -2.8276,-16.1627 0.5378,3.0472 2.2909,5.4598 5.073,6.4773zm1.1277 -7.0506l0 0c-0.9288,0.2397 -1.7017,1.0266 -1.7482,2.1532 -0.0524,1.2442 0.9327,2.3159 2.0083,1.6915 0.1844,-0.536 0.0612,-0.9605 -0.7359,-1.1386 -0.2017,-0.9956 0.3086,-1.9012 1.3493,-1.7752 1.2871,0.1566 1.3878,1.4479 1.3188,2.4446 -0.1123,1.6247 -1.2125,2.8287 -2.9441,2.5109 -1.4088,-0.257 -2.8107,-1.1699 -3.7975,-2.6467 -0.6716,-1.0052 -0.9633,-2.1388 -1.1738,-3.2397 0.2105,-1.1023 0.5022,-2.2349 1.1738,-3.2401 0.9868,-1.4768 2.3887,-2.3897 3.7975,-2.6481 1.7316,-0.3164 2.8318,0.8877 2.9441,2.5112 0.069,0.9978 -0.0317,2.2891 -1.3188,2.4457 -1.0407,0.126 -1.551,-0.781 -1.3493,-1.7752 0.7971,-0.1785 0.9203,-0.6026 0.7359,-1.1386 -1.0756,-0.6258 -2.0607,0.4477 -2.0083,1.6915 0.0465,1.1252 0.8194,1.9121 1.7482,2.1536z"/>
  </g>
 </g>
</svg>
