<?xml version="1.0" encoding="UTF-8"?>
<!DOCTYPE svg PUBLIC "-//W3C//DTD SVG 1.1//EN" "http://www.w3.org/Graphics/SVG/1.1/DTD/svg11.dtd">
<!-- Creator: CorelDRAW X5 -->
<svg xmlns="http://www.w3.org/2000/svg" xml:space="preserve" width="90mm" height="3.716mm" style="shape-rendering:geometricPrecision; text-rendering:geometricPrecision; image-rendering:optimizeQuality; fill-rule:evenodd; clip-rule:evenodd"
viewBox="0 0 90 3.716"
 xmlns:xlink="http://www.w3.org/1999/xlink">
 <defs>
  <style type="text/css">
   <![CDATA[
    .fil1 {fill:#4D4D4D}
    .fil0 {fill:#4D4D4D;fill-rule:nonzero}
   ]]>
  </style>
 </defs>
 <g id="Layer_x0020_1">
  <metadata id="CorelCorpID_0Corel-Layer"/>
  <g id="_626298440">
   <path id="_626314160" class="fil0" d="M41.1658 2.8595c-0.0941,-0.1916 0.043,-0.3812 0.2582,-0.4062 0.3276,-0.0373 0.5268,0.3205 0.3551,0.5733 -0.2438,0.3587 -1.0615,0.5411 -1.8074,-0.512 -0.5727,-0.8078 -0.8828,-2.1981 -1.9254,-2.0817 -0.7801,0.0866 -0.7832,1.1144 -0.1916,1.1895 0.5329,0.0681 0.4829,-0.577 0.0968,-0.5622 -0.2024,0.0081 -0.2304,0.0962 -0.2698,0.1744 -0.0278,-0.0561 0.059,-0.2256 0.2701,-0.2266 0.0813,-0.0004 0.1769,0.0058 0.2657,0.0844 0.3783,0.3328 -0.0838,0.8677 -0.6266,0.5047 -0.4593,-0.3069 -0.2562,-1.1944 0.5222,-1.2427 1.4702,-0.0915 1.4104,1.9558 2.4608,2.6751 0.7853,0.5374 1.4664,-0.1791 1.0508,-0.4588 -0.0662,-0.0436 -0.1372,-0.0579 -0.2021,-0.0513l-0.0003 0c-0.3153,0.0531 -0.2579,0.2774 -0.2565,0.3401z"/>
   <path id="_626312768" class="fil0" d="M37.1958 0.9821c-0.1564,0.274 -0.2316,0.3631 -0.3039,0.7227 -0.1655,0.8223 0.7298,2.1685 1.9839,1.49 0.7307,-0.3957 0.3555,-1.3247 -0.1851,-1.1815 -0.1372,0.0363 -0.2323,0.1259 -0.2666,0.26 -0.4293,-0.6676 0.7569,-0.8889 1.0664,-0.1652 0.5375,1.2565 -1.7197,2.4113 -2.7039,0.8654 -0.2596,-0.4076 -0.2194,-0.979 -0.1207,-1.3932 -1.1492,0.9276 -2.2114,-0.4789 -1.6898,-1.1963 0.2112,-0.2902 0.9372,-0.4784 0.936,0.1437 -0.8317,-0.1888 -0.8444,1.136 0.0546,1.0765 0.3539,-0.0234 0.7269,-0.2811 0.9163,-0.5813 0.5429,-0.8611 1.402,-1.1868 2.5809,-0.9449 1.8931,0.3878 2.7685,2.5617 4.5743,2.8872 0.986,0.1783 1.0006,-1.0453 0.1949,-1.0582 -0.5032,-0.0082 -0.2223,0.7039 0.055,0.4932 -0.1626,0.7409 -1.3898,-0.203 -0.4235,-0.7385 0.4385,-0.2428 1.3367,0.1801 1.1742,0.9478 -0.0961,0.4531 -0.7493,0.7284 -1.2975,0.6848 -3.3289,-0.2629 -2.8762,-3.0416 -5.1201,-3.0065 -0.5923,0.0096 -1.1114,0.247 -1.4254,0.6943z"/>
   <path id="_626309696" class="fil0" d="M48.8345 2.8595c0.0942,-0.192 -0.0431,-0.3812 -0.2582,-0.4062 -0.3276,-0.0373 -0.5268,0.3205 -0.3549,0.5728 0.2433,0.3592 1.0612,0.5416 1.8074,-0.5115 0.5728,-0.8084 0.8826,-2.1986 1.9252,-2.0823 0.7801,0.0872 0.783,1.1145 0.1915,1.1897 -0.5329,0.068 -0.4826,-0.577 -0.0967,-0.5618 0.2021,0.0081 0.2303,0.0962 0.2701,0.1744 0.0278,-0.0566 -0.0594,-0.2261 -0.2705,-0.2266 -0.0809,-0.0004 -0.1767,0.0058 -0.2654,0.0838 -0.3782,0.3329 0.0838,0.8683 0.6265,0.5053 0.4592,-0.3069 0.2561,-1.1944 -0.5221,-1.2427 -1.4702,-0.0921 -1.4104,1.9553 -2.461,2.6747 -0.7849,0.5372 -1.4665,-0.1792 -1.0508,-0.4584 0.0662,-0.044 0.1375,-0.0583 0.2021,-0.0518 0.3156,0.0536 0.2581,0.2779 0.2568,0.3406z"/>
   <path id="_626298632" class="fil0" d="M52.8046 0.9821c0.1565,0.274 0.2313,0.3631 0.304,0.7222 0.1653,0.8228 -0.7298,2.169 -1.9841,1.4899 -0.7308,-0.3956 -0.3553,-1.3241 0.1855,-1.1815 0.1369,0.0365 0.2321,0.126 0.2662,0.2606 0.4291,-0.668 -0.7567,-0.8889 -1.0665,-0.1652 -0.5374,1.2565 1.7197,2.4107 2.7039,0.8654 0.2595,-0.408 0.2197,-0.9794 0.1206,-1.3936 1.1494,0.928 2.2115,-0.4785 1.6901,-1.1964 -0.2113,-0.2902 -0.9372,-0.4779 -0.9364,0.1442 0.832,-0.1892 0.8449,1.1354 -0.054,1.0761 -0.354,-0.023 -0.7271,-0.2807 -0.9167,-0.5814 -0.5425,-0.8606 -1.4018,-1.1863 -2.5807,-0.945 -1.8932,0.3884 -2.7685,2.5623 -4.5741,2.8878 -0.9862,0.1778 -1.0008,-1.0459 -0.1949,-1.0588 0.5031,-0.0081 0.2221,0.7041 -0.0554,0.4938 0.1628,0.7403 1.3896,-0.203 0.4239,-0.7385 -0.4387,-0.2432 -1.3369,0.1801 -1.1744,0.9473 0.0961,0.4536 0.7493,0.7284 1.2978,0.6849 3.3288,-0.263 2.8757,-3.0416 5.1195,-3.0061 0.5929,0.009 1.1115,0.247 1.4257,0.6943z"/>
   <polygon id="_626298560" class="fil1" points="-0,1.4017 35.011,1.1441 35.9187,1.8864 -0,1.7422 "/>
   <polygon id="_626298488" class="fil1" points="90,1.4012 54.9893,1.1441 54.0813,1.8864 90,1.7422 "/>
  </g>
 </g>
</svg>
