<?xml version="1.0" encoding="UTF-8"?>
<!DOCTYPE svg PUBLIC "-//W3C//DTD SVG 1.1//EN" "http://www.w3.org/Graphics/SVG/1.1/DTD/svg11.dtd">
<!-- Creator: CorelDRAW X5 -->
<svg xmlns="http://www.w3.org/2000/svg" xml:space="preserve" width="195.494mm" height="50mm" style="shape-rendering:geometricPrecision; text-rendering:geometricPrecision; image-rendering:optimizeQuality; fill-rule:evenodd; clip-rule:evenodd"
viewBox="0 0 195.494 50"
 xmlns:xlink="http://www.w3.org/1999/xlink">
 <defs>
  <style type="text/css">
   <![CDATA[
    .fil0 {fill:#4D4D4D;fill-rule:nonzero}
    .fil1 {fill:white;fill-rule:nonzero}
   ]]>
  </style>
 </defs>
 <g id="Layer_x0020_1">
  <metadata id="CorelCorpID_0Corel-Layer"/>
  <g id="_626308832">
   <path id="_626309216" class="fil0" d="M84.0051 6.4252c0,2.8025 -1.4354,5.1834 -4.3062,7.1429 -2.5746,1.7316 -5.3429,2.5974 -8.3048,2.5974 -0.1823,0 -0.4443,-0.0342 -0.7861,-0.1025 -0.4557,-0.0912 -0.6835,-0.1937 -0.6835,-0.3076 0,-0.0456 0.0114,-0.0798 0.0341,-0.1026l0.0684 0c0.2734,0.1595 0.7291,0.2393 1.3671,0.2393 2.7341,0 5.3201,-0.9 7.758,-2.6999 2.6657,-1.9595 3.9986,-4.2607 3.9986,-6.9037 0,-2.005 -0.9683,-3.5429 -2.905,-4.6138 -1.5721,-0.8658 -3.4404,-1.2987 -5.6049,-1.2987 -4.7163,0 -9.2846,1.6747 -13.7047,5.024 1.5949,1.5265 2.3923,3.2923 2.3923,5.2973 0,1.2987 -0.3987,2.6202 -1.1961,3.9644 -1.0937,1.8456 -2.8139,3.3037 -5.1606,4.3746 -2.0278,0.9569 -4.2493,1.5265 -6.6644,1.7088l0 0.0342c1.9138,0.4785 2.8708,1.4924 2.8708,3.0417 0,1.0025 -0.4215,2.1531 -1.2645,3.4518 -0.7975,1.1164 -1.5949,2.2442 -2.3924,3.3834 -0.8658,1.3671 -1.2987,2.643 -1.2987,3.8278 0,1.6632 1.1164,2.4949 3.3493,2.4949 2.0278,0 4.0784,-0.8658 6.1517,-2.5974 2.0734,-1.7316 3.3379,-3.5999 3.7936,-5.605 0.0456,-0.2278 0.0684,-0.4442 0.0684,-0.6493 0,-1.2759 -0.6494,-1.9139 -1.9481,-1.9139 -1.7772,0 -3.4518,0.8089 -5.0239,2.4265 -1.4582,1.5038 -2.3468,3.167 -2.6658,4.9898 -0.0683,-0.0228 -0.1025,-0.1595 -0.1025,-0.4101 0,-1.6405 0.8886,-3.3037 2.6658,-4.9898 1.7771,-1.686 3.4973,-2.529 5.1606,-2.529 1.8455,0 2.7683,0.843 2.7683,2.529 0,2.0734 -1.3443,4.1354 -4.0328,6.1859 -2.5291,1.9367 -4.8645,2.905 -7.0062,2.905 -1.367,0 -2.4721,-0.2734 -3.3151,-0.8202 -0.9797,-0.638 -1.4696,-1.6063 -1.4696,-2.905 0,-1.1848 0.4671,-2.5063 1.4013,-3.9644 0.8658,-1.1848 1.7316,-2.3696 2.5974,-3.5544 0.9341,-1.2759 1.4012,-2.3012 1.4012,-3.0759 0,-1.048 -0.6721,-1.7088 -2.0164,-1.9822 -1.0937,-0.0911 -2.1759,-0.1823 -3.2468,-0.2734 -3.5315,4.4201 -7.0403,7.9745 -10.5263,10.663 0.3646,0.9797 0.5469,1.9367 0.5469,2.8708 0,1.5038 -0.6836,2.6772 -2.0506,3.5202 -1.162,0.7291 -2.5405,1.0936 -4.1353,1.0936 -1.9823,0 -4.1354,-0.4101 -6.4594,-1.2303 -3.4859,1.0025 -7.8149,1.5037 -12.987,1.5037 -7.4276,0 -11.1414,-1.1506 -11.1414,-3.4518 0,-1.2075 0.8544,-2.1075 2.5632,-2.6999 1.2076,-0.4329 2.5518,-0.6493 4.0328,-0.6493 2.8252,0 5.8327,0.467 9.0225,1.4012 2.1645,0.6152 5.0353,1.6746 8.6125,3.1784 3.691,-1.2759 7.3137,-3.4404 10.868,-6.4935 -1.3442,-2.0962 -2.6999,-4.1809 -4.067,-6.2543 -1.3898,-2.3923 -2.0847,-4.7619 -2.0847,-7.1087 0,-4.1239 1.8113,-7.6554 5.434,-10.5946 3.9645,-3.2126 9.034,-4.8189 15.2085,-4.8189 4.5796,0 8.1909,1.0709 10.8339,3.2126 4.8074,-3.2581 9.5921,-4.8872 14.354,-4.8872 2.324,0 4.3518,0.4785 6.0834,1.4354 2.0961,1.1848 3.1442,2.848 3.1442,4.9897zm-22.0437 3.281c0,-1.5721 -0.4899,-2.9164 -1.4696,-4.0328 -2.3012,1.8227 -4.6935,4.1467 -7.177,6.9719 -1.5493,1.7544 -3.6683,4.3518 -6.3568,7.7922 0.4785,0.0684 0.9911,0.1026 1.5379,0.1026 2.5063,0 4.8474,-0.5981 7.0233,-1.7943 2.1759,-1.1962 3.9131,-2.8537 5.2118,-4.9727 0.8203,-1.3442 1.2304,-2.6999 1.2304,-4.0669zm-2.0506 -4.5797c-2.1645,-2.0733 -5.5707,-3.11 -10.2187,-3.11 -6.1517,0 -11.0845,1.5835 -14.7983,4.7505 -3.2582,2.7569 -4.8872,6.1062 -4.8872,10.0478 0,2.1645 0.6151,4.4771 1.8455,6.9378 0.319,0.638 1.5493,2.7113 3.691,6.2201 2.6202,-2.324 5.6619,-5.5593 9.1251,-9.7061l0 -0.0341c-1.1848,-0.4329 -2.1645,-1.0595 -2.9392,-1.8797 -0.8658,-0.9342 -1.2987,-1.9709 -1.2987,-3.1101 0,-1.6404 0.7063,-3.1442 2.119,-4.5112 1.4126,-1.3671 2.9163,-2.0506 4.5112,-2.0506 0.1823,0 0.2734,0.0455 0.2734,0.1367 -0.1595,0.0683 -0.3417,0.1253 -0.5468,0.1709 -1.6177,0.3417 -2.9847,1.0366 -4.1011,2.0847 -1.2076,1.162 -1.8114,2.5291 -1.8114,4.1012 0,2.1189 1.3329,3.7024 3.9986,4.7505 5.1265,-6.4707 10.139,-11.4035 15.0376,-14.7984zm-23.6158 29.2208c0,-0.8886 -0.1823,-1.7658 -0.5468,-2.6316 -3.281,2.4835 -6.8581,4.3518 -10.7314,5.6049 2.0734,0.8202 3.9417,1.2304 5.6049,1.2304 1.4354,0 2.7,-0.3304 3.7936,-0.9911 1.2531,-0.7975 1.8797,-1.8684 1.8797,-3.2126zm-13.0212 2.9391c-2.7341,-1.0252 -5.4682,-2.0391 -8.2023,-3.0416 -3.167,-1.0253 -6.015,-1.538 -8.5441,-1.538 -1.4126,0 -2.6771,0.1823 -3.7935,0.5468 -1.5949,0.5241 -2.3924,1.3443 -2.3924,2.4607 0,2.0506 3.7594,3.0759 11.2782,3.0759 4.6024,0 8.4871,-0.5013 11.6541,-1.5038z"/>
   <path id="_6263092161" class="fil0" d="M73.5529 32.8435c0,0.2734 -0.7747,1.0025 -2.324,2.1873 -1.2075,0.9114 -2.1873,1.3671 -2.9391,1.3671 -0.7064,0 -1.0595,-0.2735 -1.0595,-0.8203 0,-0.6835 0.6266,-1.6518 1.8797,-2.905l-0.0684 -0.0683c-3.0531,2.529 -5.0808,3.7936 -6.0833,3.7936 -0.7519,0 -1.1279,-0.2735 -1.1279,-0.8203 0,-0.8886 1.0253,-2.3126 3.0759,-4.272l0 -0.0342c-0.3645,0.2506 -0.9114,0.6608 -1.6405,1.2304 -0.2734,0.2506 -0.6835,0.6037 -1.2303,1.0594 -0.1367,0.0912 -0.2506,0.1367 -0.3418,0.1367l-0.0341 -0.0683c0.3873,-0.6323 1.1278,-1.3158 2.2214,-2.062 1.1848,-0.8145 2.1189,-1.2189 2.8025,-1.2189 0.2278,0 0.3645,0.0341 0.4101,0.1025 -0.0228,0.0456 -0.6494,0.8658 -1.8797,2.4607 -1.0253,1.3158 -1.5379,2.136 -1.5379,2.455 0.0227,0.0285 0.0569,0.074 0.1025,0.1424 0.0456,0.0683 0.1253,0.1025 0.2392,0.1025 0.5468,0 2.8139,-1.6291 6.8011,-4.8872 0.2962,-0.2506 0.6266,-0.3759 0.9911,-0.3759 0.4785,0 0.7177,0.0569 0.7177,0.1708 0,0.114 -0.5753,0.8544 -1.7259,2.2215 -1.1506,1.367 -1.7259,2.2215 -1.7259,2.5632 0,0.0912 0.0228,0.1652 0.0684,0.2222 0.0455,0.0569 0.1139,0.0854 0.205,0.0854 0.7747,0 2.0278,-0.8658 3.7594,-2.5974l0.4443 -0.2051 0 0.0342z"/>
   <path id="_62630921612" class="fil0" d="M81.3793 32.7752c0,0.1196 -0.3418,0.4784 -1.0253,1.0822 -2.005,1.7601 -4.0442,2.643 -6.1176,2.643 -1.3898,0 -2.0847,-0.5582 -2.0847,-1.6747 0,-0.5012 0.1651,-0.9797 0.4955,-1.4354 0.3304,-0.4556 0.7348,-0.6835 1.2133,-0.6835 0.5012,0 0.7519,0.1709 0.7519,0.5127 0,0.3417 -0.2621,0.6949 -0.7861,1.0594 -0.524,0.3646 -0.7861,0.7405 -0.7861,1.1278 0,0.5013 0.3304,0.7519 0.9912,0.7519 0.6835,0 1.2873,-0.3645 1.8113,-1.0936 0.3418,-0.4329 0.7234,-1.1791 1.1449,-2.2386 0.4215,-1.0594 0.7348,-1.7259 0.9399,-1.9993l0 -0.0342c-1.8228,1.481 -2.8936,2.2215 -3.2126,2.2215 -0.0228,0 -0.0456,-0.0114 -0.0684,-0.0342 0.0456,-0.1367 0.5924,-0.5924 1.6405,-1.367 1.162,-0.843 1.8227,-1.3557 1.9822,-1.538 0.5468,-0.6379 1.0595,-0.9569 1.538,-0.9569 0.2961,0 0.4442,0.0456 0.4442,0.1367 0,0.1367 -0.4784,0.5013 -1.4354,1.0937 -0.1367,0.0911 -0.205,0.8658 -0.205,2.3239 0,0.5013 -0.1367,1.0253 -0.4101,1.5722 -0.2734,0.5468 -0.6152,0.9569 -1.0253,1.2303l0 0.0342c1.0708,-0.5127 2.0107,-1.1108 2.8195,-1.7886 0.8089,-0.6778 1.2588,-1.0139 1.35,-1.0139 0.0228,0.0228 0.0342,0.0456 0.0342,0.0684z"/>
   <path id="_626309216123" class="fil0" d="M186.295 4.6481c0,2.2328 -1.2531,4.0783 -3.7594,5.5365 -2.1645,1.2532 -4.4543,1.8797 -6.8694,1.8797 -0.7747,0 -1.5835,-0.1025 -2.4265,-0.3076 -1.2076,-0.2961 -1.8455,-0.7063 -1.9139,-1.2303l0.0684 -0.0684c0.1595,0.1368 0.4101,0.3304 0.7518,0.581 0.6152,0.4329 1.7316,0.6494 3.3493,0.6494 2.2101,0 4.3404,-0.6038 6.391,-1.8113 2.3695,-1.4127 3.5543,-3.1557 3.5543,-5.229 0,-1.1392 -0.4784,-2.005 -1.4354,-2.5974 -0.7746,-0.5013 -1.7771,-0.7519 -3.0075,-0.7519 -2.6885,0 -5.6505,1.2759 -8.8858,3.8277 -3.8733,3.0531 -7.8948,7.8264 -12.0643,14.3199 -2.4607,3.8278 -4.6138,6.8353 -6.4593,9.0226 -3.0531,3.5771 -5.8897,5.8441 -8.5099,6.801l0 0.0342c1.7772,-0.6379 3.2126,-0.9569 4.3062,-0.9569 1.3443,0 2.0392,0.4329 2.0848,1.2987 0.6379,-0.319 1.8569,-1.1848 3.6568,-2.5974l0.1368 0 0.0341 0.1025c-0.0683,0.2279 -0.7063,0.8088 -1.9138,1.743 -1.0253,0.7974 -1.7886,1.3557 -2.2899,1.6746 -0.7974,0.5013 -1.5493,0.7519 -2.2556,0.7519 0.6152,-0.524 0.9228,-1.0253 0.9228,-1.5037 0,-0.5696 -0.5469,-0.8544 -1.6405,-0.8544 -1.1392,0 -2.3582,0.3132 -3.6569,0.9398 -1.2987,0.6266 -1.9708,0.9398 -2.0164,0.9398 -0.2278,0 -0.3417,-0.1025 -0.3417,-0.3075 0,-0.1367 0.7746,-0.5127 2.324,-1.1279 1.7543,-0.6835 3.8163,-2.5974 6.1859,-5.7416 2.9847,-4.2378 5.9694,-8.4871 8.9542,-12.7477 3.5999,-4.9442 7.0972,-8.7492 10.4921,-11.4149 3.7822,-2.9847 7.4162,-4.4771 10.9022,-4.4771 1.4126,0 2.586,0.2506 3.5202,0.7519 1.2075,0.6151 1.8113,1.5721 1.8113,2.8708zm-24.5727 -1.0253c0,0.1823 -0.1196,0.3816 -0.3589,0.5981 -0.2392,0.2164 -0.6095,0.4727 -1.1107,0.7689 -0.5924,0.319 -0.9797,0.5469 -1.162,0.6836 -0.5696,0.4101 -2.7113,3.0644 -6.4251,7.963 -1.4582,1.9595 -3.7139,4.8531 -6.767,8.6808 1.5722,0.0912 3.019,0.319 4.3404,0.6835 2.0734,0.5924 3.1101,1.4127 3.1101,2.4607 0,0.114 -0.0228,0.2279 -0.0684,0.3418 -0.6379,-0.9341 -1.7999,-1.6974 -3.486,-2.2898 -1.3442,-0.4557 -2.7455,-0.7405 -4.2036,-0.8544 -2.2101,2.7113 -4.8986,5.3201 -8.0656,7.8264 -3.2354,2.5746 -6.391,4.591 -9.4669,6.0492 1.4126,2.7341 4.0556,4.1011 7.9289,4.1011 1.1392,0 2.0848,-0.205 2.8367,-0.6152 0.0683,-0.0455 0.1708,-0.1025 0.3075,-0.1708 0.0228,0.0227 0.0342,0.0455 0.0342,0.0683 0,0.2962 -0.4898,0.5582 -1.4696,0.7861 -0.7518,0.1595 -1.3556,0.2392 -1.8113,0.2392 -3.9645,0 -6.8011,-1.3443 -8.5099,-4.0328 -6.0834,2.848 -12.8161,4.272 -20.1982,4.272 -4.4885,0 -8.2023,-0.6721 -11.1415,-2.0164 -3.9644,-1.8227 -5.9466,-4.7163 -5.9466,-8.6807 0,-3.167 1.7315,-5.9923 5.1947,-8.4758 4.2151,-3.0075 9.5238,-4.5112 15.9262,-4.5112 2.9164,0 5.5252,0.467 7.8264,1.4012 3.0986,1.2531 4.648,3.1214 4.648,5.6049 0,2.8708 -1.5949,5.0467 -4.7847,6.5277 -2.4607,1.1392 -5.3201,1.7088 -8.5783,1.7088 -1.7999,0 -3.486,-0.2848 -5.0581,-0.8544 -2.1189,-0.7519 -3.1784,-1.8683 -3.1784,-3.3493 0,-0.3873 0.114,-0.8316 0.3418,-1.3329l0 0.0342c0,0.0911 -0.0228,0.2108 -0.0684,0.3589 -0.0455,0.1481 -0.0683,0.2677 -0.0683,0.3588 0,1.5949 1.0025,2.7569 3.0075,3.486 1.3898,0.5012 3.0759,0.7519 5.0581,0.7519 2.848,0 5.4226,-0.5468 7.7238,-1.6405 2.9392,-1.3898 4.4088,-3.3379 4.4088,-5.8441 0,-2.4152 -1.4012,-4.2379 -4.2037,-5.4682 -2.1417,-0.9114 -4.591,-1.3671 -7.3479,-1.3671 -6.0606,0 -10.9592,1.5038 -14.6958,4.5113 -3.0303,2.4151 -4.5455,5.1606 -4.5455,8.2365 0,3.6682 1.7772,6.3681 5.3315,8.0997 2.7114,1.3443 6.1062,2.0164 10.1846,2.0164 6.8125,0 13.3629,-1.5948 19.6513,-4.7846 -0.3417,-0.7975 -0.5126,-1.6177 -0.5126,-2.4607 0,-3.3265 1.9936,-6.1176 5.9809,-8.3732 3.1897,-1.8 6.9491,-2.7455 11.2781,-2.8367 2.119,-2.5518 4.4202,-5.3713 6.9036,-8.4586 2.4835,-3.0872 4.5683,-5.4169 6.2543,-6.989l0 -0.0342c-6.4707,4.5113 -10.9022,7.4162 -13.2946,8.7149 -5.5593,3.0531 -10.5604,4.5797 -15.0034,4.5797 -1.3442,0 -2.4607,-0.2962 -3.3492,-0.8886 -1.0025,-0.7063 -1.5038,-1.6974 -1.5038,-2.9734 0,-0.2506 0.0456,-0.3759 0.1367,-0.3759 0.0684,0.2962 0.1367,0.6038 0.2051,0.9228 0.205,0.6379 0.5924,1.1506 1.162,1.5379 0.7746,0.5468 1.9024,0.8202 3.3834,0.8202 2.5291,0 5.3201,-0.467 8.3732,-1.4012 2.3923,-0.7291 4.8758,-1.8113 7.4504,-3.2467 1.6633,-0.9342 3.9759,-2.381 6.9378,-4.3404l4.4088 -2.905c0.4557,-0.2734 1.0822,-0.6836 1.8797,-1.2304 2.0505,-1.7544 3.3265,-2.6315 3.8277,-2.6315 0.2279,0 0.3418,0.0797 0.3418,0.2392zm-18.4211 19.0704l0 -0.0342c-3.9872,0.1367 -7.4276,1.0822 -10.3212,2.8366 -3.7138,2.2557 -5.5707,4.9898 -5.5707,8.2023 0,0.6608 0.0683,1.2646 0.205,1.8114 5.6277,-2.962 10.8567,-7.234 15.6869,-12.8161z"/>
   <path id="_6263092161234" class="fil0" d="M162.924 32.8435c0,0.0684 -0.1025,0.2051 -0.3076,0.4101 -0.843,0.8658 -1.7771,1.5949 -2.8024,2.1873 -1.2076,0.7063 -2.324,1.0595 -3.3493,1.0595 -1.2531,0 -1.8797,-0.4215 -1.8797,-1.2645 0,-0.6152 0.2734,-1.2873 0.8202,-2.0164l-0.0398 0c-0.3475,0.3417 -0.581,0.5126 -0.7064,0.5126 -0.0227,0 -0.0512,-0.0114 -0.074,-0.0342l0 -0.0683c0,0 0.0114,-0.0456 0.0342,-0.1367 0.6436,-0.7063 1.5892,-1.4013 2.8309,-2.0848 1.3329,-0.7063 2.4265,-1.0594 3.2752,-1.0594 0.6665,0 1.0025,0.2961 1.0025,0.8885 0,1.0253 -1.7202,2.0848 -5.1606,3.1784 -0.1367,0.4557 -0.205,0.7633 -0.205,0.9228 0,0.4101 0.262,0.6152 0.786,0.6152 0.7063,0 1.538,-0.2734 2.4949,-0.8203 0.6607,-0.3873 1.3784,-0.8999 2.1531,-1.5379 0.6607,-0.5696 1.0025,-0.8544 1.0253,-0.8544 0.0683,0 0.1025,0.0342 0.1025,0.1025zm-2.3923 -1.743c0,-0.205 -0.1367,-0.3076 -0.4101,-0.3076 -0.4557,0 -1.0823,0.4329 -1.8797,1.2987 -0.6152,0.6608 -1.1051,1.3101 -1.4696,1.9481l0 0.0342c2.5062,-0.7975 3.7594,-1.7886 3.7594,-2.9734z"/>
   <path id="_62630921612345" class="fil0" d="M180.69 17.6692c0,0.8886 -0.7746,2.0449 -2.324,3.4689 -1.5493,1.4241 -4.4315,3.8563 -8.6466,7.2967 -0.6607,0.5012 -1.6063,1.2759 -2.8366,2.324 -0.2962,0.2734 -1.6405,2.0392 -4.0328,5.2973 1.7999,-0.5013 3.6113,-1.5265 5.434,-3.0759 0.1823,-0.1595 0.2962,-0.2392 0.3418,-0.2392 0.0683,0 0.1025,0.0114 0.1025,0.0342 0,0.1139 -0.0911,0.262 -0.2734,0.4443 -0.5468,0.5696 -1.2873,1.1392 -2.2215,1.7088 -1.0936,0.524 -2.2898,1.162 -3.5885,1.9138 -0.1822,0.2507 -0.3645,0.6608 -0.5468,1.2304 -0.1595,0.4557 -0.3076,0.9 -0.4443,1.3329 -0.7746,2.0278 -1.8113,4.1011 -3.11,6.2201 -1.8,2.9163 -3.3037,4.3745 -4.5113,4.3745 -0.524,0 -0.786,-0.262 -0.786,-0.786 0,-2.3924 3.691,-8.2023 11.0731,-17.4299l-0.0342 0c-0.4785,0.4556 -1.1734,0.9911 -2.0848,1.6062 0.0228,-0.1367 0.4671,-0.581 1.3329,-1.3328 0.5241,-0.4329 1.0367,-0.8544 1.538,-1.2646 1.0025,-1.2531 2.3012,-2.8594 3.896,-4.8188 1.5494,-1.8683 3.2354,-3.6683 5.0581,-5.3999 2.6658,-2.5518 4.5569,-3.8277 5.6733,-3.8277 0.6607,0 0.9911,0.3076 0.9911,0.9227zm-0.8544 0.0684c0,-0.4101 -0.1823,-0.6152 -0.5468,-0.6152 -0.843,0 -2.848,1.8569 -6.015,5.5708 -2.119,2.4607 -4.0442,4.853 -5.7758,7.177l0 0.0342c2.3012,-2.005 4.6024,-4.0101 6.9036,-6.0151 3.6227,-3.2581 5.434,-5.3087 5.434,-6.1517zm-17.7375 19.3096l-0.0342 0c-1.3442,1.8 -2.7796,3.8278 -4.3062,6.0834 -2.2556,3.3265 -3.3834,5.2859 -3.3834,5.8783 0,0.2279 0.1025,0.3418 0.3076,0.3418 0.8885,0 2.3581,-1.7544 4.4087,-5.2632 1.1392,-1.9594 2.1417,-4.3062 3.0075,-7.0403z"/>
   <path id="_626309216123456" class="fil0" d="M175.74 32.8435c0,0.319 -0.786,1.0481 -2.3582,2.1873 -1.2303,0.9114 -2.2442,1.3671 -3.0416,1.3671 -0.7064,0 -1.0595,-0.2678 -1.0595,-0.8089 0,-0.6778 0.6493,-1.5835 1.948,-2.717 1.2987,-1.1392 1.9481,-1.7202 1.9481,-1.743 0,-0.131 -0.1253,-0.2107 -0.376,-0.2335 -0.1822,-0.0228 -0.4329,-0.0228 -0.7518,0 -0.3874,0 -0.581,0 -0.581,0 -0.114,0 -0.2734,-0.0342 -0.4785,-0.1026 -0.1595,0.2051 -0.7063,0.7405 -1.6405,1.6063 -0.9341,0.8658 -1.4468,1.2987 -1.5379,1.2987 -0.0683,0 -0.1025,-0.0341 -0.1025,-0.1025 0,-0.0456 0.0911,-0.1481 0.2734,-0.3076 0.3873,-0.319 1.2987,-1.1962 2.7341,-2.6316 -0.1595,-0.0911 -0.2392,-0.2506 -0.2392,-0.4784 0,-0.3418 0.1651,-0.6266 0.4955,-0.8544 0.3304,-0.2279 0.6778,-0.3418 1.0424,-0.3418 0.319,0 0.524,0.1139 0.6152,0.3418 -0.1823,0.1367 -0.3532,0.2734 -0.5127,0.4101 -0.2278,0.1823 -0.3417,0.3645 -0.3417,0.5468 0,0.1595 0.3873,0.262 1.1619,0.3076 0.7747,0.0456 1.162,0.2734 1.162,0.6835 0,0.2279 -0.4784,0.8601 -1.4354,1.8968 -0.9569,1.0367 -1.4354,1.7715 -1.4354,2.2044 0,0.0683 0.0342,0.1367 0.1026,0.205l0.1708 0c0.4329,0.0228 1.2361,-0.4443 2.4095,-1.4012 1.1734,-0.9569 1.7487,-1.4354 1.7259,-1.4354 0.0683,0 0.1025,0.0342 0.1025,0.1025z"/>
   <path id="_6263092161234567" class="fil0" d="M183.287 26.1791c0,0.319 -0.2221,0.638 -0.6664,0.957 -0.4443,0.319 -0.8373,0.4784 -1.1791,0.4784 -0.0911,-0.0911 -0.1367,-0.2961 -0.1367,-0.6151 0,-0.7975 0.5013,-1.1962 1.5038,-1.1962 0.3189,0 0.4784,0.1253 0.4784,0.3759zm-2.0164 6.6644c0,0.2506 -0.7746,0.9797 -2.324,2.1873 -1.2075,0.9342 -2.1986,1.4012 -2.9733,1.4012 -0.6835,0 -1.0253,-0.262 -1.0253,-0.786 0,-0.5241 0.3987,-1.2987 1.1962,-2.324 0.6607,-0.8658 1.2873,-1.5379 1.8797,-2.0164l0 -0.0342c-0.3646,0.2506 -0.9114,0.6608 -1.6405,1.2304 -0.2734,0.2506 -0.6835,0.6037 -1.2303,1.0594 -0.1367,0.0912 -0.2507,0.1367 -0.3418,0.1367l-0.0342 -0.0683c0.2279,-0.5241 0.9684,-1.1905 2.2215,-1.9993 1.2531,-0.8089 2.1987,-1.2133 2.8366,-1.2133 0.1595,0 0.2962,0.0228 0.4101,0.0684l0 0.0683c0,0.0456 -0.581,0.769 -1.743,2.1702 -1.1619,1.4012 -1.7429,2.2841 -1.7429,2.6487 0.0227,0.0683 0.0569,0.1367 0.1025,0.205 0.0456,0.0684 0.1139,0.1026 0.205,0.1026 0.3931,0 1.1222,-0.4614 2.1873,-1.3842 1.0709,-0.9227 1.7544,-1.4183 2.0506,-1.4867l-0.0342 0.0342z"/>
   <path id="_62630921612345678" class="fil0" d="M188.522 32.8435c0,0.0684 -0.1025,0.2051 -0.3076,0.4101 -0.843,0.8658 -1.7771,1.5949 -2.8024,2.1873 -1.2076,0.7063 -2.324,1.0595 -3.3493,1.0595 -1.2531,0 -1.8797,-0.4215 -1.8797,-1.2645 0,-0.6152 0.2734,-1.2873 0.8202,-2.0164l-0.0398 0c-0.3475,0.3417 -0.581,0.5126 -0.7064,0.5126 -0.0227,0 -0.0512,-0.0114 -0.074,-0.0342l0 -0.0683c0,0 0.0114,-0.0456 0.0342,-0.1367 0.6436,-0.7063 1.5892,-1.4013 2.8309,-2.0848 1.3329,-0.7063 2.4265,-1.0594 3.2752,-1.0594 0.6665,0 1.0025,0.2961 1.0025,0.8885 0,1.0253 -1.7202,2.0848 -5.1606,3.1784 -0.1367,0.4557 -0.205,0.7633 -0.205,0.9228 0,0.4101 0.262,0.6152 0.786,0.6152 0.7063,0 1.538,-0.2734 2.4949,-0.8203 0.6607,-0.3873 1.3784,-0.8999 2.1531,-1.5379 0.6607,-0.5696 1.0025,-0.8544 1.0253,-0.8544 0.0683,0 0.1025,0.0342 0.1025,0.1025zm-2.3923 -1.743c0,-0.205 -0.1367,-0.3076 -0.4101,-0.3076 -0.4557,0 -1.0823,0.4329 -1.8797,1.2987 -0.6152,0.6608 -1.1051,1.3101 -1.4696,1.9481l0 0.0342c2.5062,-0.7975 3.7594,-1.7886 3.7594,-2.9734z"/>
   <path id="_626309216123456789" class="fil0" d="M195.494 32.8435c0,0.319 -0.786,1.0481 -2.3582,2.1873 -1.2303,0.9114 -2.2442,1.3671 -3.0416,1.3671 -0.7064,0 -1.0595,-0.2678 -1.0595,-0.8089 0,-0.6778 0.6493,-1.5835 1.948,-2.717 1.2987,-1.1392 1.9481,-1.7202 1.9481,-1.743 0,-0.131 -0.1253,-0.2107 -0.376,-0.2335 -0.1822,-0.0228 -0.4329,-0.0228 -0.7518,0 -0.3874,0 -0.581,0 -0.581,0 -0.114,0 -0.2734,-0.0342 -0.4785,-0.1026 -0.1595,0.2051 -0.7063,0.7405 -1.6405,1.6063 -0.9341,0.8658 -1.4468,1.2987 -1.5379,1.2987 -0.0683,0 -0.1025,-0.0341 -0.1025,-0.1025 0,-0.0456 0.0911,-0.1481 0.2734,-0.3076 0.3873,-0.319 1.2987,-1.1962 2.7341,-2.6316 -0.1595,-0.0911 -0.2392,-0.2506 -0.2392,-0.4784 0,-0.3418 0.1651,-0.6266 0.4955,-0.8544 0.3304,-0.2279 0.6778,-0.3418 1.0424,-0.3418 0.319,0 0.524,0.1139 0.6152,0.3418 -0.1823,0.1367 -0.3532,0.2734 -0.5127,0.4101 -0.2278,0.1823 -0.3417,0.3645 -0.3417,0.5468 0,0.1595 0.3873,0.262 1.1619,0.3076 0.7747,0.0456 1.162,0.2734 1.162,0.6835 0,0.2279 -0.4784,0.8601 -1.4354,1.8968 -0.9569,1.0367 -1.4354,1.7715 -1.4354,2.2044 0,0.0683 0.0342,0.1367 0.1026,0.205l0.1708 0c0.4329,0.0228 1.2361,-0.4443 2.4095,-1.4012 1.1734,-0.9569 1.7487,-1.4354 1.7259,-1.4354 0.0683,0 0.1025,0.0342 0.1025,0.1025z"/>
   <path id="_626312528" class="fil1" d="M56.2393 23.853l1.0194 0c0.9984,0 1.7359,-0.167 2.2125,-0.4975 0.4766,-0.334 0.7132,-0.8558 0.7132,-1.5724 0,-0.7062 -0.2435,-1.2072 -0.7271,-1.5064 -0.487,-0.2992 -1.2385,-0.4488 -2.2578,-0.4488l-0.9602 0 0 4.0251zm0 2.5674l0 5.7193 -3.1588 0 0 -14.9001 4.3417 0c2.0247,0 3.5241,0.3688 4.4947,1.1063 0.9706,0.7376 1.4576,1.8543 1.4576,3.3572 0,0.8766 -0.24,1.6559 -0.7236,2.3378 -0.4835,0.6853 -1.1654,1.2176 -2.049,1.6072 2.2438,3.3502 3.705,5.514 4.3834,6.4916l-3.5068 0 -3.5554 -5.7193 -1.6838 0z"/>
   <path id="_6263125281" class="fil1" d="M73.6032 32.1397l-0.4175 -1.4577 -0.1635 0c-0.3339,0.5288 -0.8036,0.9393 -1.4159,1.2281 -0.6123,0.2887 -1.308,0.4349 -2.0908,0.4349 -1.3394,0 -2.3482,-0.3584 -3.0266,-1.075 -0.6784,-0.7201 -1.0193,-1.7499 -1.0193,-3.0962l0 -7.4274 3.1101 0 0 6.6551c0,0.821 0.1461,1.4367 0.4383,1.8472 0.2923,0.414 0.755,0.6193 1.3951,0.6193 0.8697,0 1.4994,-0.2922 1.8855,-0.8732 0.3862,-0.581 0.581,-1.5446 0.581,-2.8875l0 -5.3609 3.1101 0 0 11.3933 -2.3865 0z"/>
   <path id="_62631252812" class="fil1" d="M86.1139 28.7547c0,1.169 -0.407,2.0595 -1.2176,2.6718 -0.814,0.6123 -2.0282,0.9185 -3.6458,0.9185 -0.828,0 -1.5342,-0.0592 -2.1187,-0.1705 -0.5844,-0.1113 -1.1306,-0.2748 -1.642,-0.494l0 -2.5674c0.5775,0.2713 1.228,0.4975 1.9516,0.6818 0.7237,0.1844 1.3638,0.2749 1.9134,0.2749 1.1272,0 1.6908,-0.3236 1.6908,-0.9776 0,-0.2435 -0.0731,-0.4418 -0.2227,-0.5949 -0.1496,-0.1531 -0.4105,-0.327 -0.7758,-0.5218 -0.3653,-0.1914 -0.8558,-0.4175 -1.4681,-0.6784 -0.8766,-0.3653 -1.5202,-0.7062 -1.9307,-1.0193 -0.4105,-0.3096 -0.7097,-0.668 -0.8976,-1.075 -0.1879,-0.4035 -0.2783,-0.901 -0.2783,-1.4924 0,-1.0124 0.3896,-1.7951 1.1759,-2.3483 0.7862,-0.5531 1.896,-0.8314 3.3362,-0.8314 1.3742,0 2.7101,0.2992 4.0077,0.8975l-0.9393 2.2404c-0.5706,-0.2435 -1.1028,-0.4453 -1.6003,-0.5983 -0.494,-0.1566 -1.0019,-0.2366 -1.5168,-0.2366 -0.9184,0 -1.3776,0.247 -1.3776,0.7445 0,0.2783 0.1496,0.5183 0.4453,0.7236 0.2957,0.2052 0.9427,0.5079 1.9412,0.908 0.8906,0.3583 1.5411,0.6957 1.9551,1.0088 0.414,0.3131 0.7201,0.6715 0.9184,1.0785 0.1983,0.4105 0.2957,0.8941 0.2957,1.4576z"/>
   <polygon id="_626312528123" class="fil1" points="106.417,32.1397 103.268,32.1397 103.268,25.7072 97.3646,25.7072 97.3646,32.1397 94.2058,32.1397 94.2058,17.2396 97.3646,17.2396 97.3646,23.0772 103.268,23.0772 103.268,17.2396 106.417,17.2396 "/>
   <path id="_6263125281234" class="fil1" d="M113.567 22.7432c-0.6575,0 -1.1759,0.2088 -1.5481,0.6262 -0.3758,0.4175 -0.588,1.0124 -0.6436,1.7777l4.3625 0c-0.0139,-0.7653 -0.2122,-1.3602 -0.6019,-1.7777 -0.3861,-0.4174 -0.908,-0.6262 -1.5689,-0.6262zm0.4383 9.6018c-1.8334,0 -3.2667,-0.508 -4.2999,-1.5203 -1.0332,-1.0124 -1.5481,-2.4457 -1.5481,-4.2999 0,-1.9099 0.4766,-3.385 1.4298,-4.4286 0.9567,-1.0437 2.2752,-1.5655 3.959,-1.5655 1.6107,0 2.8666,0.4592 3.7607,1.3776 0.8975,0.915 1.3463,2.1847 1.3463,3.7989l0 1.5099 -7.3474 0c0.0348,0.8836 0.2957,1.5724 0.7827,2.0699 0.4906,0.494 1.1759,0.7445 2.0595,0.7445 0.6854,0 1.3359,-0.0731 1.9482,-0.2157 0.6123,-0.1426 1.2489,-0.3688 1.9169,-0.6819l0 2.404c-0.5462,0.2713 -1.1272,0.4731 -1.7429,0.6053 -0.6193,0.1357 -1.3742,0.2018 -2.2648,0.2018z"/>
   <path id="_62631252812345" class="fil1" d="M126.394 23.0772l-2.6892 0 0 9.0625 -3.1101 0 0 -9.0625 -1.7116 0 0 -1.4959 1.7116 -0.8349 0 -0.8385c0,-1.2976 0.32,-2.2438 0.9601,-2.8422 0.6367,-0.5984 1.6595,-0.8976 3.0684,-0.8976 1.0715,0 2.0282,0.1601 2.8631,0.4801l-0.7966 2.2822c-0.6227,-0.1983 -1.2002,-0.2957 -1.7325,-0.2957 -0.4418,0 -0.7619,0.1322 -0.9567,0.3931 -0.1983,0.2609 -0.2957,0.5949 -0.2957,1.0054l0 0.7132 2.6892 0 0 2.3308z"/>
   <path id="_626312528123456" class="fil1" d="M133.453 20.5307c0.4209,0 0.7723,0.0313 1.0506,0.0904l-0.2365 2.9153c-0.2505,-0.0661 -0.5567,-0.1009 -0.915,-0.1009 -0.995,0 -1.7673,0.254 -2.3204,0.7654 -0.5532,0.5079 -0.8315,1.2211 -0.8315,2.1395l0 5.7993 -3.1066 0 0 -11.3933 2.3552 0 0.4557 1.9133 0.1531 0c0.3549,-0.6366 0.8315,-1.1515 1.4333,-1.5411 0.6019,-0.3931 1.2559,-0.5879 1.9621,-0.5879z"/>
   <path id="_6263125281234567" class="fil1" d="M135.357 17.7997c0,-1.0123 0.5636,-1.5202 1.6907,-1.5202 1.1272,0 1.6908,0.5079 1.6908,1.5202 0,0.4836 -0.1392,0.8593 -0.421,1.1272 -0.2818,0.2679 -0.7062,0.4001 -1.2698,0.4001 -1.1271,0 -1.6907,-0.5079 -1.6907,-1.5273zm3.2388 14.34l-3.1066 0 0 -11.3933 3.1066 0 0 11.3933z"/>
   <path id="_62631252812345678" class="fil1" d="M145.492 22.7432c-0.6575,0 -1.1759,0.2088 -1.5481,0.6262 -0.3758,0.4175 -0.588,1.0124 -0.6436,1.7777l4.3625 0c-0.0139,-0.7653 -0.2122,-1.3602 -0.6019,-1.7777 -0.3861,-0.4174 -0.908,-0.6262 -1.5689,-0.6262zm0.4383 9.6018c-1.8334,0 -3.2667,-0.508 -4.2999,-1.5203 -1.0332,-1.0124 -1.5481,-2.4457 -1.5481,-4.2999 0,-1.9099 0.4766,-3.385 1.4298,-4.4286 0.9567,-1.0437 2.2752,-1.5655 3.959,-1.5655 1.6107,0 2.8666,0.4592 3.7607,1.3776 0.8975,0.915 1.3463,2.1847 1.3463,3.7989l0 1.5099 -7.3474 0c0.0348,0.8836 0.2957,1.5724 0.7827,2.0699 0.4906,0.494 1.1759,0.7445 2.0595,0.7445 0.6854,0 1.3359,-0.0731 1.9482,-0.2157 0.6123,-0.1426 1.2489,-0.3688 1.9169,-0.6819l0 2.404c-0.5462,0.2713 -1.1272,0.4731 -1.7429,0.6053 -0.6193,0.1357 -1.3742,0.2018 -2.2648,0.2018z"/>
   <path id="_626312528123456789" class="fil1" d="M158.381 20.5307c0.4209,0 0.7723,0.0313 1.0506,0.0904l-0.2365 2.9153c-0.2505,-0.0661 -0.5567,-0.1009 -0.915,-0.1009 -0.995,0 -1.7673,0.254 -2.3204,0.7654 -0.5532,0.5079 -0.8315,1.2211 -0.8315,2.1395l0 5.7993 -3.1066 0 0 -11.3933 2.3552 0 0.4557 1.9133 0.1531 0c0.3549,-0.6366 0.8315,-1.1515 1.4333,-1.5411 0.6019,-0.3931 1.2559,-0.5879 1.9621,-0.5879z"/>
  </g>
 </g>
</svg>
