<?xml version="1.0" encoding="UTF-8"?>
<!DOCTYPE svg PUBLIC "-//W3C//DTD SVG 1.1//EN" "http://www.w3.org/Graphics/SVG/1.1/DTD/svg11.dtd">
<!-- Creator: CorelDRAW X5 -->
<svg xmlns="http://www.w3.org/2000/svg" xml:space="preserve" width="440mm" height="109.014mm" style="shape-rendering:geometricPrecision; text-rendering:geometricPrecision; image-rendering:optimizeQuality; fill-rule:evenodd; clip-rule:evenodd"
viewBox="0 0 440 109.014"
 xmlns:xlink="http://www.w3.org/1999/xlink">
 <defs>
  <style type="text/css">
   <![CDATA[
    .fil0 {fill:#E64A19;fill-rule:nonzero}
   ]]>
  </style>
 </defs>
 <g id="Layer_x0020_1">
    <g>
     <path id="_693340000" class="fil0" d="M11.1771 87.3616c-4.866,-1.1681 -6.8353,-5.3097 -6.9046,-7.5591 -0.2183,-6.4937 3.7382,-8.6886 8.2256,-10.6034 -2.052,6.2016 1.1497,6.3238 0.5631,12.4872 0.3125,-2.3098 1.0731,-6.1891 4.7613,-7.922 3.9715,-1.8751 8.5382,0.8241 8.5382,0.8241 0,0 -7.8422,4.3228 -4.2631,11.2232 -0.0088,-0.331 -0.006,-0.647 0.0206,-0.9433 0.081,-1.1602 0.3716,-2.1146 0.6694,-2.8303 1.2116,-2.8613 3.8061,-4.6938 6.3181,-5.231 1.2235,-0.2897 2.5532,-0.3222 3.6972,-0.0811 1.1615,0.2433 2.152,0.7069 2.9231,1.2538 1.5727,1.1026 2.2922,2.458 2.6018,3.4169 0.0884,0.2683 0.233,0.8898 0.4127,1.6504 -1.0023,-0.5469 -2.1463,-0.8564 -3.3669,-0.8564 -3.8784,0 -7.0257,3.145 -7.0257,7.0153 0,3.8784 3.1473,7.0249 7.0257,7.0249 1.3945,0 2.6977,-0.4157 3.7944,-1.1239 5.5252,-3.5615 6.7782,-11.0826 12.7484,-14.1833 2.1433,-1.1196 4.617,-1.6857 7.0021,-2.0124 -9.4787,-1.4018 -13.0491,-7.2417 -13.1066,-7.2556 0.025,-0.0368 8.8935,-7.4885 29.7201,-2.2458 -2.5857,-2.1514 -4.8499,-4.6687 -7.1526,-6.806 -3.0455,-2.8496 -8.6383,-13.8193 -10.708,-17.4532 -2.0197,-3.5665 -4.3988,-6.9909 -7.3855,-9.8338 -3.1193,-2.9711 -6.9932,-5.3136 -11.398,-5.5502 -2.3555,-0.1215 -4.8114,-0.2469 -7.1081,0.2351 -2.2807,0.5073 -4.4225,1.4979 -6.2415,2.9026 -3.6471,2.8053 -9.0807,11.6464 -2.117,21.7235 1.7439,2.3845 4.5551,3.9463 7.7348,3.9463 5.2907,0 9.5981,-4.3066 9.5981,-9.5957 0,-4.2028 -2.7182,-7.771 -6.489,-9.069 0.5438,-0.1224 1.2471,-0.2409 1.9871,-0.2565 1.6185,-0.0227 4.0494,0.3649 6.5686,2.1929 1.2383,0.9095 2.4634,2.175 3.4289,3.8194 0.9848,1.6341 1.617,3.6722 1.819,5.6922 0.4747,4.1129 -0.964,9.038 -4.7023,12.3696 -0.9378,0.8337 -2.2497,1.7727 -3.9773,2.4993 -1.7041,0.7298 -3.9447,1.2398 -6.2387,1.228 -4.5579,0.0745 -10.3541,-1.7755 -14.7131,-6.2436 -1.399,-1.4056 -2.6255,-3.0581 -3.6131,-4.8764 0.0678,0.8401 0.1414,1.5286 0.1562,2.0188 0.0885,2.3069 -0.2005,4.4276 -0.4893,6.1573 -0.2861,1.7131 -0.6487,3.3273 -0.6487,3.3273 0,0 -1.3622,-1.0402 -2.5975,-2.5489 -1.2206,-1.5094 -2.568,-3.7817 -3.0691,-6.6165 -0.2565,-1.4168 -0.3686,-4.365 0.2786,-7.8433 0.4202,-2.3526 1.228,-4.9206 2.4131,-7.3572 -0.911,0.7892 -1.9076,1.4304 -2.8126,2.0291 -1.4653,0.9206 -3.0102,1.7999 -3.0102,1.7999 0,0 -0.9065,-1.6326 -1.3414,-3.5926 -0.4393,-1.9437 -0.4718,-4.6185 0.737,-7.1193 0.6162,-1.2477 2.335,-3.5284 5.0682,-5.6298 2.2849,-1.7939 5.2919,-3.3955 8.5116,-4.3309 -0.8256,-0.4687 -5.9644,-2.08 -5.6768,-7.3396 0.4995,-9.2436 10.7683,-6.2526 10.7683,-6.2526 0,0 -6.8841,2.206 0.3068,10.61 1.9163,2.2415 6.747,1.8325 7.3146,1.7771 2.9777,-0.3036 5.8228,-0.0471 8.5705,0.6067 0.0148,0.0058 0.0385,0.0148 0.0473,0.0176 -0.3539,-0.3597 -0.6517,-0.6973 -0.8491,-0.9949 -2.8834,-3.7777 -1.1823,-8.9982 -0.9848,-9.3114 0.3125,0.0383 5.0033,0.9243 7.8231,3.0567 0.1755,0.1517 0.3967,0.372 0.6384,0.6382 -0.4482,-4.5087 1.8205,-8.3296 3.2843,-9.5089 3.5085,-3.3737 7.9693,-3.0419 10.2793,-2.1478 2.4779,0.8697 3.5511,2.2554 3.6367,2.2193 -0.1607,0.006 -10.5681,2.691 -8.382,10.0071 1.5979,5.3917 4.5138,7.8837 5.7004,10.0542 2.5665,4.2389 3.4422,10.0234 2.6285,13.7929 -0.3539,2.1573 -0.8196,3.8917 -1.1675,5.0282 0.246,0.5387 0.5041,1.0916 0.7546,1.6459 0.7017,-7.2175 6.0823,-9.1751 10.8424,-7.6965 0,0 -4.5301,3.9079 1.8234,12.1727 2.73,3.5571 1.4536,8.8918 8.1668,16.7122 0.8712,1.0105 1.9311,1.8442 3.0308,2.6151 3.983,2.7802 8.6,4.9605 13.279,6.1685 5.6754,1.4565 8.6383,1.9208 17.5686,0.9893 -11.5867,-0.1969 -18.406,-1.7559 -28.3151,-7.3761 0.9317,-1.8698 2.1037,-2.3386 4.0568,-2.8029 -6.4244,-0.4371 -10.0595,-1.6429 -12.7189,-7.5653 2.8098,-1.6812 9.0365,3.6722 5.6461,-0.76 -1.7837,-2.3268 -3.4024,-5.1484 -4.4726,-8.0568 -2.9291,-7.9551 -1.9901,-15.2161 -5.0414,-19.7312 -6.669,-9.8796 -12.545,-3.201 -12.545,-3.201 0,0 -1.1998,-9.7293 7.639,-10.4135 4.5343,-0.353 7.8394,4.329 7.8482,6.3412 0.7062,-4.2036 2.2731,-8.2566 4.1895,-11.4055 2.2584,-3.7781 4.8735,-6.3011 6.3683,-7.266 2.9719,-1.9104 6.3566,-2.2555 8.886,-1.9966 2.5443,0.2505 4.7512,1.1425 4.7512,1.1425 0,0 -0.889,2.0917 -1.8265,4.0831 -0.6044,1.2414 -1.2884,2.5888 -2.1403,3.8639 2.8921,-1.862 6.0292,-3.2806 8.9391,-4.1615 4.3014,-1.3504 8.0472,-1.6533 9.8826,-1.5449 3.6587,0.2108 6.7398,1.5715 8.824,2.8885 2.0993,1.3282 3.6219,2.9026 3.6219,2.9026 0,0 -1.9974,0.6988 -4.1099,1.321 -2.1506,0.636 -4.7922,1.3082 -7.717,1.5491 -0.628,0.0591 -1.5094,0.076 -2.5826,0.1047 10.1759,4.0457 14.7679,11.6125 15.7157,21.0934 0.5115,5.1469 -2.3218,20.2044 -18.9456,21.1663 -2.5856,0.146 -6.5378,-0.7725 -8.752,-1.7607 -2.2171,-0.9752 -4.008,-2.3359 -5.3362,-3.7696 -2.6904,-2.8944 -3.5616,-5.9267 -3.7648,-7.9787 -0.1461,-1.4719 0.0323,-2.8384 0.1592,-3.5269 1.6715,4.4195 5.9494,7.5654 10.9437,7.5654 5.9054,0 10.7996,-4.393 11.5867,-10.0891 0.1239,-0.4996 0.1682,-1.0488 0.1239,-1.6709 0,-0.0389 -0.0117,-0.0839 -0.0147,-0.126 -0.0428,-2.565 -0.5041,-5.2325 -1.9429,-7.1428 -2.344,-3.5875 -5.0799,-5.1758 -9.8266,-6.0781 -1.3386,-0.255 -2.7449,-0.0072 -4.1246,0.2035 -5.5192,0.7711 -10.8379,4.1756 -13.8332,9.2076 -1.5036,2.5036 -2.4323,5.3652 -2.7154,8.3273 -0.2683,2.9616 0.0266,6.1148 0.7664,9.0304 1.4728,5.8878 4.8647,11.0495 8.7446,14.6898 3.8742,3.7096 8.2654,5.7462 11.6723,7.1364 1.4268,0.583 2.8598,1.1076 4.2691,1.5676 0.0293,-0.0154 0.0618,-0.0272 0.0943,-0.0293 -2.6623,-1.0777 -4.7733,-2.2379 -5.7049,-2.9476 -3.2727,-2.498 -4.7983,-8.1963 -1.4743,-12.4882 1.8488,5.0157 7.4888,3.2571 10.5196,8.6297 -0.5351,-1.7359 -0.3421,-3.7053 0.4923,-4.7541 2.2922,-2.8613 6.7014,-2.3763 6.7014,-2.3763 0,0 -3.6912,4.3147 5.124,9.3045 2.5062,1.4138 10.6963,-2.7639 14.5026,-12.5336 1.0732,-2.7552 1.9121,-5.5309 2.4884,-8.211 2.6063,-12.0489 -6.1618,-13.4551 -6.1618,-13.4551 4.0921,-3.3853 7.7333,-3.4827 11.1089,0.3692 0.7754,0.8905 1.9193,3.2306 2.0462,6.1272 0.0471,0.8242 0.0118,1.6688 -0.0973,2.5238 2.0046,-3.9397 4.1069,-9.1824 4.045,-13.2192 -0.0295,-4.3495 -3.995,-1.1758 -7.7097,-3.0671 -3.7148,-1.8949 -4.2749,-4.8386 -6.8607,-4.7038 -2.5855,-0.0141 -4.3544,4.6546 -4.4342,4.7327 0,0 -2.1714,-4.2492 -1.9281,-9.4706 0.3892,-3.9558 3.5763,-9.214 9.4594,-11.0015 1.4639,-0.4429 3.8579,-0.7974 6.9034,-0.3434 2.1611,0.3066 4.6701,1.16 6.9875,2.5952 -0.0768,-0.1083 3.1429,1.9892 6.3121,6.4214 1.1735,1.9663 1.8014,3.6336 2.3175,5.7209 1.0023,4.0761 0.3626,8.3805 -1.0261,11.6355 -2.3423,5.385 -6.0971,9.138 -9.4374,11.944 2.8185,-1.331 6.0085,-2.484 9.6113,-3.411 0.0178,-0.0045 18.2366,-5.1803 18.8247,-12.6245 0.5691,-7.129 -9.1145,-2.1059 -9.1145,-2.1059 0,0 -1.5404,-7.6013 4.5226,-11.4584 1.7204,-1.0975 5.0429,-0.8925 6.7883,0.0775 -6.1646,-4.3709 -2.3202,-11.247 -11.0854,-10.4708 5.3512,-2.6159 10.5313,-4.5264 16.3571,0.8558 2.0149,1.8618 4.269,6.9777 1.477,12.4061 4.7274,-1.3177 2.2597,-10.4825 2.2878,-10.5216 0.0207,0.0391 5.6931,4.5264 6.3195,12.9497 0.6237,8.4216 -5.149,14.2724 -11.1502,17.3962 5.8212,-0.9465 11.4127,-0.4232 17.1074,0.9617 1.4976,0.3663 2.9304,0.757 4.4605,0.9619 4.9621,0.6671 9.6704,-0.5203 13.7478,-3.3831 1.9341,-1.463 3.4745,-3.3772 4.3296,-5.6598 1.2839,-3.3855 0.8742,-7.2527 -0.8771,-10.2144 -0.4245,-0.7525 -0.9288,-1.4446 -1.4829,-2.0734 -0.5513,-0.6279 -1.1292,-1.1424 -1.7646,-1.5765 -1.2486,-0.8896 -2.6682,-1.4262 -4.0376,-1.6511 -2.7863,-0.4709 -5.2392,0.3361 -6.8284,1.4521 -1.5727,1.0614 -2.1315,2.2762 -2.4691,3.1407 -0.6367,1.659 -0.6029,3.4854 0.0162,5.099 0.3214,0.8335 0.6958,1.513 1.2059,2.1087 0.5102,0.5911 1.1439,1.09 1.8146,1.4644 1.3607,0.763 2.8526,0.9848 3.9906,0.942 1.135,-0.0449 2.3115,-0.4368 2.3115,-0.4368 0,0 -0.7343,0.9484 -1.828,1.6598 -1.0702,0.6884 -2.8628,1.4334 -5.301,1.2486 -1.2,-0.0886 -2.5384,-0.4305 -3.8651,-1.1235 -1.3297,-0.6876 -2.5945,-1.7894 -3.5661,-3.0603 -2.0149,-2.5509 -3.0881,-6.4368 -1.9679,-10.2148 0.2771,-0.9421 0.7636,-2.1051 1.6186,-3.3139 0.8343,-1.1889 2.1287,-2.4507 3.6649,-3.3964 3.0115,-1.9268 7.6507,-3.0943 12.4121,-1.9141 1.5096,0.3654 3.022,0.9589 4.4327,1.7725 -0.4024,-0.5372 -0.7298,-0.9655 -0.942,-1.289 -1.0083,-1.5066 -1.7026,-3.0331 -2.2201,-4.3179 -0.5101,-1.261 -0.9433,-2.4905 -0.9433,-2.4905 0,0 1.3414,0.1283 2.7948,0.6281 1.4328,0.5019 3.2785,1.4675 4.7851,3.1508 0.7546,0.8425 2.0462,2.767 3.0543,5.3593 0.69,1.7461 1.2118,3.8017 1.427,5.9157 0.2861,-0.8977 0.6782,-1.752 1.0467,-2.5216 0.5999,-1.2191 1.2706,-2.4493 1.2706,-2.4493 0,0 1.2708,0.718 2.3735,1.8515 1.0937,1.1198 2.2332,2.8924 2.4499,5.0601 0.1149,1.09 0.0133,3.3699 -1.0584,5.8649 -3.4597,8.0731 -8.7799,12.7585 -17.8694,15.602 -2.8126,0.8809 -5.6489,1.1772 -8.2699,0.9863 0.6131,0.1143 1.1645,0.2765 1.2796,0.3295 2.3055,0.8932 3.0838,3.863 2.9747,3.863 -0.1857,-0.0509 -2.4809,0.9493 -4.3119,0.7724 -0.1194,-0.0199 -0.2725,-0.0567 -0.4585,-0.1143 1.4271,1.8898 1.4566,4.194 1.1352,5.1189 -0.6427,2.4538 -2.7241,3.4687 -3.986,3.7466 -0.8669,0.199 -2.4766,0.199 -2.4766,0.199 1.713,-0.8763 3.6619,-4.7607 1.2648,-6.9182 -2.1788,-1.9494 -4.1512,-2.2656 -5.2656,-2.9128 -2.2938,-1.18 -4.2544,-3.5085 -4.9148,-5.402 -0.2005,-0.4747 -0.3522,-0.9022 -0.4835,-1.3008 -9.6527,-0.3819 -20.85,1.466 -29.1376,3.2171 6.4669,0.6273 11.221,3.4459 12.791,4.6547 0.4142,0.3177 3.9565,2.8465 6.6173,2.1743 6.6427,-1.6812 6.6632,-7.4952 6.6632,-7.4952 0,0 5.5943,4.3532 2.8273,10.6815 -0.5926,1.3667 -3.2578,3.4157 -6.6807,1.7852 2.0637,2.3018 3.6559,5.026 4.5844,7.5482 1.1293,2.997 1.38,5.6262 1.2444,6.9146 -0.2596,2.5517 -1.595,4.6405 -2.8894,5.965 -1.2944,1.3275 -2.8008,2.1773 -2.8008,2.1773 0,0 -0.7873,-1.4505 -1.4918,-2.8842 -0.4305,-0.9065 -0.8962,-1.9154 -1.2296,-2.9725 -0.2535,2.4905 -0.8727,4.9147 -1.6863,6.9652 -1.1853,3.0611 -2.6976,5.3305 -3.5999,6.324 -12.5447,13.7942 -26.1155,3.1836 -26.1155,3.1836 0,0 20.5876,2.1891 22.0189,-8.2781 -1.6613,0.962 -3.439,1.6577 -5.2199,2.0909 -5.6075,1.3851 -11.0796,0.0172 -14.638,-2.2545 -1.8044,-1.1175 -3.3288,-2.5967 -4.3076,-4.0075 -1.0126,-1.4173 -1.5832,-2.7956 -1.9103,-3.9058 -1.3239,-4.4503 -0.062,-9.0296 2.3232,-12.0368 1.141,-1.4919 2.6356,-2.7899 4.2013,-3.6022 1.5567,-0.8182 3.1457,-1.2242 4.5549,-1.3267 2.8658,-0.2195 4.9856,0.6568 6.2475,1.4734 1.2884,0.8338 2.1523,1.9562 2.1523,1.9562 0,0 -1.383,-0.4615 -2.7242,-0.5152 -1.3444,-0.0516 -3.0958,0.2107 -4.6998,1.1086 -0.7928,0.4384 -1.5359,1.0289 -2.1343,1.7298 -0.6059,0.7009 -1.0466,1.4991 -1.427,2.4809 -0.7223,1.8994 -0.7666,4.0481 -0.0208,6.0094 0.4012,1.0158 1.0556,2.4462 2.9101,3.7014 1.8751,1.3173 4.7674,2.2689 8.0457,1.7131 1.6157,-0.2706 3.2873,-0.9031 4.7616,-1.9437 0.7518,-0.5212 1.4298,-1.1196 2.071,-1.8611 0.6635,-0.7437 1.2576,-1.5618 1.7529,-2.4418 2.0667,-3.4916 2.5442,-8.0546 1.0348,-12.0385 -0.74,-1.9865 -1.9458,-3.8151 -3.5025,-5.3128 -1.5642,-1.5044 -3.485,-2.7654 -5.4779,-3.6565 -4.0185,-1.8355 -8.4881,-2.246 -12.3209,-1.6923 -3.8665,0.5269 -7.0757,1.9899 -9.3431,3.4081 -0.4893,0.3051 -0.955,0.6485 -1.4268,0.9692 -12.5818,8.4387 -11.8815,25.3933 -7.4002,27.5405 3.8416,1.8442 6.778,1.5449 9.0129,-1.4747 0,0 -0.7578,8.7878 -6.4434,9.0488 -3.4657,0.1541 -5.2524,-1.1771 -7.7791,-3.078 1.4801,4.2094 4.5639,3.5143 7.8364,5.6231 3.2698,2.1147 2.1966,2.8952 3.9685,3.3853 1.7262,0.5278 3.9743,-0.6463 3.9743,-0.6463 0,0 -0.2655,1.5898 -1.7601,3.3286 -1.3813,1.7239 -4.6583,3.6212 -8.2847,2.9924 -1.7954,-0.2366 -13.9024,-2.8324 -11.7959,-17.8326 0.0913,-0.6213 0.5896,-3.252 2.3468,-6.4094 -0.4658,0.8335 -1.6688,1.6046 -2.4294,2.1574 -0.917,0.6699 -1.887,1.2514 -2.8864,1.7828 -2.0402,1.0813 -4.1895,1.9069 -6.299,2.8312 -3.4832,1.5337 -6.4404,3.879 -9.4123,6.2185 -2.4767,1.9555 -2.6446,3.1384 -1.8235,3.9942 1.4373,1.4925 1.2251,6.2659 6.5525,3.8151 -3.1664,7.4871 -12.3002,7.4075 -15.5462,2.8812 -1.0969,-1.5346 -3.529,-10.0086 6.1854,-14.2726 -8.3612,1.1881 -9.113,8.0215 -15.1157,13.7668 -8.4911,8.1351 -26.6316,1.3667 -26.0568,-4.9714 7.4858,2.596 9.5112,2.5406 17.0588,-6.3328 4.5344,-5.3254 10.7286,-4.7482 16.7903,-4.037 -3.2962,-0.7982 -6.7928,-1.9966 -10.4797,-3.6608 -19.0237,-7.9193 -14.843,3.1559 -29.3175,9.7512 -8.1122,3.6891 -4.4768,13.1736 -4.4768,13.1736 0,0 -5.2892,0.0832 -7.6951,-3.5762 -0.6559,-1.0149 -1.7808,-3.2233 -1.6983,-6.0014 -1.7541,4.5479 -6.1941,9.0446 -16.2389,9.6366 -1.7779,0.1055 -3.3669,-0.0612 -4.4903,-0.4777 -1.132,-0.4245 -2.0165,-1.0148 -2.0165,-1.0148 0,0 0.8815,-0.5368 1.822,-1.0511 0.9582,-0.513 2.1463,-1.1033 3.5173,-1.5162 0.003,0 0.0117,-0.0088 0.0192,-0.0088 -6.3786,0.8277 -13.3719,0.3936 -19.2036,-2.0064 -0.9583,-0.322 -1.884,-0.7636 -2.7595,-1.334 -6.4862,-4.3022 -6.4804,-12.3149 -6.4892,-12.3487 0.0428,0 4.4077,6.4395 7.7538,4.2091z"/>
    </g>
    <g>
     <path id="_693344896" class="fil0" d="M428.823 21.6471c4.8617,1.1793 6.8326,5.3106 6.9047,7.5639 0.2152,6.489 -3.7413,8.6832 -8.2314,10.604 2.0519,-6.2038 -1.144,-6.3225 -0.5574,-12.491 -0.311,2.3085 -1.0731,6.1929 -4.7585,7.9243 -3.9801,1.8778 -8.544,-0.8211 -8.544,-0.8211 0,0 7.8452,-4.3303 4.2633,-11.2226 0.0146,0.3272 0.0118,0.6397 -0.015,0.9391 -0.0823,1.1623 -0.3714,2.1182 -0.672,2.8339 -1.2088,2.8598 -3.8063,4.6869 -6.3123,5.2265 -1.2295,0.2897 -2.5532,0.3267 -3.7089,0.0789 -1.1528,-0.2396 -2.1448,-0.7011 -2.9159,-1.2515 -1.5744,-1.0997 -2.2967,-2.4611 -2.6063,-3.4155 -0.0854,-0.2661 -0.2328,-0.8904 -0.4082,-1.6534 1.0008,0.5492 2.1448,0.8624 3.3684,0.8624 3.8739,0 7.0138,-3.1465 7.0138,-7.0227 0,-3.8748 -3.1399,-7.0198 -7.0138,-7.0198 -1.3975,0 -2.7007,0.4193 -3.7959,1.1225 -5.5266,3.5616 -6.7825,11.0848 -12.7499,14.1813 -2.1463,1.1217 -4.617,1.6827 -7.002,2.0106 9.4786,1.4048 13.0578,7.2432 13.108,7.2592 -0.0267,0.0311 -8.895,7.4813 -29.7201,2.2497 2.5784,2.1478 4.8484,4.67 7.1481,6.8046 3.0486,2.8472 8.6443,13.817 10.711,17.4516 2.0197,3.5643 4.399,6.9924 7.3825,9.8317 3.1251,2.9717 6.9963,5.3148 11.404,5.5515 2.3527,0.1253 4.8086,0.2432 7.1051,-0.2307 2.2822,-0.5079 4.4165,-1.4993 6.2387,-2.902 3.647,-2.8065 9.0835,-11.6476 2.1198,-21.7249 -1.7424,-2.386 -4.5609,-3.9499 -7.7378,-3.9499 -5.2937,0 -9.5966,4.3089 -9.5966,9.5981 0,4.2012 2.7227,7.7724 6.4877,9.0689 -0.541,0.1201 -1.2413,0.2367 -1.9841,0.2578 -1.6172,0.0244 -4.0554,-0.3714 -6.56,-2.1985 -1.2441,-0.9067 -2.4765,-2.1715 -3.4405,-3.8159 -0.9818,-1.6333 -1.6202,-3.6765 -1.8192,-5.6901 -0.4747,-4.1217 0.9685,-9.0416 4.7056,-12.3724 0.9447,-0.8329 2.2479,-1.7712 3.983,-2.5031 1.6953,-0.7238 3.939,-1.2317 6.2325,-1.2197 4.5551,-0.0775 10.3543,1.7725 14.7148,6.2399 1.3975,1.4063 2.624,3.0537 3.6131,4.875 -0.0663,-0.8352 -0.1399,-1.525 -0.1547,-2.0152 -0.0883,-2.3114 0.1975,-4.4291 0.4893,-6.1618 0.2831,-1.7101 0.6457,-3.3228 0.6457,-3.3228 0,0 1.3682,1.0385 2.5975,2.5489 1.2236,1.5034 2.5678,3.7796 3.0691,6.612 0.2595,1.4153 0.3686,4.368 -0.2756,7.8476 -0.4231,2.3513 -1.228,4.9163 -2.4161,7.3589 0.905,-0.7937 1.9076,-1.4409 2.8156,-2.0321 1.4681,-0.9236 3.0102,-1.8042 3.0102,-1.8042 0,0 0.905,1.6391 1.3415,3.5969 0.4362,1.9407 0.4717,4.6197 -0.7431,7.1206 -0.6102,1.2443 -2.332,3.5241 -5.0622,5.6246 -2.2907,1.7993 -5.2979,3.4009 -8.5116,4.3348 0.8256,0.4702 5.9584,2.0776 5.6726,7.339 -0.4983,9.2391 -10.7671,6.2509 -10.7671,6.2509 0,0 6.8841,-2.203 -0.3066,-10.6064 -1.9165,-2.2428 -6.7457,-1.8383 -7.3133,-1.7756 -2.9733,0.2993 -5.8243,0.0428 -8.575,-0.6168 -0.0118,0 -0.0353,-0.0066 -0.0501,-0.0081 0.3654,0.3605 0.6575,0.6964 0.852,0.9927 2.8835,3.7789 1.1822,8.9975 0.9878,9.312 -0.3184,-0.0381 -5.0107,-0.9315 -7.8277,-3.0588 -0.1682,-0.154 -0.3922,-0.369 -0.6382,-0.639 0.4495,4.5117 -1.8207,8.3283 -3.277,9.5067 -3.5115,3.3788 -7.9723,3.0406 -10.2866,2.1531 -2.4679,-0.872 -3.5528,-2.2599 -3.6324,-2.2231 0.1622,-0.0028 10.5681,-2.6874 8.385,-10.0077 -1.5979,-5.3881 -4.5138,-7.8816 -5.7079,-10.053 -2.562,-4.2353 -3.4406,-10.0212 -2.624,-13.7882 0.3569,-2.1553 0.8168,-3.8904 1.1705,-5.0305 -0.2505,-0.5417 -0.5071,-1.0916 -0.7546,-1.6444 -0.7077,7.213 -6.0883,9.1742 -10.8439,7.692 0,0 4.5199,-3.9043 -1.8249,-12.1697 -2.7272,-3.5594 -1.4536,-8.8972 -8.1696,-16.7122 -0.8742,-1.0143 -1.9311,-1.8494 -3.025,-2.6136 -3.986,-2.7841 -8.6002,-4.9642 -13.2848,-6.17 -5.6725,-1.4565 -8.634,-1.9268 -17.5658,-0.9893 11.5867,0.1999 18.412,1.7529 28.3151,7.3707 -0.9317,1.878 -2.1065,2.3425 -4.0568,2.8068 6.4184,0.4407 10.0683,1.6414 12.7129,7.5651 -2.8038,1.6806 -9.0335,-3.6689 -5.64,0.7587 1.7808,2.3239 3.4023,5.1512 4.4755,8.0613 2.9189,7.9549 1.9841,15.2086 5.0357,19.7246 6.6747,9.8862 12.5417,3.2077 12.5417,3.2077 0,0 1.2075,9.7285 -7.633,10.411 -4.5343,0.3515 -7.8424,-4.3266 -7.8482,-6.3424 -0.7077,4.2034 -2.2761,8.253 -4.1865,11.4082 -2.2584,3.779 -4.8707,6.3012 -6.3683,7.2616 -2.9719,1.9127 -6.3653,2.2599 -8.889,1.9983 -2.5503,-0.2484 -4.7526,-1.1389 -4.7526,-1.1389 0,0 0.8874,-2.0917 1.8294,-4.0825 0.6029,-1.2428 1.2899,-2.5924 2.1448,-3.8703 -2.9041,1.8675 -6.035,3.2828 -8.9451,4.1636 -4.3014,1.3511 -8.0457,1.6547 -9.8839,1.5479 -3.6544,-0.2109 -6.7354,-1.5738 -8.8227,-2.8887 -2.0993,-1.3312 -3.6204,-2.9026 -3.6204,-2.9026 0,0 1.9929,-0.7039 4.1069,-1.3252 2.1536,-0.6301 4.7967,-1.3023 7.7156,-1.5449 0.6339,-0.0567 1.5094,-0.0744 2.5855,-0.1082 -10.1774,-4.0473 -14.7707,-11.6141 -15.7142,-21.0883 -0.5145,-5.1514 2.3203,-20.2051 18.9397,-21.1715 2.5855,-0.1453 6.545,0.7783 8.7564,1.7697 2.2171,0.9722 4.0095,2.3314 5.3362,3.7606 2.6889,2.8972 3.5616,5.9267 3.7621,7.9787 0.1474,1.4704 -0.0353,2.8444 -0.1549,3.5312 -1.6789,-4.4202 -5.9495,-7.5697 -10.9453,-7.5697 -5.9054,0 -10.7996,4.3975 -11.5867,10.0906 -0.1209,0.5026 -0.1682,1.0473 -0.1209,1.6701 0,0.0398 0.006,0.084 0.0118,0.1298 0.0412,2.5605 0.507,5.2323 1.9458,7.1407 2.341,3.5866 5.0739,5.1779 9.8236,6.0772 1.3386,0.2563 2.7449,0.0057 4.1216,-0.2037 5.5222,-0.7709 10.8379,-4.1679 13.8334,-9.2081 1.5096,-2.5038 2.4324,-5.3666 2.7182,-8.3238 0.2683,-2.965 -0.0235,-6.1146 -0.7694,-9.0326 -1.4683,-5.8899 -4.8617,-11.0456 -8.7416,-14.6934 -3.8739,-3.7105 -8.2611,-5.744 -11.6693,-7.1334 -1.427,-0.5873 -2.8656,-1.1048 -4.2691,-1.5648 -0.0325,0.0096 -0.0648,0.0259 -0.0943,0.0259 2.6623,1.0813 4.7688,2.237 5.7019,2.9467 3.2785,2.4995 4.7969,8.2008 1.4713,12.4925 -1.8457,-5.0157 -7.4901,-3.2614 -10.5166,-8.628 0.5396,1.7327 0.3421,3.7023 -0.498,4.7511 -2.2895,2.8628 -6.6867,2.3784 -6.6867,2.3784 0,0 3.6822,-4.3191 -5.133,-9.3068 -2.5032,-1.4151 -10.6993,2.7588 -14.5086,12.5368 -1.0642,2.7492 -1.9016,5.5264 -2.4882,8.2108 -2.6033,12.0474 6.1589,13.4523 6.1589,13.4523 -4.0834,3.3847 -7.7246,3.4827 -11.1032,-0.3677 -0.7723,-0.889 -1.9163,-3.2345 -2.0462,-6.1332 -0.05,-0.8203 -0.0088,-1.6643 0.1004,-2.5222 -2.0049,3.9417 -4.107,9.1851 -4.0466,13.2214 0.028,4.3442 3.9995,1.1757 7.7112,3.0663 3.709,1.8949 4.2751,4.8425 6.8607,4.7083 2.5842,0.0058 4.3574,-4.6597 4.4342,-4.7342 0,0 2.1684,4.2471 1.9311,9.4661 -0.3952,3.9603 -3.5763,9.2104 -9.4581,11.003 -1.4681,0.4414 -3.868,0.8004 -6.9107,0.3471 -2.1581,-0.3073 -4.6641,-1.1564 -6.9858,-2.6004 0.0796,0.1128 -3.1429,-1.9849 -6.3093,-6.4198 -1.178,-1.9636 -1.8059,-3.6307 -2.3247,-5.7225 -0.9966,-4.0709 -0.3569,-8.3762 1.0318,-11.631 2.338,-5.3916 6.0941,-9.138 9.4359,-11.9484 -2.8155,1.3309 -6.0159,2.4837 -9.6098,3.4133 -0.0178,0.0066 -18.2351,5.1807 -18.8247,12.6222 -0.5704,7.1331 9.116,2.1035 9.116,2.1035 0,0 1.5376,7.6036 -4.5256,11.4652 -1.7188,1.0945 -5.0414,0.8925 -6.7928,-0.0753 6.1649,4.3685 2.332,11.2388 11.0914,10.4619 -5.351,2.6226 -10.5253,4.5329 -16.3613,-0.8564 -2.0107,-1.8553 -4.2618,-6.9704 -1.4728,-12.3997 -4.7289,1.3194 -2.2582,10.4789 -2.2878,10.5187 -0.0235,-0.0353 -5.6931,-4.5286 -6.318,-12.9444 -0.6252,-8.4276 5.1445,-14.2756 11.1502,-17.3977 -5.8212,0.9465 -11.4185,0.4247 -17.1059,-0.9647 -1.5006,-0.362 -2.9334,-0.7542 -4.468,-0.9634 -4.9576,-0.6641 -9.6629,0.5248 -13.7448,3.3874 -1.9326,1.4587 -3.4775,3.3774 -4.3296,5.6587 -1.2824,3.3859 -0.8727,7.2519 0.8787,10.2155 0.4244,0.7482 0.9287,1.4367 1.4858,2.0736 0.5484,0.627 1.1232,1.1386 1.7557,1.5757 1.2545,0.8838 2.6756,1.424 4.0465,1.6519 2.7833,0.4702 5.2347,-0.3391 6.8281,-1.4596 1.5715,-1.0614 2.1243,-2.2723 2.4604,-3.1332 0.6427,-1.6583 0.6059,-3.4886 -0.0072,-5.099 -0.3289,-0.8372 -0.7018,-1.5148 -1.2148,-2.1087 -0.5101,-0.5956 -1.141,-1.0945 -1.8132,-1.4706 -1.3592,-0.7553 -2.8509,-0.9786 -3.9889,-0.9373 -1.1352,0.047 -2.3144,0.4353 -2.3144,0.4353 0,0 0.734,-0.9529 1.8307,-1.6553 1.0704,-0.6899 2.8658,-1.4336 5.3012,-1.2537 1.1998,0.092 2.5442,0.4281 3.8679,1.1299 1.3269,0.6855 2.6005,1.7851 3.5631,3.0536 2.0209,2.5533 3.0943,6.4383 1.9709,10.2173 -0.2801,0.9435 -0.7636,2.1058 -1.6215,3.3086 -0.8284,1.1956 -2.1243,2.4508 -3.659,3.4031 -3.01,1.9266 -7.6507,3.0889 -12.4178,1.9067 -1.5081,-0.3618 -3.0192,-0.9523 -4.4285,-1.7675 0.4024,0.533 0.7253,0.9605 0.9377,1.2914 1.0111,1.5043 1.7041,3.0323 2.2214,4.3134 0.5146,1.261 0.942,2.4948 0.942,2.4948 0,0 -1.3414,-0.1281 -2.789,-0.6382 -1.436,-0.4916 -3.2785,-1.4565 -4.7911,-3.1437 -0.7518,-0.8432 -2.046,-2.764 -3.0513,-5.3634 -0.6958,-1.7381 -1.2176,-3.7961 -1.4285,-5.9137 -0.2816,0.9037 -0.6765,1.7528 -1.0407,2.5194 -0.6001,1.2197 -1.2693,2.4566 -1.2693,2.4566 0,0 -1.2766,-0.7178 -2.3763,-1.8597 -1.1025,-1.1129 -2.2347,-2.8885 -2.4529,-5.0517 -0.1151,-1.0939 -0.0163,-3.3713 1.0554,-5.8649 3.4569,-8.0767 8.7814,-12.7542 17.8724,-15.6038 2.8141,-0.8821 5.6461,-1.1784 8.2639,-0.989 -0.6071,-0.1113 -1.1555,-0.2749 -1.2736,-0.328 -2.3055,-0.889 -3.0896,-3.8615 -2.9717,-3.8615 0.1784,0.05 2.4764,-0.9514 4.3059,-0.7739 0.1194,0.0229 0.2756,0.0591 0.4613,0.1098 -1.4298,-1.881 -1.4564,-4.1925 -1.132,-5.1101 0.6354,-2.4611 2.7226,-3.4752 3.9802,-3.7546 0.8637,-0.1953 2.4852,-0.1953 2.4852,-0.1953 -1.7128,0.8808 -3.6647,4.7607 -1.2706,6.9182 2.1758,1.9567 4.1512,2.2657 5.2657,2.9113 2.2937,1.183 4.2571,3.5083 4.9162,5.4065 0.193,0.4672 0.3522,0.9022 0.4821,1.2941 9.6526,0.3849 20.8501,-1.4593 29.1345,-3.2122 -6.4624,-0.63 -11.215,-3.4531 -12.7895,-4.658 -0.4127,-0.3192 -3.9565,-2.8429 -6.6188,-2.1707 -6.6394,1.6803 -6.6572,7.4958 -6.6572,7.4958 0,0 -5.6032,-4.3574 -2.8303,-10.6845 0.5897,-1.3628 3.2578,-3.4118 6.6837,-1.7888 -2.0757,-2.2952 -3.6587,-5.023 -4.5934,-7.5424 -1.1217,-2.9955 -1.3738,-5.6245 -1.2383,-6.9152 0.2595,-2.5539 1.5951,-4.6384 2.8893,-5.9584 1.2944,-1.3333 2.798,-2.1825 2.798,-2.1825 0,0 0.7871,1.4506 1.4946,2.8864 0.4277,0.9067 0.8905,1.9069 1.2266,2.974 0.2565,-2.495 0.8727,-4.9229 1.6865,-6.9733 1.1821,-3.0567 2.7004,-5.3297 3.5997,-6.3217 12.5507,-13.7915 26.1218,-3.1881 26.1218,-3.1881 0,0 -20.5909,-2.1764 -22.0222,8.2885 1.6583,-0.9693 3.4422,-1.6606 5.2199,-2.0947 5.6135,-1.3851 11.0766,-0.0171 14.6322,2.2488 1.8072,1.1196 3.3346,2.6033 4.3162,4.0126 1.007,1.4189 1.5804,2.7898 1.9077,3.8998 1.3207,4.4503 0.0619,9.0334 -2.3234,12.0398 -1.1395,1.4964 -2.6386,2.7929 -4.2041,3.605 -1.5539,0.8154 -3.1429,1.2169 -4.5551,1.3231 -2.8686,0.2175 -4.9841,-0.6545 -6.2445,-1.4681 -1.2914,-0.8381 -2.1551,-1.9577 -2.1551,-1.9577 0,0 1.3856,0.4613 2.7272,0.5174 1.3415,0.0464 3.0986,-0.2123 4.6966,-1.116 0.7959,-0.4349 1.5404,-1.0244 2.1388,-1.7297 0.6059,-0.699 1.0453,-1.4927 1.4255,-2.4767 0.7223,-1.9039 0.7696,-4.0472 0.0208,-6.0136 -0.401,-1.0149 -1.0584,-2.4458 -2.9071,-3.6978 -1.8781,-1.3143 -4.7674,-2.2702 -8.0487,-1.7086 -1.6127,0.2623 -3.2933,0.9007 -4.7674,1.9407 -0.7445,0.5188 -1.424,1.1217 -2.0667,1.8639 -0.6634,0.7409 -1.2531,1.5545 -1.7541,2.4339 -2.067,3.498 -2.5475,8.0612 -1.0349,12.0428 0.7428,1.9886 1.9473,3.8144 3.5053,5.3166 1.5612,1.4991 3.485,2.7588 5.4824,3.6535 4.011,1.8383 8.4851,2.243 12.3162,1.6872 3.8654,-0.5269 7.0759,-1.9835 9.3463,-3.4 0.4833,-0.3133 0.9478,-0.6502 1.4268,-0.9716 12.5803,-8.4378 11.88,-25.3926 7.3972,-27.5426 -3.8416,-1.8412 -6.781,-1.5449 -9.0127,1.4762 0,0 0.7576,-8.7863 6.4389,-9.0467 3.4672,-0.1577 5.2597,1.1765 7.7776,3.0729 -1.4786,-4.2057 -4.5641,-3.5136 -7.8276,-5.6223 -3.2728,-2.1146 -2.1996,-2.8887 -3.9715,-3.3861 -1.7247,-0.5242 -3.9771,0.6517 -3.9771,0.6517 0,0 0.2683,-1.5937 1.7629,-3.3339 1.3815,-1.7219 4.6555,-3.616 8.2877,-2.9829 1.7926,0.2366 13.8937,2.8222 11.7901,17.8273 -0.081,0.62 -0.5838,3.2447 -2.341,6.4081 0.463,-0.838 1.6658,-1.6061 2.4234,-2.1602 0.9142,-0.6671 1.8928,-1.2479 2.8909,-1.7809 2.0372,-1.0774 4.1822,-1.9039 6.299,-2.8303 3.4847,-1.5389 6.4391,-3.8805 9.4108,-6.2215 2.4737,-1.9519 2.6476,-3.1363 1.828,-3.9936 -1.4418,-1.4888 -1.2295,-6.262 -6.557,-3.8112 3.1664,-7.4879 12.2972,-7.4075 15.5462,-2.8821 1.0967,1.528 3.532,10.008 -6.1854,14.272 8.3612,-1.1883 9.1145,-8.02 15.1127,-13.7692 8.4911,-8.1285 26.6347,-1.3628 26.0598,4.9687 -7.4856,-2.5894 -9.511,-2.54 -17.0586,6.3341 -4.5374,5.3277 -10.7288,4.749 -16.792,4.04 3.2932,0.8003 6.7855,2.0004 10.4782,3.6619 19.0267,7.9175 14.846,-3.1592 29.322,-9.75 8.1137,-3.6942 4.4726,-13.1729 4.4726,-13.1729 0,0 5.2934,-0.0862 7.695,3.5755 0.6602,1.0149 1.7834,3.2254 1.7011,6.0005 1.7556,-4.547 6.1942,-9.0461 16.2359,-9.6402 1.7822,-0.0988 3.3699,0.0642 4.4934,0.482 1.1349,0.4247 2.0149,1.015 2.0149,1.015 0,0 -0.877,0.5308 -1.8235,1.0466 -0.961,0.5152 -2.1403,1.1072 -3.5083,1.5148 -0.0117,0.0072 -0.0147,0.0147 -0.0237,0.0147 6.3741,-0.8299 13.3719,-0.3958 19.1991,2.0026 0.9553,0.3252 1.887,0.7672 2.7567,1.3371 6.492,4.3029 6.4802,12.3141 6.492,12.3464 -0.0383,0 -4.3987,-6.4374 -7.7508,-4.213z"/>
    </g>


 </g>
</svg>
