<?xml version="1.0" encoding="UTF-8"?>
<!DOCTYPE svg PUBLIC "-//W3C//DTD SVG 1.1//EN" "http://www.w3.org/Graphics/SVG/1.1/DTD/svg11.dtd">
<!-- Creator: CorelDRAW X5 -->
<svg xmlns="http://www.w3.org/2000/svg" xml:space="preserve" width="90mm" height="23.018mm" style="shape-rendering:geometricPrecision; text-rendering:geometricPrecision; image-rendering:optimizeQuality; fill-rule:evenodd; clip-rule:evenodd"
viewBox="0 0 90 23.018"
 xmlns:xlink="http://www.w3.org/1999/xlink">
 <defs>
  <style type="text/css">
   <![CDATA[
    .fil2 {fill:#333333;fill-rule:nonzero}
    .fil0 {fill:#4D4D4D;fill-rule:nonzero}
    .fil1 {fill:white;fill-rule:nonzero}
	.rus_hefrier_logo .fil1{
		transition: all .3s;
	}
	.rus_hefrier_logo:hover .fil1{
		fill: #FF5722;
		transition: all .3s;
	}
   ]]>
  </style>
 </defs>
  <g class="rus_hefrier_logo">
   <path id="_698826432" class="fil0" d="M38.6725 2.9578c0,1.2902 -0.6608,2.3863 -1.9824,3.2884 -1.1853,0.7972 -2.4597,1.1958 -3.8233,1.1958 -0.084,0 -0.2046,-0.0158 -0.3619,-0.0472 -0.2098,-0.042 -0.3147,-0.0892 -0.3147,-0.1417 0,-0.0209 0.0053,-0.0367 0.0157,-0.0472l0.0315 0c0.1259,0.0735 0.3357,0.1102 0.6294,0.1102 1.2587,0 2.4492,-0.4143 3.5715,-1.243 1.2272,-0.902 1.8409,-1.9614 1.8409,-3.1782 0,-0.923 -0.4458,-1.631 -1.3374,-2.124 -0.7238,-0.3986 -1.5839,-0.5979 -2.5803,-0.5979 -2.1713,0 -4.2744,0.7709 -6.3092,2.3128 0.7342,0.7028 1.1013,1.5157 1.1013,2.4388 0,0.5978 -0.1836,1.2062 -0.5507,1.8251 -0.5034,0.8496 -1.2954,1.5209 -2.3758,2.0139 -0.9335,0.4405 -1.9562,0.7028 -3.068,0.7867l0 0.0157c0.8811,0.2203 1.3216,0.687 1.3216,1.4003 0,0.4615 -0.194,0.9912 -0.5821,1.5891 -0.3672,0.514 -0.7343,1.0332 -1.1014,1.5576 -0.3986,0.6294 -0.5979,1.2168 -0.5979,1.7622 0,0.7657 0.514,1.1486 1.5419,1.1486 0.9335,0 1.8776,-0.3986 2.8321,-1.1958 0.9545,-0.7972 1.5366,-1.6573 1.7464,-2.5803 0.021,-0.1049 0.0315,-0.2046 0.0315,-0.299 0,-0.5873 -0.2989,-0.881 -0.8968,-0.881 -0.8182,0 -1.5891,0.3723 -2.3129,1.1171 -0.6713,0.6922 -1.0804,1.4579 -1.2272,2.2971 -0.0315,-0.0105 -0.0472,-0.0735 -0.0472,-0.1888 0,-0.7552 0.4091,-1.521 1.2272,-2.2972 0.8182,-0.7761 1.6101,-1.1642 2.3758,-1.1642 0.8496,0 1.2744,0.3881 1.2744,1.1642 0,0.9546 -0.6188,1.9038 -1.8565,2.8478 -1.1643,0.8916 -2.2395,1.3374 -3.2255,1.3374 -0.6293,0 -1.138,-0.1259 -1.5261,-0.3776 -0.4511,-0.2937 -0.6766,-0.7395 -0.6766,-1.3374 0,-0.5454 0.2151,-1.1538 0.6451,-1.8251 0.3986,-0.5454 0.7972,-1.0908 1.1958,-1.6363 0.43,-0.5874 0.6451,-1.0594 0.6451,-1.416 0,-0.4825 -0.3095,-0.7867 -0.9283,-0.9126 -0.5035,-0.0419 -1.0017,-0.0839 -1.4947,-0.1258 -1.6259,2.0349 -3.2412,3.6712 -4.846,4.9089 0.1678,0.451 0.2517,0.8916 0.2517,1.3216 0,0.6923 -0.3146,1.2325 -0.944,1.6206 -0.5349,0.3356 -1.1695,0.5035 -1.9038,0.5035 -0.9125,0 -1.9038,-0.1888 -2.9736,-0.5665 -1.6049,0.4616 -3.5978,0.6923 -5.9788,0.6923 -3.4195,0 -5.1292,-0.5297 -5.1292,-1.5891 0,-0.5559 0.3933,-0.9702 1.18,-1.2429 0.5559,-0.1993 1.1748,-0.299 1.8566,-0.299 1.3006,0 2.6852,0.2151 4.1537,0.6451 0.9964,0.2832 2.3181,0.771 3.9649,1.4632 1.6992,-0.5874 3.367,-1.5838 5.0033,-2.9894 -0.6189,-0.965 -1.243,-1.9247 -1.8723,-2.8792 -0.6399,-1.1014 -0.9598,-2.1923 -0.9598,-3.2726 0,-1.8986 0.8339,-3.5244 2.5017,-4.8775 1.8251,-1.479 4.1589,-2.2184 7.0015,-2.2184 2.1083,0 3.7708,0.493 4.9875,1.4789 2.2133,-1.4999 4.416,-2.2499 6.6082,-2.2499 1.0699,0 2.0034,0.2203 2.8006,0.6608 0.965,0.5455 1.4475,1.3112 1.4475,2.2971zm-10.1482 1.5105c0,-0.7238 -0.2256,-1.3426 -0.6766,-1.8566 -1.0594,0.8391 -2.1607,1.909 -3.3041,3.2097 -0.7132,0.8076 -1.6887,2.0034 -2.9264,3.5873 0.2202,0.0314 0.4562,0.0472 0.708,0.0472 1.1538,0 2.2315,-0.2754 3.2333,-0.8261 1.0017,-0.5506 1.8015,-1.3137 2.3993,-2.2892 0.3777,-0.6189 0.5665,-1.243 0.5665,-1.8723zm-0.9441 -2.1083c-0.9964,-0.9545 -2.5646,-1.4318 -4.7043,-1.4318 -2.8321,0 -5.103,0.729 -6.8127,2.187 -1.5,1.2692 -2.2499,2.8111 -2.2499,4.6257 0,0.9965 0.2832,2.0611 0.8496,3.1939 0.1468,0.2937 0.7132,1.2482 1.6992,2.8636 1.2063,-1.0699 2.6066,-2.5594 4.2009,-4.4684l0 -0.0157c-0.5454,-0.1993 -0.9965,-0.4878 -1.3531,-0.8654 -0.3986,-0.43 -0.5979,-0.9073 -0.5979,-1.4318 0,-0.7552 0.3252,-1.4475 0.9755,-2.0768 0.6503,-0.6294 1.3426,-0.944 2.0769,-0.944 0.0839,0 0.1258,0.021 0.1258,0.0629 -0.0734,0.0315 -0.1573,0.0577 -0.2517,0.0787 -0.7447,0.1573 -1.3741,0.4772 -1.888,0.9597 -0.556,0.535 -0.8339,1.1643 -0.8339,1.8881 0,0.9755 0.6136,1.7045 1.8408,2.187 2.3601,-2.979 4.6677,-5.2499 6.9228,-6.8127zm-10.8719 13.4523c0,-0.4091 -0.084,-0.8129 -0.2518,-1.2115 -1.5104,1.1433 -3.1572,2.0034 -4.9404,2.5803 0.9545,0.3776 1.8147,0.5664 2.5804,0.5664 0.6608,0 1.2429,-0.1521 1.7464,-0.4563 0.5769,-0.3671 0.8654,-0.8601 0.8654,-1.4789zm-5.9946 1.3531c-1.2587,-0.472 -2.5174,-0.9388 -3.7761,-1.4003 -1.458,-0.472 -2.7691,-0.708 -3.9334,-0.708 -0.6503,0 -1.2325,0.0839 -1.7464,0.2517 -0.7343,0.2413 -1.1014,0.6189 -1.1014,1.1328 0,0.9441 1.7307,1.4161 5.1921,1.4161 2.1188,0 3.9072,-0.2308 5.3652,-0.6923z"/>
   <path id="_6988264321" class="fil0" d="M33.8606 15.12c0,0.1259 -0.3566,0.4615 -1.0698,1.007 -0.556,0.4195 -1.007,0.6293 -1.3531,0.6293 -0.3252,0 -0.4878,-0.1259 -0.4878,-0.3776 0,-0.3147 0.2885,-0.7605 0.8654,-1.3374l-0.0315 -0.0314c-1.4055,1.1643 -2.3391,1.7464 -2.8006,1.7464 -0.3461,0 -0.5192,-0.1259 -0.5192,-0.3776 0,-0.4091 0.472,-1.0647 1.416,-1.9667l0 -0.0158c-0.1678,0.1154 -0.4195,0.3042 -0.7552,0.5665 -0.1259,0.1153 -0.3147,0.2779 -0.5664,0.4877 -0.0629,0.042 -0.1154,0.0629 -0.1573,0.0629l-0.0158 -0.0314c0.1783,-0.2911 0.5192,-0.6058 1.0227,-0.9493 0.5454,-0.375 0.9755,-0.5612 1.2902,-0.5612 0.1049,0 0.1678,0.0158 0.1888,0.0472 -0.0105,0.021 -0.299,0.3986 -0.8654,1.1329 -0.472,0.6057 -0.708,0.9833 -0.708,1.1302 0.0105,0.0131 0.0262,0.0341 0.0472,0.0655 0.021,0.0315 0.0577,0.0472 0.1101,0.0472 0.2518,0 1.2955,-0.7499 3.131,-2.2499 0.1364,-0.1154 0.2885,-0.1731 0.4563,-0.1731 0.2203,0 0.3304,0.0263 0.3304,0.0787 0,0.0525 -0.2648,0.3933 -0.7945,1.0227 -0.5297,0.6293 -0.7946,1.0227 -0.7946,1.18 0,0.042 0.0105,0.0761 0.0315,0.1023 0.021,0.0262 0.0524,0.0393 0.0944,0.0393 0.3566,0 0.9335,-0.3986 1.7307,-1.1957l0.2045 -0.0944 0 0.0157z"/>
   <path id="_69882643212" class="fil0" d="M37.4637 15.0885c0,0.0551 -0.1574,0.2203 -0.472,0.4983 -0.9231,0.8102 -1.8619,1.2167 -2.8164,1.2167 -0.6398,0 -0.9597,-0.257 -0.9597,-0.7709 0,-0.2308 0.076,-0.4511 0.2281,-0.6609 0.1521,-0.2097 0.3383,-0.3146 0.5586,-0.3146 0.2307,0 0.3461,0.0786 0.3461,0.236 0,0.1573 -0.1206,0.3199 -0.3619,0.4877 -0.2412,0.1678 -0.3618,0.3409 -0.3618,0.5192 0,0.2308 0.152,0.3462 0.4562,0.3462 0.3147,0 0.5927,-0.1679 0.8339,-0.5035 0.1574,-0.1993 0.333,-0.5428 0.5271,-1.0306 0.194,-0.4877 0.3383,-0.7945 0.4327,-0.9204l0 -0.0157c-0.8392,0.6818 -1.3321,1.0227 -1.479,1.0227 -0.0105,0 -0.021,-0.0053 -0.0315,-0.0158 0.021,-0.0629 0.2728,-0.2727 0.7553,-0.6293 0.5349,-0.3881 0.8391,-0.6241 0.9125,-0.708 0.2518,-0.2937 0.4878,-0.4406 0.708,-0.4406 0.1364,0 0.2046,0.021 0.2046,0.063 0,0.0629 -0.2203,0.2307 -0.6608,0.5034 -0.063,0.042 -0.0945,0.3986 -0.0945,1.0699 0,0.2308 -0.0629,0.472 -0.1888,0.7238 -0.1258,0.2517 -0.2832,0.4405 -0.472,0.5664l0 0.0157c0.493,-0.236 0.9257,-0.5113 1.2981,-0.8234 0.3723,-0.312 0.5795,-0.4667 0.6214,-0.4667 0.0105,0.0105 0.0158,0.0209 0.0158,0.0314z"/>
   <path id="_698826432123" class="fil0" d="M85.7636 2.1397c0,1.0279 -0.5769,1.8776 -1.7307,2.5489 -0.9965,0.5769 -2.0507,0.8653 -3.1625,0.8653 -0.3566,0 -0.729,-0.0472 -1.1171,-0.1416 -0.5559,-0.1364 -0.8496,-0.3252 -0.8811,-0.5664l0.0315 -0.0315c0.0734,0.063 0.1888,0.1521 0.3461,0.2675 0.2832,0.1993 0.7972,0.2989 1.5419,0.2989 1.0175,0 1.9982,-0.2779 2.9422,-0.8338 1.0909,-0.6504 1.6363,-1.4528 1.6363,-2.4073 0,-0.5245 -0.2202,-0.923 -0.6608,-1.1958 -0.3566,-0.2307 -0.8181,-0.3461 -1.3845,-0.3461 -1.2378,0 -2.6014,0.5874 -4.0908,1.7622 -1.7832,1.4055 -3.6345,3.603 -5.554,6.5924 -1.1328,1.7622 -2.1241,3.1467 -2.9737,4.1537 -1.4055,1.6468 -2.7114,2.6904 -3.9177,3.131l0 0.0157c0.8182,-0.2937 1.479,-0.4405 1.9825,-0.4405 0.6188,0 0.9388,0.1993 0.9597,0.5979 0.2937,-0.1469 0.8549,-0.5455 1.6835,-1.1958l0.063 0 0.0157 0.0472c-0.0315,0.1049 -0.3252,0.3724 -0.8811,0.8024 -0.472,0.3671 -0.8234,0.6241 -1.0541,0.771 -0.3672,0.2307 -0.7133,0.3461 -1.0385,0.3461 0.2832,-0.2412 0.4248,-0.472 0.4248,-0.6923 0,-0.2622 -0.2517,-0.3933 -0.7552,-0.3933 -0.5244,0 -1.0856,0.1442 -1.6835,0.4327 -0.5979,0.2884 -0.9073,0.4326 -0.9283,0.4326 -0.1049,0 -0.1573,-0.0472 -0.1573,-0.1416 0,-0.0629 0.3566,-0.236 1.0699,-0.5192 0.8077,-0.3146 1.7569,-1.1957 2.8478,-2.6432 1.3741,-1.951 2.7481,-3.9072 4.1222,-5.8687 1.6573,-2.2761 3.2674,-4.0278 4.8303,-5.2551 1.7412,-1.374 3.4142,-2.0611 5.019,-2.0611 0.6503,0 1.1905,0.1154 1.6206,0.3462 0.5559,0.2832 0.8339,0.7237 0.8339,1.3216zm-11.3126 -0.472c0,0.0839 -0.055,0.1757 -0.1652,0.2753 -0.1101,0.0997 -0.2805,0.2177 -0.5113,0.354 -0.2727,0.1469 -0.451,0.2518 -0.535,0.3147 -0.2622,0.1888 -1.2482,1.4108 -2.9579,3.666 -0.6713,0.902 -1.7097,2.2341 -3.1153,3.9963 0.7238,0.042 1.3899,0.1469 1.9982,0.3147 0.9545,0.2727 1.4318,0.6503 1.4318,1.1328 0,0.0525 -0.0105,0.1049 -0.0315,0.1574 -0.2937,-0.4301 -0.8286,-0.7815 -1.6048,-1.0542 -0.6189,-0.2098 -1.264,-0.3409 -1.9353,-0.3933 -1.0174,1.2482 -2.2551,2.4492 -3.7131,3.603 -1.4895,1.1852 -2.9422,2.1135 -4.3583,2.7848 0.6504,1.2587 1.8671,1.8881 3.6503,1.8881 0.5244,0 0.9597,-0.0944 1.3059,-0.2832 0.0314,-0.021 0.0786,-0.0472 0.1416,-0.0787 0.0105,0.0105 0.0157,0.021 0.0157,0.0315 0,0.1363 -0.2255,0.257 -0.6765,0.3618 -0.3462,0.0735 -0.6242,0.1102 -0.8339,0.1102 -1.8251,0 -3.131,-0.6189 -3.9177,-1.8566 -2.8006,1.3111 -5.9002,1.9667 -9.2986,1.9667 -2.0664,0 -3.7761,-0.3094 -5.1292,-0.9283 -1.8251,-0.8391 -2.7377,-2.1712 -2.7377,-3.9963 0,-1.458 0.7972,-2.7587 2.3915,-3.902 1.9405,-1.3846 4.3845,-2.0768 7.3319,-2.0768 1.3426,0 2.5437,0.215 3.6031,0.645 1.4265,0.577 2.1397,1.4371 2.1397,2.5804 0,1.3216 -0.7342,2.3233 -2.2027,3.0051 -1.1328,0.5245 -2.4492,0.7867 -3.9491,0.7867 -0.8287,0 -1.6049,-0.1311 -2.3286,-0.3933 -0.9755,-0.3462 -1.4633,-0.8602 -1.4633,-1.5419 0,-0.1784 0.0525,-0.3829 0.1574,-0.6137l0 0.0158c0,0.0419 -0.0105,0.097 -0.0315,0.1652 -0.021,0.0682 -0.0315,0.1232 -0.0315,0.1652 0,0.7342 0.4616,1.2692 1.3846,1.6048 0.6398,0.2308 1.416,0.3462 2.3286,0.3462 1.3111,0 2.4964,-0.2518 3.5558,-0.7553 1.3531,-0.6398 2.0297,-1.5366 2.0297,-2.6904 0,-1.1119 -0.6451,-1.951 -1.9353,-2.5174 -0.986,-0.4196 -2.1135,-0.6294 -3.3827,-0.6294 -2.7901,0 -5.0453,0.6923 -6.7655,2.0769 -1.3951,1.1118 -2.0926,2.3758 -2.0926,3.7918 0,1.6888 0.8181,2.9317 2.4545,3.7289 1.2482,0.6189 2.811,0.9283 4.6886,0.9283 3.1362,0 6.1519,-0.7343 9.0469,-2.2027 -0.1574,-0.3672 -0.236,-0.7448 -0.236,-1.1329 0,-1.5314 0.9178,-2.8163 2.7534,-3.8547 1.4684,-0.8287 3.1991,-1.264 5.1921,-1.3059 0.9755,-1.1748 2.0349,-2.4728 3.1782,-3.8941 1.1433,-1.4213 2.1031,-2.4938 2.8793,-3.2175l0 -0.0158c-2.979,2.0769 -5.0191,3.4142 -6.1205,4.0121 -2.5593,1.4056 -4.8617,2.1083 -6.907,2.1083 -0.6189,0 -1.1329,-0.1363 -1.5419,-0.409 -0.4616,-0.3252 -0.6923,-0.7815 -0.6923,-1.3689 0,-0.1154 0.0209,-0.1731 0.0629,-0.1731 0.0315,0.1364 0.0629,0.278 0.0944,0.4249 0.0944,0.2937 0.2727,0.5297 0.535,0.708 0.3566,0.2517 0.8758,0.3776 1.5576,0.3776 1.1643,0 2.4492,-0.215 3.8547,-0.6451 1.1014,-0.3357 2.2447,-0.8339 3.43,-1.4947 0.7657,-0.4301 1.8303,-1.0961 3.1939,-1.9982l2.0297 -1.3373c0.2098,-0.1259 0.4982,-0.3147 0.8653,-0.5665 0.9441,-0.8076 1.5314,-1.2115 1.7622,-1.2115 0.1049,0 0.1573,0.0368 0.1573,0.1102zm-8.4804 8.7794l0 -0.0157c-1.8356,0.0629 -3.4195,0.4982 -4.7516,1.3059 -1.7097,1.0384 -2.5646,2.2971 -2.5646,3.776 0,0.3042 0.0315,0.5822 0.0944,0.8339 2.5908,-1.3636 4.9981,-3.3303 7.2218,-5.9001z"/>
   <path id="_6988264321234" class="fil0" d="M75.0044 15.12c0,0.0315 -0.0472,0.0944 -0.1416,0.1888 -0.3881,0.3986 -0.8182,0.7342 -1.2902,1.007 -0.5559,0.3251 -1.0699,0.4877 -1.5419,0.4877 -0.5769,0 -0.8654,-0.194 -0.8654,-0.5821 0,-0.2833 0.1259,-0.5927 0.3777,-0.9283l-0.0184 0c-0.16,0.1573 -0.2675,0.236 -0.3252,0.236 -0.0105,0 -0.0236,-0.0053 -0.0341,-0.0158l0 -0.0314c0,0 0.0053,-0.021 0.0158,-0.063 0.2963,-0.3251 0.7316,-0.645 1.3033,-0.9597 0.6136,-0.3252 1.1171,-0.4878 1.5078,-0.4878 0.3068,0 0.4615,0.1364 0.4615,0.4091 0,0.472 -0.7919,0.9598 -2.3758,1.4632 -0.0629,0.2098 -0.0944,0.3514 -0.0944,0.4249 0,0.1888 0.1206,0.2832 0.3619,0.2832 0.3251,0 0.708,-0.1259 1.1485,-0.3776 0.3042,-0.1784 0.6346,-0.4144 0.9913,-0.7081 0.3041,-0.2622 0.4615,-0.3933 0.472,-0.3933 0.0314,0 0.0472,0.0157 0.0472,0.0472zm-1.1014 -0.8024c0,-0.0944 -0.0629,-0.1416 -0.1888,-0.1416 -0.2098,0 -0.4982,0.1993 -0.8653,0.5979 -0.2833,0.3041 -0.5088,0.6031 -0.6766,0.8968l0 0.0157c1.1538,-0.3671 1.7307,-0.8234 1.7307,-1.3688z"/>
   <path id="_69882643212345" class="fil0" d="M83.1832 8.1342c0,0.4091 -0.3566,0.9414 -1.0699,1.597 -0.7132,0.6556 -2.0401,1.7753 -3.9806,3.3592 -0.3042,0.2307 -0.7395,0.5873 -1.3059,1.0698 -0.1363,0.1259 -0.7552,0.9388 -1.8566,2.4388 0.8287,-0.2308 1.6626,-0.7028 2.5017,-1.4161 0.0839,-0.0734 0.1364,-0.1101 0.1573,-0.1101 0.0315,0 0.0472,0.0052 0.0472,0.0157 0,0.0525 -0.0419,0.1207 -0.1258,0.2046 -0.2518,0.2622 -0.5927,0.5244 -1.0227,0.7867 -0.5035,0.2412 -1.0542,0.5349 -1.6521,0.881 -0.0839,0.1154 -0.1678,0.3042 -0.2517,0.5665 -0.0734,0.2097 -0.1416,0.4143 -0.2045,0.6136 -0.3567,0.9335 -0.8339,1.888 -1.4318,2.8635 -0.8286,1.3426 -1.5209,2.0139 -2.0769,2.0139 -0.2412,0 -0.3618,-0.1206 -0.3618,-0.3619 0,-1.1013 1.6992,-3.776 5.0977,-8.0241l-0.0157 0c-0.2203,0.2097 -0.5402,0.4562 -0.9598,0.7394 0.0105,-0.0629 0.215,-0.2674 0.6136,-0.6136 0.2413,-0.1993 0.4773,-0.3933 0.708,-0.5821 0.4616,-0.5769 1.0594,-1.3164 1.7937,-2.2185 0.7132,-0.8601 1.4894,-1.6887 2.3286,-2.4859 1.2272,-1.1748 2.0978,-1.7622 2.6118,-1.7622 0.3041,0 0.4562,0.1416 0.4562,0.4248zm-0.3933 0.0315c0,-0.1888 -0.0839,-0.2832 -0.2518,-0.2832 -0.3881,0 -1.3111,0.8549 -2.7691,2.5646 -0.9755,1.1328 -1.8618,2.2342 -2.659,3.3041l0 0.0157c1.0594,-0.923 2.1188,-1.8461 3.1782,-2.7691 1.6678,-1.5 2.5017,-2.444 2.5017,-2.8321zm-8.1658 8.8895l-0.0157 0c-0.6189,0.8287 -1.2797,1.7622 -1.9825,2.8006 -1.0384,1.5315 -1.5576,2.4335 -1.5576,2.7062 0,0.1049 0.0472,0.1574 0.1416,0.1574 0.4091,0 1.0856,-0.8077 2.0296,-2.423 0.5245,-0.9021 0.986,-1.9825 1.3846,-3.2412z"/>
   <path id="_698826432123456" class="fil0" d="M80.9045 15.12c0,0.1468 -0.3619,0.4825 -1.0856,1.007 -0.5664,0.4195 -1.0332,0.6293 -1.4003,0.6293 -0.3252,0 -0.4878,-0.1232 -0.4878,-0.3724 0,-0.312 0.299,-0.729 0.8969,-1.2508 0.5978,-0.5244 0.8968,-0.7919 0.8968,-0.8024 0,-0.0603 -0.0577,-0.097 -0.1731,-0.1075 -0.0839,-0.0105 -0.1993,-0.0105 -0.3461,0 -0.1784,0 -0.2675,0 -0.2675,0 -0.0525,0 -0.1259,-0.0158 -0.2203,-0.0472 -0.0734,0.0944 -0.3251,0.3409 -0.7552,0.7395 -0.4301,0.3985 -0.6661,0.5978 -0.708,0.5978 -0.0315,0 -0.0472,-0.0157 -0.0472,-0.0472 0,-0.0209 0.0419,-0.0681 0.1259,-0.1416 0.1783,-0.1468 0.5978,-0.5506 1.2586,-1.2115 -0.0734,-0.0419 -0.1101,-0.1153 -0.1101,-0.2202 0,-0.1574 0.0761,-0.2885 0.2282,-0.3934 0.152,-0.1049 0.312,-0.1573 0.4798,-0.1573 0.1469,0 0.2413,0.0524 0.2832,0.1573 -0.0839,0.063 -0.1625,0.1259 -0.236,0.1888 -0.1049,0.0839 -0.1573,0.1679 -0.1573,0.2518 0,0.0734 0.1783,0.1206 0.5349,0.1416 0.3567,0.021 0.535,0.1258 0.535,0.3146 0,0.1049 -0.2203,0.396 -0.6608,0.8733 -0.4406,0.4772 -0.6608,0.8155 -0.6608,1.0148 0,0.0315 0.0157,0.0629 0.0472,0.0944l0.0786 0c0.1993,0.0105 0.5691,-0.2045 1.1092,-0.6451 0.5402,-0.4405 0.8051,-0.6608 0.7946,-0.6608 0.0315,0 0.0472,0.0157 0.0472,0.0472z"/>
   <path id="_6988264321234567" class="fil0" d="M84.379 12.0519c0,0.1469 -0.1022,0.2937 -0.3068,0.4406 -0.2045,0.1468 -0.3855,0.2202 -0.5428,0.2202 -0.042,-0.0419 -0.0629,-0.1363 -0.0629,-0.2832 0,-0.3671 0.2307,-0.5506 0.6922,-0.5506 0.1469,0 0.2203,0.0576 0.2203,0.173zm-0.9283 3.0681c0,0.1154 -0.3566,0.451 -1.0699,1.007 -0.5559,0.43 -1.0122,0.645 -1.3688,0.645 -0.3147,0 -0.472,-0.1206 -0.472,-0.3618 0,-0.2413 0.1836,-0.5979 0.5507,-1.0699 0.3042,-0.3986 0.5926,-0.708 0.8653,-0.9283l0 -0.0158c-0.1678,0.1154 -0.4195,0.3042 -0.7552,0.5665 -0.1259,0.1153 -0.3147,0.2779 -0.5664,0.4877 -0.0629,0.042 -0.1154,0.0629 -0.1573,0.0629l-0.0158 -0.0314c0.1049,-0.2413 0.4458,-0.5481 1.0227,-0.9204 0.5769,-0.3724 1.0122,-0.5586 1.3059,-0.5586 0.0734,0 0.1364,0.0105 0.1888,0.0315l0 0.0314c0,0.021 -0.2675,0.354 -0.8024,0.9991 -0.5349,0.6451 -0.8024,1.0516 -0.8024,1.2194 0.0105,0.0315 0.0262,0.0629 0.0472,0.0944 0.021,0.0315 0.0524,0.0472 0.0944,0.0472 0.1809,0 0.5166,-0.2124 1.0069,-0.6372 0.493,-0.4248 0.8077,-0.653 0.9441,-0.6844l-0.0158 0.0157z"/>
   <path id="_69882643212345678" class="fil0" d="M86.7889 15.12c0,0.0315 -0.0472,0.0944 -0.1416,0.1888 -0.3881,0.3986 -0.8182,0.7342 -1.2902,1.007 -0.5559,0.3251 -1.0699,0.4877 -1.5419,0.4877 -0.5769,0 -0.8654,-0.194 -0.8654,-0.5821 0,-0.2833 0.1259,-0.5927 0.3777,-0.9283l-0.0184 0c-0.16,0.1573 -0.2675,0.236 -0.3252,0.236 -0.0105,0 -0.0236,-0.0053 -0.0341,-0.0158l0 -0.0314c0,0 0.0053,-0.021 0.0158,-0.063 0.2963,-0.3251 0.7316,-0.645 1.3033,-0.9597 0.6136,-0.3252 1.1171,-0.4878 1.5078,-0.4878 0.3068,0 0.4615,0.1364 0.4615,0.4091 0,0.472 -0.7919,0.9598 -2.3758,1.4632 -0.0629,0.2098 -0.0944,0.3514 -0.0944,0.4249 0,0.1888 0.1206,0.2832 0.3619,0.2832 0.3251,0 0.708,-0.1259 1.1485,-0.3776 0.3042,-0.1784 0.6346,-0.4144 0.9913,-0.7081 0.3041,-0.2622 0.4615,-0.3933 0.472,-0.3933 0.0314,0 0.0472,0.0157 0.0472,0.0472zm-1.1014 -0.8024c0,-0.0944 -0.0629,-0.1416 -0.1888,-0.1416 -0.2098,0 -0.4982,0.1993 -0.8653,0.5979 -0.2833,0.3041 -0.5088,0.6031 -0.6766,0.8968l0 0.0157c1.1538,-0.3671 1.7307,-0.8234 1.7307,-1.3688z"/>
   <path id="_698826432123456789" class="fil0" d="M89.9985 15.12c0,0.1468 -0.3619,0.4825 -1.0856,1.007 -0.5664,0.4195 -1.0332,0.6293 -1.4003,0.6293 -0.3252,0 -0.4878,-0.1232 -0.4878,-0.3724 0,-0.312 0.299,-0.729 0.8969,-1.2508 0.5978,-0.5244 0.8968,-0.7919 0.8968,-0.8024 0,-0.0603 -0.0577,-0.097 -0.1731,-0.1075 -0.0839,-0.0105 -0.1993,-0.0105 -0.3461,0 -0.1784,0 -0.2675,0 -0.2675,0 -0.0525,0 -0.1259,-0.0158 -0.2203,-0.0472 -0.0734,0.0944 -0.3251,0.3409 -0.7552,0.7395 -0.4301,0.3985 -0.6661,0.5978 -0.708,0.5978 -0.0315,0 -0.0472,-0.0157 -0.0472,-0.0472 0,-0.0209 0.0419,-0.0681 0.1259,-0.1416 0.1783,-0.1468 0.5978,-0.5506 1.2586,-1.2115 -0.0734,-0.0419 -0.1101,-0.1153 -0.1101,-0.2202 0,-0.1574 0.0761,-0.2885 0.2282,-0.3934 0.152,-0.1049 0.312,-0.1573 0.4798,-0.1573 0.1469,0 0.2413,0.0524 0.2832,0.1573 -0.0839,0.063 -0.1625,0.1259 -0.236,0.1888 -0.1049,0.0839 -0.1573,0.1679 -0.1573,0.2518 0,0.0734 0.1783,0.1206 0.5349,0.1416 0.3567,0.021 0.535,0.1258 0.535,0.3146 0,0.1049 -0.2203,0.396 -0.6608,0.8733 -0.4406,0.4772 -0.6608,0.8155 -0.6608,1.0148 0,0.0315 0.0157,0.0629 0.0472,0.0944l0.0786 0c0.1993,0.0105 0.5691,-0.2045 1.1092,-0.6451 0.5402,-0.4405 0.8051,-0.6608 0.7946,-0.6608 0.0315,0 0.0472,0.0157 0.0472,0.0472z"/>
   <path id="_698826648" class="fil1" d="M25.8905 10.9811l0.4692 0c0.4597,0 0.7992,-0.0769 1.0186,-0.2291 0.2194,-0.1537 0.3283,-0.3939 0.3283,-0.7239 0,-0.3251 -0.1121,-0.5557 -0.3347,-0.6934 -0.2242,-0.1378 -0.5701,-0.2066 -1.0394,-0.2066l-0.442 0 0 1.853zm0 1.1819l0 2.633 -1.4543 0 0 -6.8595 1.9988 0c0.9321,0 1.6224,0.1698 2.0692,0.5093 0.4469,0.3395 0.6711,0.8536 0.6711,1.5455 0,0.4036 -0.1105,0.7623 -0.3331,1.0763 -0.2227,0.3155 -0.5366,0.5605 -0.9434,0.7399 1.033,1.5423 1.7057,2.5385 2.018,2.9885l-1.6144 0 -1.6368 -2.633 -0.7751 0z"/>
   <path id="_6988266481" class="fil1" d="M33.8842 14.796l-0.1922 -0.6711 -0.0753 0c-0.1537,0.2435 -0.37,0.4325 -0.6518,0.5654 -0.2819,0.1329 -0.6022,0.2002 -0.9626,0.2002 -0.6166,0 -1.081,-0.165 -1.3933,-0.4949 -0.3123,-0.3315 -0.4693,-0.8056 -0.4693,-1.4254l0 -3.4193 1.4318 0 0 3.0638c0,0.3779 0.0673,0.6614 0.2018,0.8504 0.1345,0.1906 0.3475,0.2851 0.6422,0.2851 0.4004,0 0.6903,-0.1346 0.8681,-0.402 0.1778,-0.2675 0.2674,-0.7111 0.2674,-1.3293l0 -2.468 1.4318 0 0 5.2451 -1.0986 0z"/>
   <path id="_69882664812" class="fil1" d="M39.6437 13.2377c0,0.5381 -0.1874,0.9481 -0.5605,1.23 -0.3748,0.2819 -0.9337,0.4228 -1.6785,0.4228 -0.3811,0 -0.7063,-0.0272 -0.9753,-0.0785 -0.2691,-0.0512 -0.5205,-0.1265 -0.756,-0.2274l0 -1.182c0.2659,0.125 0.5654,0.2291 0.8985,0.3139 0.3331,0.0849 0.6278,0.1266 0.8809,0.1266 0.5189,0 0.7783,-0.149 0.7783,-0.4501 0,-0.1121 -0.0336,-0.2034 -0.1025,-0.2738 -0.0688,-0.0705 -0.189,-0.1506 -0.3571,-0.2403 -0.1682,-0.0881 -0.394,-0.1922 -0.6759,-0.3123 -0.4036,-0.1681 -0.6999,-0.3251 -0.8888,-0.4692 -0.189,-0.1426 -0.3268,-0.3075 -0.4133,-0.4949 -0.0864,-0.1858 -0.1281,-0.4148 -0.1281,-0.6871 0,-0.4661 0.1794,-0.8264 0.5414,-1.0811 0.3619,-0.2546 0.8728,-0.3827 1.5359,-0.3827 0.6326,0 1.2476,0.1377 1.845,0.4132l-0.4325 1.0314c-0.2626,-0.1121 -0.5077,-0.205 -0.7367,-0.2755 -0.2274,-0.0721 -0.4612,-0.1089 -0.6983,-0.1089 -0.4228,0 -0.6342,0.1137 -0.6342,0.3427 0,0.1282 0.0689,0.2387 0.205,0.3332 0.1361,0.0945 0.434,0.2338 0.8937,0.418 0.41,0.1649 0.7095,0.3203 0.9001,0.4644 0.1906,0.1442 0.3315,0.3091 0.4228,0.4965 0.0913,0.189 0.1361,0.4116 0.1361,0.6711z"/>
   <polygon id="_698826648123" class="fil1" points="48.9904,14.796 47.541,14.796 47.541,11.8347 44.8232,11.8347 44.8232,14.796 43.3689,14.796 43.3689,7.9365 44.8232,7.9365 44.8232,10.6239 47.541,10.6239 47.541,7.9365 48.9904,7.9365 "/>
   <path id="_6988266481234" class="fil1" d="M52.282 10.4702c-0.3027,0 -0.5414,0.0961 -0.7127,0.2883 -0.173,0.1921 -0.2707,0.466 -0.2963,0.8184l2.0083 0c-0.0064,-0.3524 -0.0977,-0.6263 -0.277,-0.8184 -0.1778,-0.1922 -0.418,-0.2883 -0.7223,-0.2883zm0.2018 4.4203c-0.8441,0 -1.5039,-0.2338 -1.9796,-0.6999 -0.4756,-0.466 -0.7127,-1.1259 -0.7127,-1.9795 0,-0.8793 0.2194,-1.5584 0.6583,-2.0388 0.4404,-0.4805 1.0474,-0.7207 1.8225,-0.7207 0.7416,0 1.3197,0.2114 1.7313,0.6342 0.4132,0.4212 0.6198,1.0058 0.6198,1.7489l0 0.6951 -3.3825 0c0.0161,0.4068 0.1362,0.7239 0.3604,0.9529 0.2258,0.2274 0.5413,0.3428 0.9481,0.3428 0.3155,0 0.615,-0.0337 0.8969,-0.0993 0.2819,-0.0657 0.575,-0.1698 0.8825,-0.314l0 1.1067c-0.2515,0.125 -0.5189,0.2178 -0.8024,0.2787 -0.2851,0.0625 -0.6326,0.0929 -1.0426,0.0929z"/>
   <path id="_69882664812345" class="fil1" d="M58.1873 10.6239l-1.238 0 0 4.1721 -1.4318 0 0 -4.1721 -0.788 0 0 -0.6887 0.788 -0.3843 0 -0.386c0,-0.5974 0.1473,-1.033 0.442,-1.3085 0.2931,-0.2755 0.7639,-0.4132 1.4126,-0.4132 0.4933,0 0.9337,0.0737 1.3181,0.221l-0.3668 1.0507c-0.2867,-0.0913 -0.5525,-0.1362 -0.7976,-0.1362 -0.2034,0 -0.3507,0.0609 -0.4404,0.181 -0.0913,0.1201 -0.1361,0.2739 -0.1361,0.4628l0 0.3284 1.238 0 0 1.073z"/>
   <path id="_698826648123456" class="fil1" d="M61.4371 9.4516c0.1938,0 0.3555,0.0144 0.4837,0.0416l-0.1089 1.3421c-0.1153,-0.0304 -0.2563,-0.0464 -0.4212,-0.0464 -0.4581,0 -0.8136,0.1169 -1.0683,0.3523 -0.2546,0.2339 -0.3828,0.5622 -0.3828,0.985l0 2.6698 -1.4302 0 0 -5.2451 1.0843 0 0.2098 0.8808 0.0705 0c0.1633,-0.2931 0.3827,-0.5301 0.6598,-0.7095 0.2771,-0.1809 0.5782,-0.2706 0.9033,-0.2706z"/>
   <path id="_6988266481234567" class="fil1" d="M62.3135 8.1943c0,-0.466 0.2594,-0.6998 0.7783,-0.6998 0.5189,0 0.7784,0.2338 0.7784,0.6998 0,0.2227 -0.0641,0.3956 -0.1938,0.5189 -0.1297,0.1234 -0.3251,0.1842 -0.5846,0.1842 -0.5189,0 -0.7783,-0.2338 -0.7783,-0.7031zm1.491 6.6017l-1.4302 0 0 -5.2451 1.4302 0 0 5.2451z"/>
   <path id="_69882664812345678" class="fil1" d="M66.9792 10.4702c-0.3027,0 -0.5414,0.0961 -0.7127,0.2883 -0.173,0.1921 -0.2707,0.466 -0.2963,0.8184l2.0083 0c-0.0064,-0.3524 -0.0977,-0.6263 -0.277,-0.8184 -0.1778,-0.1922 -0.418,-0.2883 -0.7223,-0.2883zm0.2018 4.4203c-0.8441,0 -1.5039,-0.2338 -1.9796,-0.6999 -0.4756,-0.466 -0.7127,-1.1259 -0.7127,-1.9795 0,-0.8793 0.2194,-1.5584 0.6583,-2.0388 0.4404,-0.4805 1.0474,-0.7207 1.8225,-0.7207 0.7416,0 1.3197,0.2114 1.7313,0.6342 0.4132,0.4212 0.6198,1.0058 0.6198,1.7489l0 0.6951 -3.3825 0c0.0161,0.4068 0.1362,0.7239 0.3604,0.9529 0.2258,0.2274 0.5413,0.3428 0.9481,0.3428 0.3155,0 0.615,-0.0337 0.8969,-0.0993 0.2819,-0.0657 0.575,-0.1698 0.8825,-0.314l0 1.1067c-0.2515,0.125 -0.5189,0.2178 -0.8024,0.2787 -0.2851,0.0625 -0.6326,0.0929 -1.0426,0.0929z"/>
   <path id="_698826648123456789" class="fil1" d="M72.9133 9.4516c0.1938,0 0.3555,0.0144 0.4837,0.0416l-0.1089 1.3421c-0.1153,-0.0304 -0.2563,-0.0464 -0.4212,-0.0464 -0.4581,0 -0.8136,0.1169 -1.0683,0.3523 -0.2546,0.2339 -0.3828,0.5622 -0.3828,0.985l0 2.6698 -1.4302 0 0 -5.2451 1.0843 0 0.2098 0.8808 0.0705 0c0.1633,-0.2931 0.3827,-0.5301 0.6598,-0.7095 0.2771,-0.1809 0.5782,-0.2706 0.9033,-0.2706z"/>
   <path id="_698823936" class="fil2" d="M31.0698 18.0713l-0.1633 0 -0.2877 0 0 -0.2877 0 -1.079 0 -0.2877 0.2877 0 0.8599 0 0.0457 0 0.242 0 0.0458 0 0.1078 0 0.2877 0 0 0.2021 0.0435 -0.0684 0.0849 -0.1337 0.1578 0 0.0037 0 0.3587 0 0.129 0 0.6818 0 0.2877 0 0 0.0122c0.075,-0.0213 0.1548,-0.0321 0.2393,-0.0321 0.1141,0 0.2189,0.0202 0.3145,0.0603 0.0251,0.0105 0.0494,0.0224 0.0729,0.0357l0 -0.0741 0.1455 0 0.4586 0 0.0746 0 0.0739 0.1787 0.0978 0.2369 0.0975 -0.2369 0.0735 -0.1787 0.1158 0 0.4265 -0.002 0.1008 0 0.1633 0 0.2877 0 0 0.2877 0 0.1642 0.0291 0 0 -0.1642 0 -0.2877 0.2877 0 0.1176 0 0.0457 0 0.242 0 0.0458 0 0.1078 0 0.2877 0 0 0.2021 0.0434 -0.0684 0.085 -0.1337 0.1578 0 0.0037 0 0.3586 0 0.0834 0 0.0457 0 0.1176 0 0.2877 0 0 0.0564 0.0501 -0.0564 0.1279 0 0.1791 0 0.6417 0 -0.4281 0.4788 -0.2941 0.3289 0.3312 0.3668 0.4335 0.4799 -0.6459 0 -0.1909 0 -0.1274 0 -0.0771 -0.0855 0 0.0855 -0.2877 0 -0.1176 0 -0.0457 0 -0.242 0 -0.0458 0 -0.1068 0 -0.2877 0 0 -0.2037 -0.0445 0.07 -0.0849 0.1337 -0.1579 0 -0.0037 0 -0.3679 0 -0.074 0 -0.0457 0 -0.1176 0 -0.2877 0 0 -0.2877 0 -0.1985 -0.0291 0 0 0.1985 0 0.2877 -0.2877 0 -0.1193 0 -0.044 0 -0.2437 0 -0.0441 0 -0.1007 0 -0.1626 0 -0.11 0 -0.3284 0 -0.0846 0 -0.1572 0 -0.1455 0 -0.2877 0 0 -0.0756c-0.0251,0.0137 -0.0513,0.0261 -0.0784,0.0371 -0.0965,0.0389 -0.2017,0.0584 -0.3158,0.0584 -0.0715,0 -0.1415,-0.0092 -0.2096,-0.0273 -0.0706,-0.0187 -0.1359,-0.0463 -0.1958,-0.0825 -0.0609,-0.0368 -0.1161,-0.0831 -0.1655,-0.1388 -0.0041,-0.0045 -0.0081,-0.0092 -0.0121,-0.0139l0 0.2426 -0.2877 0 -0.1636 0 -0.1677 0 -0.1201 0 -0.1676 0 -0.1526 0 -0.2877 0 0 -0.2037 -0.0444 0.07 -0.085 0.1337 -0.1578 0 -0.0037 0 -0.368 0 -0.074 0 -0.0457 0 -0.1196 0 -0.2877 0 0 -0.2877 0 -0.6495 -0.0015 0 0 0.6495 0 0.2877 -0.2878 0zm3.371 -0.828c0,0.0458 0.0036,0.0821 0.0106,0.1089 0.003,0.0113 0.006,0.0199 0.0091,0.026 0.0041,0.0002 0.0103,0.0004 0.0186,0.0004 0.0088,0 0.0155,-0.0003 0.0199,-0.001 0.0027,-0.0056 0.0055,-0.0138 0.0084,-0.0247 0.007,-0.0269 0.0105,-0.0634 0.0105,-0.1096 0,-0.0455 -0.0035,-0.0816 -0.0105,-0.1082 -0.0026,-0.0096 -0.0054,-0.0172 -0.0083,-0.0228 -0.005,-0.0004 -0.0124,-0.0007 -0.0221,-0.0007 -0.0083,0 -0.0148,0.0002 -0.0194,0.0005 -0.0021,0.005 -0.0043,0.0117 -0.0065,0.0201 -0.0068,0.0265 -0.0103,0.0635 -0.0103,0.1111zm6.4581 0.828c-0.0087,0.0019 -0.0175,0.0036 -0.0264,0.0052 -0.0542,0.0098 -0.1077,0.0147 -0.1605,0.0147 -0.0839,0 -0.1616,-0.0118 -0.2332,-0.0354 -0.0803,-0.0265 -0.151,-0.0675 -0.2118,-0.123 -0.0632,-0.0575 -0.1107,-0.1273 -0.1425,-0.2093 -0.0286,-0.0739 -0.043,-0.1533 -0.043,-0.2383 0,-0.1874 0.0678,-0.3364 0.2034,-0.4472l-0.0107 -0.0267 -0.05 -0.125 -0.0948 -0.2366 0.224 -0.1219c0.0379,-0.0207 0.0772,-0.039 0.1179,-0.0548 0.0435,-0.0168 0.0846,-0.0303 0.1232,-0.0401l0.0002 0.0008c0.0423,-0.011 0.0852,-0.0194 0.1285,-0.025 0.0488,-0.0064 0.0931,-0.0096 0.1326,-0.0096 0.0914,0 0.1747,0.0112 0.2499,0.0337 0.0255,0.0077 0.0499,0.0166 0.0733,0.0268l0 -0.0427 0.2878 0 0.1633 0 0.2877 0 0 0.2877 0 0.1642 0.0291 0 0 -0.1642 0 -0.2877 0.2877 0 0.1176 0 0.0457 0 0.242 0 0.0458 0 0.5579 0 0.0459 0 0.2218 0 0.0659 0 0.5194 0 0.0458 0 0.242 0 0.0457 0 0.1078 0 0.2878 0 0 0.2021 0.0434 -0.0684 0.085 -0.1337 0.1578 0 0.0036 0 0.2435 -0.3833 -0.0037 -0.0616 0.0428 0 0.0925 0 0.1694 0 0.1536 0 0.1632 0 0.1013 0 0.1548 0 0.1546 0 0.1838 0 0.0924 0 0.0346 0 -0.0242 0.309c-0.0037,0.0476 -0.0113,0.0928 -0.0228,0.1359l0.1251 0 0 0.0744c0.0247,-0.0133 0.0504,-0.0253 0.0771,-0.0359 0.0977,-0.0389 0.2041,-0.0584 0.319,-0.0584 0.0322,0 0.0682,0.0022 0.1079,0.0065 0.0306,0.0033 0.0603,0.0078 0.0891,0.0134l0.2161 0 0.1633 0 0.2877 0 0 0.0564 0.0501 -0.0564 0.1279 0 0.0249 0 0.1542 0 0.1335 0 0.1536 0 0.2877 0 0.0594 0 0.0076 0 0.0614 0 0.1578 0 0.0036 0 0.3587 0 0.1291 0 0.0251 0 0.1496 0 0.0865 0.1258 0.0474 0.069 0.0473 -0.069 0.0863 -0.1258 0.1508 0 0.1842 0 0.4697 0 0.0875 0 0.2002 0 0.1633 0 0.2877 0 0 0.0564 0.0501 -0.0564 0.1279 0 0.1791 0 0.3407 0c0.0605,-0.0133 0.124,-0.0199 0.1904,-0.0199 0.1141,0 0.2189,0.0202 0.3145,0.0603 0.0251,0.0105 0.0493,0.0224 0.0729,0.0357l0 -0.0761 0.2877 0 0.1633 0 0.2877 0 0 0.0564 0.0501 -0.0564 0.1279 0 0.1791 0 0.328 0c0.0572,-0.0132 0.1167,-0.0199 0.1785,-0.0199 0.1049,0 0.2022,0.0187 0.2917,0.0559 0.0114,0.0047 0.0225,0.0098 0.0336,0.0151l0 -0.0511 0.2877 0 0.1327 0 0.1956 0c0.0048,-0.0011 0.0096,-0.0022 0.0145,-0.0032 0.0536,-0.0111 0.1067,-0.0167 0.1592,-0.0167 0.1098,0 0.2116,0.0209 0.3055,0.0625l0.0004 -0.001c0.0983,0.0436 0.1817,0.1085 0.2502,0.1944 0.0627,0.079 0.1092,0.1715 0.1392,0.2775 0.0269,0.095 0.0404,0.1993 0.0404,0.3129 0,0.1148 -0.0137,0.2198 -0.0409,0.3146 -0.0304,0.1057 -0.0777,0.1985 -0.1418,0.2782 -0.0686,0.0848 -0.1514,0.149 -0.2485,0.1924 -0.0934,0.0418 -0.1948,0.0627 -0.3045,0.0627 -0.0167,0 -0.0337,-0.0006 -0.051,-0.0019l0 0.1785 0 0.2878 -0.2877 0 -0.1633 0 -0.2877 0 0 -0.2878 0 -0.2085c-0.0126,0.0031 -0.0253,0.006 -0.038,0.0086 -0.0404,0.0085 -0.0804,0.0145 -0.1198,0.018 -0.0392,0.0035 -0.081,0.0053 -0.1251,0.0053 -0.0673,0 -0.1318,-0.0067 -0.1935,-0.0199l-0.3171 0 -0.1908 0 -0.1275 0 -0.0771 -0.0855 0 0.0855 -0.2877 0 -0.1633 0 -0.2877 0 0 -0.0756c-0.0251,0.0137 -0.0513,0.0261 -0.0784,0.0371 -0.0965,0.0389 -0.2017,0.0584 -0.3158,0.0584 -0.061,0 -0.1209,-0.0067 -0.1795,-0.0199l-0.3065 0 -0.1908 0 -0.1275 0 -0.0771 -0.0855 0 0.0855 -0.2877 0 -0.1633 0 -0.1799 0 -0.1078 0 -0.4502 0 -0.1849 0 -0.1497 0 -0.0863 -0.1247 -0.0676 -0.0978 -0.069 0.0989 -0.0863 0.1236 -0.1486 0 -0.0043 0 -0.1808 0 -0.107 0 -0.1525 0 -0.2279 0 -0.0599 0 -0.0111 0 -0.1182 0 -0.1579 0 -0.0037 0 -0.3679 0 -0.118 0 -0.0017 0 -0.1258 0 -0.0771 -0.0855 0 0.0855 -0.2877 0 -0.1633 0 -0.221 0c-0.0657,0.0132 -0.1334,0.0199 -0.2028,0.0199 -0.1128,0 -0.2173,-0.0192 -0.3136,-0.0575 -0.0248,-0.0099 -0.0488,-0.0209 -0.0718,-0.0331l0 0.0707 -0.2877 0 -0.1526 0 -0.2877 0 0 -0.2037 -0.0445 0.07 -0.0849 0.1337 -0.1579 0 -0.0037 0 -0.3679 0 -0.074 0 -0.0457 0 -0.1068 0 -0.2878 0 0 -0.2037 -0.0444 0.07 -0.085 0.1337 -0.1578 0 -0.0037 0 -0.368 0 -0.0739 0 -0.0458 0 -0.1196 0 -0.2877 0 0 -0.2014 -0.0065 0.0085 -0.0011 0.0022c-0.0519,0.0654 -0.1128,0.1156 -0.1825,0.1503 -0.0724,0.0361 -0.1504,0.0542 -0.2339,0.0542 -0.0277,0 -0.0568,-0.0021 -0.087,-0.0063 -0.0301,-0.0042 -0.0592,-0.0112 -0.0873,-0.0209l0 0.0134 -0.2878 0 -0.1175 0 -0.0458 0 -0.242 0 -0.0457 0 -0.1176 0 -0.2877 0 0 -0.2877 0 -0.1985 -0.0291 0 0 0.1985 0 0.2877 -0.2877 0 -0.1075 0 -0.0558 0 -0.232 0 -0.0558 0 -0.0655 0 -0.2146 0zm2.2795 -0.9392l-0.0874 0 0 0.2093 0.043 0.0121c0.016,-0.0579 0.0309,-0.1317 0.0444,-0.2214zm0.054 0.3914l0.0002 -0.0003 -0.0003 0.0002 0.0001 0.0001zm4.0654 -0.3757l-0.0034 -0.0014c-0.011,-0.0044 -0.0225,-0.0084 -0.0343,-0.012 -0.0126,-0.0038 -0.026,-0.0074 -0.0402,-0.0105l-0.0011 0c-0.0194,-0.0044 -0.0361,-0.0066 -0.0503,-0.0066 -0.0171,0 -0.0172,-0.0107 -0.0206,-0.0064 -0.0135,0.0173 -0.0203,0.0633 -0.0203,0.1381 0,0.0433 0.0033,0.0775 0.0099,0.1026 0.0023,0.0089 0.0045,0.0159 0.0066,0.0211 0.0034,0.0001 0.0079,0.0002 0.0136,0.0002 0.0274,0 0.0535,-0.0027 0.0782,-0.0079 0.021,-0.0044 0.0417,-0.0101 0.0619,-0.0171l0 -0.2001zm-0.1495 0.2331l0 0.0001 0.0001 0 -0.0001 -0.0001zm1.883 -0.9593l-0.0628 0.0701 0 0.1273 0.0434 -0.0684 0.0525 -0.0825 -0.0331 -0.0465zm-0.0645 1.5267l0.0512 0.0568 0 -0.1375 -0.0444 0.07 -0.0068 0.0107zm2.0262 -1.4085l-0.2359 0.3311 -0.2564 0.36 0.2759 0.3863 0.2164 0.3031 0 -0.1367 0 -1.079 0 -0.1648zm1.5859 0.7035c0,0.0458 0.0036,0.0821 0.0106,0.1089 0.003,0.0113 0.006,0.0199 0.0091,0.026 0.0041,0.0002 0.0103,0.0004 0.0186,0.0004 0.0088,0 0.0155,-0.0003 0.0199,-0.001 0.0027,-0.0056 0.0055,-0.0138 0.0083,-0.0247 0.0071,-0.0269 0.0106,-0.0634 0.0106,-0.1096 0,-0.0455 -0.0035,-0.0816 -0.0106,-0.1082 -0.0025,-0.0096 -0.0053,-0.0172 -0.0082,-0.0228 -0.005,-0.0004 -0.0124,-0.0007 -0.0221,-0.0007 -0.0083,0 -0.0148,0.0002 -0.0194,0.0005 -0.0021,0.005 -0.0043,0.0117 -0.0065,0.0201 -0.0068,0.0265 -0.0103,0.0635 -0.0103,0.1111zm3.1189 -0.1317c-0.0059,0.0001 -0.0112,0.0002 -0.0158,0.0005 -0.0058,0.025 -0.009,0.0566 -0.0095,0.0945l0.0011 0 0 0.0367c0,0.0548 0.0037,0.0981 0.0111,0.1298l0.0012 0.0051c0.0027,0.0001 0.0056,0.0002 0.0087,0.0003 0.0034,-0.0077 0.0067,-0.018 0.01,-0.0308 0.0072,-0.0284 0.0109,-0.064 0.0109,-0.1065 0,-0.0464 -0.0033,-0.0822 -0.0098,-0.1075l-0.0011 0c-0.0023,-0.009 -0.0046,-0.0164 -0.0068,-0.0221zm1.7154 0.9796c-0.1128,0 -0.2173,-0.0192 -0.3136,-0.0575 -0.1039,-0.0413 -0.1919,-0.1026 -0.264,-0.1837 -0.07,-0.0784 -0.1219,-0.1717 -0.1559,-0.2796 -0.0304,-0.0966 -0.0455,-0.2031 -0.0455,-0.3194 0,-0.1183 0.0153,-0.2268 0.046,-0.3254 0.0336,-0.1079 0.0861,-0.2022 0.1574,-0.2829 0.0735,-0.0832 0.1627,-0.1457 0.2673,-0.1873 0.0977,-0.0389 0.2041,-0.0584 0.319,-0.0584 0.0322,0 0.0682,0.0022 0.1079,0.0065 0.0306,0.0033 0.0603,0.0078 0.0891,0.0134l0.2161 0 0.9056 0 0.2877 0 0 0.0468c0.0344,-0.0126 0.0673,-0.0229 0.0985,-0.0308l0.0002 0.0008c0.0424,-0.011 0.0852,-0.0194 0.1286,-0.025 0.0488,-0.0064 0.093,-0.0096 0.1326,-0.0096 0.0914,0 0.1747,0.0112 0.2499,0.0337 0.0255,0.0077 0.0499,0.0166 0.0733,0.0268l0 -0.0427 0.2877 0 0.1633 0 0.2878 0 0 0.2877 0 0.1642 0.029 0 0 -0.1642 0 -0.2877 0.2878 0 0.1175 0 0.0458 0 0.242 0 0.0457 0 0.1078 0 0.2878 0 0 0.2021 0.0434 -0.0684 0.085 -0.1337 0.1578 0 0.0036 0 0.3587 0 0.0778 0c0.0287,-0.0055 0.0582,-0.0099 0.0884,-0.0132 0.04,-0.0044 0.0764,-0.0067 0.109,-0.0067 0.1176,0 0.2252,0.0185 0.3228,0.0553 0.1029,0.0388 0.1908,0.0968 0.2635,0.1737l0.0147 -0.2091 0.2677 0 0.6311 0 0.2877 0 0 0.0725c0.0182,-0.0102 0.037,-0.0195 0.0563,-0.0281 0.0961,-0.0428 0.1999,-0.0643 0.3113,-0.0643 0.1049,0 0.2022,0.0187 0.2917,0.0559 0.0113,0.0047 0.0225,0.0098 0.0335,0.0151l0 -0.0511 0.124 0c-0.0106,-0.0438 -0.0174,-0.0906 -0.0204,-0.1403l-0.018 -0.3046 0.3047 0 0.1535 0 0.1633 0 0.1012 0 0.1549 0 0.1546 0 0.1837 0 0.0924 0 0.0346 0 -0.0241 0.309c-0.0037,0.0476 -0.0113,0.0928 -0.0228,0.1359l0.125 0 0 0.2877 0 1.079 0 0.2877 -0.2877 0 -0.1526 0 -0.2877 0 0 -0.2037 -0.0444 0.07 -0.085 0.1337 -0.1578 0 -0.0037 0 -0.368 0 -0.1197 0 0 -0.012c-0.0126,0.0031 -0.0252,0.006 -0.0379,0.0086 -0.0404,0.0085 -0.0804,0.0145 -0.1198,0.018 -0.0392,0.0035 -0.081,0.0053 -0.1252,0.0053 -0.1139,0 -0.2197,-0.019 -0.3174,-0.0568 -0.0322,-0.0124 -0.063,-0.0268 -0.0925,-0.0431l0 0.08 -0.2877 0 -0.1654 0 -0.2877 0 0 -0.2014 -0.0065 0.0085 -0.0012 0.0022c-0.0519,0.0654 -0.1127,0.1156 -0.1824,0.1503 -0.0724,0.0361 -0.1504,0.0542 -0.2339,0.0542 -0.0278,0 -0.0568,-0.0021 -0.087,-0.0063 -0.0338,-0.0047 -0.0664,-0.0129 -0.0977,-0.0246l-0.095 -0.0352c-0.0143,0.0062 -0.0288,0.012 -0.0437,0.0175 -0.0993,0.0364 -0.2086,0.0547 -0.3279,0.0547 -0.0735,0 -0.143,-0.0066 -0.2085,-0.0197l-0.0008 -0.0002 -0.196 0 -0.1525 0 -0.2878 0 0 -0.2037 -0.0444 0.07 -0.085 0.1337 -0.1578 0 -0.0037 0 -0.368 0 -0.0739 0 -0.0458 0 -0.1175 0 -0.2878 0 0 -0.2877 0 -0.1985 -0.029 0 0 0.1985 0 0.2877 -0.2878 0 -0.1075 0 -0.0558 0 -0.2319 0 -0.0558 0 -0.0655 0 -0.2146 0c-0.0087,0.0019 -0.0175,0.0036 -0.0265,0.0052 -0.0541,0.0098 -0.1077,0.0147 -0.1605,0.0147 -0.0772,0 -0.1492,-0.01 -0.216,-0.03l0 0.0101 -0.2877 0 -0.1654 0 -0.2877 0 0 -0.2877 0 -0.6495 -0.0015 0 0 0.6495 0 0.2877 -0.2877 0 -0.1633 0 -0.221 0c-0.0657,0.0132 -0.1334,0.0199 -0.2028,0.0199zm0.136 -0.9434l-0.0034 -0.0014c-0.011,-0.0044 -0.0225,-0.0084 -0.0343,-0.012 -0.0126,-0.0038 -0.026,-0.0074 -0.0402,-0.0105l-0.0011 0c-0.0194,-0.0044 -0.0361,-0.0066 -0.0503,-0.0066 -0.0171,0 -0.0172,-0.0107 -0.0206,-0.0064 -0.0135,0.0173 -0.0203,0.0633 -0.0203,0.1381 0,0.0433 0.0033,0.0775 0.0099,0.1026 0.0023,0.0089 0.0045,0.0159 0.0066,0.0211 0.0034,0.0001 0.0079,0.0002 0.0136,0.0002 0.0274,0 0.0535,-0.0027 0.0782,-0.0079 0.021,-0.0044 0.0417,-0.0101 0.0619,-0.0171l0 -0.2001zm-0.1495 0.2331l0 0.0001 0.0001 0 -0.0001 -0.0001z"/>
   <polygon id="_698827296" class="fil1" points="31.0739,17.7836 30.9106,17.7836 30.9106,16.7047 31.8161,16.7047 31.8161,17.7836 31.6508,17.7836 31.6508,16.8465 31.0739,16.8465 "/>
   <polygon id="_6988272961" class="fil1" points="32.2116,16.7047 32.2116,17.3888 32.2046,17.5679 32.2015,17.624 32.7855,16.7047 32.9891,16.7047 32.9891,17.7836 32.8366,17.7836 32.8366,17.124 32.8396,16.994 32.8443,16.8663 32.2617,17.7836 32.0581,17.7836 32.0581,16.7047 "/>
   <polygon id="_69882729612" class="fil1" points="33.9585,16.8445 33.6081,16.8445 33.6081,17.7836 33.4444,17.7836 33.4444,16.8445 33.098,16.8445 33.098,16.7047 33.9585,16.7047 "/>
   <path id="_698827296123" class="fil1" d="M34.9786 17.2433c0,0.1757 -0.0443,0.3132 -0.1327,0.4119 -0.0887,0.0988 -0.211,0.1482 -0.3672,0.1482 -0.0965,0 -0.1821,-0.0228 -0.2571,-0.0682 -0.0746,-0.045 -0.1324,-0.1102 -0.173,-0.1949 -0.041,-0.0846 -0.0612,-0.1838 -0.0612,-0.297 0,-0.1761 0.044,-0.3131 0.1321,-0.4113 0.0877,-0.0981 0.21,-0.1471 0.3659,-0.1471 0.1512,0 0.2708,0.0504 0.3598,0.1508 0.0891,0.1005 0.1334,0.2363 0.1334,0.4076zm-0.8218 0c0,0.1378 0.0275,0.2426 0.0826,0.3148 0.0551,0.0723 0.1361,0.1082 0.2433,0.1082 0.1068,0 0.1882,-0.0359 0.2436,-0.1075 0.0554,-0.0719 0.083,-0.1771 0.083,-0.3155 0,-0.1374 -0.0276,-0.2416 -0.083,-0.3128 -0.0554,-0.0709 -0.1374,-0.1065 -0.2456,-0.1065 -0.1072,0 -0.1878,0.0349 -0.2423,0.1052 -0.0544,0.0702 -0.0816,0.175 -0.0816,0.3141z"/>
   <path id="_6988272961234" class="fil1" d="M35.7206 17.626l0.0302 -0.0914 0.0424 -0.1162 0.2926 -0.7117 0.2077 0 0 1.0769 -0.1448 0 0 -0.8907 -0.0199 0.0571 -0.0568 0.1505 -0.2788 0.6831 -0.1368 0 -0.2785 -0.6851c-0.0346,-0.088 -0.0588,-0.1566 -0.0719,-0.2056l0 0.8907 -0.1455 0 0 -1.0769 0.1996 0 0.2825 0.6841c0.0283,0.0723 0.0541,0.1505 0.078,0.2352z"/>
   <polygon id="_69882729612345" class="fil1" points="36.7004,16.7047 36.7004,17.1566 37.3048,17.1566 37.3048,16.7047 37.4681,16.7047 37.4681,17.7836 37.3048,17.7836 37.3048,17.2974 36.7004,17.2974 36.7004,17.7836 36.5371,17.7836 36.5371,16.7047 "/>
   <polygon id="_698827296123456" class="fil1" points="37.8636,16.7047 37.8636,17.3888 37.8566,17.5679 37.8535,17.624 38.4375,16.7047 38.6411,16.7047 38.6411,17.7836 38.4886,17.7836 38.4886,17.124 38.4916,16.994 38.4963,16.8663 37.9137,17.7836 37.7101,17.7836 37.7101,16.7047 "/>
   <polygon id="_6988272961234567" class="fil1" points="39.5121,16.7047 39.6912,16.7047 39.2255,17.2255 39.7295,17.7836 39.5386,17.7836 39.0464,17.2373 39.0464,17.7836 38.8831,17.7836 38.8831,16.7047 39.0464,16.7047 39.0464,17.2295 "/>
   <path id="_69882729612345678" class="fil1" d="M41.1164 17.7836l-0.0322 -0.1536 -0.0081 0c-0.0537,0.0676 -0.1075,0.1133 -0.1609,0.1375 -0.0534,0.0238 -0.1203,0.0359 -0.2003,0.0359 -0.1068,0 -0.1908,-0.0275 -0.2516,-0.083 -0.0605,-0.0551 -0.0911,-0.1334 -0.0911,-0.2352 0,-0.2177 0.1744,-0.3319 0.5228,-0.3424l0.1831 -0.006 0 -0.0669c0,-0.0846 -0.0181,-0.1471 -0.0547,-0.1875 -0.0363,-0.0403 -0.0944,-0.0604 -0.1748,-0.0604 -0.0897,0 -0.1915,0.0275 -0.305,0.0826l-0.0501 -0.125c0.0531,-0.0289 0.1112,-0.0517 0.1747,-0.0678 0.0632,-0.0165 0.1267,-0.0249 0.1905,-0.0249 0.1284,0 0.2238,0.0286 0.286,0.0857 0.0618,0.0571 0.093,0.1488 0.093,0.2748l0 0.7362 -0.1213 0zm-0.3689 -0.1152c0.1015,0 0.1815,-0.0279 0.2396,-0.0837 0.0581,-0.0558 0.087,-0.1337 0.087,-0.2342l0 -0.0974 -0.1633 0.0067c-0.13,0.0047 -0.2238,0.0248 -0.2809,0.0608 -0.0574,0.0356 -0.0863,0.0914 -0.0863,0.1666 0,0.0592 0.0178,0.1042 0.0537,0.1351 0.0356,0.0306 0.0857,0.0461 0.1502,0.0461z"/>
   <polygon id="_698827296123456789" class="fil1" points="41.6329,16.7047 41.6329,17.1566 42.2373,17.1566 42.2373,16.7047 42.4006,16.7047 42.4006,17.7836 42.2373,17.7836 42.2373,17.2974 41.6329,17.2974 41.6329,17.7836 41.4696,17.7836 41.4696,16.7047 "/>
   <polygon id="_69882729612345678910" class="fil1" points="43.2921,16.8445 42.8059,16.8445 42.8059,17.7836 42.6426,17.7836 42.6426,16.7047 43.2921,16.7047 "/>
   <path id="_6988272961234567891011" class="fil1" d="M44.1449 17.7836l-0.1653 0 0 -0.9391 -0.3239 0c-0.0178,0.2335 -0.0423,0.419 -0.0739,0.5561 -0.0313,0.1374 -0.0723,0.2375 -0.1223,0.3014 -0.0504,0.0635 -0.1143,0.0954 -0.1915,0.0954 -0.0357,0 -0.0639,-0.0041 -0.0847,-0.0118l0 -0.1213c0.0144,0.0041 0.0309,0.0061 0.049,0.0061 0.0756,0 0.1358,-0.0797 0.1805,-0.2393 0.0443,-0.1592 0.0783,-0.4015 0.1011,-0.7264l0.631 0 0 1.0789z"/>
   <polygon id="_698827296123456789101112" class="fil1" points="44.5404,16.7047 44.5404,17.3888 44.5334,17.5679 44.5303,17.624 45.1143,16.7047 45.3179,16.7047 45.3179,17.7836 45.1654,17.7836 45.1654,17.124 45.1684,16.994 45.1731,16.8663 44.5905,17.7836 44.3869,17.7836 44.3869,16.7047 "/>
   <path id="_69882729612345678910111213" class="fil1" d="M45.7134 16.7047l0 0.6841 -0.007 0.1791 -0.0031 0.0561 0.584 -0.9193 0.2036 0 0 1.0789 -0.1525 0 0 -0.6596 0.003 -0.13 0.0047 -0.1277 -0.5826 0.9173 -0.2036 0 0 -1.0789 0.1535 0zm0.3081 -0.1428c-0.1213,0 -0.21,-0.0235 -0.2657,-0.0702 -0.0558,-0.0471 -0.0871,-0.1243 -0.0934,-0.2319l0.1535 0c0.0057,0.0682 0.0235,0.116 0.0534,0.1428 0.0299,0.0269 0.082,0.0404 0.1563,0.0404 0.0675,0 0.1176,-0.0145 0.1498,-0.0434 0.0326,-0.0289 0.0524,-0.0756 0.0598,-0.1398l0.1546 0c-0.0081,0.1035 -0.041,0.1798 -0.0995,0.2289 -0.0584,0.0487 -0.1481,0.0732 -0.2688,0.0732z"/>
   <path id="_6988272961234567891011121314" class="fil1" d="M47.164 17.8034c-0.1563,0 -0.2772,-0.048 -0.3629,-0.1445 -0.0857,-0.0961 -0.1284,-0.2321 -0.1284,-0.4079 0,-0.1804 0.0434,-0.3198 0.1304,-0.4183 0.087,-0.0984 0.211,-0.1478 0.3716,-0.1478 0.0518,0 0.1038,0.0057 0.1556,0.0168 0.0517,0.0111 0.0924,0.0245 0.122,0.0393l-0.0501 0.1391c-0.0363,-0.0145 -0.0756,-0.0265 -0.1183,-0.036 -0.0427,-0.0097 -0.0803,-0.0144 -0.1132,-0.0144 -0.2191,0 -0.3286,0.1398 -0.3286,0.4193 0,0.1327 0.0265,0.2342 0.0803,0.3051 0.0534,0.0709 0.1327,0.1065 0.2375,0.1065 0.0901,0 0.1821,-0.0195 0.2766,-0.0581l0 0.1448c-0.0719,0.0373 -0.163,0.0561 -0.2725,0.0561z"/>
   <polygon id="_698827296123456789101112131415" class="fil1" points="48.2167,16.7047 48.3958,16.7047 47.9301,17.2255 48.4341,17.7836 48.2432,17.7836 47.751,17.2373 47.751,17.7836 47.5877,17.7836 47.5877,16.7047 47.751,16.7047 47.751,17.2295 "/>
   <polygon id="_69882729612345678910111213141516" class="fil1" points="48.6827,16.7047 48.6827,17.3888 48.6757,17.5679 48.6726,17.624 49.2566,16.7047 49.4602,16.7047 49.4602,17.7836 49.3077,17.7836 49.3077,17.124 49.3107,16.994 49.3154,16.8663 48.7328,17.7836 48.5292,17.7836 48.5292,16.7047 "/>
   <polygon id="_6988272961234567891011121314151617" class="fil1" points="49.9619,17.2312 49.5869,16.7047 49.7731,16.7047 50.0573,17.1183 50.3409,16.7047 50.525,16.7047 50.1501,17.2312 50.5445,17.7836 50.3597,17.7836 50.0573,17.3465 49.7522,17.7836 49.5671,17.7836 "/>
   <polygon id="_698827296123456789101112131415161718" class="fil1" points="51.9114,16.7047 52.0905,16.7047 51.6248,17.2255 52.1288,17.7836 51.9379,17.7836 51.4457,17.2373 51.4457,17.7836 51.2824,17.7836 51.2824,16.7047 51.4457,16.7047 51.4457,17.2295 "/>
   <path id="_69882729612345678910111213141516171819" class="fil1" d="M53.1146 17.2433c0,0.1757 -0.0443,0.3132 -0.1327,0.4119 -0.0887,0.0988 -0.211,0.1482 -0.3672,0.1482 -0.0965,0 -0.1821,-0.0228 -0.2571,-0.0682 -0.0746,-0.045 -0.1324,-0.1102 -0.173,-0.1949 -0.041,-0.0846 -0.0612,-0.1838 -0.0612,-0.297 0,-0.1761 0.044,-0.3131 0.1321,-0.4113 0.0877,-0.0981 0.21,-0.1471 0.3659,-0.1471 0.1512,0 0.2708,0.0504 0.3598,0.1508 0.0891,0.1005 0.1334,0.2363 0.1334,0.4076zm-0.8218 0c0,0.1378 0.0275,0.2426 0.0826,0.3148 0.0551,0.0723 0.1361,0.1082 0.2433,0.1082 0.1068,0 0.1882,-0.0359 0.2436,-0.1075 0.0554,-0.0719 0.083,-0.1771 0.083,-0.3155 0,-0.1374 -0.0276,-0.2416 -0.083,-0.3128 -0.0554,-0.0709 -0.1374,-0.1065 -0.2456,-0.1065 -0.1072,0 -0.1878,0.0349 -0.2423,0.1052 -0.0544,0.0702 -0.0816,0.175 -0.0816,0.3141z"/>
   <polygon id="_6988272961234567891011121314151617181920" class="fil1" points="53.9255,16.7047 54.1046,16.7047 53.6389,17.2255 54.1429,17.7836 53.952,17.7836 53.4598,17.2373 53.4598,17.7836 53.2965,17.7836 53.2965,16.7047 53.4598,16.7047 53.4598,17.2295 "/>
   <path id="_698827296123456789101112131415161718192021" class="fil1" d="M54.6533 17.8034c-0.1596,0 -0.2853,-0.0487 -0.3773,-0.1458 -0.0924,-0.0971 -0.1385,-0.2318 -0.1385,-0.4045 0,-0.1741 0.0427,-0.3122 0.1284,-0.4147 0.0857,-0.1021 0.2006,-0.1535 0.3451,-0.1535 0.135,0 0.2422,0.0447 0.3208,0.1334 0.079,0.089 0.1183,0.2063 0.1183,0.3521l0 0.1032 -0.7432 0c0.0033,0.1266 0.0353,0.2227 0.0957,0.2886 0.0609,0.0655 0.1465,0.0984 0.2567,0.0984 0.116,0 0.2309,-0.0242 0.3444,-0.0729l0 0.1458c-0.0578,0.0249 -0.1122,0.0427 -0.1639,0.0535 -0.0514,0.0107 -0.1136,0.0164 -0.1865,0.0164zm-0.0444 -0.9814c-0.0866,0 -0.1555,0.0282 -0.2069,0.0846 -0.0518,0.0565 -0.082,0.1344 -0.0911,0.2342l0.5638 0c0,-0.1031 -0.0228,-0.1821 -0.0689,-0.2368 -0.046,-0.0548 -0.1115,-0.082 -0.1969,-0.082z"/>
   <path id="_69882729612345678910111213141516171819202122" class="fil1" d="M55.7259 17.8034c-0.0703,0 -0.1344,-0.0131 -0.1926,-0.039 -0.0581,-0.0258 -0.1068,-0.0658 -0.1461,-0.1196l-0.0118 0c0.0077,0.0629 0.0118,0.1227 0.0118,0.1791l0 0.4439 -0.1633 0 0 -1.5631 0.1327 0 0.0228 0.1478 0.0078 0c0.042,-0.0591 0.0907,-0.1018 0.1465,-0.128 0.0557,-0.0262 0.1199,-0.0396 0.1922,-0.0396 0.1431,0 0.2533,0.049 0.3313,0.1468 0.0776,0.0978 0.1165,0.2349 0.1165,0.4116 0,0.1771 -0.0396,0.3148 -0.1186,0.413 -0.0793,0.0981 -0.1888,0.1471 -0.3292,0.1471zm-0.0239 -0.9794c-0.1102,0 -0.1898,0.0302 -0.2389,0.0914 -0.0494,0.0611 -0.0746,0.1582 -0.0759,0.2913l0 0.0366c0,0.1515 0.0252,0.2601 0.0759,0.3253 0.0504,0.0651 0.1314,0.0977 0.2429,0.0977 0.0934,0 0.1664,-0.0376 0.2191,-0.1132 0.0528,-0.0753 0.0793,-0.1794 0.0793,-0.3118 0,-0.1347 -0.0265,-0.2379 -0.0793,-0.3098 -0.0527,-0.0719 -0.127,-0.1075 -0.2231,-0.1075z"/>
   <path id="_6988272961234567891011121314151617181920212223" class="fil1" d="M57.4143 17.8034c-0.1563,0 -0.2772,-0.048 -0.3629,-0.1445 -0.0857,-0.0961 -0.1284,-0.2321 -0.1284,-0.4079 0,-0.1804 0.0434,-0.3198 0.1304,-0.4183 0.087,-0.0984 0.211,-0.1478 0.3716,-0.1478 0.0518,0 0.1038,0.0057 0.1556,0.0168 0.0517,0.0111 0.0924,0.0245 0.122,0.0393l-0.0501 0.1391c-0.0363,-0.0145 -0.0756,-0.0265 -0.1183,-0.036 -0.0427,-0.0097 -0.0803,-0.0144 -0.1132,-0.0144 -0.2191,0 -0.3286,0.1398 -0.3286,0.4193 0,0.1327 0.0265,0.2342 0.0803,0.3051 0.0534,0.0709 0.1327,0.1065 0.2375,0.1065 0.0901,0 0.1821,-0.0195 0.2766,-0.0581l0 0.1448c-0.0719,0.0373 -0.163,0.0561 -0.2725,0.0561z"/>
   <polygon id="_698827296123456789101112131415161718192021222324" class="fil1" points="58.0013,17.7836 57.838,17.7836 57.838,16.7047 58.7435,16.7047 58.7435,17.7836 58.5782,17.7836 58.5782,16.8465 58.0013,16.8465 "/>
   <path id="_69882729612345678910111213141516171819202122232425" class="fil1" d="M59.6487 17.7836l-0.0322 -0.1536 -0.0081 0c-0.0537,0.0676 -0.1075,0.1133 -0.1609,0.1375 -0.0534,0.0238 -0.1203,0.0359 -0.2003,0.0359 -0.1068,0 -0.1908,-0.0275 -0.2516,-0.083 -0.0605,-0.0551 -0.0911,-0.1334 -0.0911,-0.2352 0,-0.2177 0.1744,-0.3319 0.5228,-0.3424l0.1831 -0.006 0 -0.0669c0,-0.0846 -0.0181,-0.1471 -0.0547,-0.1875 -0.0363,-0.0403 -0.0944,-0.0604 -0.1748,-0.0604 -0.0897,0 -0.1915,0.0275 -0.305,0.0826l-0.0501 -0.125c0.0531,-0.0289 0.1112,-0.0517 0.1747,-0.0678 0.0632,-0.0165 0.1267,-0.0249 0.1905,-0.0249 0.1284,0 0.2238,0.0286 0.286,0.0857 0.0618,0.0571 0.093,0.1488 0.093,0.2748l0 0.7362 -0.1213 0zm-0.3689 -0.1152c0.1015,0 0.1815,-0.0279 0.2396,-0.0837 0.0581,-0.0558 0.087,-0.1337 0.087,-0.2342l0 -0.0974 -0.1633 0.0067c-0.13,0.0047 -0.2238,0.0248 -0.2809,0.0608 -0.0574,0.0356 -0.0863,0.0914 -0.0863,0.1666 0,0.0592 0.0178,0.1042 0.0537,0.1351 0.0356,0.0306 0.0857,0.0461 0.1502,0.0461z"/>
   <polygon id="_6988272961234567891011121314151617181920212223242526" class="fil1" points="60.1652,16.7047 60.1652,17.1566 60.7696,17.1566 60.7696,16.7047 60.9329,16.7047 60.9329,17.7836 60.7696,17.7836 60.7696,17.2974 60.1652,17.2974 60.1652,17.7836 60.0019,17.7836 60.0019,16.7047 "/>
   <polygon id="_698827296123456789101112131415161718192021222324252627" class="fil1" points="61.3284,16.7047 61.3284,17.3888 61.3214,17.5679 61.3183,17.624 61.9023,16.7047 62.1059,16.7047 62.1059,17.7836 61.9534,17.7836 61.9534,17.124 61.9564,16.994 61.9611,16.8663 61.3785,17.7836 61.1749,17.7836 61.1749,16.7047 "/>
   <path id="_69882729612345678910111213141516171819202122232425262728" class="fil1" d="M62.5112 17.8034c-0.1096,0 -0.2033,-0.0188 -0.2806,-0.0561l0 -0.1448c0.0393,0.0151 0.082,0.0286 0.128,0.0403 0.0461,0.0118 0.0988,0.0178 0.1586,0.0178 0.1139,0 0.2023,-0.0306 0.2641,-0.0917 0.0622,-0.0608 0.0964,-0.1522 0.1028,-0.2735l-0.5463 0 0 -0.1388 0.5443 0c-0.0104,-0.1129 -0.0433,-0.1955 -0.0988,-0.2483 -0.0554,-0.0524 -0.136,-0.0786 -0.2416,-0.0786 -0.0675,0 -0.1508,0.0178 -0.2499,0.0531l-0.0464 -0.1378c0.0359,-0.0171 0.081,-0.0312 0.1347,-0.0426 0.0538,-0.0115 0.1072,-0.0175 0.1596,-0.0175 0.168,0 0.2957,0.0484 0.3831,0.1445 0.087,0.0961 0.1307,0.2345 0.1307,0.4156 0,0.1767 -0.0474,0.3138 -0.1422,0.4116 -0.0947,0.0978 -0.2281,0.1468 -0.4001,0.1468z"/>
   <path id="_6988272961234567891011121314151617181920212223242526272829" class="fil1" d="M64.0393 17.7836l-0.1653 0 0 -0.9391 -0.3239 0c-0.0178,0.2335 -0.0423,0.419 -0.0739,0.5561 -0.0313,0.1374 -0.0723,0.2375 -0.1223,0.3014 -0.0504,0.0635 -0.1143,0.0954 -0.1915,0.0954 -0.0357,0 -0.0639,-0.0041 -0.0847,-0.0118l0 -0.1213c0.0144,0.0041 0.0309,0.0061 0.049,0.0061 0.0756,0 0.1358,-0.0797 0.1805,-0.2393 0.0443,-0.1592 0.0783,-0.4015 0.1011,-0.7264l0.631 0 0 1.0789z"/>
   <path id="_698827296123456789101112131415161718192021222324252627282930" class="fil1" d="M64.7369 17.8034c-0.1596,0 -0.2853,-0.0487 -0.3773,-0.1458 -0.0924,-0.0971 -0.1385,-0.2318 -0.1385,-0.4045 0,-0.1741 0.0427,-0.3122 0.1284,-0.4147 0.0857,-0.1021 0.2006,-0.1535 0.3451,-0.1535 0.135,0 0.2422,0.0447 0.3208,0.1334 0.079,0.089 0.1183,0.2063 0.1183,0.3521l0 0.1032 -0.7432 0c0.0033,0.1266 0.0353,0.2227 0.0957,0.2886 0.0609,0.0655 0.1465,0.0984 0.2567,0.0984 0.116,0 0.2309,-0.0242 0.3444,-0.0729l0 0.1458c-0.0578,0.0249 -0.1122,0.0427 -0.1639,0.0535 -0.0514,0.0107 -0.1136,0.0164 -0.1865,0.0164zm-0.0444 -0.9814c-0.0866,0 -0.1555,0.0282 -0.2069,0.0846 -0.0518,0.0565 -0.082,0.1344 -0.0911,0.2342l0.5638 0c0,-0.1031 -0.0228,-0.1821 -0.0689,-0.2368 -0.046,-0.0548 -0.1115,-0.082 -0.1969,-0.082z"/>
   <path id="_69882729612345678910111213141516171819202122232425262728293031" class="fil1" d="M65.461 16.7047l0 0.6841 -0.007 0.1791 -0.0031 0.0561 0.584 -0.9193 0.2036 0 0 1.0789 -0.1525 0 0 -0.6596 0.003 -0.13 0.0047 -0.1277 -0.5826 0.9173 -0.2036 0 0 -1.0789 0.1535 0zm0.3081 -0.1428c-0.1213,0 -0.21,-0.0235 -0.2657,-0.0702 -0.0558,-0.0471 -0.0871,-0.1243 -0.0934,-0.2319l0.1535 0c0.0057,0.0682 0.0235,0.116 0.0534,0.1428 0.0299,0.0269 0.082,0.0404 0.1563,0.0404 0.0675,0 0.1176,-0.0145 0.1498,-0.0434 0.0326,-0.0289 0.0524,-0.0756 0.0598,-0.1398l0.1546 0c-0.0081,0.1035 -0.041,0.1798 -0.0995,0.2289 -0.0584,0.0487 -0.1481,0.0732 -0.2688,0.0732z"/>
  </g>
</svg>
